<svg width="110" height="89" viewBox="0 0 110 89" fill="none" xmlns="http://www.w3.org/2000/svg">
<g opacity="0.7">
<path opacity="0.11" d="M27.1243 68.6613C27.1979 68.6134 27.2189 68.5148 27.1711 68.441C27.1233 68.3672 27.0248 68.3462 26.9512 68.3941C26.8775 68.442 26.8565 68.5406 26.9043 68.6144C26.9521 68.6882 27.0506 68.7092 27.1243 68.6613Z" fill="white"/>
<path d="M28.0324 69.1149C28.0877 69.079 28.1034 69.0051 28.0675 68.9497C28.0317 68.8944 27.9579 68.8787 27.9026 68.9146C27.8474 68.9505 27.8317 69.0244 27.8675 69.0798C27.9034 69.1351 27.9772 69.1508 28.0324 69.1149Z" fill="white"/>
<path d="M29.3259 66.2828C29.3811 66.2469 29.3968 66.1729 29.361 66.1176C29.3252 66.0623 29.2513 66.0465 29.1961 66.0824C29.1408 66.1183 29.1251 66.1923 29.161 66.2476C29.1968 66.3029 29.2707 66.3187 29.3259 66.2828Z" fill="white"/>
<path d="M23.5721 69.8319C23.6274 69.796 23.6431 69.7221 23.6072 69.6667C23.5714 69.6114 23.4976 69.5957 23.4423 69.6316C23.3871 69.6675 23.3714 69.7414 23.4072 69.7968C23.4431 69.8521 23.5169 69.8678 23.5721 69.8319Z" fill="white"/>
<path opacity="0.11" d="M21.3098 73.5798C21.3834 73.5319 21.4044 73.4333 21.3566 73.3595C21.3088 73.2857 21.2103 73.2647 21.1366 73.3126C21.063 73.3605 21.042 73.4591 21.0898 73.5329C21.1376 73.6067 21.2361 73.6277 21.3098 73.5798Z" fill="white"/>
<path d="M19.0922 72.9334C19.129 72.9095 19.1394 72.8602 19.1156 72.8234C19.0917 72.7865 19.0425 72.776 19.0057 72.8C18.9689 72.8239 18.9584 72.8732 18.9823 72.91C19.0062 72.9469 19.0554 72.9574 19.0922 72.9334Z" fill="white"/>
<path d="M28.6103 71.3962C28.6471 71.3723 28.6576 71.323 28.6337 71.2862C28.6098 71.2493 28.5606 71.2388 28.5238 71.2627C28.487 71.2867 28.4766 71.3359 28.5005 71.3728C28.5243 71.4097 28.5735 71.4202 28.6103 71.3962Z" fill="white"/>
<path d="M43.145 61.9491C43.1818 61.9252 43.1923 61.8759 43.1684 61.839C43.1445 61.8022 43.0953 61.7917 43.0585 61.8156C43.0217 61.8395 43.0113 61.8888 43.0351 61.9257C43.059 61.9625 43.1082 61.973 43.145 61.9491Z" fill="white"/>
<path d="M48.0751 53.6187C48.1119 53.5948 48.1224 53.5455 48.0985 53.5087C48.0746 53.4718 48.0254 53.4613 47.9886 53.4852C47.9518 53.5092 47.9413 53.5584 47.9652 53.5953C47.9891 53.6322 48.0383 53.6427 48.0751 53.6187Z" fill="white"/>
<path d="M53.8328 56.803C53.8696 56.7791 53.8801 56.7298 53.8562 56.6929C53.8324 56.6561 53.7832 56.6456 53.7464 56.6695C53.7096 56.6934 53.6991 56.7427 53.723 56.7796C53.7468 56.8164 53.796 56.8269 53.8328 56.803Z" fill="white"/>
<path d="M5.32997 84.1579C5.36677 84.1339 5.37724 84.0847 5.35336 84.0478C5.32948 84.0109 5.28028 84.0005 5.24348 84.0244C5.20668 84.0483 5.19621 84.0976 5.22009 84.1344C5.24397 84.1713 5.29317 84.1818 5.32997 84.1579Z" fill="white"/>
<path opacity="0.11" d="M1.99402 81.2011C2.03082 81.1772 2.04129 81.1279 2.0174 81.0911C1.99352 81.0542 1.94433 81.0437 1.90753 81.0676C1.87073 81.0916 1.86025 81.1408 1.88413 81.1777C1.90802 81.2146 1.95721 81.2251 1.99402 81.2011Z" fill="white"/>
<path opacity="0.11" d="M0.12268 84.6011C0.159482 84.5772 0.169956 84.5279 0.146074 84.4911C0.122191 84.4542 0.0729983 84.4437 0.0361967 84.4677C-0.000604839 84.4916 -0.0110794 84.5408 0.0128034 84.5777C0.0366862 84.6146 0.0858787 84.6251 0.12268 84.6011Z" fill="white"/>
<path opacity="0.11" d="M4.91913 87.1773C4.95593 87.1533 4.9664 87.1041 4.94251 87.0672C4.91863 87.0303 4.86944 87.0198 4.83264 87.0438C4.79584 87.0677 4.78536 87.117 4.80925 87.1538C4.83313 87.1907 4.88232 87.2012 4.91913 87.1773Z" fill="white"/>
<path opacity="0.11" d="M19.0529 74.1925C19.0897 74.1686 19.1001 74.1193 19.0762 74.0824C19.0524 74.0456 19.0032 74.0351 18.9664 74.059C18.9296 74.0829 18.9191 74.1322 18.943 74.1691C18.9669 74.2059 19.0161 74.2164 19.0529 74.1925Z" fill="white"/>
<path opacity="0.11" d="M30.0355 73.8863C30.0723 73.8624 30.0828 73.8131 30.0589 73.7763C30.035 73.7394 29.9858 73.7289 29.949 73.7528C29.9122 73.7768 29.9017 73.826 29.9256 73.8629C29.9495 73.8998 29.9987 73.9103 30.0355 73.8863Z" fill="white"/>
<path opacity="0.11" d="M42.402 64.8985C42.4388 64.8745 42.4493 64.8252 42.4254 64.7884C42.4015 64.7515 42.3523 64.741 42.3155 64.765C42.2787 64.7889 42.2683 64.8382 42.2921 64.875C42.316 64.9119 42.3652 64.9224 42.402 64.8985Z" fill="white"/>
<path opacity="0.3" d="M7.31537 80.4949C7.35218 80.471 7.36265 80.4217 7.33877 80.3849C7.31488 80.348 7.26569 80.3375 7.22889 80.3614C7.19208 80.3854 7.18161 80.4347 7.2055 80.4715C7.22938 80.5084 7.27857 80.5189 7.31537 80.4949Z" fill="white"/>
<path d="M20.3129 66.9207C20.3497 66.8968 20.3602 66.8475 20.3363 66.8106C20.3124 66.7738 20.2632 66.7633 20.2264 66.7872C20.1896 66.8111 20.1791 66.8604 20.203 66.8973C20.2269 66.9341 20.2761 66.9446 20.3129 66.9207Z" fill="white"/>
<path d="M30.4915 60.1143C30.5283 60.0904 30.5388 60.0411 30.5149 60.0042C30.4911 59.9674 30.4419 59.9569 30.4051 59.9808C30.3683 60.0047 30.3578 60.054 30.3817 60.0909C30.4056 60.1277 30.4547 60.1382 30.4915 60.1143Z" fill="white"/>
<path d="M19.7587 76.0118C19.7955 75.9879 19.806 75.9386 19.7821 75.9017C19.7582 75.8649 19.709 75.8544 19.6722 75.8783C19.6354 75.9022 19.625 75.9515 19.6488 75.9884C19.6727 76.0252 19.7219 76.0357 19.7587 76.0118Z" fill="white"/>
<path opacity="0.3" d="M15.0919 79.0459C15.1287 79.022 15.1391 78.9727 15.1153 78.9359C15.0914 78.899 15.0422 78.8885 15.0054 78.9124C14.9686 78.9364 14.9581 78.9856 14.982 79.0225C15.0059 79.0594 15.0551 79.0699 15.0919 79.0459Z" fill="white"/>
<path opacity="0.11" d="M6.94399 78.4589C6.98079 78.435 6.99126 78.3857 6.96738 78.3489C6.9435 78.312 6.8943 78.3015 6.8575 78.3254C6.8207 78.3493 6.81023 78.3986 6.83411 78.4355C6.85799 78.4724 6.90718 78.4828 6.94399 78.4589Z" fill="white"/>
<path opacity="0.3" d="M22.5499 67.7439C22.5867 67.7199 22.5972 67.6707 22.5733 67.6338C22.5494 67.5969 22.5002 67.5865 22.4634 67.6104C22.4266 67.6343 22.4162 67.6836 22.44 67.7204C22.4639 67.7573 22.5131 67.7678 22.5499 67.7439Z" fill="white"/>
<path opacity="0.3" d="M21.7145 76.5445C21.7513 76.5206 21.7618 76.4713 21.7379 76.4345C21.714 76.3976 21.6649 76.3871 21.6281 76.411C21.5913 76.435 21.5808 76.4842 21.6047 76.5211C21.6285 76.558 21.6777 76.5685 21.7145 76.5445Z" fill="white"/>
<path opacity="0.3" d="M14.0795 82.4555C14.1163 82.4316 14.1268 82.3823 14.1029 82.3455C14.079 82.3086 14.0298 82.2981 13.993 82.322C13.9562 82.346 13.9458 82.3952 13.9696 82.4321C13.9935 82.469 14.0427 82.4795 14.0795 82.4555Z" fill="white"/>
<path opacity="0.3" d="M9.24967 79.2381C9.28647 79.2142 9.29695 79.1649 9.27306 79.128C9.24918 79.0912 9.19998 79.0807 9.16318 79.1046C9.12638 79.1285 9.11591 79.1778 9.13979 79.2147C9.16368 79.2515 9.21287 79.262 9.24967 79.2381Z" fill="white"/>
<path opacity="0.3" d="M50.5854 52.0823C50.6222 52.0583 50.6327 52.0091 50.6088 51.9722C50.5849 51.9353 50.5357 51.9248 50.4989 51.9488C50.4621 51.9727 50.4517 52.022 50.4756 52.0588C50.4994 52.0957 50.5486 52.1062 50.5854 52.0823Z" fill="white"/>
<path opacity="0.11" d="M38.0774 56.3209C38.1142 56.297 38.1246 56.2477 38.1008 56.2108C38.0769 56.174 38.0277 56.1635 37.9909 56.1874C37.9541 56.2113 37.9436 56.2606 37.9675 56.2975C37.9914 56.3343 38.0406 56.3448 38.0774 56.3209Z" fill="white"/>
<path opacity="0.11" d="M50.6464 56.1243C50.6832 56.1004 50.6936 56.0511 50.6698 56.0143C50.6459 55.9774 50.5967 55.9669 50.5599 55.9908C50.5231 56.0148 50.5126 56.064 50.5365 56.1009C50.5604 56.1378 50.6096 56.1483 50.6464 56.1243Z" fill="white"/>
<path opacity="0.3" d="M34.1676 67.6887C34.2413 67.6409 34.2622 67.5422 34.2144 67.4684C34.1666 67.3946 34.0681 67.3736 33.9945 67.4215C33.9208 67.4694 33.8999 67.5681 33.9477 67.6418C33.9955 67.7156 34.0939 67.7366 34.1676 67.6887Z" fill="white"/>
<path opacity="0.11" d="M36.8037 63.1294C36.8774 63.0815 36.8983 62.9829 36.8505 62.9091C36.8027 62.8353 36.7043 62.8143 36.6306 62.8622C36.5569 62.9101 36.536 63.0087 36.5838 63.0825C36.6316 63.1563 36.73 63.1773 36.8037 63.1294Z" fill="white"/>
<path d="M35.2564 60.8138C35.3116 60.7779 35.3273 60.704 35.2915 60.6486C35.2556 60.5933 35.1818 60.5776 35.1266 60.6135C35.0713 60.6494 35.0556 60.7233 35.0915 60.7787C35.1273 60.834 35.2011 60.8497 35.2564 60.8138Z" fill="white"/>
<path d="M35.1995 70.8158C35.2547 70.7799 35.2705 70.7059 35.2346 70.6506C35.1988 70.5953 35.1249 70.5795 35.0697 70.6154C35.0145 70.6513 34.9988 70.7253 35.0346 70.7806C35.0704 70.836 35.1443 70.8517 35.1995 70.8158Z" fill="white"/>
<path d="M58.1988 57.7632C58.254 57.7273 58.2697 57.6534 58.2339 57.598C58.1981 57.5427 58.1242 57.527 58.069 57.5629C58.0138 57.5988 57.998 57.6727 58.0339 57.7281C58.0697 57.7834 58.1436 57.7991 58.1988 57.7632Z" fill="white"/>
<path d="M14.1955 84.7534C14.2508 84.7175 14.2665 84.6436 14.2306 84.5883C14.1948 84.5329 14.1209 84.5172 14.0657 84.5531C14.0105 84.589 13.9948 84.663 14.0306 84.7183C14.0665 84.7736 14.1403 84.7893 14.1955 84.7534Z" fill="white"/>
<path d="M4.33336 88.9808C4.3886 88.9449 4.40431 88.8709 4.36847 88.8156C4.33262 88.7603 4.25879 88.7445 4.20356 88.7804C4.14832 88.8163 4.1326 88.8903 4.16845 88.9456C4.20429 89.0009 4.27813 89.0167 4.33336 88.9808Z" fill="white"/>
<path d="M1.47123 87.047C1.52647 87.0111 1.54219 86.9371 1.50634 86.8818C1.4705 86.8265 1.39666 86.8107 1.34143 86.8466C1.28619 86.8825 1.27048 86.9565 1.30632 87.0118C1.34217 87.0671 1.416 87.0829 1.47123 87.047Z" fill="white"/>
<path d="M32.9212 64.2291C32.9765 64.1932 32.9922 64.1192 32.9563 64.0639C32.9205 64.0086 32.8467 63.9928 32.7914 64.0287C32.7362 64.0646 32.7205 64.1386 32.7563 64.1939C32.7922 64.2492 32.866 64.265 32.9212 64.2291Z" fill="white"/>
<path d="M24.5234 76.7113C24.5787 76.6754 24.5944 76.6015 24.5586 76.5461C24.5227 76.4908 24.4489 76.4751 24.3936 76.511C24.3384 76.5469 24.3227 76.6208 24.3585 76.6762C24.3944 76.7315 24.4682 76.7472 24.5234 76.7113Z" fill="white"/>
<path d="M43.1844 68.6628C43.2396 68.6269 43.2554 68.5529 43.2195 68.4976C43.1837 68.4423 43.1098 68.4265 43.0546 68.4625C42.9994 68.4984 42.9837 68.5723 43.0195 68.6276C43.0553 68.683 43.1292 68.6987 43.1844 68.6628Z" fill="white"/>
<path d="M57.9079 52.637C57.9631 52.6011 57.9788 52.5272 57.943 52.4719C57.9071 52.4165 57.8333 52.4008 57.7781 52.4367C57.7228 52.4726 57.7071 52.5466 57.7429 52.6019C57.7788 52.6572 57.8526 52.673 57.9079 52.637Z" fill="white"/>
<path d="M57.1275 47.9242C57.1827 47.8883 57.1984 47.8143 57.1626 47.759C57.1267 47.7036 57.0529 47.6879 56.9977 47.7238C56.9424 47.7597 56.9267 47.8337 56.9626 47.889C56.9984 47.9443 57.0722 47.9601 57.1275 47.9242Z" fill="white"/>
<path opacity="0.3" d="M40.8 57.3047C40.8737 57.2568 40.8946 57.1581 40.8468 57.0844C40.799 57.0106 40.7005 56.9896 40.6269 57.0375C40.5532 57.0853 40.5322 57.184 40.58 57.2578C40.6278 57.3316 40.7263 57.3526 40.8 57.3047Z" fill="white"/>
<path d="M37.7275 52.5638C37.8012 52.5159 37.8222 52.4172 37.7743 52.3435C37.7265 52.2697 37.6281 52.2487 37.5544 52.2966C37.4807 52.3444 37.4598 52.4431 37.5076 52.5169C37.5554 52.5907 37.6539 52.6117 37.7275 52.5638Z" fill="white"/>
<path d="M45.1855 56.542C45.2408 56.5061 45.2565 56.4321 45.2207 56.3768C45.1848 56.3215 45.111 56.3057 45.0557 56.3416C45.0005 56.3776 44.9848 56.4515 45.0206 56.5068C45.0565 56.5622 45.1303 56.5779 45.1855 56.542Z" fill="white"/>
<path opacity="0.3" d="M46.7307 51.8355C46.8043 51.7876 46.8253 51.6889 46.7775 51.6151C46.7297 51.5414 46.6312 51.5204 46.5575 51.5682C46.4839 51.6161 46.4629 51.7148 46.5107 51.7886C46.5585 51.8624 46.657 51.8834 46.7307 51.8355Z" fill="white"/>
<path opacity="0.3" d="M56.4021 52.2861C56.4758 52.2382 56.4968 52.1396 56.449 52.0658C56.4011 51.992 56.3027 51.971 56.229 52.0189C56.1553 52.0668 56.1344 52.1654 56.1822 52.2392C56.23 52.313 56.3285 52.334 56.4021 52.2861Z" fill="white"/>
<path opacity="0.3" d="M48.6885 57.4904C48.7622 57.4425 48.7832 57.3439 48.7354 57.2701C48.6876 57.1963 48.5891 57.1753 48.5154 57.2232C48.4418 57.2711 48.4208 57.3697 48.4686 57.4435C48.5164 57.5173 48.6149 57.5383 48.6885 57.4904Z" fill="white"/>
<path opacity="0.3" d="M11.1585 83.5012C11.2321 83.4533 11.2531 83.3547 11.2053 83.2809C11.1575 83.2071 11.059 83.1861 10.9853 83.234C10.9117 83.2819 10.8907 83.3805 10.9385 83.4543C10.9863 83.5281 11.0848 83.5491 11.1585 83.5012Z" fill="white"/>
<path opacity="0.3" d="M3.37806 83.3386C3.45173 83.2907 3.47269 83.192 3.42489 83.1182C3.37708 83.0444 3.27861 83.0234 3.20494 83.0713C3.13128 83.1192 3.11031 83.2179 3.15812 83.2916C3.20593 83.3654 3.3044 83.3864 3.37806 83.3386Z" fill="white"/>
<path opacity="0.11" d="M52.3704 52.0601C52.4441 52.0122 52.465 51.9135 52.4172 51.8397C52.3694 51.7659 52.2709 51.7449 52.1973 51.7928C52.1236 51.8407 52.1026 51.9394 52.1504 52.0132C52.1982 52.0869 52.2967 52.1079 52.3704 52.0601Z" fill="white"/>
<path opacity="0.3" d="M11.4415 74.8706C11.5152 74.8227 11.5362 74.7241 11.4884 74.6503C11.4406 74.5765 11.3421 74.5555 11.2684 74.6034C11.1947 74.6513 11.1738 74.7499 11.2216 74.8237C11.2694 74.8975 11.3679 74.9185 11.4415 74.8706Z" fill="white"/>
<path opacity="0.11" d="M8.77598 74.705C8.84965 74.6571 8.87061 74.5585 8.8228 74.4847C8.775 74.4109 8.67652 74.3899 8.60286 74.4378C8.52919 74.4857 8.50823 74.5843 8.55603 74.6581C8.60384 74.7319 8.70232 74.7529 8.77598 74.705Z" fill="white"/>
<path opacity="0.3" d="M11.011 79.326C11.0847 79.2781 11.1057 79.1794 11.0579 79.1057C11.0101 79.0319 10.9116 79.0109 10.8379 79.0587C10.7642 79.1066 10.7433 79.2053 10.7911 79.2791C10.8389 79.3529 10.9374 79.3739 11.011 79.326Z" fill="white"/>
<path d="M15.1332 76.5514C15.1884 76.5155 15.2041 76.4415 15.1683 76.3862C15.1324 76.3308 15.0586 76.3151 15.0034 76.351C14.9481 76.3869 14.9324 76.4609 14.9683 76.5162C15.0041 76.5715 15.0779 76.5873 15.1332 76.5514Z" fill="white"/>
<path opacity="0.11" d="M36.9668 33.2822C37.0404 33.2344 37.0614 33.1357 37.0136 33.0619C36.9658 32.9881 36.8673 32.9671 36.7937 33.015C36.72 33.0629 36.699 33.1616 36.7468 33.2353C36.7946 33.3091 36.8931 33.3301 36.9668 33.2822Z" fill="white"/>
<path d="M37.8769 33.7344C37.9321 33.6985 37.9478 33.6245 37.912 33.5692C37.8762 33.5139 37.8023 33.4981 37.7471 33.5341C37.6919 33.57 37.6761 33.6439 37.712 33.6992C37.7478 33.7546 37.8217 33.7703 37.8769 33.7344Z" fill="white"/>
<path d="M39.1684 30.9027C39.2236 30.8668 39.2393 30.7929 39.2035 30.7376C39.1677 30.6822 39.0938 30.6665 39.0386 30.7024C38.9834 30.7383 38.9676 30.8123 39.0035 30.8676C39.0393 30.9229 39.1132 30.9387 39.1684 30.9027Z" fill="white"/>
<path d="M33.4146 34.4529C33.4699 34.417 33.4856 34.343 33.4498 34.2877C33.4139 34.2324 33.3401 34.2166 33.2848 34.2525C33.2296 34.2884 33.2139 34.3624 33.2497 34.4177C33.2856 34.4731 33.3594 34.4888 33.4146 34.4529Z" fill="white"/>
<path opacity="0.11" d="M31.1521 38.2005C31.2258 38.1527 31.2467 38.054 31.1989 37.9802C31.1511 37.9064 31.0526 37.8854 30.979 37.9333C30.9053 37.9812 30.8843 38.0799 30.9322 38.1536C30.98 38.2274 31.0784 38.2484 31.1521 38.2005Z" fill="white"/>
<path d="M28.9349 37.5544C28.9717 37.5305 28.9821 37.4812 28.9583 37.4443C28.9344 37.4075 28.8852 37.397 28.8484 37.4209C28.8116 37.4448 28.8011 37.4941 28.825 37.531C28.8489 37.5678 28.8981 37.5783 28.9349 37.5544Z" fill="white"/>
<path d="M38.4548 36.0167C38.4916 35.9928 38.5021 35.9435 38.4782 35.9066C38.4543 35.8698 38.4051 35.8593 38.3683 35.8832C38.3315 35.9071 38.321 35.9564 38.3449 35.9933C38.3688 36.0301 38.418 36.0406 38.4548 36.0167Z" fill="white"/>
<path d="M52.9876 26.5688C53.0244 26.5449 53.0348 26.4956 53.011 26.4587C52.9871 26.4219 52.9379 26.4114 52.9011 26.4353C52.8643 26.4592 52.8538 26.5085 52.8777 26.5454C52.9016 26.5822 52.9508 26.5927 52.9876 26.5688Z" fill="white"/>
<path d="M57.9178 18.2394C57.9546 18.2155 57.9651 18.1662 57.9412 18.1294C57.9173 18.0925 57.8681 18.082 57.8313 18.1059C57.7945 18.1299 57.784 18.1791 57.8079 18.216C57.8318 18.2529 57.881 18.2634 57.9178 18.2394Z" fill="white"/>
<path d="M63.6773 21.424C63.7141 21.4 63.7246 21.3508 63.7007 21.3139C63.6768 21.277 63.6276 21.2665 63.5908 21.2905C63.554 21.3144 63.5436 21.3637 63.5674 21.4005C63.5913 21.4374 63.6405 21.4479 63.6773 21.424Z" fill="white"/>
<path d="M15.1723 48.7773C15.2091 48.7534 15.2196 48.7041 15.1957 48.6673C15.1718 48.6304 15.1226 48.6199 15.0858 48.6439C15.049 48.6678 15.0386 48.7171 15.0625 48.7539C15.0863 48.7908 15.1355 48.8013 15.1723 48.7773Z" fill="white"/>
<path opacity="0.11" d="M11.8366 45.8218C11.8734 45.7979 11.8839 45.7486 11.86 45.7118C11.8361 45.6749 11.7869 45.6644 11.7501 45.6883C11.7133 45.7123 11.7028 45.7615 11.7267 45.7984C11.7506 45.8353 11.7998 45.8458 11.8366 45.8218Z" fill="white"/>
<path opacity="0.11" d="M9.96529 49.2206C10.0021 49.1967 10.0126 49.1474 9.98869 49.1106C9.9648 49.0737 9.91561 49.0632 9.87881 49.0871C9.84201 49.111 9.83153 49.1603 9.85542 49.1972C9.8793 49.2341 9.92849 49.2445 9.96529 49.2206Z" fill="white"/>
<path opacity="0.11" d="M14.7616 51.7982C14.7984 51.7743 14.8089 51.725 14.785 51.6881C14.7611 51.6513 14.7119 51.6408 14.6751 51.6647C14.6383 51.6886 14.6279 51.7379 14.6518 51.7748C14.6756 51.8116 14.7248 51.8221 14.7616 51.7982Z" fill="white"/>
<path opacity="0.11" d="M28.8973 38.812C28.9341 38.7881 28.9446 38.7388 28.9207 38.7019C28.8968 38.6651 28.8476 38.6546 28.8108 38.6785C28.774 38.7024 28.7636 38.7517 28.7874 38.7886C28.8113 38.8254 28.8605 38.8359 28.8973 38.812Z" fill="white"/>
<path opacity="0.11" d="M39.88 38.5073C39.9168 38.4834 39.9272 38.4341 39.9034 38.3972C39.8795 38.3604 39.8303 38.3499 39.7935 38.3738C39.7567 38.3977 39.7462 38.447 39.7701 38.4839C39.794 38.5207 39.8432 38.5312 39.88 38.5073Z" fill="white"/>
<path opacity="0.11" d="M52.2465 29.5189C52.2833 29.495 52.2938 29.4457 52.2699 29.4088C52.246 29.372 52.1968 29.3615 52.16 29.3854C52.1232 29.4093 52.1127 29.4586 52.1366 29.4955C52.1605 29.5323 52.2097 29.5428 52.2465 29.5189Z" fill="white"/>
<path opacity="0.3" d="M17.158 45.1144C17.1948 45.0905 17.2053 45.0412 17.1814 45.0044C17.1576 44.9675 17.1084 44.957 17.0716 44.9809C17.0348 45.0048 17.0243 45.0541 17.0482 45.091C17.072 45.1279 17.1212 45.1383 17.158 45.1144Z" fill="white"/>
<path d="M30.1554 31.5417C30.1922 31.5177 30.2027 31.4685 30.1788 31.4316C30.1549 31.3947 30.1057 31.3842 30.0689 31.4082C30.0321 31.4321 30.0216 31.4814 30.0455 31.5182C30.0694 31.5551 30.1186 31.5656 30.1554 31.5417Z" fill="white"/>
<path d="M40.3341 24.7343C40.3709 24.7104 40.3813 24.6611 40.3574 24.6242C40.3336 24.5873 40.2844 24.5769 40.2476 24.6008C40.2108 24.6247 40.2003 24.674 40.2242 24.7108C40.2481 24.7477 40.2972 24.7582 40.3341 24.7343Z" fill="white"/>
<path d="M29.6011 40.6313C29.6379 40.6074 29.6483 40.5581 29.6245 40.5212C29.6006 40.4844 29.5514 40.4739 29.5146 40.4978C29.4778 40.5217 29.4673 40.571 29.4912 40.6079C29.5151 40.6447 29.5643 40.6552 29.6011 40.6313Z" fill="white"/>
<path opacity="0.3" d="M24.9344 43.6654C24.9712 43.6415 24.9816 43.5922 24.9578 43.5553C24.9339 43.5185 24.8847 43.508 24.8479 43.5319C24.8111 43.5558 24.8006 43.6051 24.8245 43.642C24.8484 43.6788 24.8976 43.6893 24.9344 43.6654Z" fill="white"/>
<path opacity="0.11" d="M16.7863 43.0786C16.8232 43.0547 16.8336 43.0054 16.8097 42.9686C16.7859 42.9317 16.7367 42.9212 16.6999 42.9451C16.6631 42.9691 16.6526 43.0183 16.6765 43.0552C16.7004 43.0921 16.7495 43.1026 16.7863 43.0786Z" fill="white"/>
<path opacity="0.3" d="M32.3944 32.3638C32.4312 32.3399 32.4417 32.2906 32.4178 32.2538C32.3939 32.2169 32.3447 32.2064 32.3079 32.2303C32.2711 32.2543 32.2606 32.3035 32.2845 32.3404C32.3084 32.3773 32.3576 32.3878 32.3944 32.3638Z" fill="white"/>
<path opacity="0.3" d="M31.557 41.164C31.5938 41.1401 31.6043 41.0908 31.5804 41.0539C31.5565 41.0171 31.5073 41.0066 31.4705 41.0305C31.4337 41.0544 31.4232 41.1037 31.4471 41.1406C31.471 41.1774 31.5202 41.1879 31.557 41.164Z" fill="white"/>
<path opacity="0.3" d="M23.924 47.075C23.9608 47.0511 23.9713 47.0018 23.9474 46.9649C23.9235 46.9281 23.8743 46.9176 23.8375 46.9415C23.8007 46.9654 23.7902 47.0147 23.8141 47.0516C23.838 47.0884 23.8872 47.0989 23.924 47.075Z" fill="white"/>
<path opacity="0.3" d="M19.0922 43.8581C19.129 43.8341 19.1394 43.7849 19.1156 43.748C19.0917 43.7111 19.0425 43.7006 19.0057 43.7246C18.9689 43.7485 18.9584 43.7978 18.9823 43.8346C19.0062 43.8715 19.0554 43.882 19.0922 43.8581Z" fill="white"/>
<path opacity="0.3" d="M60.4278 16.703C60.4646 16.679 60.4751 16.6298 60.4512 16.5929C60.4273 16.556 60.3782 16.5455 60.3414 16.5695C60.3046 16.5934 60.2941 16.6427 60.318 16.6795C60.3418 16.7164 60.391 16.7269 60.4278 16.703Z" fill="white"/>
<path opacity="0.11" d="M47.9199 20.9419C47.9567 20.9179 47.9671 20.8687 47.9433 20.8318C47.9194 20.7949 47.8702 20.7844 47.8334 20.8084C47.7966 20.8323 47.7861 20.8816 47.81 20.9184C47.8339 20.9553 47.8831 20.9658 47.9199 20.9419Z" fill="white"/>
<path opacity="0.11" d="M60.4889 20.7438C60.5257 20.7199 60.5361 20.6706 60.5123 20.6337C60.4884 20.5969 60.4392 20.5864 60.4024 20.6103C60.3656 20.6342 60.3551 20.6835 60.379 20.7204C60.4029 20.7572 60.4521 20.7677 60.4889 20.7438Z" fill="white"/>
<path opacity="0.3" d="M44.0101 32.3092C44.0837 32.2613 44.1047 32.1627 44.0569 32.0889C44.0091 32.0151 43.9106 31.9941 43.8369 32.042C43.7633 32.0899 43.7423 32.1885 43.7901 32.2623C43.8379 32.3361 43.9364 32.3571 44.0101 32.3092Z" fill="white"/>
<path opacity="0.11" d="M46.6461 27.7487C46.7198 27.7008 46.7408 27.6021 46.6929 27.5283C46.6451 27.4546 46.5467 27.4336 46.473 27.4814C46.3993 27.5293 46.3784 27.628 46.4262 27.7018C46.474 27.7755 46.5725 27.7965 46.6461 27.7487Z" fill="white"/>
<path d="M45.0991 25.4335C45.1543 25.3976 45.17 25.3237 45.1342 25.2684C45.0983 25.213 45.0245 25.1973 44.9692 25.2332C44.914 25.2691 44.8983 25.3431 44.9341 25.3984C44.97 25.4537 45.0438 25.4694 45.0991 25.4335Z" fill="white"/>
<path d="M45.042 35.4353C45.0973 35.3994 45.113 35.3254 45.0772 35.2701C45.0413 35.2148 44.9675 35.199 44.9122 35.2349C44.857 35.2708 44.8413 35.3448 44.8771 35.4001C44.913 35.4554 44.9868 35.4712 45.042 35.4353Z" fill="white"/>
<path d="M68.0413 22.3832C68.0965 22.3473 68.1123 22.2733 68.0764 22.218C68.0406 22.1627 67.9667 22.1469 67.9115 22.1828C67.8563 22.2187 67.8405 22.2927 67.8764 22.348C67.9122 22.4034 67.9861 22.4191 68.0413 22.3832Z" fill="white"/>
<path d="M24.038 49.3729C24.0933 49.337 24.109 49.2631 24.0731 49.2077C24.0373 49.1524 23.9635 49.1367 23.9082 49.1726C23.853 49.2085 23.8373 49.2824 23.8731 49.3378C23.909 49.3931 23.9828 49.4088 24.038 49.3729Z" fill="white"/>
<path d="M14.1778 53.6008C14.2331 53.5648 14.2488 53.4909 14.2129 53.4356C14.1771 53.3802 14.1033 53.3645 14.048 53.4004C13.9928 53.4363 13.9771 53.5103 14.0129 53.5656C14.0488 53.6209 14.1226 53.6367 14.1778 53.6008Z" fill="white"/>
<path d="M11.3137 51.6665C11.369 51.6306 11.3847 51.5566 11.3488 51.5013C11.313 51.4459 11.2392 51.4302 11.1839 51.4661C11.1287 51.502 11.113 51.576 11.1488 51.6313C11.1847 51.6866 11.2585 51.7024 11.3137 51.6665Z" fill="white"/>
<path d="M42.7657 28.8485C42.8209 28.8126 42.8367 28.7387 42.8008 28.6834C42.765 28.628 42.6911 28.6123 42.6359 28.6482C42.5807 28.6841 42.565 28.758 42.6008 28.8134C42.6366 28.8687 42.7105 28.8844 42.7657 28.8485Z" fill="white"/>
<path d="M34.3661 41.331C34.4214 41.2951 34.4371 41.2212 34.4012 41.1659C34.3654 41.1105 34.2916 41.0948 34.2363 41.1307C34.1811 41.1666 34.1654 41.2406 34.2012 41.2959C34.2371 41.3512 34.3109 41.3669 34.3661 41.331Z" fill="white"/>
<path d="M53.0267 33.2823C53.082 33.2464 53.0977 33.1724 53.0619 33.1171C53.026 33.0618 52.9522 33.046 52.8969 33.0819C52.8417 33.1178 52.826 33.1918 52.8618 33.2471C52.8977 33.3024 52.9715 33.3182 53.0267 33.2823Z" fill="white"/>
<path d="M67.7504 17.2565C67.8056 17.2206 67.8213 17.1467 67.7855 17.0913C67.7496 17.036 67.6758 17.0203 67.6206 17.0562C67.5653 17.0921 67.5496 17.166 67.5855 17.2214C67.6213 17.2767 67.6951 17.2924 67.7504 17.2565Z" fill="white"/>
<path d="M66.9718 12.5449C67.027 12.509 67.0427 12.435 67.0069 12.3797C66.971 12.3244 66.8972 12.3086 66.842 12.3445C66.7867 12.3804 66.771 12.4544 66.8069 12.5097C66.8427 12.565 66.9165 12.5808 66.9718 12.5449Z" fill="white"/>
<path opacity="0.3" d="M50.6426 21.9241C50.7163 21.8763 50.7373 21.7776 50.6895 21.7038C50.6417 21.63 50.5432 21.609 50.4695 21.6569C50.3959 21.7048 50.3749 21.8035 50.4227 21.8772C50.4705 21.951 50.569 21.972 50.6426 21.9241Z" fill="white"/>
<path d="M47.57 17.1837C47.6437 17.1359 47.6647 17.0372 47.6168 16.9634C47.569 16.8896 47.4706 16.8686 47.3969 16.9165C47.3232 16.9644 47.3023 17.0631 47.3501 17.1368C47.3979 17.2106 47.4964 17.2316 47.57 17.1837Z" fill="white"/>
<path d="M55.028 21.1615C55.0833 21.1256 55.099 21.0516 55.0632 20.9963C55.0273 20.941 54.9535 20.9252 54.8982 20.9611C54.843 20.997 54.8273 21.071 54.8631 21.1263C54.899 21.1816 54.9728 21.1974 55.028 21.1615Z" fill="white"/>
<path opacity="0.3" d="M56.5732 16.4564C56.6468 16.4085 56.6678 16.3099 56.62 16.2361C56.5722 16.1623 56.4737 16.1413 56.4 16.1892C56.3264 16.2371 56.3054 16.3357 56.3532 16.4095C56.401 16.4833 56.4995 16.5043 56.5732 16.4564Z" fill="white"/>
<path opacity="0.3" d="M66.2446 16.9076C66.3183 16.8597 66.3393 16.761 66.2915 16.6872C66.2437 16.6135 66.1452 16.5925 66.0715 16.6403C65.9978 16.6882 65.9769 16.7869 66.0247 16.8607C66.0725 16.9344 66.171 16.9554 66.2446 16.9076Z" fill="white"/>
<path opacity="0.3" d="M58.531 22.1109C58.6047 22.063 58.6257 21.9644 58.5779 21.8906C58.5301 21.8168 58.4316 21.7958 58.3579 21.8437C58.2842 21.8916 58.2633 21.9902 58.3111 22.064C58.3589 22.1378 58.4574 22.1588 58.531 22.1109Z" fill="white"/>
<path opacity="0.3" d="M21.0008 48.1217C21.0744 48.0738 21.0954 47.9751 21.0476 47.9014C20.9998 47.8276 20.9013 47.8066 20.8276 47.8545C20.754 47.9023 20.733 48.001 20.7808 48.0748C20.8286 48.1486 20.9271 48.1696 21.0008 48.1217Z" fill="white"/>
<path opacity="0.3" d="M13.2205 47.9595C13.2942 47.9116 13.3152 47.813 13.2674 47.7392C13.2196 47.6654 13.1211 47.6444 13.0474 47.6923C12.9737 47.7402 12.9528 47.8388 13.0006 47.9126C13.0484 47.9864 13.1469 48.0074 13.2205 47.9595Z" fill="white"/>
<path opacity="0.11" d="M62.2149 16.6805C62.2885 16.6326 62.3095 16.534 62.2617 16.4602C62.2139 16.3864 62.1154 16.3654 62.0417 16.4133C61.9681 16.4612 61.9471 16.5598 61.9949 16.6336C62.0427 16.7074 62.1412 16.7284 62.2149 16.6805Z" fill="white"/>
<path opacity="0.3" d="M21.284 39.4915C21.3577 39.4437 21.3787 39.345 21.3309 39.2712C21.2831 39.1974 21.1846 39.1764 21.1109 39.2243C21.0372 39.2722 21.0163 39.3709 21.0641 39.4446C21.1119 39.5184 21.2104 39.5394 21.284 39.4915Z" fill="white"/>
<path opacity="0.11" d="M18.6185 39.3259C18.6921 39.278 18.7131 39.1794 18.6653 39.1056C18.6175 39.0318 18.519 39.0108 18.4454 39.0587C18.3717 39.1066 18.3507 39.2052 18.3985 39.279C18.4463 39.3528 18.5448 39.3738 18.6185 39.3259Z" fill="white"/>
<path opacity="0.3" d="M20.8535 43.9459C20.9272 43.898 20.9482 43.7994 20.9004 43.7256C20.8526 43.6518 20.7541 43.6308 20.6804 43.6787C20.6068 43.7266 20.5858 43.8252 20.6336 43.899C20.6814 43.9728 20.7799 43.9938 20.8535 43.9459Z" fill="white"/>
<path d="M24.9776 41.1708C25.0329 41.1349 25.0486 41.061 25.0128 41.0056C24.9769 40.9503 24.9031 40.9346 24.8478 40.9705C24.7926 41.0064 24.7769 41.0803 24.8127 41.1357C24.8486 41.191 24.9224 41.2067 24.9776 41.1708Z" fill="white"/>
<path opacity="0.11" d="M78.8018 20.957C78.8755 20.9091 78.8965 20.8105 78.8487 20.7367C78.8009 20.6629 78.7024 20.6419 78.6287 20.6898C78.555 20.7377 78.5341 20.8363 78.5819 20.9101C78.6297 20.9839 78.7282 21.0049 78.8018 20.957Z" fill="white"/>
<path d="M79.71 21.4102C79.7652 21.3742 79.7809 21.3003 79.7451 21.245C79.7092 21.1896 79.6354 21.1739 79.5802 21.2098C79.5249 21.2457 79.5092 21.3197 79.5451 21.375C79.5809 21.4303 79.6547 21.4461 79.71 21.4102Z" fill="white"/>
<path d="M81.0015 18.5775C81.0567 18.5416 81.0724 18.4676 81.0366 18.4123C81.0007 18.357 80.9269 18.3412 80.8717 18.3772C80.8164 18.4131 80.8007 18.487 80.8366 18.5423C80.8724 18.5977 80.9462 18.6134 81.0015 18.5775Z" fill="white"/>
<path d="M75.2477 22.1276C75.303 22.0917 75.3187 22.0178 75.2828 21.9625C75.247 21.9071 75.1732 21.8914 75.1179 21.9273C75.0627 21.9632 75.047 22.0372 75.0828 22.0925C75.1187 22.1478 75.1925 22.1636 75.2477 22.1276Z" fill="white"/>
<path opacity="0.11" d="M72.9871 25.8755C73.0607 25.8277 73.0817 25.729 73.0339 25.6552C72.9861 25.5814 72.8876 25.5604 72.8139 25.6083C72.7403 25.6562 72.7193 25.7549 72.7671 25.8286C72.8149 25.9024 72.9134 25.9234 72.9871 25.8755Z" fill="white"/>
<path d="M70.7678 25.2292C70.8046 25.2052 70.815 25.156 70.7912 25.1191C70.7673 25.0822 70.7181 25.0717 70.6813 25.0957C70.6445 25.1196 70.634 25.1689 70.6579 25.2057C70.6818 25.2426 70.731 25.2531 70.7678 25.2292Z" fill="white"/>
<path d="M80.2879 23.6914C80.3247 23.6675 80.3352 23.6182 80.3113 23.5814C80.2874 23.5445 80.2382 23.534 80.2014 23.5579C80.1646 23.5819 80.1541 23.6312 80.178 23.668C80.2019 23.7049 80.2511 23.7154 80.2879 23.6914Z" fill="white"/>
<path d="M94.8226 14.2441C94.8594 14.2201 94.8699 14.1709 94.846 14.134C94.8221 14.0971 94.7729 14.0866 94.7361 14.1106C94.6993 14.1345 94.6889 14.1838 94.7128 14.2206C94.7366 14.2575 94.7858 14.268 94.8226 14.2441Z" fill="white"/>
<path d="M99.7527 5.9142C99.7895 5.89028 99.8 5.841 99.7761 5.80413C99.7522 5.76727 99.703 5.75678 99.6662 5.78071C99.6294 5.80463 99.619 5.85391 99.6429 5.89077C99.6667 5.92763 99.7159 5.93813 99.7527 5.9142Z" fill="white"/>
<path d="M105.511 9.09871C105.547 9.07479 105.558 9.02551 105.534 8.98865C105.51 8.95178 105.461 8.94129 105.424 8.96521C105.387 8.98914 105.377 9.03842 105.401 9.07528C105.425 9.11215 105.474 9.12263 105.511 9.09871Z" fill="white"/>
<path d="M57.0056 36.4531C57.0424 36.4292 57.0528 36.3799 57.029 36.343C57.0051 36.3062 56.9559 36.2957 56.9191 36.3196C56.8823 36.3435 56.8718 36.3928 56.8957 36.4297C56.9196 36.4665 56.9688 36.477 57.0056 36.4531Z" fill="white"/>
<path opacity="0.11" d="M53.6717 33.4966C53.7085 33.4727 53.7189 33.4234 53.695 33.3865C53.6712 33.3497 53.622 33.3392 53.5852 33.3631C53.5484 33.387 53.5379 33.4363 53.5618 33.4732C53.5857 33.51 53.6349 33.5205 53.6717 33.4966Z" fill="white"/>
<path opacity="0.11" d="M51.8003 36.8964C51.8371 36.8724 51.8475 36.8232 51.8237 36.7863C51.7998 36.7494 51.7506 36.7389 51.7138 36.7629C51.677 36.7868 51.6665 36.8361 51.6904 36.8729C51.7143 36.9098 51.7635 36.9203 51.8003 36.8964Z" fill="white"/>
<path opacity="0.11" d="M56.5947 39.4735C56.6315 39.4495 56.642 39.4003 56.6181 39.3634C56.5942 39.3265 56.545 39.316 56.5082 39.34C56.4714 39.3639 56.461 39.4132 56.4848 39.45C56.5087 39.4869 56.5579 39.4974 56.5947 39.4735Z" fill="white"/>
<path opacity="0.11" d="M70.7304 26.4882C70.7672 26.4643 70.7777 26.415 70.7538 26.3782C70.7299 26.3413 70.6807 26.3308 70.6439 26.3547C70.6071 26.3786 70.5967 26.4279 70.6205 26.4648C70.6444 26.5016 70.6936 26.5121 70.7304 26.4882Z" fill="white"/>
<path opacity="0.11" d="M81.7111 26.1821C81.7479 26.1581 81.7584 26.1089 81.7345 26.072C81.7106 26.0351 81.6614 26.0246 81.6246 26.0486C81.5878 26.0725 81.5773 26.1218 81.6012 26.1586C81.6251 26.1955 81.6743 26.206 81.7111 26.1821Z" fill="white"/>
<path opacity="0.11" d="M94.0796 17.1937C94.1164 17.1697 94.1269 17.1205 94.103 17.0836C94.0791 17.0467 94.0299 17.0362 93.9931 17.0602C93.9563 17.0841 93.9458 17.1334 93.9697 17.1702C93.9936 17.2071 94.0428 17.2176 94.0796 17.1937Z" fill="white"/>
<path opacity="0.3" d="M58.9929 32.7904C59.0297 32.7665 59.0402 32.7172 59.0163 32.6803C58.9924 32.6435 58.9433 32.633 58.9064 32.6569C58.8696 32.6808 58.8592 32.7301 58.8831 32.767C58.9069 32.8038 58.9561 32.8143 58.9929 32.7904Z" fill="white"/>
<path d="M71.9887 19.2164C72.0255 19.1925 72.036 19.1432 72.0121 19.1064C71.9882 19.0695 71.939 19.059 71.9022 19.0829C71.8654 19.1068 71.8549 19.1561 71.8788 19.193C71.9027 19.2299 71.9519 19.2403 71.9887 19.2164Z" fill="white"/>
<path d="M82.169 12.409C82.2058 12.3851 82.2163 12.3358 82.1924 12.299C82.1686 12.2621 82.1194 12.2516 82.0826 12.2755C82.0458 12.2995 82.0353 12.3487 82.0592 12.3856C82.0831 12.4225 82.1322 12.433 82.169 12.409Z" fill="white"/>
<path d="M71.4361 28.3075C71.4729 28.2836 71.4833 28.2343 71.4594 28.1975C71.4356 28.1606 71.3864 28.1501 71.3496 28.174C71.3128 28.1979 71.3023 28.2472 71.3262 28.2841C71.3501 28.3209 71.3992 28.3314 71.4361 28.3075Z" fill="white"/>
<path opacity="0.3" d="M66.7694 31.3412C66.8062 31.3172 66.8167 31.268 66.7928 31.2311C66.7689 31.1942 66.7197 31.1837 66.6829 31.2077C66.6461 31.2316 66.6357 31.2809 66.6596 31.3177C66.6834 31.3546 66.7326 31.3651 66.7694 31.3412Z" fill="white"/>
<path opacity="0.11" d="M58.6213 30.7534C58.6581 30.7295 58.6686 30.6802 58.6447 30.6433C58.6208 30.6065 58.5716 30.596 58.5348 30.6199C58.498 30.6438 58.4876 30.6931 58.5114 30.73C58.5353 30.7668 58.5845 30.7773 58.6213 30.7534Z" fill="white"/>
<path opacity="0.3" d="M74.2275 20.0391C74.2643 20.0152 74.2748 19.9659 74.2509 19.929C74.227 19.8922 74.1778 19.8817 74.141 19.9056C74.1042 19.9295 74.0937 19.9788 74.1176 20.0157C74.1415 20.0525 74.1907 20.063 74.2275 20.0391Z" fill="white"/>
<path opacity="0.3" d="M73.3919 28.839C73.4287 28.8151 73.4391 28.7658 73.4153 28.7289C73.3914 28.6921 73.3422 28.6816 73.3054 28.7055C73.2686 28.7294 73.2581 28.7787 73.282 28.8156C73.3059 28.8524 73.3551 28.8629 73.3919 28.839Z" fill="white"/>
<path opacity="0.3" d="M65.7571 34.7512C65.7939 34.7273 65.8044 34.678 65.7805 34.6412C65.7566 34.6043 65.7074 34.5938 65.6706 34.6177C65.6338 34.6417 65.6233 34.6909 65.6472 34.7278C65.6711 34.7647 65.7203 34.7752 65.7571 34.7512Z" fill="white"/>
<path opacity="0.3" d="M60.9253 31.5338C60.9621 31.5099 60.9725 31.4606 60.9487 31.4237C60.9248 31.3869 60.8756 31.3764 60.8388 31.4003C60.802 31.4242 60.7915 31.4735 60.8154 31.5104C60.8393 31.5472 60.8885 31.5577 60.9253 31.5338Z" fill="white"/>
<path opacity="0.3" d="M102.263 4.37796C102.3 4.35404 102.31 4.30477 102.286 4.2679C102.263 4.23104 102.213 4.22055 102.177 4.24447C102.14 4.26839 102.129 4.31767 102.153 4.35454C102.177 4.3914 102.226 4.40189 102.263 4.37796Z" fill="white"/>
<path opacity="0.11" d="M89.755 8.61662C89.7918 8.59269 89.8023 8.54341 89.7784 8.50655C89.7545 8.46968 89.7053 8.4592 89.6685 8.48312C89.6317 8.50704 89.6212 8.55632 89.6451 8.59318C89.669 8.63005 89.7182 8.64054 89.755 8.61662Z" fill="white"/>
<path opacity="0.11" d="M102.322 8.41857C102.359 8.39464 102.369 8.34537 102.345 8.3085C102.321 8.27164 102.272 8.26115 102.235 8.28507C102.199 8.30899 102.188 8.35827 102.212 8.39513C102.236 8.432 102.285 8.44249 102.322 8.41857Z" fill="white"/>
<path opacity="0.3" d="M85.8451 19.984C85.9188 19.9361 85.9397 19.8374 85.8919 19.7636C85.8441 19.6898 85.7457 19.6688 85.672 19.7167C85.5983 19.7646 85.5774 19.8633 85.6252 19.9371C85.673 20.0108 85.7715 20.0318 85.8451 19.984Z" fill="white"/>
<path opacity="0.11" d="M88.481 15.4249C88.5547 15.377 88.5757 15.2784 88.5278 15.2046C88.48 15.1308 88.3816 15.1098 88.3079 15.1577C88.2342 15.2056 88.2133 15.3042 88.2611 15.378C88.3089 15.4518 88.4074 15.4728 88.481 15.4249Z" fill="white"/>
<path d="M86.9341 13.1088C86.9893 13.0729 87.0051 12.9989 86.9692 12.9436C86.9334 12.8883 86.8595 12.8725 86.8043 12.9084C86.7491 12.9443 86.7334 13.0183 86.7692 13.0736C86.805 13.129 86.8789 13.1447 86.9341 13.1088Z" fill="white"/>
<path d="M86.8771 23.1115C86.9323 23.0756 86.9481 23.0016 86.9122 22.9463C86.8764 22.891 86.8025 22.8752 86.7473 22.9111C86.6921 22.9471 86.6763 23.021 86.7122 23.0763C86.748 23.1317 86.8219 23.1474 86.8771 23.1115Z" fill="white"/>
<path d="M109.875 10.0589C109.93 10.023 109.946 9.94907 109.91 9.89375C109.874 9.83842 109.8 9.82267 109.745 9.85858C109.69 9.89448 109.674 9.96844 109.71 10.0238C109.746 10.0791 109.819 10.0948 109.875 10.0589Z" fill="white"/>
<path d="M65.8731 37.0492C65.9283 37.0132 65.944 36.9393 65.9082 36.884C65.8723 36.8286 65.7985 36.8129 65.7433 36.8488C65.688 36.8847 65.6723 36.9587 65.7082 37.014C65.744 37.0693 65.8178 37.0851 65.8731 37.0492Z" fill="white"/>
<path d="M56.0109 41.277C56.0662 41.2411 56.0819 41.1671 56.046 41.1118C56.0102 41.0565 55.9364 41.0407 55.8811 41.0766C55.8259 41.1125 55.8102 41.1865 55.846 41.2418C55.8819 41.2971 55.9557 41.3129 56.0109 41.277Z" fill="white"/>
<path d="M53.1468 39.3427C53.2021 39.3068 53.2178 39.2328 53.1819 39.1775C53.1461 39.1222 53.0723 39.1064 53.017 39.1423C52.9618 39.1782 52.9461 39.2522 52.9819 39.3075C53.0178 39.3628 53.0916 39.3786 53.1468 39.3427Z" fill="white"/>
<path d="M84.5988 16.5238C84.6541 16.4879 84.6698 16.4139 84.6339 16.3586C84.5981 16.3033 84.5243 16.2875 84.469 16.3234C84.4138 16.3593 84.3981 16.4333 84.4339 16.4886C84.4698 16.544 84.5436 16.5597 84.5988 16.5238Z" fill="white"/>
<path d="M76.2011 29.0068C76.2564 28.9709 76.2721 28.8969 76.2362 28.8416C76.2004 28.7863 76.1266 28.7705 76.0713 28.8064C76.0161 28.8423 76.0004 28.9163 76.0362 28.9716C76.0721 29.0269 76.1459 29.0427 76.2011 29.0068Z" fill="white"/>
<path d="M94.86 20.957C94.9152 20.9211 94.931 20.8472 94.8951 20.7919C94.8593 20.7365 94.7854 20.7208 94.7302 20.7567C94.675 20.7926 94.6593 20.8666 94.6951 20.9219C94.7309 20.9772 94.8048 20.993 94.86 20.957Z" fill="white"/>
<path d="M109.585 4.93128C109.641 4.89538 109.656 4.82142 109.621 4.76609C109.585 4.71077 109.511 4.69502 109.456 4.73092C109.4 4.76683 109.385 4.84079 109.421 4.89611C109.456 4.95144 109.53 4.96719 109.585 4.93128Z" fill="white"/>
<path d="M108.805 0.219628C108.86 0.183723 108.876 0.109766 108.84 0.0544387C108.805 -0.000888408 108.731 -0.0166344 108.675 0.0192707C108.62 0.0551759 108.604 0.129133 108.64 0.18446C108.676 0.239787 108.75 0.255533 108.805 0.219628Z" fill="white"/>
<path opacity="0.3" d="M92.4757 9.60013C92.5493 9.55224 92.5703 9.4536 92.5225 9.37981C92.4747 9.30602 92.3762 9.28502 92.3025 9.33291C92.2289 9.3808 92.2079 9.47944 92.2557 9.55323C92.3035 9.62702 92.402 9.64802 92.4757 9.60013Z" fill="white"/>
<path d="M89.4051 4.85949C89.4787 4.8116 89.4997 4.71296 89.4519 4.63917C89.4041 4.56538 89.3056 4.54438 89.232 4.59227C89.1583 4.64015 89.1373 4.73879 89.1851 4.81258C89.2329 4.88637 89.3314 4.90737 89.4051 4.85949Z" fill="white"/>
<path d="M96.8631 8.83772C96.9183 8.80181 96.9341 8.72785 96.8982 8.67253C96.8624 8.6172 96.7885 8.60145 96.7333 8.63736C96.6781 8.67326 96.6624 8.74722 96.6982 8.80255C96.734 8.85787 96.8079 8.87362 96.8631 8.83772Z" fill="white"/>
<path opacity="0.3" d="M98.4082 4.13118C98.4819 4.08329 98.5028 3.98465 98.455 3.91086C98.4072 3.83707 98.3088 3.81607 98.2351 3.86396C98.1614 3.91184 98.1405 4.01048 98.1883 4.08427C98.2361 4.15806 98.3345 4.17906 98.4082 4.13118Z" fill="white"/>
<path opacity="0.3" d="M108.08 4.58231C108.153 4.53443 108.174 4.43579 108.127 4.362C108.079 4.28821 107.98 4.26721 107.907 4.3151C107.833 4.36298 107.812 4.46162 107.86 4.53541C107.908 4.6092 108.006 4.6302 108.08 4.58231Z" fill="white"/>
<path opacity="0.3" d="M100.366 9.78565C100.44 9.73776 100.461 9.63913 100.413 9.56533C100.365 9.49154 100.267 9.47054 100.193 9.51843C100.119 9.56632 100.098 9.66496 100.146 9.73875C100.194 9.81254 100.292 9.83354 100.366 9.78565Z" fill="white"/>
<path opacity="0.3" d="M62.8341 35.7964C62.9077 35.7485 62.9287 35.6499 62.8809 35.5761C62.8331 35.5023 62.7346 35.4813 62.6609 35.5292C62.5873 35.5771 62.5663 35.6757 62.6141 35.7495C62.6619 35.8233 62.7604 35.8443 62.8341 35.7964Z" fill="white"/>
<path opacity="0.3" d="M55.0554 35.634C55.129 35.5861 55.15 35.4875 55.1022 35.4137C55.0544 35.3399 54.9559 35.3189 54.8823 35.3668C54.8086 35.4147 54.7876 35.5133 54.8354 35.5871C54.8832 35.6609 54.9817 35.6819 55.0554 35.634Z" fill="white"/>
<path opacity="0.11" d="M104.048 4.35527C104.122 4.30738 104.143 4.20875 104.095 4.13496C104.047 4.06116 103.948 4.04016 103.875 4.08805C103.801 4.13594 103.78 4.23458 103.828 4.30837C103.876 4.38216 103.974 4.40316 104.048 4.35527Z" fill="white"/>
<path opacity="0.3" d="M63.1171 27.1668C63.1908 27.1189 63.2118 27.0203 63.164 26.9465C63.1161 26.8727 63.0177 26.8517 62.944 26.8996C62.8703 26.9475 62.8494 27.0461 62.8972 27.1199C62.945 27.1937 63.0435 27.2147 63.1171 27.1668Z" fill="white"/>
<path opacity="0.11" d="M60.4516 27.0007C60.5252 26.9528 60.5462 26.8542 60.4984 26.7804C60.4506 26.7066 60.3521 26.6856 60.2785 26.7335C60.2048 26.7814 60.1838 26.88 60.2316 26.9538C60.2794 27.0276 60.3779 27.0486 60.4516 27.0007Z" fill="white"/>
<path opacity="0.3" d="M62.6866 31.6207C62.7603 31.5728 62.7813 31.4742 62.7335 31.4004C62.6856 31.3266 62.5872 31.3056 62.5135 31.3535C62.4398 31.4014 62.4189 31.5 62.4667 31.5738C62.5145 31.6476 62.613 31.6686 62.6866 31.6207Z" fill="white"/>
<path d="M66.811 28.8466C66.8662 28.8107 66.8819 28.7367 66.8461 28.6814C66.8102 28.6261 66.7364 28.6103 66.6812 28.6462C66.6259 28.6821 66.6102 28.7561 66.6461 28.8114C66.6819 28.8667 66.7557 28.8825 66.811 28.8466Z" fill="white"/>
</g>
</svg>
