<svg width="110" height="89" viewBox="0 0 110 89" fill="none" xmlns="http://www.w3.org/2000/svg">
<g opacity="0.7">
<path opacity="0.11" d="M27.1242 68.6611C27.1979 68.6132 27.2188 68.5146 27.171 68.4408C27.1232 68.367 27.0247 68.346 26.9511 68.3939C26.8774 68.4418 26.8564 68.5404 26.9043 68.6142C26.9521 68.688 27.0505 68.709 27.1242 68.6611Z" fill="white"/>
<path d="M28.0323 69.1147C28.0876 69.0788 28.1033 69.0049 28.0675 68.9496C28.0316 68.8942 27.9578 68.8785 27.9025 68.9144C27.8473 68.9503 27.8316 69.0242 27.8674 69.0796C27.9033 69.1349 27.9771 69.1506 28.0323 69.1147Z" fill="white"/>
<path d="M29.3258 66.2826C29.381 66.2467 29.3968 66.1727 29.3609 66.1174C29.3251 66.0621 29.2512 66.0463 29.196 66.0822C29.1408 66.1181 29.1251 66.1921 29.1609 66.2474C29.1967 66.3028 29.2706 66.3185 29.3258 66.2826Z" fill="white"/>
<path d="M23.5721 69.8318C23.6273 69.7958 23.643 69.7219 23.6072 69.6666C23.5713 69.6112 23.4975 69.5955 23.4423 69.6314C23.387 69.6673 23.3713 69.7413 23.4072 69.7966C23.443 69.8519 23.5168 69.8677 23.5721 69.8318Z" fill="white"/>
<path opacity="0.11" d="M21.3097 73.5796C21.3834 73.5317 21.4043 73.4331 21.3565 73.3593C21.3087 73.2855 21.2102 73.2645 21.1366 73.3124C21.0629 73.3603 21.042 73.4589 21.0898 73.5327C21.1376 73.6065 21.236 73.6275 21.3097 73.5796Z" fill="white"/>
<path d="M19.0921 72.9332C19.1289 72.9093 19.1394 72.86 19.1155 72.8232C19.0916 72.7863 19.0424 72.7758 19.0056 72.7998C18.9688 72.8237 18.9584 72.873 18.9822 72.9098C19.0061 72.9467 19.0553 72.9572 19.0921 72.9332Z" fill="white"/>
<path d="M28.6102 71.396C28.647 71.3721 28.6575 71.3228 28.6336 71.286C28.6098 71.2491 28.5606 71.2386 28.5238 71.2625C28.487 71.2865 28.4765 71.3357 28.5004 71.3726C28.5243 71.4095 28.5734 71.42 28.6102 71.396Z" fill="white"/>
<path d="M43.1449 61.9489C43.1817 61.925 43.1922 61.8757 43.1683 61.8389C43.1444 61.802 43.0952 61.7915 43.0584 61.8154C43.0216 61.8393 43.0111 61.8886 43.035 61.9255C43.0589 61.9623 43.1081 61.9728 43.1449 61.9489Z" fill="white"/>
<path d="M48.075 53.6186C48.1118 53.5947 48.1222 53.5454 48.0984 53.5085C48.0745 53.4717 48.0253 53.4612 47.9885 53.4851C47.9517 53.509 47.9412 53.5583 47.9651 53.5952C47.989 53.632 48.0382 53.6425 48.075 53.6186Z" fill="white"/>
<path d="M53.8327 56.8028C53.8695 56.7789 53.88 56.7296 53.8561 56.6928C53.8322 56.6559 53.783 56.6454 53.7462 56.6694C53.7094 56.6933 53.6989 56.7426 53.7228 56.7794C53.7467 56.8163 53.7959 56.8268 53.8327 56.8028Z" fill="white"/>
<path d="M5.32995 84.1574C5.36675 84.1335 5.37723 84.0842 5.35335 84.0473C5.32946 84.0105 5.28027 84 5.24347 84.0239C5.20666 84.0478 5.19619 84.0971 5.22008 84.134C5.24396 84.1708 5.29315 84.1813 5.32995 84.1574Z" fill="white"/>
<path opacity="0.11" d="M1.99401 81.2009C2.03081 81.177 2.04128 81.1277 2.0174 81.0908C1.99352 81.054 1.94432 81.0435 1.90752 81.0674C1.87072 81.0913 1.86025 81.1406 1.88413 81.1775C1.90801 81.2143 1.95721 81.2248 1.99401 81.2009Z" fill="white"/>
<path opacity="0.11" d="M0.12268 84.6007C0.159481 84.5767 0.169956 84.5275 0.146073 84.4906C0.12219 84.4537 0.0729981 84.4432 0.0361966 84.4672C-0.000604837 84.4911 -0.0110794 84.5404 0.0128034 84.5772C0.0366861 84.6141 0.0858785 84.6246 0.12268 84.6007Z" fill="white"/>
<path opacity="0.11" d="M4.91911 87.177C4.95591 87.1531 4.96638 87.1038 4.9425 87.067C4.91862 87.0301 4.86943 87.0196 4.83262 87.0435C4.79582 87.0674 4.78535 87.1167 4.80923 87.1536C4.83311 87.1904 4.88231 87.2009 4.91911 87.177Z" fill="white"/>
<path opacity="0.11" d="M19.0528 74.1923C19.0896 74.1684 19.1001 74.1191 19.0762 74.0822C19.0523 74.0454 19.0031 74.0349 18.9663 74.0588C18.9295 74.0827 18.919 74.132 18.9429 74.1689C18.9668 74.2057 19.016 74.2162 19.0528 74.1923Z" fill="white"/>
<path opacity="0.11" d="M30.0354 73.8861C30.0722 73.8622 30.0827 73.8129 30.0588 73.7761C30.0349 73.7392 29.9857 73.7287 29.9489 73.7526C29.9121 73.7766 29.9016 73.8258 29.9255 73.8627C29.9494 73.8996 29.9986 73.9101 30.0354 73.8861Z" fill="white"/>
<path opacity="0.11" d="M42.4019 64.8983C42.4387 64.8743 42.4492 64.8251 42.4253 64.7882C42.4014 64.7513 42.3522 64.7409 42.3154 64.7648C42.2786 64.7887 42.2681 64.838 42.292 64.8748C42.3159 64.9117 42.3651 64.9222 42.4019 64.8983Z" fill="white"/>
<path opacity="0.3" d="M7.31535 80.4947C7.35215 80.4708 7.36263 80.4215 7.33875 80.3847C7.31486 80.3478 7.26567 80.3373 7.22887 80.3612C7.19206 80.3851 7.18159 80.4344 7.20548 80.4713C7.22936 80.5082 7.27855 80.5186 7.31535 80.4947Z" fill="white"/>
<path d="M20.3128 66.9205C20.3496 66.8966 20.3601 66.8473 20.3362 66.8105C20.3124 66.7736 20.2632 66.7631 20.2264 66.787C20.1896 66.811 20.1791 66.8602 20.203 66.8971C20.2268 66.934 20.276 66.9445 20.3128 66.9205Z" fill="white"/>
<path d="M30.4915 60.1141C30.5283 60.0902 30.5387 60.0409 30.5149 60.0041C30.491 59.9672 30.4418 59.9567 30.405 59.9806C30.3682 60.0046 30.3577 60.0538 30.3816 60.0907C30.4055 60.1276 30.4547 60.1381 30.4915 60.1141Z" fill="white"/>
<path d="M19.7587 76.0116C19.7955 75.9877 19.8059 75.9384 19.7821 75.9015C19.7582 75.8647 19.709 75.8542 19.6722 75.8781C19.6354 75.902 19.6249 75.9513 19.6488 75.9882C19.6727 76.025 19.7219 76.0355 19.7587 76.0116Z" fill="white"/>
<path opacity="0.3" d="M15.0918 79.0457C15.1286 79.0218 15.1391 78.9725 15.1152 78.9357C15.0913 78.8988 15.0421 78.8883 15.0053 78.9122C14.9685 78.9362 14.9581 78.9854 14.982 79.0223C15.0058 79.0592 15.055 79.0696 15.0918 79.0457Z" fill="white"/>
<path opacity="0.11" d="M6.94383 78.459C6.98063 78.435 6.9911 78.3858 6.96722 78.3489C6.94334 78.312 6.89414 78.3015 6.85734 78.3255C6.82054 78.3494 6.81007 78.3987 6.83395 78.4355C6.85783 78.4724 6.90703 78.4829 6.94383 78.459Z" fill="white"/>
<path opacity="0.3" d="M22.5499 67.7437C22.5867 67.7198 22.5971 67.6705 22.5733 67.6336C22.5494 67.5968 22.5002 67.5863 22.4634 67.6102C22.4266 67.6341 22.4161 67.6834 22.44 67.7202C22.4639 67.7571 22.5131 67.7676 22.5499 67.7437Z" fill="white"/>
<path opacity="0.3" d="M21.7145 76.5443C21.7513 76.5204 21.7618 76.4711 21.7379 76.4342C21.714 76.3974 21.6648 76.3869 21.628 76.4108C21.5912 76.4347 21.5807 76.484 21.6046 76.5209C21.6285 76.5577 21.6777 76.5682 21.7145 76.5443Z" fill="white"/>
<path opacity="0.3" d="M14.0795 82.4555C14.1163 82.4316 14.1267 82.3823 14.1029 82.3455C14.079 82.3086 14.0298 82.2981 13.993 82.3221C13.9562 82.346 13.9457 82.3953 13.9696 82.4321C13.9935 82.469 14.0427 82.4795 14.0795 82.4555Z" fill="white"/>
<path opacity="0.3" d="M9.24964 79.2379C9.28645 79.214 9.29692 79.1647 9.27304 79.1278C9.24915 79.091 9.19996 79.0805 9.16316 79.1044C9.12636 79.1283 9.11589 79.1776 9.13977 79.2144C9.16365 79.2513 9.21284 79.2618 9.24964 79.2379Z" fill="white"/>
<path opacity="0.3" d="M50.5853 52.0821C50.6221 52.0582 50.6326 52.0089 50.6087 51.9721C50.5848 51.9352 50.5356 51.9247 50.4988 51.9486C50.462 51.9725 50.4515 52.0218 50.4754 52.0587C50.4993 52.0956 50.5485 52.106 50.5853 52.0821Z" fill="white"/>
<path opacity="0.11" d="M38.0773 56.3207C38.1141 56.2968 38.1245 56.2475 38.1007 56.2107C38.0768 56.1738 38.0276 56.1633 37.9908 56.1873C37.954 56.2112 37.9435 56.2605 37.9674 56.2973C37.9913 56.3342 38.0405 56.3447 38.0773 56.3207Z" fill="white"/>
<path opacity="0.11" d="M50.6462 56.1242C50.683 56.1003 50.6935 56.051 50.6696 56.0141C50.6457 55.9772 50.5965 55.9668 50.5597 55.9907C50.5229 56.0146 50.5125 56.0639 50.5363 56.1007C50.5602 56.1376 50.6094 56.1481 50.6462 56.1242Z" fill="white"/>
<path opacity="0.3" d="M34.1675 67.6886C34.2412 67.6407 34.2621 67.542 34.2143 67.4682C34.1665 67.3944 34.0681 67.3734 33.9944 67.4213C33.9207 67.4692 33.8998 67.5679 33.9476 67.6417C33.9954 67.7154 34.0938 67.7364 34.1675 67.6886Z" fill="white"/>
<path opacity="0.11" d="M36.8036 63.1293C36.8773 63.0814 36.8983 62.9827 36.8504 62.9089C36.8026 62.8351 36.7042 62.8141 36.6305 62.862C36.5568 62.9099 36.5359 63.0086 36.5837 63.0824C36.6315 63.1561 36.73 63.1771 36.8036 63.1293Z" fill="white"/>
<path d="M35.2563 60.8137C35.3115 60.7778 35.3272 60.7038 35.2914 60.6485C35.2555 60.5931 35.1817 60.5774 35.1265 60.6133C35.0712 60.6492 35.0555 60.7232 35.0914 60.7785C35.1272 60.8338 35.201 60.8496 35.2563 60.8137Z" fill="white"/>
<path d="M35.1994 70.8154C35.2546 70.7794 35.2704 70.7055 35.2345 70.6502C35.1987 70.5948 35.1248 70.5791 35.0696 70.615C35.0144 70.6509 34.9987 70.7249 35.0345 70.7802C35.0703 70.8355 35.1442 70.8513 35.1994 70.8154Z" fill="white"/>
<path d="M58.1986 57.7631C58.2539 57.7272 58.2696 57.6532 58.2337 57.5979C58.1979 57.5425 58.1241 57.5268 58.0688 57.5627C58.0136 57.5986 57.9979 57.6726 58.0337 57.7279C58.0696 57.7832 58.1434 57.799 58.1986 57.7631Z" fill="white"/>
<path d="M14.1955 84.7532C14.2507 84.7173 14.2664 84.6433 14.2306 84.588C14.1947 84.5327 14.1209 84.517 14.0657 84.5529C14.0104 84.5888 13.9947 84.6627 14.0306 84.718C14.0664 84.7734 14.1402 84.7891 14.1955 84.7532Z" fill="white"/>
<path d="M4.33335 88.9808C4.38858 88.9449 4.4043 88.8709 4.36845 88.8156C4.33261 88.7603 4.25878 88.7445 4.20354 88.7804C4.14831 88.8163 4.13259 88.8903 4.16844 88.9456C4.20428 89.0009 4.27812 89.0167 4.33335 88.9808Z" fill="white"/>
<path d="M1.47123 87.0465C1.52646 87.0106 1.54218 86.9366 1.50634 86.8813C1.47049 86.826 1.39666 86.8102 1.34142 86.8461C1.28619 86.882 1.27047 86.956 1.30632 87.0113C1.34216 87.0667 1.41599 87.0824 1.47123 87.0465Z" fill="white"/>
<path d="M32.9211 64.2289C32.9764 64.193 32.9921 64.119 32.9563 64.0637C32.9204 64.0084 32.8466 63.9926 32.7913 64.0285C32.7361 64.0644 32.7204 64.1384 32.7562 64.1937C32.7921 64.2491 32.8659 64.2648 32.9211 64.2289Z" fill="white"/>
<path d="M24.5234 76.7111C24.5786 76.6752 24.5943 76.6013 24.5585 76.5459C24.5226 76.4906 24.4488 76.4748 24.3936 76.5108C24.3383 76.5467 24.3226 76.6206 24.3585 76.6759C24.3943 76.7313 24.4681 76.747 24.5234 76.7111Z" fill="white"/>
<path d="M43.1843 68.6626C43.2395 68.6267 43.2552 68.5528 43.2194 68.4974C43.1836 68.4421 43.1097 68.4264 43.0545 68.4623C42.9993 68.4982 42.9835 68.5721 43.0194 68.6275C43.0552 68.6828 43.1291 68.6985 43.1843 68.6626Z" fill="white"/>
<path d="M57.9077 52.6369C57.9629 52.601 57.9786 52.527 57.9428 52.4717C57.907 52.4164 57.8331 52.4006 57.7779 52.4365C57.7227 52.4724 57.7069 52.5464 57.7428 52.6017C57.7786 52.6571 57.8525 52.6728 57.9077 52.6369Z" fill="white"/>
<path d="M57.1273 47.924C57.1825 47.8881 57.1983 47.8142 57.1624 47.7588C57.1266 47.7035 57.0527 47.6878 56.9975 47.7237C56.9423 47.7596 56.9266 47.8335 56.9624 47.8889C56.9982 47.9442 57.0721 47.9599 57.1273 47.924Z" fill="white"/>
<path opacity="0.3" d="M40.7999 57.3045C40.8735 57.2566 40.8945 57.158 40.8467 57.0842C40.7989 57.0104 40.7004 56.9894 40.6268 57.0373C40.5531 57.0852 40.5321 57.1838 40.5799 57.2576C40.6277 57.3314 40.7262 57.3524 40.7999 57.3045Z" fill="white"/>
<path d="M37.7274 52.5636C37.8011 52.5157 37.822 52.4171 37.7742 52.3433C37.7264 52.2695 37.628 52.2485 37.5543 52.2964C37.4806 52.3443 37.4597 52.4429 37.5075 52.5167C37.5553 52.5905 37.6538 52.6115 37.7274 52.5636Z" fill="white"/>
<path d="M45.1854 56.5419C45.2407 56.5059 45.2564 56.432 45.2205 56.3767C45.1847 56.3213 45.1109 56.3056 45.0556 56.3415C45.0004 56.3774 44.9847 56.4514 45.0205 56.5067C45.0564 56.562 45.1302 56.5778 45.1854 56.5419Z" fill="white"/>
<path opacity="0.3" d="M46.7305 51.8353C46.8042 51.7874 46.8252 51.6888 46.7773 51.615C46.7295 51.5412 46.6311 51.5202 46.5574 51.5681C46.4837 51.616 46.4628 51.7146 46.5106 51.7884C46.5584 51.8622 46.6569 51.8832 46.7305 51.8353Z" fill="white"/>
<path opacity="0.3" d="M56.402 52.286C56.4756 52.2381 56.4966 52.1394 56.4488 52.0657C56.401 51.9919 56.3025 51.9709 56.2289 52.0188C56.1552 52.0666 56.1342 52.1653 56.182 52.2391C56.2298 52.3129 56.3283 52.3339 56.402 52.286Z" fill="white"/>
<path opacity="0.3" d="M48.6884 57.4903C48.7621 57.4424 48.783 57.3438 48.7352 57.27C48.6874 57.1962 48.5889 57.1752 48.5153 57.2231C48.4416 57.2709 48.4207 57.3696 48.4685 57.4434C48.5163 57.5172 48.6147 57.5382 48.6884 57.4903Z" fill="white"/>
<path opacity="0.3" d="M11.1584 83.501C11.2321 83.4531 11.2531 83.3545 11.2053 83.2807C11.1575 83.2069 11.059 83.1859 10.9853 83.2338C10.9116 83.2817 10.8907 83.3803 10.9385 83.4541C10.9863 83.5279 11.0848 83.5489 11.1584 83.501Z" fill="white"/>
<path opacity="0.3" d="M3.37805 83.3383C3.45172 83.2904 3.47268 83.1918 3.42488 83.118C3.37707 83.0442 3.2786 83.0232 3.20493 83.0711C3.13127 83.119 3.1103 83.2176 3.15811 83.2914C3.20592 83.3652 3.30439 83.3862 3.37805 83.3383Z" fill="white"/>
<path opacity="0.11" d="M52.3702 52.0599C52.4439 52.012 52.4649 51.9134 52.4171 51.8396C52.3693 51.7658 52.2708 51.7448 52.1971 51.7927C52.1235 51.8406 52.1025 51.9392 52.1503 52.013C52.1981 52.0868 52.2966 52.1078 52.3702 52.0599Z" fill="white"/>
<path opacity="0.3" d="M11.4415 74.8704C11.5152 74.8225 11.5361 74.7239 11.4883 74.6501C11.4405 74.5763 11.342 74.5553 11.2684 74.6032C11.1947 74.6511 11.1738 74.7497 11.2216 74.8235C11.2694 74.8973 11.3678 74.9183 11.4415 74.8704Z" fill="white"/>
<path opacity="0.11" d="M8.77596 74.7048C8.84962 74.6569 8.87058 74.5583 8.82278 74.4845C8.77497 74.4107 8.6765 74.3897 8.60283 74.4376C8.52917 74.4854 8.5082 74.5841 8.55601 74.6579C8.60382 74.7317 8.70229 74.7527 8.77596 74.7048Z" fill="white"/>
<path opacity="0.3" d="M11.011 79.3257C11.0847 79.2779 11.1056 79.1792 11.0578 79.1054C11.01 79.0316 10.9115 79.0106 10.8379 79.0585C10.7642 79.1064 10.7433 79.2051 10.7911 79.2788C10.8389 79.3526 10.9373 79.3736 11.011 79.3257Z" fill="white"/>
<path d="M15.1331 76.5512C15.1884 76.5152 15.2041 76.4413 15.1682 76.386C15.1324 76.3306 15.0586 76.3149 15.0033 76.3508C14.9481 76.3867 14.9324 76.4607 14.9682 76.516C15.0041 76.5713 15.0779 76.5871 15.1331 76.5512Z" fill="white"/>
<path opacity="0.11" d="M36.9667 33.2822C37.0403 33.2343 37.0613 33.1356 37.0135 33.0618C36.9657 32.988 36.8672 32.967 36.7936 33.0149C36.7199 33.0628 36.6989 33.1615 36.7467 33.2353C36.7945 33.309 36.893 33.33 36.9667 33.2822Z" fill="white"/>
<path d="M37.8768 33.7343C37.932 33.6984 37.9477 33.6245 37.9119 33.5691C37.8761 33.5138 37.8022 33.4981 37.747 33.534C37.6918 33.5699 37.676 33.6438 37.7119 33.6992C37.7477 33.7545 37.8216 33.7702 37.8768 33.7343Z" fill="white"/>
<path d="M39.1683 30.9027C39.2235 30.8668 39.2392 30.7928 39.2034 30.7375C39.1675 30.6821 39.0937 30.6664 39.0385 30.7023C38.9832 30.7382 38.9675 30.8122 39.0034 30.8675C39.0392 30.9228 39.113 30.9386 39.1683 30.9027Z" fill="white"/>
<path d="M33.4146 34.4528C33.4698 34.4169 33.4855 34.3429 33.4497 34.2876C33.4138 34.2323 33.34 34.2165 33.2847 34.2524C33.2295 34.2883 33.2138 34.3623 33.2496 34.4176C33.2855 34.473 33.3593 34.4887 33.4146 34.4528Z" fill="white"/>
<path opacity="0.11" d="M31.152 38.2004C31.2257 38.1526 31.2466 38.0539 31.1988 37.9801C31.151 37.9063 31.0526 37.8853 30.9789 37.9332C30.9052 37.9811 30.8843 38.0797 30.9321 38.1535C30.9799 38.2273 31.0783 38.2483 31.152 38.2004Z" fill="white"/>
<path d="M28.9348 37.5543C28.9716 37.5304 28.9821 37.4811 28.9582 37.4442C28.9343 37.4074 28.8851 37.3969 28.8483 37.4208C28.8115 37.4447 28.801 37.494 28.8249 37.5309C28.8488 37.5677 28.898 37.5782 28.9348 37.5543Z" fill="white"/>
<path d="M38.4547 36.0166C38.4915 35.9927 38.502 35.9434 38.4781 35.9065C38.4542 35.8697 38.405 35.8592 38.3682 35.8831C38.3314 35.907 38.3209 35.9563 38.3448 35.9932C38.3687 36.03 38.4179 36.0405 38.4547 36.0166Z" fill="white"/>
<path d="M52.9874 26.5687C53.0242 26.5448 53.0347 26.4955 53.0108 26.4587C52.9869 26.4218 52.9377 26.4113 52.9009 26.4352C52.8641 26.4592 52.8537 26.5084 52.8775 26.5453C52.9014 26.5822 52.9506 26.5927 52.9874 26.5687Z" fill="white"/>
<path d="M57.9176 18.2394C57.9544 18.2155 57.9649 18.1662 57.941 18.1293C57.9171 18.0925 57.8679 18.082 57.8311 18.1059C57.7943 18.1298 57.7839 18.1791 57.8078 18.216C57.8316 18.2528 57.8808 18.2633 57.9176 18.2394Z" fill="white"/>
<path d="M63.6771 21.4239C63.7139 21.4 63.7244 21.3507 63.7005 21.3138C63.6766 21.277 63.6275 21.2665 63.5907 21.2904C63.5539 21.3143 63.5434 21.3636 63.5673 21.4005C63.5911 21.4373 63.6403 21.4478 63.6771 21.4239Z" fill="white"/>
<path d="M15.1723 48.7772C15.2091 48.7533 15.2196 48.704 15.1957 48.6671C15.1718 48.6303 15.1226 48.6198 15.0858 48.6437C15.049 48.6676 15.0385 48.7169 15.0624 48.7538C15.0863 48.7906 15.1355 48.8011 15.1723 48.7772Z" fill="white"/>
<path opacity="0.11" d="M11.8366 45.8217C11.8734 45.7978 11.8838 45.7485 11.86 45.7116C11.8361 45.6748 11.7869 45.6643 11.7501 45.6882C11.7133 45.7121 11.7028 45.7614 11.7267 45.7983C11.7506 45.8351 11.7998 45.8456 11.8366 45.8217Z" fill="white"/>
<path opacity="0.11" d="M9.96528 49.2205C10.0021 49.1966 10.0126 49.1473 9.98867 49.1104C9.96479 49.0736 9.9156 49.0631 9.87879 49.087C9.84199 49.1109 9.83152 49.1602 9.8554 49.1971C9.87929 49.2339 9.92848 49.2444 9.96528 49.2205Z" fill="white"/>
<path opacity="0.11" d="M14.7616 51.7981C14.7984 51.7741 14.8089 51.7249 14.785 51.688C14.7611 51.6511 14.7119 51.6406 14.6751 51.6646C14.6383 51.6885 14.6278 51.7378 14.6517 51.7746C14.6756 51.8115 14.7248 51.822 14.7616 51.7981Z" fill="white"/>
<path opacity="0.11" d="M28.8972 38.8119C28.934 38.788 28.9445 38.7387 28.9206 38.7018C28.8968 38.6649 28.8476 38.6545 28.8108 38.6784C28.774 38.7023 28.7635 38.7516 28.7874 38.7884C28.8112 38.8253 28.8604 38.8358 28.8972 38.8119Z" fill="white"/>
<path opacity="0.11" d="M39.8799 38.5072C39.9167 38.4833 39.9271 38.434 39.9032 38.3971C39.8794 38.3603 39.8302 38.3498 39.7934 38.3737C39.7566 38.3976 39.7461 38.4469 39.77 38.4838C39.7939 38.5206 39.8431 38.5311 39.8799 38.5072Z" fill="white"/>
<path opacity="0.11" d="M52.2463 29.5188C52.2831 29.4949 52.2936 29.4456 52.2697 29.4088C52.2459 29.3719 52.1967 29.3614 52.1599 29.3853C52.1231 29.4093 52.1126 29.4585 52.1365 29.4954C52.1603 29.5323 52.2095 29.5428 52.2463 29.5188Z" fill="white"/>
<path opacity="0.3" d="M17.158 45.1143C17.1948 45.0904 17.2053 45.0411 17.1814 45.0042C17.1575 44.9674 17.1083 44.9569 17.0715 44.9808C17.0347 45.0047 17.0242 45.054 17.0481 45.0909C17.072 45.1277 17.1212 45.1382 17.158 45.1143Z" fill="white"/>
<path d="M30.1553 31.5416C30.1921 31.5177 30.2026 31.4684 30.1787 31.4315C30.1548 31.3946 30.1056 31.3842 30.0688 31.4081C30.032 31.432 30.0216 31.4813 30.0454 31.5181C30.0693 31.555 30.1185 31.5655 30.1553 31.5416Z" fill="white"/>
<path d="M40.3339 24.7342C40.3707 24.7103 40.3812 24.661 40.3573 24.6241C40.3334 24.5873 40.2843 24.5768 40.2475 24.6007C40.2107 24.6246 40.2002 24.6739 40.2241 24.7108C40.2479 24.7476 40.2971 24.7581 40.3339 24.7342Z" fill="white"/>
<path d="M29.601 40.6312C29.6378 40.6072 29.6483 40.558 29.6244 40.5211C29.6005 40.4842 29.5513 40.4738 29.5145 40.4977C29.4777 40.5216 29.4672 40.5709 29.4911 40.6077C29.515 40.6446 29.5642 40.6551 29.601 40.6312Z" fill="white"/>
<path opacity="0.3" d="M24.9343 43.6653C24.9711 43.6414 24.9816 43.5921 24.9577 43.5552C24.9338 43.5184 24.8846 43.5079 24.8478 43.5318C24.811 43.5557 24.8005 43.605 24.8244 43.6419C24.8483 43.6787 24.8975 43.6892 24.9343 43.6653Z" fill="white"/>
<path opacity="0.11" d="M16.7863 43.0785C16.8231 43.0546 16.8336 43.0053 16.8097 42.9685C16.7858 42.9316 16.7366 42.9211 16.6998 42.945C16.663 42.969 16.6525 43.0182 16.6764 43.0551C16.7003 43.092 16.7495 43.1024 16.7863 43.0785Z" fill="white"/>
<path opacity="0.3" d="M32.3943 32.3637C32.4311 32.3398 32.4416 32.2905 32.4177 32.2537C32.3938 32.2168 32.3446 32.2063 32.3078 32.2303C32.271 32.2542 32.2605 32.3035 32.2844 32.3403C32.3083 32.3772 32.3575 32.3877 32.3943 32.3637Z" fill="white"/>
<path opacity="0.3" d="M31.5569 41.1639C31.5937 41.14 31.6042 41.0907 31.5803 41.0538C31.5564 41.017 31.5072 41.0065 31.4704 41.0304C31.4336 41.0543 31.4231 41.1036 31.447 41.1405C31.4709 41.1773 31.5201 41.1878 31.5569 41.1639Z" fill="white"/>
<path opacity="0.3" d="M23.9239 47.0749C23.9607 47.051 23.9712 47.0017 23.9473 46.9648C23.9234 46.9279 23.8742 46.9175 23.8374 46.9414C23.8006 46.9653 23.7902 47.0146 23.814 47.0514C23.8379 47.0883 23.8871 47.0988 23.9239 47.0749Z" fill="white"/>
<path opacity="0.3" d="M19.0921 43.8579C19.1289 43.834 19.1394 43.7847 19.1155 43.7479C19.0916 43.711 19.0424 43.7005 19.0056 43.7244C18.9688 43.7484 18.9584 43.7976 18.9822 43.8345C19.0061 43.8714 19.0553 43.8819 19.0921 43.8579Z" fill="white"/>
<path opacity="0.3" d="M60.4277 16.7029C60.4645 16.679 60.4749 16.6297 60.4511 16.5929C60.4272 16.556 60.378 16.5455 60.3412 16.5694C60.3044 16.5933 60.2939 16.6426 60.3178 16.6795C60.3417 16.7164 60.3909 16.7268 60.4277 16.7029Z" fill="white"/>
<path opacity="0.11" d="M47.9197 20.9418C47.9565 20.9179 47.967 20.8686 47.9431 20.8317C47.9193 20.7949 47.8701 20.7844 47.8333 20.8083C47.7965 20.8322 47.786 20.8815 47.8099 20.9184C47.8337 20.9552 47.8829 20.9657 47.9197 20.9418Z" fill="white"/>
<path opacity="0.11" d="M60.4887 20.7437C60.5255 20.7198 60.536 20.6705 60.5121 20.6337C60.4882 20.5968 60.439 20.5863 60.4022 20.6103C60.3654 20.6342 60.3549 20.6835 60.3788 20.7203C60.4027 20.7572 60.4519 20.7677 60.4887 20.7437Z" fill="white"/>
<path opacity="0.3" d="M44.0099 32.3091C44.0836 32.2612 44.1046 32.1626 44.0568 32.0888C44.0089 32.015 43.9105 31.994 43.8368 32.0419C43.7631 32.0898 43.7422 32.1884 43.79 32.2622C43.8378 32.336 43.9363 32.357 44.0099 32.3091Z" fill="white"/>
<path opacity="0.11" d="M46.646 27.7486C46.7197 27.7007 46.7406 27.6021 46.6928 27.5283C46.645 27.4545 46.5465 27.4335 46.4729 27.4814C46.3992 27.5293 46.3782 27.6279 46.4261 27.7017C46.4739 27.7755 46.5723 27.7965 46.646 27.7486Z" fill="white"/>
<path d="M45.0989 25.4335C45.1542 25.3976 45.1699 25.3236 45.134 25.2683C45.0982 25.213 45.0244 25.1972 44.9691 25.2331C44.9139 25.269 44.8982 25.343 44.934 25.3983C44.9699 25.4536 45.0437 25.4694 45.0989 25.4335Z" fill="white"/>
<path d="M45.0419 35.4352C45.0972 35.3993 45.1129 35.3253 45.077 35.27C45.0412 35.2147 44.9674 35.1989 44.9121 35.2348C44.8569 35.2707 44.8412 35.3447 44.877 35.4C44.9129 35.4553 44.9867 35.4711 45.0419 35.4352Z" fill="white"/>
<path d="M68.0411 22.3831C68.0964 22.3472 68.1121 22.2733 68.0762 22.2179C68.0404 22.1626 67.9665 22.1469 67.9113 22.1828C67.8561 22.2187 67.8404 22.2926 67.8762 22.348C67.912 22.4033 67.9859 22.419 68.0411 22.3831Z" fill="white"/>
<path d="M24.038 49.3728C24.0932 49.3369 24.1089 49.2629 24.0731 49.2076C24.0372 49.1523 23.9634 49.1365 23.9082 49.1724C23.8529 49.2083 23.8372 49.2823 23.873 49.3376C23.9089 49.3929 23.9827 49.4087 24.038 49.3728Z" fill="white"/>
<path d="M14.1778 53.6006C14.233 53.5647 14.2487 53.4907 14.2129 53.4354C14.177 53.3801 14.1032 53.3643 14.048 53.4003C13.9928 53.4362 13.977 53.5101 14.0129 53.5654C14.0487 53.6208 14.1226 53.6365 14.1778 53.6006Z" fill="white"/>
<path d="M11.3137 51.6663C11.3689 51.6304 11.3847 51.5565 11.3488 51.5011C11.313 51.4458 11.2391 51.4301 11.1839 51.466C11.1287 51.5019 11.1129 51.5758 11.1488 51.6312C11.1846 51.6865 11.2585 51.7022 11.3137 51.6663Z" fill="white"/>
<path d="M42.7656 28.8485C42.8208 28.8126 42.8365 28.7386 42.8007 28.6833C42.7649 28.6279 42.691 28.6122 42.6358 28.6481C42.5806 28.684 42.5648 28.758 42.6007 28.8133C42.6365 28.8686 42.7104 28.8844 42.7656 28.8485Z" fill="white"/>
<path d="M34.366 41.3309C34.4213 41.295 34.437 41.2211 34.4011 41.1657C34.3653 41.1104 34.2915 41.0947 34.2362 41.1306C34.181 41.1665 34.1653 41.2404 34.2011 41.2958C34.237 41.3511 34.3108 41.3668 34.366 41.3309Z" fill="white"/>
<path d="M53.0266 33.2822C53.0818 33.2463 53.0976 33.1723 53.0617 33.117C53.0259 33.0617 52.952 33.0459 52.8968 33.0818C52.8416 33.1177 52.8258 33.1917 52.8617 33.247C52.8975 33.3024 52.9714 33.3181 53.0266 33.2822Z" fill="white"/>
<path d="M67.7502 17.2565C67.8054 17.2206 67.8211 17.1466 67.7853 17.0913C67.7494 17.036 67.6756 17.0202 67.6204 17.0561C67.5651 17.092 67.5494 17.166 67.5853 17.2213C67.6211 17.2766 67.6949 17.2924 67.7502 17.2565Z" fill="white"/>
<path d="M66.9716 12.5448C67.0268 12.5089 67.0426 12.435 67.0067 12.3796C66.9709 12.3243 66.897 12.3086 66.8418 12.3445C66.7866 12.3804 66.7709 12.4543 66.8067 12.5097C66.8425 12.565 66.9164 12.5807 66.9716 12.5448Z" fill="white"/>
<path opacity="0.3" d="M50.6425 21.9241C50.7162 21.8762 50.7371 21.7776 50.6893 21.7038C50.6415 21.63 50.5431 21.609 50.4694 21.6569C50.3957 21.7048 50.3748 21.8034 50.4226 21.8772C50.4704 21.951 50.5689 21.972 50.6425 21.9241Z" fill="white"/>
<path d="M47.5699 17.1837C47.6436 17.1358 47.6645 17.0372 47.6167 16.9634C47.5689 16.8896 47.4704 16.8686 47.3968 16.9165C47.3231 16.9644 47.3021 17.063 47.35 17.1368C47.3978 17.2106 47.4962 17.2316 47.5699 17.1837Z" fill="white"/>
<path d="M55.0279 21.1614C55.0831 21.1255 55.0988 21.0516 55.063 20.9962C55.0272 20.9409 54.9533 20.9252 54.8981 20.9611C54.8429 20.997 54.8271 21.0709 54.863 21.1263C54.8988 21.1816 54.9727 21.1973 55.0279 21.1614Z" fill="white"/>
<path opacity="0.3" d="M56.573 16.4564C56.6467 16.4085 56.6676 16.3098 56.6198 16.2361C56.572 16.1623 56.4735 16.1413 56.3999 16.1892C56.3262 16.237 56.3052 16.3357 56.3531 16.4095C56.4009 16.4833 56.4993 16.5043 56.573 16.4564Z" fill="white"/>
<path opacity="0.3" d="M66.2445 16.907C66.3181 16.8591 66.3391 16.7605 66.2913 16.6867C66.2435 16.6129 66.145 16.5919 66.0713 16.6398C65.9977 16.6877 65.9767 16.7863 66.0245 16.8601C66.0723 16.9339 66.1708 16.9549 66.2445 16.907Z" fill="white"/>
<path opacity="0.3" d="M58.5309 22.1108C58.6045 22.0629 58.6255 21.9643 58.5777 21.8905C58.5299 21.8167 58.4314 21.7957 58.3578 21.8436C58.2841 21.8915 58.2631 21.9901 58.3109 22.0639C58.3587 22.1377 58.4572 22.1587 58.5309 22.1108Z" fill="white"/>
<path opacity="0.3" d="M21.0007 48.1215C21.0744 48.0737 21.0953 47.975 21.0475 47.9012C20.9997 47.8274 20.9012 47.8064 20.8276 47.8543C20.7539 47.9022 20.7329 48.0009 20.7808 48.0746C20.8286 48.1484 20.927 48.1694 21.0007 48.1215Z" fill="white"/>
<path opacity="0.3" d="M13.2205 47.9594C13.2942 47.9115 13.3151 47.8128 13.2673 47.7391C13.2195 47.6653 13.121 47.6443 13.0474 47.6922C12.9737 47.74 12.9527 47.8387 13.0006 47.9125C13.0484 47.9863 13.1468 48.0073 13.2205 47.9594Z" fill="white"/>
<path opacity="0.11" d="M62.2147 16.6805C62.2883 16.6326 62.3093 16.5339 62.2615 16.4602C62.2137 16.3864 62.1152 16.3654 62.0416 16.4132C61.9679 16.4611 61.9469 16.5598 61.9947 16.6336C62.0425 16.7074 62.141 16.7284 62.2147 16.6805Z" fill="white"/>
<path opacity="0.3" d="M21.284 39.4914C21.3576 39.4436 21.3786 39.3449 21.3308 39.2711C21.283 39.1973 21.1845 39.1763 21.1109 39.2242C21.0372 39.2721 21.0162 39.3707 21.064 39.4445C21.1118 39.5183 21.2103 39.5393 21.284 39.4914Z" fill="white"/>
<path opacity="0.11" d="M18.6184 39.3258C18.6921 39.2779 18.7131 39.1793 18.6653 39.1055C18.6174 39.0317 18.519 39.0107 18.4453 39.0586C18.3716 39.1065 18.3507 39.2051 18.3985 39.2789C18.4463 39.3527 18.5448 39.3737 18.6184 39.3258Z" fill="white"/>
<path opacity="0.3" d="M20.8535 43.9458C20.9271 43.8979 20.9481 43.7993 20.9003 43.7255C20.8525 43.6517 20.754 43.6307 20.6804 43.6786C20.6067 43.7265 20.5857 43.8251 20.6335 43.8989C20.6813 43.9727 20.7798 43.9937 20.8535 43.9458Z" fill="white"/>
<path d="M24.9776 41.1707C25.0328 41.1348 25.0485 41.0609 25.0127 41.0055C24.9768 40.9502 24.903 40.9345 24.8478 40.9704C24.7925 41.0063 24.7768 41.0802 24.8127 41.1356C24.8485 41.1909 24.9223 41.2066 24.9776 41.1707Z" fill="white"/>
<path opacity="0.11" d="M78.8016 20.9569C78.8753 20.9091 78.8963 20.8104 78.8485 20.7366C78.8006 20.6628 78.7022 20.6418 78.6285 20.6897C78.5548 20.7376 78.5339 20.8362 78.5817 20.91C78.6295 20.9838 78.728 21.0048 78.8016 20.9569Z" fill="white"/>
<path d="M79.7098 21.4101C79.765 21.3742 79.7807 21.3002 79.7449 21.2449C79.709 21.1896 79.6352 21.1738 79.58 21.2097C79.5247 21.2456 79.509 21.3196 79.5449 21.3749C79.5807 21.4303 79.6545 21.446 79.7098 21.4101Z" fill="white"/>
<path d="M81.0013 18.5775C81.0565 18.5416 81.0722 18.4676 81.0364 18.4123C81.0005 18.3569 80.9267 18.3412 80.8715 18.3771C80.8162 18.413 80.8005 18.487 80.8364 18.5423C80.8722 18.5976 80.946 18.6134 81.0013 18.5775Z" fill="white"/>
<path d="M75.2475 22.1276C75.3028 22.0917 75.3185 22.0177 75.2826 21.9624C75.2468 21.9071 75.173 21.8913 75.1177 21.9272C75.0625 21.9631 75.0468 22.0371 75.0826 22.0924C75.1185 22.1477 75.1923 22.1635 75.2475 22.1276Z" fill="white"/>
<path opacity="0.11" d="M72.9869 25.8755C73.0605 25.8276 73.0815 25.729 73.0337 25.6552C72.9859 25.5814 72.8874 25.5604 72.8138 25.6083C72.7401 25.6561 72.7191 25.7548 72.7669 25.8286C72.8147 25.9024 72.9132 25.9234 72.9869 25.8755Z" fill="white"/>
<path d="M70.7676 25.2291C70.8044 25.2052 70.8148 25.1559 70.791 25.119C70.7671 25.0822 70.7179 25.0717 70.6811 25.0956C70.6443 25.1195 70.6338 25.1688 70.6577 25.2057C70.6816 25.2425 70.7308 25.253 70.7676 25.2291Z" fill="white"/>
<path d="M80.2877 23.6914C80.3245 23.6675 80.335 23.6182 80.3111 23.5813C80.2872 23.5445 80.238 23.534 80.2012 23.5579C80.1644 23.5818 80.1539 23.6311 80.1778 23.668C80.2017 23.7048 80.2509 23.7153 80.2877 23.6914Z" fill="white"/>
<path d="M94.8224 14.244C94.8592 14.2201 94.8697 14.1708 94.8458 14.134C94.8219 14.0971 94.7727 14.0866 94.7359 14.1105C94.6991 14.1344 94.6886 14.1837 94.7125 14.2206C94.7364 14.2575 94.7856 14.2679 94.8224 14.244Z" fill="white"/>
<path d="M99.7525 5.91419C99.7893 5.89026 99.7997 5.84098 99.7759 5.80412C99.752 5.76725 99.7028 5.75677 99.666 5.78069C99.6292 5.80461 99.6187 5.85389 99.6426 5.89075C99.6665 5.92762 99.7157 5.93811 99.7525 5.91419Z" fill="white"/>
<path d="M105.51 9.09868C105.547 9.07476 105.557 9.02549 105.534 8.98862C105.51 8.95176 105.461 8.94127 105.424 8.96519C105.387 8.98911 105.376 9.03839 105.4 9.07526C105.424 9.11212 105.473 9.12261 105.51 9.09868Z" fill="white"/>
<path d="M57.0054 36.453C57.0422 36.4291 57.0527 36.3798 57.0288 36.3429C57.0049 36.3061 56.9557 36.2956 56.9189 36.3195C56.8821 36.3434 56.8716 36.3927 56.8955 36.4296C56.9194 36.4664 56.9686 36.4769 57.0054 36.453Z" fill="white"/>
<path opacity="0.11" d="M53.6715 33.4965C53.7083 33.4726 53.7188 33.4233 53.6949 33.3864C53.671 33.3496 53.6218 33.3391 53.585 33.363C53.5482 33.3869 53.5377 33.4362 53.5616 33.4731C53.5855 33.5099 53.6347 33.5204 53.6715 33.4965Z" fill="white"/>
<path opacity="0.11" d="M51.8001 36.8963C51.8369 36.8723 51.8474 36.8231 51.8235 36.7862C51.7996 36.7493 51.7504 36.7388 51.7136 36.7628C51.6768 36.7867 51.6664 36.836 51.6902 36.8728C51.7141 36.9097 51.7633 36.9202 51.8001 36.8963Z" fill="white"/>
<path opacity="0.11" d="M56.5946 39.4734C56.6314 39.4494 56.6418 39.4002 56.618 39.3633C56.5941 39.3264 56.5449 39.3159 56.5081 39.3399C56.4713 39.3638 56.4608 39.4131 56.4847 39.4499C56.5086 39.4868 56.5578 39.4973 56.5946 39.4734Z" fill="white"/>
<path opacity="0.11" d="M70.7302 26.4881C70.767 26.4642 70.7775 26.4149 70.7536 26.3781C70.7297 26.3412 70.6805 26.3307 70.6437 26.3546C70.6069 26.3786 70.5965 26.4278 70.6203 26.4647C70.6442 26.5016 70.6934 26.5121 70.7302 26.4881Z" fill="white"/>
<path opacity="0.11" d="M81.7109 26.182C81.7477 26.1581 81.7581 26.1088 81.7343 26.0719C81.7104 26.0351 81.6612 26.0246 81.6244 26.0485C81.5876 26.0724 81.5771 26.1217 81.601 26.1585C81.6249 26.1954 81.6741 26.2059 81.7109 26.182Z" fill="white"/>
<path opacity="0.11" d="M94.0793 17.1936C94.1161 17.1697 94.1266 17.1204 94.1027 17.0836C94.0788 17.0467 94.0296 17.0362 93.9928 17.0601C93.956 17.084 93.9456 17.1333 93.9695 17.1702C93.9933 17.207 94.0425 17.2175 94.0793 17.1936Z" fill="white"/>
<path opacity="0.3" d="M58.9928 32.7903C59.0296 32.7664 59.04 32.7171 59.0162 32.6803C58.9923 32.6434 58.9431 32.6329 58.9063 32.6568C58.8695 32.6807 58.859 32.73 58.8829 32.7669C58.9068 32.8037 58.956 32.8142 58.9928 32.7903Z" fill="white"/>
<path d="M71.9885 19.2164C72.0253 19.1924 72.0358 19.1432 72.0119 19.1063C71.988 19.0694 71.9388 19.0589 71.902 19.0829C71.8652 19.1068 71.8547 19.1561 71.8786 19.1929C71.9025 19.2298 71.9517 19.2403 71.9885 19.2164Z" fill="white"/>
<path d="M82.1688 12.409C82.2056 12.3851 82.2161 12.3358 82.1922 12.2989C82.1683 12.2621 82.1191 12.2516 82.0823 12.2755C82.0455 12.2994 82.0351 12.3487 82.059 12.3856C82.0828 12.4224 82.132 12.4329 82.1688 12.409Z" fill="white"/>
<path d="M71.4359 28.3074C71.4727 28.2835 71.4831 28.2342 71.4592 28.1974C71.4354 28.1605 71.3862 28.15 71.3494 28.1739C71.3126 28.1979 71.3021 28.2471 71.326 28.284C71.3499 28.3209 71.3991 28.3314 71.4359 28.3074Z" fill="white"/>
<path opacity="0.3" d="M66.7692 31.3411C66.806 31.3171 66.8165 31.2679 66.7926 31.231C66.7688 31.1941 66.7196 31.1837 66.6828 31.2076C66.646 31.2315 66.6355 31.2808 66.6594 31.3176C66.6833 31.3545 66.7324 31.365 66.7692 31.3411Z" fill="white"/>
<path opacity="0.11" d="M58.6211 30.7533C58.6579 30.7294 58.6684 30.6801 58.6445 30.6432C58.6206 30.6064 58.5715 30.5959 58.5347 30.6198C58.4979 30.6437 58.4874 30.693 58.5113 30.7299C58.5351 30.7667 58.5843 30.7772 58.6211 30.7533Z" fill="white"/>
<path opacity="0.3" d="M74.2273 20.039C74.2641 20.0151 74.2746 19.9658 74.2507 19.929C74.2268 19.8921 74.1776 19.8816 74.1408 19.9055C74.104 19.9295 74.0935 19.9787 74.1174 20.0156C74.1413 20.0525 74.1905 20.063 74.2273 20.039Z" fill="white"/>
<path opacity="0.3" d="M73.3917 28.8389C73.4285 28.815 73.4389 28.7657 73.415 28.7289C73.3912 28.692 73.342 28.6815 73.3052 28.7054C73.2684 28.7294 73.2579 28.7786 73.2818 28.8155C73.3057 28.8524 73.3549 28.8628 73.3917 28.8389Z" fill="white"/>
<path opacity="0.3" d="M65.7569 34.7511C65.7937 34.7272 65.8042 34.6779 65.7803 34.6411C65.7564 34.6042 65.7072 34.5937 65.6704 34.6176C65.6336 34.6416 65.6231 34.6908 65.647 34.7277C65.6709 34.7646 65.7201 34.7751 65.7569 34.7511Z" fill="white"/>
<path opacity="0.3" d="M60.9251 31.5337C60.9619 31.5098 60.9724 31.4605 60.9485 31.4237C60.9246 31.3868 60.8754 31.3763 60.8386 31.4002C60.8018 31.4241 60.7913 31.4734 60.8152 31.5103C60.8391 31.5471 60.8883 31.5576 60.9251 31.5337Z" fill="white"/>
<path opacity="0.3" d="M102.263 4.37795C102.3 4.35403 102.31 4.30475 102.286 4.26789C102.262 4.23103 102.213 4.22053 102.176 4.24446C102.139 4.26838 102.129 4.31766 102.153 4.35452C102.177 4.39139 102.226 4.40188 102.263 4.37795Z" fill="white"/>
<path opacity="0.11" d="M89.7548 8.61659C89.7916 8.59267 89.802 8.54339 89.7782 8.50652C89.7543 8.46966 89.7051 8.45917 89.6683 8.4831C89.6315 8.50702 89.621 8.5563 89.6449 8.59316C89.6688 8.63002 89.718 8.64051 89.7548 8.61659Z" fill="white"/>
<path opacity="0.11" d="M102.322 8.41854C102.358 8.39462 102.369 8.34534 102.345 8.30848C102.321 8.27162 102.272 8.26112 102.235 8.28505C102.198 8.30897 102.188 8.35825 102.212 8.39511C102.236 8.43197 102.285 8.44247 102.322 8.41854Z" fill="white"/>
<path opacity="0.3" d="M85.8449 19.9839C85.9186 19.936 85.9395 19.8374 85.8917 19.7636C85.8439 19.6898 85.7454 19.6688 85.6718 19.7167C85.5981 19.7646 85.5771 19.8632 85.6249 19.937C85.6728 20.0108 85.7712 20.0318 85.8449 19.9839Z" fill="white"/>
<path opacity="0.11" d="M88.4808 15.4248C88.5545 15.377 88.5754 15.2783 88.5276 15.2045C88.4798 15.1307 88.3813 15.1097 88.3077 15.1576C88.234 15.2055 88.2131 15.3042 88.2609 15.3779C88.3087 15.4517 88.4071 15.4727 88.4808 15.4248Z" fill="white"/>
<path d="M86.9339 13.1088C86.9891 13.0729 87.0048 12.9989 86.969 12.9436C86.9331 12.8882 86.8593 12.8725 86.8041 12.9084C86.7488 12.9443 86.7331 13.0183 86.769 13.0736C86.8048 13.1289 86.8787 13.1447 86.9339 13.1088Z" fill="white"/>
<path d="M86.8769 23.1114C86.9321 23.0755 86.9478 23.0016 86.912 22.9463C86.8761 22.8909 86.8023 22.8752 86.7471 22.9111C86.6918 22.947 86.6761 23.0209 86.712 23.0763C86.7478 23.1316 86.8216 23.1473 86.8769 23.1114Z" fill="white"/>
<path d="M109.874 10.0589C109.93 10.023 109.945 9.94905 109.909 9.89372C109.874 9.83839 109.8 9.82265 109.745 9.85855C109.689 9.89446 109.674 9.96841 109.709 10.0237C109.745 10.0791 109.819 10.0948 109.874 10.0589Z" fill="white"/>
<path d="M65.8729 37.0491C65.9281 37.0131 65.9438 36.9392 65.908 36.8839C65.8722 36.8285 65.7983 36.8128 65.7431 36.8487C65.6879 36.8846 65.6721 36.9586 65.708 37.0139C65.7438 37.0692 65.8177 37.085 65.8729 37.0491Z" fill="white"/>
<path d="M56.0108 41.2769C56.066 41.241 56.0817 41.167 56.0459 41.1117C56.01 41.0564 55.9362 41.0406 55.881 41.0765C55.8257 41.1124 55.81 41.1864 55.8459 41.2417C55.8817 41.297 55.9555 41.3128 56.0108 41.2769Z" fill="white"/>
<path d="M53.1467 39.3426C53.2019 39.3067 53.2176 39.2327 53.1818 39.1774C53.1459 39.1221 53.0721 39.1063 53.0169 39.1422C52.9616 39.1781 52.9459 39.2521 52.9818 39.3074C53.0176 39.3627 53.0914 39.3785 53.1467 39.3426Z" fill="white"/>
<path d="M84.5986 16.5237C84.6538 16.4878 84.6695 16.4139 84.6337 16.3586C84.5978 16.3032 84.524 16.2875 84.4688 16.3234C84.4135 16.3593 84.3978 16.4333 84.4337 16.4886C84.4695 16.5439 84.5433 16.5597 84.5986 16.5237Z" fill="white"/>
<path d="M76.2009 29.0067C76.2561 28.9708 76.2719 28.8968 76.236 28.8415C76.2002 28.7862 76.1263 28.7704 76.0711 28.8063C76.0159 28.8423 76.0002 28.9162 76.036 28.9715C76.0718 29.0269 76.1457 29.0426 76.2009 29.0067Z" fill="white"/>
<path d="M94.8598 20.957C94.915 20.9211 94.9307 20.8471 94.8949 20.7918C94.859 20.7365 94.7852 20.7207 94.73 20.7566C94.6747 20.7925 94.659 20.8665 94.6949 20.9218C94.7307 20.9771 94.8045 20.9929 94.8598 20.957Z" fill="white"/>
<path d="M109.585 4.93127C109.64 4.89536 109.656 4.82141 109.62 4.76608C109.584 4.71075 109.511 4.69501 109.455 4.73091C109.4 4.76682 109.384 4.84077 109.42 4.8961C109.456 4.95143 109.53 4.96717 109.585 4.93127Z" fill="white"/>
<path d="M108.805 0.219628C108.86 0.183722 108.876 0.109766 108.84 0.0544386C108.804 -0.000888405 108.73 -0.0166344 108.675 0.0192707C108.62 0.0551758 108.604 0.129133 108.64 0.18446C108.676 0.239787 108.75 0.255533 108.805 0.219628Z" fill="white"/>
<path opacity="0.3" d="M92.4754 9.6001C92.549 9.55222 92.57 9.45358 92.5222 9.37979C92.4744 9.306 92.3759 9.285 92.3023 9.33288C92.2286 9.38077 92.2076 9.47941 92.2554 9.5532C92.3032 9.62699 92.4017 9.64799 92.4754 9.6001Z" fill="white"/>
<path d="M89.4049 4.85947C89.4785 4.81158 89.4995 4.71295 89.4517 4.63916C89.4039 4.56537 89.3054 4.54437 89.2317 4.59225C89.1581 4.64014 89.1371 4.73878 89.1849 4.81257C89.2327 4.88636 89.3312 4.90736 89.4049 4.85947Z" fill="white"/>
<path d="M96.8629 8.83769C96.9181 8.80179 96.9338 8.72783 96.898 8.6725C96.8621 8.61717 96.7883 8.60143 96.733 8.63733C96.6778 8.67324 96.6621 8.7472 96.6979 8.80252C96.7338 8.85785 96.8076 8.8736 96.8629 8.83769Z" fill="white"/>
<path opacity="0.3" d="M98.408 4.13116C98.4816 4.08328 98.5026 3.98464 98.4548 3.91085C98.407 3.83706 98.3085 3.81606 98.2348 3.86395C98.1612 3.91183 98.1402 4.01047 98.188 4.08426C98.2358 4.15805 98.3343 4.17905 98.408 4.13116Z" fill="white"/>
<path opacity="0.3" d="M108.079 4.5823C108.153 4.53441 108.174 4.43578 108.126 4.36199C108.078 4.2882 107.98 4.2672 107.906 4.31508C107.833 4.36297 107.812 4.46161 107.859 4.5354C107.907 4.60919 108.006 4.63019 108.079 4.5823Z" fill="white"/>
<path opacity="0.3" d="M100.366 9.78562C100.44 9.73774 100.46 9.6391 100.413 9.56531C100.365 9.49152 100.266 9.47052 100.193 9.51841C100.119 9.56629 100.098 9.66493 100.146 9.73872C100.194 9.81251 100.292 9.83351 100.366 9.78562Z" fill="white"/>
<path opacity="0.3" d="M62.8339 35.7963C62.9076 35.7484 62.9285 35.6498 62.8807 35.576C62.8329 35.5022 62.7344 35.4812 62.6608 35.5291C62.5871 35.577 62.5661 35.6756 62.6139 35.7494C62.6618 35.8232 62.7602 35.8442 62.8339 35.7963Z" fill="white"/>
<path opacity="0.3" d="M55.0552 35.6339C55.1289 35.586 55.1499 35.4874 55.1021 35.4136C55.0543 35.3398 54.9558 35.3188 54.8821 35.3667C54.8085 35.4146 54.7875 35.5132 54.8353 35.587C54.8831 35.6608 54.9816 35.6818 55.0552 35.6339Z" fill="white"/>
<path opacity="0.11" d="M104.048 4.35526C104.121 4.30737 104.142 4.20873 104.094 4.13494C104.047 4.06115 103.948 4.04015 103.875 4.08804C103.801 4.13593 103.78 4.23457 103.828 4.30836C103.876 4.38215 103.974 4.40315 104.048 4.35526Z" fill="white"/>
<path opacity="0.3" d="M63.117 27.1667C63.1906 27.1188 63.2116 27.0202 63.1638 26.9464C63.116 26.8726 63.0175 26.8516 62.9438 26.8995C62.8702 26.9474 62.8492 27.046 62.897 27.1198C62.9448 27.1936 63.0433 27.2146 63.117 27.1667Z" fill="white"/>
<path opacity="0.11" d="M60.4514 27.0006C60.5251 26.9527 60.546 26.8541 60.4982 26.7803C60.4504 26.7065 60.352 26.6855 60.2783 26.7334C60.2046 26.7813 60.1837 26.8799 60.2315 26.9537C60.2793 27.0275 60.3777 27.0485 60.4514 27.0006Z" fill="white"/>
<path opacity="0.3" d="M62.6865 31.6206C62.7601 31.5727 62.7811 31.4741 62.7333 31.4003C62.6855 31.3265 62.587 31.3055 62.5133 31.3534C62.4397 31.4013 62.4187 31.4999 62.4665 31.5737C62.5143 31.6475 62.6128 31.6685 62.6865 31.6206Z" fill="white"/>
<path d="M66.8108 28.8465C66.866 28.8106 66.8817 28.7366 66.8459 28.6813C66.8101 28.626 66.7362 28.6102 66.681 28.6461C66.6258 28.682 66.61 28.756 66.6459 28.8113C66.6817 28.8667 66.7556 28.8824 66.8108 28.8465Z" fill="white"/>
</g>
</svg>
