<svg width="76" height="193" viewBox="0 0 76 193" fill="none" xmlns="http://www.w3.org/2000/svg">
<path opacity="0.11" d="M37.704 149.442C37.7419 149.323 37.6759 149.195 37.5565 149.157C37.4372 149.119 37.3097 149.185 37.2718 149.304C37.2339 149.423 37.2999 149.551 37.4192 149.589C37.5386 149.627 37.6661 149.562 37.704 149.442Z" fill="white"/>
<path d="M39.1132 149.121C39.1416 149.032 39.0921 148.936 39.0026 148.907C38.9131 148.879 38.8175 148.928 38.7891 149.018C38.7607 149.107 38.8102 149.203 38.8997 149.231C38.9891 149.26 39.0847 149.211 39.1132 149.121Z" fill="white"/>
<path d="M37.9791 144.832C38.0076 144.742 37.9581 144.647 37.8686 144.618C37.7791 144.589 37.6835 144.639 37.6551 144.728C37.6267 144.818 37.6762 144.913 37.7656 144.942C37.8551 144.971 37.9507 144.921 37.9791 144.832Z" fill="white"/>
<path d="M34.8455 153.942C34.8739 153.853 34.8244 153.757 34.7349 153.728C34.6454 153.7 34.5498 153.749 34.5214 153.839C34.493 153.928 34.5425 154.024 34.632 154.052C34.7215 154.081 34.817 154.032 34.8455 153.942Z" fill="white"/>
<path opacity="0.11" d="M35.739 160.115C35.7769 159.996 35.7109 159.868 35.5915 159.83C35.4722 159.792 35.3447 159.858 35.3068 159.977C35.2689 160.097 35.3349 160.224 35.4542 160.262C35.5736 160.301 35.7011 160.235 35.739 160.115Z" fill="white"/>
<path d="M32.7123 161.408C32.7313 161.348 32.6983 161.284 32.6387 161.265C32.5791 161.246 32.5154 161.279 32.4964 161.339C32.4775 161.398 32.5105 161.462 32.5701 161.481C32.6297 161.5 32.6934 161.467 32.7123 161.408Z" fill="white"/>
<path d="M41.8126 151.112C41.8315 151.053 41.7985 150.989 41.7389 150.97C41.6793 150.951 41.6156 150.984 41.5966 151.043C41.5777 151.103 41.6107 151.167 41.6703 151.186C41.7299 151.205 41.7936 151.172 41.8126 151.112Z" fill="white"/>
<path d="M49.2922 127.571C49.3111 127.511 49.2781 127.447 49.2185 127.428C49.1589 127.409 49.0952 127.442 49.0762 127.502C49.0573 127.561 49.0903 127.625 49.1499 127.644C49.2095 127.663 49.2732 127.63 49.2922 127.571Z" fill="white"/>
<path d="M47.1984 113.936C47.2174 113.876 47.1844 113.813 47.1248 113.794C47.0651 113.775 47.0014 113.808 46.9825 113.867C46.9636 113.927 46.9965 113.991 47.0562 114.01C47.1158 114.029 47.1795 113.996 47.1984 113.936Z" fill="white"/>
<path d="M56.4219 112.243C56.4408 112.184 56.4079 112.12 56.3482 112.101C56.2886 112.082 56.2249 112.115 56.206 112.174C56.187 112.234 56.22 112.298 56.2796 112.317C56.3393 112.336 56.403 112.303 56.4219 112.243Z" fill="white"/>
<path d="M27.6881 186.212C27.7071 186.152 27.6741 186.088 27.6145 186.069C27.5549 186.05 27.4912 186.083 27.4722 186.143C27.4533 186.202 27.4863 186.266 27.5459 186.285C27.6055 186.304 27.6692 186.271 27.6881 186.212Z" fill="white"/>
<path opacity="0.11" d="M21.3405 185.967C21.3594 185.908 21.3264 185.844 21.2668 185.825C21.2072 185.806 21.1435 185.839 21.1245 185.899C21.1056 185.958 21.1386 186.022 21.1982 186.041C21.2578 186.06 21.3215 186.027 21.3405 185.967Z" fill="white"/>
<path opacity="0.11" d="M22.3492 191.403C22.3681 191.344 22.3352 191.28 22.2755 191.261C22.2159 191.242 22.1522 191.275 22.1333 191.334C22.1144 191.394 22.1473 191.458 22.207 191.477C22.2666 191.496 22.3303 191.463 22.3492 191.403Z" fill="white"/>
<path opacity="0.11" d="M29.9617 189.91C29.9807 189.851 29.9477 189.787 29.8881 189.768C29.8284 189.749 29.7648 189.782 29.7458 189.841C29.7269 189.901 29.7599 189.965 29.8195 189.984C29.8791 190.003 29.9428 189.97 29.9617 189.91Z" fill="white"/>
<path opacity="0.11" d="M33.8071 162.829C33.826 162.769 33.7931 162.706 33.7334 162.687C33.6738 162.668 33.6101 162.701 33.5912 162.76C33.5722 162.82 33.6052 162.883 33.6648 162.903C33.7245 162.922 33.7882 162.889 33.8071 162.829Z" fill="white"/>
<path opacity="0.11" d="M45.6325 152.57C45.6515 152.51 45.6185 152.447 45.5588 152.428C45.4992 152.409 45.4355 152.441 45.4166 152.501C45.3977 152.561 45.4306 152.624 45.4903 152.644C45.5499 152.663 45.6136 152.63 45.6325 152.57Z" fill="white"/>
<path opacity="0.11" d="M51.1396 131.492C51.1585 131.432 51.1255 131.368 51.0659 131.349C51.0063 131.33 50.9426 131.363 50.9237 131.423C50.9047 131.482 50.9377 131.546 50.9973 131.565C51.0569 131.584 51.1206 131.551 51.1396 131.492Z" fill="white"/>
<path opacity="0.3" d="M26.566 180.38C26.585 180.32 26.552 180.257 26.4924 180.238C26.4327 180.219 26.369 180.251 26.3501 180.311C26.3312 180.371 26.3641 180.434 26.4238 180.453C26.4834 180.473 26.5471 180.44 26.566 180.38Z" fill="white"/>
<path d="M28.6226 153.679C28.6415 153.62 28.6086 153.556 28.5489 153.537C28.4893 153.518 28.4256 153.551 28.4067 153.61C28.3877 153.67 28.4207 153.734 28.4803 153.753C28.54 153.772 28.6037 153.739 28.6226 153.679Z" fill="white"/>
<path d="M33.6918 136.98C33.7107 136.92 33.6777 136.857 33.6181 136.837C33.5585 136.818 33.4948 136.851 33.4758 136.911C33.4569 136.971 33.4899 137.034 33.5495 137.053C33.6091 137.072 33.6728 137.04 33.6918 136.98Z" fill="white"/>
<path d="M36.2273 164.198C36.2462 164.138 36.2133 164.074 36.1536 164.055C36.094 164.036 36.0303 164.069 36.0114 164.129C35.9925 164.188 36.0254 164.252 36.0851 164.271C36.1447 164.29 36.2084 164.257 36.2273 164.198Z" fill="white"/>
<path opacity="0.3" d="M33.8266 171.757C33.8456 171.697 33.8126 171.633 33.753 171.614C33.6934 171.595 33.6297 171.628 33.6107 171.688C33.5918 171.747 33.6248 171.811 33.6844 171.83C33.744 171.849 33.8077 171.816 33.8266 171.757Z" fill="white"/>
<path opacity="0.11" d="M24.3159 178.472C24.3348 178.412 24.3018 178.349 24.2422 178.33C24.1826 178.311 24.1189 178.343 24.1 178.403C24.081 178.463 24.114 178.526 24.1736 178.545C24.2333 178.565 24.2969 178.532 24.3159 178.472Z" fill="white"/>
<path opacity="0.3" d="M31.8346 152.563C31.8535 152.504 31.8205 152.44 31.7609 152.421C31.7013 152.402 31.6376 152.435 31.6186 152.494C31.5997 152.554 31.6327 152.618 31.6923 152.637C31.7519 152.656 31.8156 152.623 31.8346 152.563Z" fill="white"/>
<path opacity="0.3" d="M38.8645 163.017C38.8835 162.957 38.8505 162.894 38.7909 162.875C38.7312 162.856 38.6675 162.888 38.6486 162.948C38.6297 163.008 38.6626 163.071 38.7223 163.09C38.7819 163.11 38.8456 163.077 38.8645 163.017Z" fill="white"/>
<path opacity="0.3" d="M35.7914 176.429C35.8103 176.369 35.7773 176.305 35.7177 176.286C35.6581 176.267 35.5944 176.3 35.5754 176.36C35.5565 176.419 35.5895 176.483 35.6491 176.502C35.7087 176.521 35.7724 176.488 35.7914 176.429Z" fill="white"/>
<path opacity="0.3" d="M27.5611 177.248C27.58 177.189 27.547 177.125 27.4874 177.106C27.4278 177.087 27.3641 177.12 27.3452 177.179C27.3262 177.239 27.3592 177.303 27.4188 177.322C27.4785 177.341 27.5421 177.308 27.5611 177.248Z" fill="white"/>
<path opacity="0.3" d="M48.5768 109.977C48.5958 109.917 48.5628 109.853 48.5032 109.834C48.4435 109.815 48.3798 109.848 48.3609 109.908C48.342 109.967 48.3749 110.031 48.4346 110.05C48.4942 110.069 48.5579 110.036 48.5768 109.977Z" fill="white"/>
<path opacity="0.11" d="M38.6241 125.947C38.643 125.888 38.61 125.824 38.5504 125.805C38.4908 125.786 38.4271 125.819 38.4081 125.878C38.3892 125.938 38.4222 126.002 38.4818 126.021C38.5414 126.04 38.6051 126.007 38.6241 125.947Z" fill="white"/>
<path opacity="0.11" d="M52.2949 114.375C52.3139 114.315 52.2809 114.251 52.2213 114.232C52.1616 114.213 52.0979 114.246 52.079 114.306C52.0601 114.365 52.093 114.429 52.1527 114.448C52.2123 114.467 52.276 114.434 52.2949 114.375Z" fill="white"/>
<path opacity="0.3" d="M44.587 142.007C44.625 141.888 44.5589 141.76 44.4396 141.722C44.3202 141.684 44.1927 141.75 44.1548 141.869C44.1169 141.988 44.1829 142.116 44.3023 142.154C44.4216 142.192 44.5491 142.126 44.587 142.007Z" fill="white"/>
<path opacity="0.11" d="M43.371 134.601C43.4089 134.481 43.3429 134.354 43.2235 134.315C43.1042 134.277 42.9767 134.343 42.9388 134.463C42.9009 134.582 42.9669 134.709 43.0862 134.748C43.2056 134.786 43.3331 134.72 43.371 134.601Z" fill="white"/>
<path d="M39.5724 133.447C39.6008 133.358 39.5513 133.262 39.4619 133.234C39.3724 133.205 39.2768 133.254 39.2484 133.344C39.2199 133.433 39.2694 133.529 39.3589 133.558C39.4484 133.586 39.544 133.537 39.5724 133.447Z" fill="white"/>
<path d="M48.5477 144.52C48.5761 144.43 48.5266 144.334 48.4371 144.306C48.3476 144.277 48.2521 144.327 48.2236 144.416C48.1952 144.506 48.2447 144.601 48.3342 144.63C48.4237 144.658 48.5193 144.609 48.5477 144.52Z" fill="white"/>
<path d="M62.0992 109.358C62.1276 109.269 62.0781 109.173 61.9886 109.144C61.8991 109.116 61.8035 109.165 61.7751 109.255C61.7467 109.344 61.7962 109.44 61.8857 109.468C61.9751 109.497 62.0707 109.448 62.0992 109.358Z" fill="white"/>
<path d="M37.9947 178.857C38.0231 178.767 37.9736 178.672 37.8842 178.643C37.7947 178.615 37.6991 178.664 37.6707 178.753C37.6422 178.843 37.6917 178.939 37.7812 178.967C37.8707 178.996 37.9663 178.946 37.9947 178.857Z" fill="white"/>
<path d="M30.9492 192.426C30.9776 192.336 30.9281 192.24 30.8386 192.212C30.7491 192.183 30.6535 192.233 30.6251 192.322C30.5967 192.412 30.6462 192.507 30.7357 192.536C30.8252 192.564 30.9208 192.515 30.9492 192.426Z" fill="white"/>
<path d="M26.0441 192.882C26.0725 192.792 26.023 192.696 25.9335 192.668C25.844 192.639 25.7484 192.689 25.72 192.778C25.6916 192.868 25.7411 192.963 25.8306 192.992C25.9201 193.02 26.0157 192.971 26.0441 192.882Z" fill="white"/>
<path d="M40.0885 139.319C40.1169 139.23 40.0675 139.134 39.978 139.106C39.8885 139.077 39.7929 139.126 39.7645 139.216C39.736 139.305 39.7855 139.401 39.875 139.43C39.9645 139.458 40.0601 139.409 40.0885 139.319Z" fill="white"/>
<path d="M42.1099 160.664C42.1384 160.575 42.0889 160.479 41.9994 160.45C41.9099 160.422 41.8143 160.471 41.7859 160.561C41.7574 160.65 41.8069 160.746 41.8964 160.774C41.9859 160.803 42.0815 160.753 42.1099 160.664Z" fill="white"/>
<path d="M55.4015 134.934C55.43 134.844 55.3805 134.748 55.291 134.72C55.2015 134.691 55.1059 134.741 55.0775 134.83C55.0491 134.92 55.0986 135.015 55.188 135.044C55.2775 135.072 55.3731 135.023 55.4015 134.934Z" fill="white"/>
<path d="M57.1474 103.971C57.1758 103.881 57.1263 103.786 57.0368 103.757C56.9473 103.728 56.8517 103.778 56.8233 103.867C56.7949 103.957 56.8444 104.052 56.9339 104.081C57.0234 104.11 57.119 104.06 57.1474 103.971Z" fill="white"/>
<path d="M52.0293 99.4806C52.0577 99.3911 52.0082 99.2954 51.9187 99.2668C51.8292 99.2382 51.7336 99.2876 51.7052 99.3771C51.6768 99.4665 51.7263 99.5622 51.8158 99.5908C51.9053 99.6194 52.0009 99.5701 52.0293 99.4806Z" fill="white"/>
<path opacity="0.3" d="M42.5128 124.572C42.5508 124.453 42.4847 124.326 42.3654 124.287C42.246 124.249 42.1185 124.315 42.0806 124.434C42.0427 124.554 42.1087 124.681 42.2281 124.72C42.3474 124.758 42.4749 124.692 42.5128 124.572Z" fill="white"/>
<path d="M34.8436 122.122C34.8815 122.003 34.8155 121.875 34.6962 121.837C34.5768 121.799 34.4493 121.865 34.4114 121.984C34.3735 122.104 34.4395 122.231 34.5589 122.269C34.6782 122.308 34.8057 122.242 34.8436 122.122Z" fill="white"/>
<path d="M46.6554 119.769C46.6838 119.679 46.6343 119.584 46.5449 119.555C46.4554 119.526 46.3598 119.576 46.3314 119.665C46.3029 119.755 46.3524 119.85 46.4419 119.879C46.5314 119.908 46.627 119.858 46.6554 119.769Z" fill="white"/>
<path opacity="0.3" d="M44.1081 113.186C44.146 113.066 44.08 112.939 43.9606 112.901C43.8413 112.862 43.7138 112.928 43.6759 113.048C43.638 113.167 43.704 113.295 43.8233 113.333C43.9427 113.371 44.0702 113.305 44.1081 113.186Z" fill="white"/>
<path opacity="0.3" d="M55.173 104.944C55.2109 104.825 55.1449 104.697 55.0256 104.659C54.9062 104.621 54.7787 104.687 54.7408 104.806C54.7029 104.925 54.7689 105.053 54.8883 105.091C55.0076 105.129 55.1351 105.063 55.173 104.944Z" fill="white"/>
<path opacity="0.3" d="M51.3726 117.649C51.4105 117.529 51.3445 117.402 51.2252 117.363C51.1058 117.325 50.9783 117.391 50.9404 117.511C50.9025 117.63 50.9685 117.757 51.0879 117.796C51.2072 117.834 51.3347 117.768 51.3726 117.649Z" fill="white"/>
<path opacity="0.3" d="M33.516 180.221C33.5539 180.102 33.4879 179.974 33.3685 179.936C33.2492 179.898 33.1217 179.964 33.0838 180.083C33.0459 180.203 33.1119 180.33 33.2312 180.368C33.3506 180.406 33.4781 180.341 33.516 180.221Z" fill="white"/>
<path opacity="0.3" d="M24.7952 187.072C24.8332 186.952 24.7671 186.825 24.6478 186.787C24.5284 186.748 24.4009 186.814 24.363 186.934C24.3251 187.053 24.3911 187.181 24.5105 187.219C24.6298 187.257 24.7573 187.191 24.7952 187.072Z" fill="white"/>
<path opacity="0.11" d="M50.5242 108.337C50.5621 108.218 50.4961 108.09 50.3767 108.052C50.2574 108.014 50.1299 108.08 50.092 108.199C50.0541 108.318 50.1201 108.446 50.2394 108.484C50.3588 108.522 50.4863 108.457 50.5242 108.337Z" fill="white"/>
<path opacity="0.3" d="M26.0308 170.456C26.0687 170.337 26.0027 170.209 25.8833 170.171C25.764 170.133 25.6365 170.198 25.5986 170.318C25.5606 170.437 25.6267 170.565 25.746 170.603C25.8654 170.641 25.9929 170.575 26.0308 170.456Z" fill="white"/>
<path opacity="0.11" d="M22.9438 172.681C22.9817 172.561 22.9157 172.434 22.7963 172.396C22.677 172.358 22.5495 172.423 22.5116 172.543C22.4736 172.662 22.5397 172.79 22.659 172.828C22.7784 172.866 22.9059 172.8 22.9438 172.681Z" fill="white"/>
<path opacity="0.3" d="M29.5809 175.754C29.6188 175.635 29.5528 175.507 29.4335 175.469C29.3141 175.431 29.1866 175.497 29.1487 175.616C29.1108 175.735 29.1768 175.863 29.2962 175.901C29.4155 175.939 29.543 175.874 29.5809 175.754Z" fill="white"/>
<path d="M31.6178 168.97C31.6462 168.88 31.5967 168.784 31.5072 168.756C31.4177 168.727 31.3221 168.777 31.2937 168.866C31.2653 168.956 31.3148 169.051 31.4043 169.08C31.4938 169.108 31.5894 169.059 31.6178 168.97Z" fill="white"/>
<path opacity="0.11" d="M16.5845 101.562C16.6224 101.442 16.5564 101.315 16.4371 101.277C16.3177 101.238 16.1902 101.304 16.1523 101.424C16.1144 101.543 16.1804 101.671 16.2998 101.709C16.4191 101.747 16.5466 101.681 16.5845 101.562Z" fill="white"/>
<path d="M17.9938 101.239C18.0222 101.15 17.9727 101.054 17.8833 101.026C17.7938 100.997 17.6982 101.046 17.6697 101.136C17.6413 101.225 17.6908 101.321 17.7803 101.35C17.8698 101.378 17.9654 101.329 17.9938 101.239Z" fill="white"/>
<path d="M16.8599 96.9502C16.8884 96.8607 16.8389 96.765 16.7494 96.7364C16.6599 96.7078 16.5643 96.7572 16.5359 96.8466C16.5075 96.9361 16.557 97.0318 16.6465 97.0604C16.7359 97.089 16.8315 97.0396 16.8599 96.9502Z" fill="white"/>
<path d="M13.7262 106.062C13.7546 105.972 13.7051 105.876 13.6156 105.848C13.5261 105.819 13.4305 105.869 13.4021 105.958C13.3737 106.048 13.4232 106.143 13.5127 106.172C13.6022 106.2 13.6978 106.151 13.7262 106.062Z" fill="white"/>
<path opacity="0.11" d="M14.6198 112.235C14.6577 112.116 14.5917 111.988 14.4723 111.95C14.353 111.912 14.2255 111.978 14.1876 112.097C14.1497 112.216 14.2157 112.344 14.335 112.382C14.4544 112.42 14.5819 112.354 14.6198 112.235Z" fill="white"/>
<path d="M11.5931 113.527C11.6121 113.467 11.5791 113.404 11.5195 113.385C11.4599 113.366 11.3962 113.398 11.3772 113.458C11.3583 113.518 11.3913 113.581 11.4509 113.6C11.5105 113.62 11.5742 113.587 11.5931 113.527Z" fill="white"/>
<path d="M20.6934 103.232C20.7123 103.172 20.6793 103.108 20.6197 103.089C20.5601 103.07 20.4964 103.103 20.4775 103.163C20.4585 103.222 20.4915 103.286 20.5511 103.305C20.6108 103.324 20.6744 103.291 20.6934 103.232Z" fill="white"/>
<path d="M28.173 79.6902C28.1919 79.6306 28.1589 79.5668 28.0993 79.5478C28.0397 79.5288 27.976 79.5616 27.9571 79.6213C27.9381 79.6809 27.9711 79.7446 28.0307 79.7637C28.0903 79.7827 28.154 79.7498 28.173 79.6902Z" fill="white"/>
<path d="M26.0792 66.0565C26.0982 65.9969 26.0652 65.9331 26.0056 65.9141C25.9459 65.895 25.8823 65.9279 25.8633 65.9875C25.8444 66.0471 25.8774 66.1109 25.937 66.1299C25.9966 66.149 26.0603 66.1161 26.0792 66.0565Z" fill="white"/>
<path d="M35.3026 64.3628C35.3216 64.3032 35.2886 64.2394 35.229 64.2204C35.1693 64.2013 35.1056 64.2342 35.0867 64.2938C35.0678 64.3534 35.1008 64.4172 35.1604 64.4362C35.22 64.4553 35.2837 64.4224 35.3026 64.3628Z" fill="white"/>
<path d="M6.567 138.33C6.58594 138.27 6.55296 138.206 6.49333 138.187C6.43371 138.168 6.37002 138.201 6.35108 138.261C6.33214 138.32 6.36512 138.384 6.42475 138.403C6.48437 138.422 6.54806 138.389 6.567 138.33Z" fill="white"/>
<path opacity="0.11" d="M0.221268 138.086C0.240208 138.026 0.207225 137.962 0.1476 137.943C0.0879748 137.924 0.0242904 137.957 0.00535082 138.017C-0.0135888 138.076 0.0193887 138.14 0.0790135 138.159C0.138638 138.178 0.202328 138.145 0.221268 138.086Z" fill="white"/>
<path opacity="0.11" d="M1.22991 143.522C1.24885 143.463 1.21587 143.399 1.15625 143.38C1.09662 143.361 1.03293 143.394 1.01399 143.453C0.995052 143.513 1.02804 143.577 1.08766 143.596C1.14728 143.615 1.21097 143.582 1.22991 143.522Z" fill="white"/>
<path opacity="0.11" d="M8.84254 142.029C8.86148 141.969 8.82851 141.905 8.76888 141.886C8.70926 141.867 8.64557 141.9 8.62663 141.96C8.60769 142.019 8.64067 142.083 8.70029 142.102C8.75992 142.121 8.8236 142.088 8.84254 142.029Z" fill="white"/>
<path opacity="0.11" d="M12.6879 114.949C12.7068 114.889 12.6739 114.825 12.6142 114.806C12.5546 114.787 12.4909 114.82 12.472 114.88C12.453 114.939 12.486 115.003 12.5457 115.022C12.6053 115.041 12.669 115.008 12.6879 114.949Z" fill="white"/>
<path opacity="0.11" d="M24.5133 104.689C24.5323 104.63 24.4993 104.566 24.4397 104.547C24.38 104.528 24.3163 104.561 24.2974 104.621C24.2785 104.68 24.3114 104.744 24.3711 104.763C24.4307 104.782 24.4944 104.749 24.5133 104.689Z" fill="white"/>
<path opacity="0.11" d="M30.0205 83.6111C30.0394 83.5515 30.0064 83.4877 29.9468 83.4687C29.8872 83.4496 29.8235 83.4825 29.8046 83.5421C29.7856 83.6017 29.8186 83.6655 29.8782 83.6846C29.9379 83.7036 30.0015 83.6707 30.0205 83.6111Z" fill="white"/>
<path opacity="0.3" d="M5.44682 132.499C5.46576 132.44 5.43278 132.376 5.37315 132.357C5.31353 132.338 5.24984 132.371 5.2309 132.43C5.21196 132.49 5.24494 132.554 5.30457 132.573C5.36419 132.592 5.42788 132.559 5.44682 132.499Z" fill="white"/>
<path d="M7.50342 105.8C7.52236 105.74 7.48937 105.676 7.42975 105.657C7.37012 105.638 7.30643 105.671 7.28749 105.731C7.26855 105.79 7.30154 105.854 7.36116 105.873C7.42079 105.892 7.48448 105.859 7.50342 105.8Z" fill="white"/>
<path d="M12.5726 89.1006C12.5915 89.041 12.5585 88.9772 12.4989 88.9581C12.4393 88.9391 12.3756 88.972 12.3566 89.0316C12.3377 89.0912 12.3707 89.155 12.4303 89.174C12.4899 89.1931 12.5536 89.1602 12.5726 89.1006Z" fill="white"/>
<path d="M15.1081 116.316C15.1271 116.256 15.0941 116.193 15.0345 116.174C14.9748 116.155 14.9111 116.187 14.8922 116.247C14.8733 116.307 14.9062 116.37 14.9659 116.389C15.0255 116.408 15.0892 116.376 15.1081 116.316Z" fill="white"/>
<path opacity="0.3" d="M12.7075 123.876C12.7264 123.817 12.6934 123.753 12.6338 123.734C12.5742 123.715 12.5105 123.748 12.4915 123.807C12.4726 123.867 12.5056 123.931 12.5652 123.95C12.6248 123.969 12.6885 123.936 12.7075 123.876Z" fill="white"/>
<path opacity="0.11" d="M3.19864 130.591C3.21758 130.532 3.1846 130.468 3.12498 130.449C3.06535 130.43 3.00166 130.463 2.98272 130.522C2.96378 130.582 2.99676 130.646 3.05639 130.665C3.11601 130.684 3.1797 130.651 3.19864 130.591Z" fill="white"/>
<path opacity="0.3" d="M10.7154 104.683C10.7343 104.623 10.7013 104.56 10.6417 104.54C10.5821 104.521 10.5184 104.554 10.4995 104.614C10.4805 104.674 10.5135 104.737 10.5731 104.756C10.6327 104.775 10.6964 104.742 10.7154 104.683Z" fill="white"/>
<path opacity="0.3" d="M17.7453 115.135C17.7643 115.076 17.7313 115.012 17.6717 114.993C17.612 114.974 17.5484 115.007 17.5294 115.066C17.5105 115.126 17.5435 115.19 17.6031 115.209C17.6627 115.228 17.7264 115.195 17.7453 115.135Z" fill="white"/>
<path opacity="0.3" d="M14.6722 128.548C14.6911 128.488 14.6581 128.425 14.5985 128.406C14.5389 128.387 14.4752 128.419 14.4562 128.479C14.4373 128.539 14.4703 128.602 14.5299 128.621C14.5895 128.641 14.6532 128.608 14.6722 128.548Z" fill="white"/>
<path opacity="0.3" d="M6.44182 129.367C6.46076 129.307 6.42778 129.244 6.36816 129.224C6.30853 129.205 6.24484 129.238 6.2259 129.298C6.20696 129.358 6.23994 129.421 6.29957 129.44C6.35919 129.459 6.42288 129.427 6.44182 129.367Z" fill="white"/>
<path opacity="0.3" d="M27.4577 62.0951C27.4766 62.0354 27.4436 61.9717 27.384 61.9526C27.3244 61.9336 27.2607 61.9665 27.2417 62.0261C27.2228 62.0857 27.2558 62.1495 27.3154 62.1685C27.375 62.1876 27.4387 62.1547 27.4577 62.0951Z" fill="white"/>
<path opacity="0.11" d="M17.5048 78.0667C17.5238 78.007 17.4908 77.9433 17.4312 77.9242C17.3716 77.9052 17.3079 77.9381 17.2889 77.9977C17.27 78.0573 17.303 78.1211 17.3626 78.1401C17.4222 78.1592 17.4859 78.1263 17.5048 78.0667Z" fill="white"/>
<path opacity="0.11" d="M31.1758 66.4942C31.1947 66.4345 31.1617 66.3708 31.1021 66.3517C31.0425 66.3327 30.9788 66.3656 30.9598 66.4252C30.9409 66.4848 30.9739 66.5486 31.0335 66.5676C31.0931 66.5867 31.1568 66.5538 31.1758 66.4942Z" fill="white"/>
<path opacity="0.3" d="M23.4678 94.1265C23.5058 94.0072 23.4397 93.8796 23.3204 93.8414C23.201 93.8033 23.0735 93.8691 23.0356 93.9885C22.9977 94.1078 23.0637 94.2354 23.1831 94.2736C23.3024 94.3117 23.4299 94.2459 23.4678 94.1265Z" fill="white"/>
<path opacity="0.11" d="M22.2518 86.72C22.2897 86.6007 22.2237 86.473 22.1044 86.4349C21.985 86.3968 21.8575 86.4626 21.8196 86.5819C21.7817 86.7013 21.8477 86.8289 21.9671 86.867C22.0864 86.9052 22.2139 86.8393 22.2518 86.72Z" fill="white"/>
<path d="M18.4532 85.5656C18.4816 85.4761 18.4321 85.3804 18.3427 85.3518C18.2532 85.3232 18.1576 85.3726 18.1292 85.4621C18.1007 85.5515 18.1502 85.6472 18.2397 85.6758C18.3292 85.7044 18.4248 85.655 18.4532 85.5656Z" fill="white"/>
<path d="M27.4283 96.6393C27.4568 96.5499 27.4073 96.4542 27.3178 96.4256C27.2283 96.397 27.1327 96.4463 27.1043 96.5358C27.0759 96.6253 27.1254 96.721 27.2148 96.7496C27.3043 96.7782 27.3999 96.7288 27.4283 96.6393Z" fill="white"/>
<path d="M40.98 61.4776C41.0084 61.3881 40.9589 61.2924 40.8694 61.2638C40.7799 61.2352 40.6843 61.2846 40.6559 61.3741C40.6275 61.4635 40.677 61.5592 40.7665 61.5878C40.856 61.6164 40.9515 61.567 40.98 61.4776Z" fill="white"/>
<path d="M16.8756 130.976C16.904 130.887 16.8545 130.791 16.765 130.763C16.6755 130.734 16.58 130.783 16.5515 130.873C16.5231 130.962 16.5726 131.058 16.6621 131.087C16.7516 131.115 16.8472 131.066 16.8756 130.976Z" fill="white"/>
<path d="M9.82804 144.544C9.85646 144.454 9.80696 144.359 9.71747 144.33C9.62798 144.302 9.5324 144.351 9.50397 144.44C9.47555 144.53 9.52505 144.626 9.61453 144.654C9.70402 144.683 9.79961 144.633 9.82804 144.544Z" fill="white"/>
<path d="M4.92506 145C4.95349 144.911 4.90398 144.815 4.81449 144.786C4.72501 144.758 4.62942 144.807 4.60099 144.897C4.57257 144.986 4.62207 145.082 4.71156 145.11C4.80104 145.139 4.89663 145.09 4.92506 145Z" fill="white"/>
<path d="M18.9674 91.4387C18.9958 91.3492 18.9463 91.2535 18.8568 91.2249C18.7673 91.1964 18.6717 91.2457 18.6433 91.3352C18.6149 91.4247 18.6644 91.5204 18.7539 91.5489C18.8434 91.5775 18.9389 91.5282 18.9674 91.4387Z" fill="white"/>
<path d="M20.9907 112.782C21.0192 112.693 20.9697 112.597 20.8802 112.568C20.7907 112.54 20.6951 112.589 20.6667 112.679C20.6382 112.768 20.6877 112.864 20.7772 112.892C20.8667 112.921 20.9623 112.872 20.9907 112.782Z" fill="white"/>
<path d="M34.2824 87.0518C34.3108 86.9623 34.2613 86.8667 34.1718 86.8381C34.0823 86.8095 33.9867 86.8588 33.9583 86.9483C33.9299 87.0378 33.9794 87.1335 34.0689 87.1621C34.1583 87.1907 34.2539 87.1413 34.2824 87.0518Z" fill="white"/>
<path d="M36.0282 56.0893C36.0567 55.9998 36.0072 55.9041 35.9177 55.8755C35.8282 55.8469 35.7326 55.8963 35.7042 55.9858C35.6757 56.0752 35.7252 56.1709 35.8147 56.1995C35.9042 56.2281 35.9998 56.1787 36.0282 56.0893Z" fill="white"/>
<path d="M30.912 51.6C30.9405 51.5105 30.891 51.4148 30.8015 51.3863C30.712 51.3577 30.6164 51.407 30.588 51.4965C30.5596 51.586 30.6091 51.6817 30.6985 51.7102C30.788 51.7388 30.8836 51.6895 30.912 51.6Z" fill="white"/>
<path opacity="0.3" d="M21.3937 76.6909C21.4316 76.5716 21.3655 76.444 21.2462 76.4058C21.1268 76.3677 20.9994 76.4335 20.9614 76.5529C20.9235 76.6722 20.9896 76.7998 21.1089 76.838C21.2283 76.8761 21.3557 76.8103 21.3937 76.6909Z" fill="white"/>
<path d="M13.7244 74.2419C13.7623 74.1226 13.6963 73.9949 13.577 73.9568C13.4576 73.9187 13.3301 73.9845 13.2922 74.1038C13.2543 74.2232 13.3203 74.3508 13.4397 74.3889C13.559 74.427 13.6865 74.3612 13.7244 74.2419Z" fill="white"/>
<path d="M25.536 71.8883C25.5644 71.7989 25.5149 71.7032 25.4254 71.6746C25.3359 71.646 25.2403 71.6954 25.2119 71.7848C25.1835 71.8743 25.233 71.97 25.3225 71.9986C25.4119 72.0272 25.5075 71.9778 25.536 71.8883Z" fill="white"/>
<path opacity="0.3" d="M22.9869 65.3054C23.0248 65.186 22.9588 65.0584 22.8395 65.0203C22.7201 64.9822 22.5926 65.048 22.5547 65.1673C22.5168 65.2866 22.5828 65.4143 22.7022 65.4524C22.8215 65.4905 22.949 65.4247 22.9869 65.3054Z" fill="white"/>
<path opacity="0.3" d="M34.0538 57.0646C34.0917 56.9452 34.0257 56.8176 33.9064 56.7795C33.787 56.7414 33.6595 56.8072 33.6216 56.9265C33.5837 57.0459 33.6497 57.1735 33.7691 57.2116C33.8884 57.2497 34.0159 57.1839 34.0538 57.0646Z" fill="white"/>
<path opacity="0.3" d="M30.2534 69.768C30.2913 69.6487 30.2253 69.521 30.106 69.4829C29.9866 69.4448 29.8591 69.5106 29.8212 69.63C29.7833 69.7493 29.8493 69.8769 29.9687 69.915C30.088 69.9532 30.2155 69.8873 30.2534 69.768Z" fill="white"/>
<path opacity="0.3" d="M12.397 132.341C12.4349 132.222 12.3689 132.094 12.2496 132.056C12.1302 132.018 12.0027 132.084 11.9648 132.203C11.9269 132.322 11.9929 132.45 12.1123 132.488C12.2316 132.526 12.3591 132.46 12.397 132.341Z" fill="white"/>
<path opacity="0.3" d="M3.67622 139.191C3.71414 139.072 3.64811 138.944 3.52876 138.906C3.40941 138.868 3.28192 138.934 3.24401 139.053C3.2061 139.172 3.27212 139.3 3.39147 139.338C3.51082 139.376 3.63831 139.31 3.67622 139.191Z" fill="white"/>
<path opacity="0.11" d="M29.4069 60.4566C29.4449 60.3373 29.3788 60.2097 29.2595 60.1715C29.1401 60.1334 29.0126 60.1993 28.9747 60.3186C28.9368 60.4379 29.0028 60.5655 29.1222 60.6037C29.2415 60.6418 29.369 60.576 29.4069 60.4566Z" fill="white"/>
<path opacity="0.3" d="M4.91157 122.575C4.94948 122.456 4.88346 122.328 4.76411 122.29C4.64476 122.252 4.51728 122.318 4.47937 122.437C4.44145 122.557 4.50747 122.684 4.62682 122.722C4.74617 122.76 4.87366 122.695 4.91157 122.575Z" fill="white"/>
<path opacity="0.11" d="M1.82473 124.801C1.86264 124.682 1.79662 124.554 1.67727 124.516C1.55792 124.478 1.43043 124.544 1.39252 124.663C1.35461 124.782 1.42063 124.91 1.53998 124.948C1.65933 124.986 1.78682 124.921 1.82473 124.801Z" fill="white"/>
<path opacity="0.3" d="M8.4637 127.872C8.50161 127.753 8.43559 127.625 8.31624 127.587C8.19689 127.549 8.0694 127.615 8.03149 127.734C7.99358 127.854 8.0596 127.981 8.17895 128.019C8.2983 128.058 8.42579 127.992 8.4637 127.872Z" fill="white"/>
<path d="M10.4986 121.089C10.527 121 10.4775 120.904 10.388 120.875C10.2985 120.847 10.2029 120.896 10.1745 120.985C10.1461 121.075 10.1956 121.171 10.2851 121.199C10.3746 121.228 10.4702 121.178 10.4986 121.089Z" fill="white"/>
<path opacity="0.11" d="M51.5486 50.1822C51.5865 50.0629 51.5205 49.9353 51.4011 49.8971C51.2818 49.859 51.1543 49.9248 51.1164 50.0442C51.0784 50.1635 51.1445 50.2911 51.2638 50.3293C51.3832 50.3674 51.5107 50.3015 51.5486 50.1822Z" fill="white"/>
<path d="M52.9599 49.8611C52.9884 49.7716 52.9389 49.6759 52.8494 49.6473C52.7599 49.6188 52.6643 49.6681 52.6359 49.7576C52.6075 49.8471 52.657 49.9427 52.7464 49.9713C52.8359 49.9999 52.9315 49.9506 52.9599 49.8611Z" fill="white"/>
<path d="M51.824 45.5729C51.8524 45.4835 51.8029 45.3878 51.7134 45.3592C51.624 45.3306 51.5284 45.38 51.4999 45.4694C51.4715 45.5589 51.521 45.6546 51.6105 45.6832C51.7 45.7118 51.7956 45.6624 51.824 45.5729Z" fill="white"/>
<path d="M48.6902 54.6822C48.7187 54.5927 48.6692 54.497 48.5797 54.4685C48.4902 54.4399 48.3946 54.4892 48.3662 54.5787C48.3378 54.6682 48.3873 54.7639 48.4767 54.7925C48.5662 54.821 48.6618 54.7717 48.6902 54.6822Z" fill="white"/>
<path opacity="0.11" d="M49.5839 60.8557C49.6218 60.7364 49.5557 60.6087 49.4364 60.5706C49.317 60.5325 49.1896 60.5983 49.1516 60.7176C49.1137 60.837 49.1798 60.9646 49.2991 61.0027C49.4185 61.0408 49.5459 60.975 49.5839 60.8557Z" fill="white"/>
<path d="M46.557 62.1488C46.576 62.0892 46.543 62.0254 46.4833 62.0064C46.4237 61.9874 46.36 62.0202 46.3411 62.0799C46.3222 62.1395 46.3551 62.2032 46.4148 62.2223C46.4744 62.2413 46.5381 62.2084 46.557 62.1488Z" fill="white"/>
<path d="M55.6574 51.8526C55.6763 51.793 55.6434 51.7293 55.5837 51.7102C55.5241 51.6912 55.4604 51.7241 55.4415 51.7837C55.4226 51.8433 55.4555 51.9071 55.5152 51.9261C55.5748 51.9451 55.6385 51.9123 55.6574 51.8526Z" fill="white"/>
<path d="M63.139 28.3108C63.1579 28.2512 63.1249 28.1874 63.0653 28.1684C63.0057 28.1493 62.942 28.1822 62.9231 28.2418C62.9041 28.3015 62.9371 28.3652 62.9967 28.3843C63.0564 28.4033 63.12 28.3704 63.139 28.3108Z" fill="white"/>
<path d="M61.0433 14.6773C61.0622 14.6177 61.0293 14.5539 60.9696 14.5349C60.91 14.5158 60.8463 14.5487 60.8274 14.6083C60.8084 14.668 60.8414 14.7317 60.901 14.7508C60.9607 14.7698 61.0244 14.7369 61.0433 14.6773Z" fill="white"/>
<path d="M70.2667 12.9833C70.2856 12.9237 70.2526 12.86 70.193 12.8409C70.1334 12.8219 70.0697 12.8548 70.0508 12.9144C70.0318 12.974 70.0648 13.0378 70.1244 13.0568C70.1841 13.0759 70.2478 13.043 70.2667 12.9833Z" fill="white"/>
<path d="M41.533 86.9504C41.552 86.8908 41.519 86.827 41.4593 86.808C41.3997 86.7889 41.336 86.8218 41.3171 86.8814C41.2982 86.941 41.3311 87.0048 41.3908 87.0238C41.4504 87.0429 41.5141 87.01 41.533 86.9504Z" fill="white"/>
<path opacity="0.11" d="M35.1853 86.7075C35.2043 86.6479 35.1713 86.5841 35.1117 86.5651C35.052 86.546 34.9884 86.5789 34.9694 86.6385C34.9505 86.6981 34.9835 86.7619 35.0431 86.7809C35.1027 86.8 35.1664 86.7671 35.1853 86.7075Z" fill="white"/>
<path opacity="0.11" d="M36.1941 92.1442C36.213 92.0845 36.18 92.0208 36.1204 92.0017C36.0608 91.9827 35.9971 92.0156 35.9782 92.0752C35.9592 92.1348 35.9922 92.1986 36.0518 92.2176C36.1115 92.2367 36.1751 92.2038 36.1941 92.1442Z" fill="white"/>
<path opacity="0.11" d="M43.8066 90.6503C43.8255 90.5907 43.7926 90.527 43.7329 90.5079C43.6733 90.4889 43.6096 90.5218 43.5907 90.5814C43.5717 90.641 43.6047 90.7048 43.6644 90.7238C43.724 90.7428 43.7877 90.71 43.8066 90.6503Z" fill="white"/>
<path opacity="0.11" d="M47.6518 63.5691C47.6708 63.5095 47.6378 63.4457 47.5782 63.4267C47.5186 63.4076 47.4549 63.4405 47.4359 63.5001C47.417 63.5597 47.45 63.6235 47.5096 63.6425C47.5692 63.6616 47.6329 63.6287 47.6518 63.5691Z" fill="white"/>
<path opacity="0.11" d="M59.4774 53.3113C59.4963 53.2517 59.4633 53.1879 59.4037 53.1689C59.3441 53.1498 59.2804 53.1827 59.2615 53.2423C59.2425 53.3019 59.2755 53.3657 59.3351 53.3847C59.3948 53.4038 59.4584 53.3709 59.4774 53.3113Z" fill="white"/>
<path opacity="0.11" d="M64.9844 32.2317C65.0034 32.1721 64.9704 32.1083 64.9108 32.0892C64.8512 32.0702 64.7875 32.1031 64.7685 32.1627C64.7496 32.2223 64.7826 32.2861 64.8422 32.3051C64.9018 32.3242 64.9655 32.2913 64.9844 32.2317Z" fill="white"/>
<path opacity="0.3" d="M40.4109 81.1203C40.4298 81.0607 40.3968 80.9969 40.3372 80.9778C40.2776 80.9588 40.2139 80.9917 40.195 81.0513C40.176 81.1109 40.209 81.1747 40.2686 81.1937C40.3283 81.2128 40.3919 81.1799 40.4109 81.1203Z" fill="white"/>
<path d="M42.4694 54.4202C42.4884 54.3606 42.4554 54.2968 42.3958 54.2778C42.3361 54.2587 42.2725 54.2916 42.2535 54.3512C42.2346 54.4109 42.2675 54.4746 42.3272 54.4937C42.3868 54.5127 42.4505 54.4798 42.4694 54.4202Z" fill="white"/>
<path d="M47.5366 37.7211C47.5556 37.6615 47.5226 37.5978 47.463 37.5787C47.4033 37.5597 47.3396 37.5926 47.3207 37.6522C47.3018 37.7118 47.3348 37.7755 47.3944 37.7946C47.454 37.8136 47.5177 37.7808 47.5366 37.7211Z" fill="white"/>
<path d="M50.0722 64.9375C50.0911 64.8779 50.0581 64.8142 49.9985 64.7951C49.9389 64.7761 49.8752 64.8089 49.8563 64.8686C49.8373 64.9282 49.8703 64.9919 49.9299 65.011C49.9896 65.03 50.0532 64.9971 50.0722 64.9375Z" fill="white"/>
<path opacity="0.3" d="M47.6715 72.4968C47.6905 72.4372 47.6575 72.3734 47.5978 72.3544C47.5382 72.3353 47.4745 72.3682 47.4556 72.4278C47.4367 72.4874 47.4696 72.5512 47.5293 72.5702C47.5889 72.5893 47.6526 72.5564 47.6715 72.4968Z" fill="white"/>
<path opacity="0.11" d="M38.1627 79.212C38.1816 79.1524 38.1487 79.0886 38.089 79.0696C38.0294 79.0505 37.9657 79.0834 37.9468 79.143C37.9278 79.2026 37.9608 79.2664 38.0204 79.2855C38.0801 79.3045 38.1438 79.2716 38.1627 79.212Z" fill="white"/>
<path opacity="0.3" d="M45.6794 53.3035C45.6984 53.2438 45.6654 53.1801 45.6058 53.161C45.5461 53.142 45.4825 53.1749 45.4635 53.2345C45.4446 53.2941 45.4776 53.3579 45.5372 53.3769C45.5968 53.396 45.6605 53.3631 45.6794 53.3035Z" fill="white"/>
<path opacity="0.3" d="M52.7093 63.757C52.7283 63.6974 52.6953 63.6336 52.6356 63.6146C52.576 63.5955 52.5123 63.6284 52.4934 63.688C52.4745 63.7476 52.5074 63.8114 52.5671 63.8305C52.6267 63.8495 52.6904 63.8166 52.7093 63.757Z" fill="white"/>
<path opacity="0.3" d="M49.6362 77.1686C49.6552 77.109 49.6222 77.0452 49.5626 77.0262C49.5029 77.0071 49.4393 77.04 49.4203 77.0996C49.4014 77.1592 49.4344 77.223 49.494 77.2421C49.5536 77.2611 49.6173 77.2282 49.6362 77.1686Z" fill="white"/>
<path opacity="0.3" d="M41.4059 77.9885C41.4249 77.9288 41.3919 77.8651 41.3323 77.846C41.2727 77.827 41.209 77.8599 41.19 77.9195C41.1711 77.9791 41.2041 78.0429 41.2637 78.0619C41.3233 78.081 41.387 78.0481 41.4059 77.9885Z" fill="white"/>
<path opacity="0.3" d="M62.4215 10.7168C62.4405 10.6572 62.4075 10.5935 62.3479 10.5744C62.2882 10.5554 62.2245 10.5883 62.2056 10.6479C62.1867 10.7075 62.2196 10.7713 62.2793 10.7903C62.3389 10.8094 62.4026 10.7765 62.4215 10.7168Z" fill="white"/>
<path opacity="0.11" d="M52.4689 26.6872C52.4879 26.6276 52.4549 26.5638 52.3953 26.5448C52.3356 26.5258 52.272 26.5586 52.253 26.6183C52.2341 26.6779 52.2671 26.7416 52.3267 26.7607C52.3863 26.7797 52.45 26.7468 52.4689 26.6872Z" fill="white"/>
<path opacity="0.11" d="M66.1398 15.1145C66.1588 15.0549 66.1258 14.9911 66.0661 14.9721C66.0065 14.953 65.9428 14.9859 65.9239 15.0455C65.905 15.1051 65.9379 15.1689 65.9976 15.1879C66.0572 15.207 66.1209 15.1741 66.1398 15.1145Z" fill="white"/>
<path opacity="0.3" d="M58.4319 42.7483C58.4698 42.629 58.4038 42.5013 58.2844 42.4632C58.1651 42.4251 58.0376 42.4909 57.9997 42.6103C57.9618 42.7296 58.0278 42.8572 58.1472 42.8954C58.2665 42.9335 58.394 42.8676 58.4319 42.7483Z" fill="white"/>
<path opacity="0.11" d="M57.2159 35.3408C57.2538 35.2215 57.1878 35.0939 57.0685 35.0557C56.9491 35.0176 56.8216 35.0834 56.7837 35.2028C56.7458 35.3221 56.8118 35.4497 56.9312 35.4879C57.0505 35.526 57.178 35.4601 57.2159 35.3408Z" fill="white"/>
<path d="M53.4192 34.1874C53.4477 34.0979 53.3982 34.0022 53.3087 33.9736C53.2192 33.945 53.1236 33.9944 53.0952 34.0839C53.0667 34.1733 53.1162 34.269 53.2057 34.2976C53.2952 34.3262 53.3908 34.2768 53.4192 34.1874Z" fill="white"/>
<path d="M62.3924 45.2609C62.4208 45.1714 62.3713 45.0757 62.2818 45.0471C62.1923 45.0185 62.0968 45.0679 62.0683 45.1574C62.0399 45.2468 62.0894 45.3425 62.1789 45.3711C62.2684 45.3997 62.364 45.3503 62.3924 45.2609Z" fill="white"/>
<path d="M75.944 10.0981C75.9725 10.0087 75.923 9.91298 75.8335 9.88439C75.744 9.85581 75.6484 9.90517 75.62 9.99464C75.5915 10.0841 75.641 10.1798 75.7305 10.2084C75.82 10.237 75.9156 10.1876 75.944 10.0981Z" fill="white"/>
<path d="M51.8396 79.5972C51.8681 79.5077 51.8186 79.412 51.7291 79.3834C51.6396 79.3548 51.544 79.4042 51.5156 79.4936C51.4872 79.5831 51.5367 79.6788 51.6261 79.7074C51.7156 79.736 51.8112 79.6866 51.8396 79.5972Z" fill="white"/>
<path d="M44.7941 93.1656C44.8225 93.0762 44.773 92.9805 44.6835 92.9519C44.594 92.9233 44.4984 92.9727 44.47 93.0621C44.4416 93.1516 44.4911 93.2473 44.5805 93.2759C44.67 93.3045 44.7656 93.2551 44.7941 93.1656Z" fill="white"/>
<path d="M39.8892 93.6219C39.9176 93.5324 39.8681 93.4367 39.7787 93.4081C39.6892 93.3795 39.5936 93.4289 39.5652 93.5184C39.5367 93.6078 39.5862 93.7035 39.6757 93.7321C39.7652 93.7607 39.8608 93.7113 39.8892 93.6219Z" fill="white"/>
<path d="M53.9314 40.0605C53.9599 39.971 53.9104 39.8753 53.8209 39.8467C53.7314 39.8182 53.6358 39.8675 53.6074 39.957C53.5789 40.0465 53.6284 40.1422 53.7179 40.1707C53.8074 40.1993 53.903 40.15 53.9314 40.0605Z" fill="white"/>
<path d="M55.9548 61.404C55.9832 61.3145 55.9337 61.2189 55.8442 61.1903C55.7547 61.1617 55.6592 61.211 55.6307 61.3005C55.6023 61.39 55.6518 61.4857 55.7413 61.5143C55.8308 61.5428 55.9264 61.4935 55.9548 61.404Z" fill="white"/>
<path d="M69.2464 35.6736C69.2748 35.5841 69.2253 35.4884 69.1358 35.4599C69.0464 35.4313 68.9508 35.4806 68.9223 35.5701C68.8939 35.6596 68.9434 35.7553 69.0329 35.7839C69.1224 35.8124 69.218 35.7631 69.2464 35.6736Z" fill="white"/>
<path d="M70.9922 4.71083C71.0206 4.62136 70.9711 4.52566 70.8816 4.49708C70.7921 4.46849 70.6965 4.51785 70.6681 4.60732C70.6397 4.69679 70.6892 4.79249 70.7787 4.82107C70.8682 4.84965 70.9637 4.8003 70.9922 4.71083Z" fill="white"/>
<path d="M65.8761 0.221801C65.9045 0.132331 65.855 0.0366328 65.7655 0.00804943C65.676 -0.0205339 65.5805 0.0288215 65.552 0.118292C65.5236 0.207762 65.5731 0.303461 65.6626 0.332044C65.7521 0.360627 65.8477 0.311272 65.8761 0.221801Z" fill="white"/>
<path opacity="0.3" d="M56.3558 25.3127C56.3937 25.1934 56.3277 25.0657 56.2083 25.0276C56.089 24.9895 55.9615 25.0553 55.9236 25.1747C55.8856 25.294 55.9517 25.4216 56.071 25.4598C56.1904 25.4979 56.3179 25.432 56.3558 25.3127Z" fill="white"/>
<path d="M48.6885 22.8637C48.7264 22.7443 48.6604 22.6167 48.541 22.5786C48.4217 22.5405 48.2942 22.6063 48.2563 22.7256C48.2184 22.845 48.2844 22.9726 48.4037 23.0107C48.5231 23.0488 48.6506 22.983 48.6885 22.8637Z" fill="white"/>
<path d="M60.5 20.5099C60.5284 20.4204 60.4789 20.3247 60.3895 20.2961C60.3 20.2676 60.2044 20.3169 60.176 20.4064C60.1475 20.4959 60.197 20.5916 60.2865 20.6201C60.376 20.6487 60.4716 20.5994 60.5 20.5099Z" fill="white"/>
<path opacity="0.3" d="M57.951 13.9269C57.9889 13.8076 57.9229 13.68 57.8035 13.6418C57.6842 13.6037 57.5567 13.6695 57.5188 13.7889C57.4809 13.9082 57.5469 14.0358 57.6662 14.074C57.7856 14.1121 57.9131 14.0462 57.951 13.9269Z" fill="white"/>
<path opacity="0.3" d="M69.0179 5.68515C69.0558 5.56582 68.9898 5.43818 68.8704 5.40006C68.7511 5.36194 68.6236 5.42777 68.5857 5.5471C68.5478 5.66642 68.6138 5.79406 68.7331 5.83218C68.8525 5.8703 68.98 5.80448 69.0179 5.68515Z" fill="white"/>
<path opacity="0.3" d="M65.2195 18.3886C65.2574 18.2692 65.1914 18.1416 65.072 18.1035C64.9526 18.0654 64.8252 18.1312 64.7873 18.2505C64.7493 18.3699 64.8154 18.4975 64.9347 18.5356C65.0541 18.5737 65.1816 18.5079 65.2195 18.3886Z" fill="white"/>
<path opacity="0.3" d="M47.3611 80.9612C47.399 80.8419 47.333 80.7143 47.2137 80.6762C47.0943 80.638 46.9668 80.7039 46.9289 80.8232C46.891 80.9425 46.957 81.0702 47.0764 81.1083C47.1957 81.1464 47.3232 81.0806 47.3611 80.9612Z" fill="white"/>
<path opacity="0.3" d="M38.6421 87.8116C38.68 87.6923 38.614 87.5646 38.4946 87.5265C38.3753 87.4884 38.2478 87.5542 38.2099 87.6735C38.172 87.7929 38.238 87.9205 38.3573 87.9586C38.4767 87.9967 38.6042 87.9309 38.6421 87.8116Z" fill="white"/>
<path opacity="0.11" d="M64.371 9.07721C64.4089 8.95788 64.3429 8.83025 64.2235 8.79212C64.1042 8.754 63.9767 8.81983 63.9388 8.93916C63.9009 9.05849 63.9669 9.18612 64.0863 9.22424C64.2056 9.26237 64.3331 9.19654 64.371 9.07721Z" fill="white"/>
<path opacity="0.3" d="M39.8756 71.1958C39.9135 71.0765 39.8475 70.9489 39.7282 70.9108C39.6088 70.8726 39.4813 70.9385 39.4434 71.0578C39.4055 71.1771 39.4715 71.3048 39.5909 71.3429C39.7102 71.381 39.8377 71.3152 39.8756 71.1958Z" fill="white"/>
<path opacity="0.11" d="M36.7888 73.4218C36.8267 73.3024 36.7607 73.1748 36.6413 73.1367C36.522 73.0986 36.3945 73.1644 36.3566 73.2837C36.3187 73.4031 36.3847 73.5307 36.504 73.5688C36.6234 73.6069 36.7509 73.5411 36.7888 73.4218Z" fill="white"/>
<path opacity="0.3" d="M43.4258 76.493C43.4637 76.3737 43.3977 76.246 43.2783 76.2079C43.159 76.1698 43.0315 76.2356 42.9936 76.3549C42.9557 76.4743 43.0217 76.6019 43.1411 76.64C43.2604 76.6781 43.3879 76.6123 43.4258 76.493Z" fill="white"/>
<path d="M45.4646 69.7096C45.493 69.6201 45.4435 69.5244 45.354 69.4958C45.2645 69.4672 45.169 69.5166 45.1405 69.6061C45.1121 69.6955 45.1616 69.7912 45.2511 69.8198C45.3406 69.8484 45.4362 69.799 45.4646 69.7096Z" fill="white"/>
</svg>
