<svg width="92" height="232" viewBox="0 0 92 232" fill="none" xmlns="http://www.w3.org/2000/svg">
<path opacity="0.11" d="M45.3232 179.64C45.3688 179.497 45.2894 179.343 45.146 179.298C45.0025 179.252 44.8492 179.331 44.8037 179.474C44.7581 179.618 44.8375 179.771 44.9809 179.817C45.1244 179.863 45.2776 179.784 45.3232 179.64Z" fill="white"/>
<path d="M47.0177 179.253C47.0518 179.146 46.9923 179.031 46.8848 178.996C46.7772 178.962 46.6623 179.021 46.6281 179.129C46.594 179.236 46.6535 179.351 46.761 179.386C46.8686 179.42 46.9835 179.361 47.0177 179.253Z" fill="white"/>
<path d="M45.6539 174.099C45.6881 173.992 45.6286 173.876 45.521 173.842C45.4134 173.808 45.2985 173.867 45.2644 173.975C45.2302 174.082 45.2897 174.197 45.3973 174.232C45.5048 174.266 45.6197 174.207 45.6539 174.099Z" fill="white"/>
<path d="M41.8874 185.05C41.9215 184.943 41.862 184.828 41.7545 184.793C41.6469 184.759 41.532 184.818 41.4978 184.926C41.4637 185.033 41.5232 185.148 41.6307 185.183C41.7383 185.217 41.8532 185.158 41.8874 185.05Z" fill="white"/>
<path opacity="0.11" d="M42.9616 192.47C43.0071 192.327 42.9278 192.173 42.7843 192.128C42.6408 192.082 42.4876 192.161 42.442 192.304C42.3964 192.448 42.4758 192.601 42.6193 192.647C42.7627 192.693 42.916 192.614 42.9616 192.47Z" fill="white"/>
<path d="M39.3223 194.024C39.345 193.953 39.3054 193.876 39.2337 193.853C39.162 193.83 39.0855 193.87 39.0627 193.941C39.0399 194.013 39.0796 194.09 39.1513 194.113C39.2229 194.136 39.2995 194.096 39.3223 194.024Z" fill="white"/>
<path d="M50.2618 181.648C50.2845 181.576 50.2449 181.499 50.1732 181.477C50.1015 181.454 50.025 181.493 50.0022 181.565C49.9794 181.636 50.0191 181.713 50.0908 181.736C50.1624 181.759 50.239 181.719 50.2618 181.648Z" fill="white"/>
<path d="M59.2544 153.349C59.2772 153.277 59.2376 153.201 59.1659 153.178C59.0942 153.155 59.0177 153.194 58.9949 153.266C58.9721 153.338 59.0118 153.414 59.0834 153.437C59.1551 153.46 59.2317 153.421 59.2544 153.349Z" fill="white"/>
<path d="M56.7382 136.96C56.761 136.889 56.7213 136.812 56.6497 136.789C56.578 136.766 56.5014 136.806 56.4787 136.877C56.4559 136.949 56.4956 137.026 56.5672 137.049C56.6389 137.071 56.7155 137.032 56.7382 136.96Z" fill="white"/>
<path d="M67.8245 134.925C67.8472 134.853 67.8076 134.777 67.7359 134.754C67.6643 134.731 67.5877 134.77 67.5649 134.842C67.5422 134.914 67.5818 134.99 67.6535 135.013C67.7252 135.036 67.8017 134.997 67.8245 134.925Z" fill="white"/>
<path d="M33.2822 223.839C33.3049 223.767 33.2653 223.691 33.1936 223.668C33.1219 223.645 33.0454 223.684 33.0226 223.756C32.9998 223.828 33.0395 223.904 33.1112 223.927C33.1828 223.95 33.2594 223.911 33.2822 223.839Z" fill="white"/>
<path opacity="0.11" d="M25.6533 223.546C25.676 223.475 25.6364 223.398 25.5647 223.375C25.493 223.352 25.4165 223.392 25.3937 223.464C25.3709 223.535 25.4106 223.612 25.4823 223.635C25.5539 223.658 25.6305 223.618 25.6533 223.546Z" fill="white"/>
<path opacity="0.11" d="M26.8664 230.081C26.8891 230.009 26.8495 229.933 26.7778 229.91C26.7061 229.887 26.6296 229.927 26.6068 229.998C26.5841 230.07 26.6237 230.147 26.6954 230.169C26.767 230.192 26.8436 230.153 26.8664 230.081Z" fill="white"/>
<path opacity="0.11" d="M36.0175 228.286C36.0403 228.214 36.0006 228.138 35.929 228.115C35.8573 228.092 35.7807 228.131 35.758 228.203C35.7352 228.275 35.7749 228.351 35.8465 228.374C35.9182 228.397 35.9948 228.358 36.0175 228.286Z" fill="white"/>
<path opacity="0.11" d="M40.6391 195.733C40.6618 195.661 40.6222 195.585 40.5505 195.562C40.4788 195.539 40.4023 195.578 40.3795 195.65C40.3568 195.722 40.3964 195.798 40.4681 195.821C40.5397 195.844 40.6163 195.805 40.6391 195.733Z" fill="white"/>
<path opacity="0.11" d="M54.8559 183.4C54.8787 183.329 54.8391 183.252 54.7674 183.229C54.6957 183.206 54.6192 183.246 54.5964 183.317C54.5736 183.389 54.6133 183.466 54.6849 183.489C54.7566 183.512 54.8332 183.472 54.8559 183.4Z" fill="white"/>
<path opacity="0.11" d="M61.4752 158.063C61.498 157.991 61.4583 157.914 61.3867 157.891C61.315 157.868 61.2384 157.908 61.2157 157.98C61.1929 158.051 61.2325 158.128 61.3042 158.151C61.3759 158.174 61.4525 158.134 61.4752 158.063Z" fill="white"/>
<path opacity="0.3" d="M31.934 216.831C31.9568 216.759 31.9172 216.683 31.8455 216.66C31.7738 216.637 31.6973 216.676 31.6745 216.748C31.6517 216.82 31.6914 216.896 31.7631 216.919C31.8347 216.942 31.9113 216.903 31.934 216.831Z" fill="white"/>
<path d="M34.4072 184.734C34.43 184.662 34.3903 184.586 34.3187 184.563C34.247 184.54 34.1704 184.579 34.1477 184.651C34.1249 184.723 34.1645 184.799 34.2362 184.822C34.3079 184.845 34.3844 184.805 34.4072 184.734Z" fill="white"/>
<path d="M40.5002 164.661C40.5229 164.59 40.4833 164.513 40.4116 164.49C40.3399 164.467 40.2634 164.507 40.2406 164.578C40.2178 164.65 40.2575 164.727 40.3292 164.75C40.4008 164.772 40.4774 164.733 40.5002 164.661Z" fill="white"/>
<path d="M43.5486 197.377C43.5714 197.305 43.5317 197.228 43.46 197.205C43.3884 197.182 43.3118 197.222 43.289 197.294C43.2663 197.365 43.3059 197.442 43.3776 197.465C43.4493 197.488 43.5258 197.448 43.5486 197.377Z" fill="white"/>
<path opacity="0.3" d="M40.6626 206.464C40.6853 206.392 40.6457 206.316 40.574 206.293C40.5023 206.27 40.4258 206.31 40.403 206.381C40.3803 206.453 40.4199 206.53 40.4916 206.552C40.5632 206.575 40.6398 206.536 40.6626 206.464Z" fill="white"/>
<path opacity="0.11" d="M29.2319 214.536C29.2547 214.464 29.2151 214.387 29.1434 214.365C29.0717 214.342 28.9952 214.381 28.9724 214.453C28.9496 214.524 28.9893 214.601 29.061 214.624C29.1326 214.647 29.2092 214.607 29.2319 214.536Z" fill="white"/>
<path opacity="0.3" d="M38.2676 183.393C38.2904 183.321 38.2508 183.244 38.1791 183.221C38.1074 183.198 38.0309 183.238 38.0081 183.31C37.9853 183.381 38.025 183.458 38.0966 183.481C38.1683 183.504 38.2449 183.464 38.2676 183.393Z" fill="white"/>
<path opacity="0.3" d="M46.7183 195.958C46.7411 195.886 46.7015 195.809 46.6298 195.786C46.5581 195.763 46.4816 195.803 46.4588 195.875C46.436 195.946 46.4757 196.023 46.5473 196.046C46.619 196.069 46.6956 196.029 46.7183 195.958Z" fill="white"/>
<path opacity="0.3" d="M43.0262 212.08C43.0489 212.008 43.0093 211.932 42.9376 211.909C42.8659 211.886 42.7894 211.926 42.7666 211.997C42.7439 212.069 42.7835 212.146 42.8552 212.168C42.9268 212.191 43.0034 212.152 43.0262 212.08Z" fill="white"/>
<path opacity="0.3" d="M33.1296 213.065C33.1523 212.993 33.1127 212.917 33.041 212.894C32.9693 212.871 32.8928 212.91 32.87 212.982C32.8472 213.054 32.8869 213.13 32.9586 213.153C33.0302 213.176 33.1068 213.136 33.1296 213.065Z" fill="white"/>
<path opacity="0.3" d="M58.3935 132.2C58.4163 132.128 58.3767 132.051 58.305 132.029C58.2333 132.006 58.1567 132.045 58.134 132.117C58.1112 132.189 58.1509 132.265 58.2225 132.288C58.2942 132.311 58.3708 132.271 58.3935 132.2Z" fill="white"/>
<path opacity="0.11" d="M46.4307 151.398C46.4535 151.326 46.4138 151.249 46.3421 151.227C46.2705 151.204 46.1939 151.243 46.1711 151.315C46.1484 151.386 46.188 151.463 46.2597 151.486C46.3314 151.509 46.4079 151.469 46.4307 151.398Z" fill="white"/>
<path opacity="0.11" d="M62.8625 137.487C62.8852 137.415 62.8456 137.339 62.7739 137.316C62.7022 137.293 62.6257 137.333 62.6029 137.404C62.5802 137.476 62.6198 137.552 62.6915 137.575C62.7631 137.598 62.8397 137.559 62.8625 137.487Z" fill="white"/>
<path opacity="0.3" d="M53.5978 170.703C53.6434 170.56 53.564 170.406 53.4206 170.361C53.2771 170.315 53.1238 170.394 53.0783 170.537C53.0327 170.681 53.1121 170.834 53.2555 170.88C53.399 170.926 53.5522 170.847 53.5978 170.703Z" fill="white"/>
<path opacity="0.11" d="M52.1362 161.8C52.1818 161.657 52.1024 161.503 51.9589 161.457C51.8155 161.412 51.6622 161.491 51.6167 161.634C51.5711 161.778 51.6504 161.931 51.7939 161.977C51.9374 162.023 52.0906 161.944 52.1362 161.8Z" fill="white"/>
<path d="M47.5714 160.413C47.6056 160.305 47.5461 160.19 47.4385 160.156C47.3309 160.122 47.216 160.181 47.1818 160.289C47.1477 160.396 47.2072 160.511 47.3147 160.545C47.4223 160.58 47.5372 160.52 47.5714 160.413Z" fill="white"/>
<path d="M58.3583 173.724C58.3925 173.616 58.333 173.501 58.2254 173.467C58.1178 173.433 58.0029 173.492 57.9687 173.599C57.9346 173.707 57.9941 173.822 58.1016 173.856C58.2092 173.891 58.3241 173.831 58.3583 173.724Z" fill="white"/>
<path d="M74.6472 131.456C74.6814 131.348 74.6219 131.233 74.5143 131.199C74.4068 131.164 74.2919 131.224 74.2577 131.331C74.2235 131.439 74.283 131.554 74.3906 131.588C74.4982 131.623 74.6131 131.563 74.6472 131.456Z" fill="white"/>
<path d="M45.6735 215C45.7076 214.892 45.6481 214.777 45.5406 214.743C45.433 214.709 45.3181 214.768 45.2839 214.876C45.2498 214.983 45.3093 215.098 45.4168 215.132C45.5244 215.167 45.6393 215.108 45.6735 215Z" fill="white"/>
<path d="M37.2032 231.31C37.2374 231.202 37.1779 231.087 37.0703 231.053C36.9628 231.019 36.8479 231.078 36.8137 231.186C36.7795 231.293 36.839 231.408 36.9466 231.442C37.0542 231.477 37.1691 231.417 37.2032 231.31Z" fill="white"/>
<path d="M31.3079 231.858C31.3421 231.75 31.2826 231.635 31.175 231.601C31.0674 231.566 30.9525 231.626 30.9184 231.733C30.8842 231.841 30.9437 231.956 31.0513 231.99C31.1588 232.025 31.2737 231.965 31.3079 231.858Z" fill="white"/>
<path d="M48.1897 167.473C48.2239 167.365 48.1644 167.25 48.0568 167.216C47.9492 167.182 47.8343 167.241 47.8001 167.349C47.766 167.456 47.8255 167.571 47.9331 167.605C48.0406 167.64 48.1555 167.58 48.1897 167.473Z" fill="white"/>
<path d="M50.6198 193.13C50.654 193.022 50.5945 192.907 50.4869 192.873C50.3794 192.838 50.2645 192.898 50.2303 193.005C50.1961 193.113 50.2556 193.228 50.3632 193.262C50.4708 193.297 50.5857 193.237 50.6198 193.13Z" fill="white"/>
<path d="M66.5957 162.2C66.6299 162.092 66.5704 161.977 66.4628 161.943C66.3552 161.909 66.2403 161.968 66.2062 162.075C66.172 162.183 66.2315 162.298 66.3391 162.332C66.4466 162.367 66.5615 162.307 66.5957 162.2Z" fill="white"/>
<path d="M68.6952 124.98C68.7293 124.872 68.6698 124.757 68.5623 124.723C68.4547 124.689 68.3398 124.748 68.3056 124.855C68.2715 124.963 68.331 125.078 68.4385 125.112C68.5461 125.147 68.661 125.087 68.6952 124.98Z" fill="white"/>
<path d="M62.5455 119.584C62.5797 119.476 62.5202 119.361 62.4126 119.327C62.305 119.293 62.1901 119.352 62.1559 119.46C62.1218 119.567 62.1813 119.682 62.2888 119.716C62.3964 119.751 62.5113 119.691 62.5455 119.584Z" fill="white"/>
<path opacity="0.3" d="M51.1031 149.745C51.1487 149.602 51.0693 149.449 50.9258 149.403C50.7824 149.357 50.6291 149.436 50.5836 149.579C50.538 149.723 50.6173 149.876 50.7608 149.922C50.9043 149.968 51.0575 149.889 51.1031 149.745Z" fill="white"/>
<path d="M41.8835 146.8C41.929 146.657 41.8497 146.503 41.7062 146.457C41.5627 146.412 41.4095 146.491 41.3639 146.634C41.3183 146.778 41.3977 146.931 41.5412 146.977C41.6846 147.023 41.8379 146.944 41.8835 146.8Z" fill="white"/>
<path d="M56.0847 143.971C56.1189 143.863 56.0594 143.748 55.9518 143.714C55.8442 143.68 55.7293 143.739 55.6951 143.846C55.661 143.954 55.7205 144.069 55.8281 144.103C55.9356 144.138 56.0505 144.078 56.0847 143.971Z" fill="white"/>
<path opacity="0.3" d="M53.0206 136.057C53.0662 135.914 52.9868 135.76 52.8433 135.715C52.6999 135.669 52.5466 135.748 52.501 135.891C52.4555 136.035 52.5348 136.188 52.6783 136.234C52.8218 136.28 52.975 136.201 53.0206 136.057Z" fill="white"/>
<path opacity="0.3" d="M66.3218 126.15C66.3673 126.007 66.288 125.854 66.1445 125.808C66.001 125.762 65.8478 125.841 65.8022 125.984C65.7566 126.128 65.836 126.281 65.9795 126.327C66.1229 126.373 66.2762 126.294 66.3218 126.15Z" fill="white"/>
<path opacity="0.3" d="M61.755 141.423C61.8006 141.279 61.7212 141.126 61.5777 141.08C61.4343 141.034 61.281 141.113 61.2354 141.257C61.1899 141.4 61.2692 141.554 61.4127 141.6C61.5562 141.645 61.7094 141.566 61.755 141.423Z" fill="white"/>
<path opacity="0.3" d="M40.2888 216.639C40.3344 216.495 40.255 216.342 40.1116 216.296C39.9681 216.25 39.8148 216.329 39.7693 216.473C39.7237 216.616 39.8031 216.77 39.9465 216.815C40.09 216.861 40.2432 216.782 40.2888 216.639Z" fill="white"/>
<path opacity="0.3" d="M29.8072 224.874C29.8527 224.73 29.7734 224.577 29.6299 224.531C29.4864 224.485 29.3332 224.564 29.2876 224.708C29.242 224.851 29.3214 225.005 29.4649 225.05C29.6083 225.096 29.7616 225.017 29.8072 224.874Z" fill="white"/>
<path opacity="0.11" d="M60.7356 130.229C60.7812 130.086 60.7018 129.933 60.5583 129.887C60.4149 129.841 60.2616 129.92 60.216 130.064C60.1705 130.207 60.2498 130.36 60.3933 130.406C60.5368 130.452 60.69 130.373 60.7356 130.229Z" fill="white"/>
<path opacity="0.3" d="M31.2903 204.9C31.3358 204.756 31.2565 204.603 31.113 204.557C30.9695 204.511 30.8163 204.59 30.7707 204.734C30.7251 204.877 30.8045 205.031 30.948 205.077C31.0914 205.122 31.2447 205.043 31.2903 204.9Z" fill="white"/>
<path opacity="0.11" d="M27.5805 207.576C27.6261 207.432 27.5467 207.279 27.4032 207.233C27.2598 207.187 27.1065 207.266 27.061 207.41C27.0154 207.553 27.0947 207.706 27.2382 207.752C27.3817 207.798 27.5349 207.719 27.5805 207.576Z" fill="white"/>
<path opacity="0.3" d="M35.5596 211.269C35.6052 211.125 35.5259 210.972 35.3824 210.926C35.2389 210.88 35.0857 210.959 35.0401 211.103C34.9945 211.246 35.0739 211.4 35.2174 211.445C35.3608 211.491 35.5141 211.412 35.5596 211.269Z" fill="white"/>
<path d="M38.0074 203.113C38.0416 203.006 37.9821 202.891 37.8745 202.856C37.7669 202.822 37.652 202.881 37.6179 202.989C37.5837 203.097 37.6432 203.212 37.7508 203.246C37.8583 203.28 37.9732 203.221 38.0074 203.113Z" fill="white"/>
<path opacity="0.11" d="M19.9359 122.084C19.9815 121.941 19.9022 121.787 19.7587 121.741C19.6152 121.696 19.462 121.775 19.4164 121.918C19.3708 122.062 19.4502 122.215 19.5937 122.261C19.7371 122.307 19.8904 122.227 19.9359 122.084Z" fill="white"/>
<path d="M21.6324 121.697C21.6665 121.59 21.607 121.475 21.4995 121.44C21.3919 121.406 21.277 121.465 21.2428 121.573C21.2086 121.68 21.2681 121.795 21.3757 121.83C21.4833 121.864 21.5982 121.805 21.6324 121.697Z" fill="white"/>
<path d="M20.2666 116.542C20.3008 116.434 20.2413 116.319 20.1337 116.285C20.0262 116.251 19.9113 116.31 19.8771 116.417C19.8429 116.525 19.9024 116.64 20.01 116.674C20.1176 116.709 20.2325 116.649 20.2666 116.542Z" fill="white"/>
<path d="M16.5021 127.494C16.5363 127.387 16.4767 127.272 16.3692 127.237C16.2616 127.203 16.1467 127.262 16.1125 127.37C16.0784 127.477 16.1379 127.592 16.2454 127.627C16.353 127.661 16.4679 127.602 16.5021 127.494Z" fill="white"/>
<path opacity="0.11" d="M17.5763 134.915C17.6218 134.772 17.5425 134.618 17.399 134.572C17.2555 134.527 17.1023 134.606 17.0567 134.749C17.0111 134.893 17.0905 135.046 17.234 135.092C17.3774 135.138 17.5307 135.059 17.5763 134.915Z" fill="white"/>
<path d="M13.935 136.468C13.9578 136.397 13.9181 136.32 13.8464 136.297C13.7748 136.274 13.6982 136.314 13.6754 136.385C13.6527 136.457 13.6923 136.534 13.764 136.556C13.8357 136.579 13.9122 136.54 13.935 136.468Z" fill="white"/>
<path d="M24.8765 124.092C24.8992 124.021 24.8596 123.944 24.7879 123.921C24.7162 123.898 24.6397 123.938 24.6169 124.01C24.5942 124.081 24.6338 124.158 24.7055 124.181C24.7771 124.204 24.8537 124.164 24.8765 124.092Z" fill="white"/>
<path d="M33.8672 95.7933C33.89 95.7216 33.8503 95.645 33.7786 95.6221C33.707 95.5992 33.6304 95.6387 33.6076 95.7104C33.5849 95.782 33.6245 95.8587 33.6962 95.8816C33.7679 95.9045 33.8444 95.8649 33.8672 95.7933Z" fill="white"/>
<path d="M31.351 79.405C31.3737 79.3334 31.3341 79.2567 31.2624 79.2338C31.1907 79.2109 31.1142 79.2505 31.0914 79.3221C31.0686 79.3938 31.1083 79.4704 31.18 79.4933C31.2516 79.5162 31.3282 79.4767 31.351 79.405Z" fill="white"/>
<path d="M42.4372 77.3687C42.46 77.297 42.4203 77.2204 42.3487 77.1975C42.277 77.1746 42.2004 77.2141 42.1777 77.2858C42.1549 77.3574 42.1945 77.4341 42.2662 77.457C42.3379 77.4799 42.4145 77.4403 42.4372 77.3687Z" fill="white"/>
<path d="M7.89488 166.283C7.91765 166.211 7.878 166.134 7.80633 166.112C7.73466 166.089 7.6581 166.128 7.63533 166.2C7.61256 166.272 7.65221 166.348 7.72388 166.371C7.79556 166.394 7.87212 166.354 7.89488 166.283Z" fill="white"/>
<path opacity="0.11" d="M0.26598 165.989C0.288747 165.917 0.249099 165.841 0.177425 165.818C0.105752 165.795 0.0291983 165.834 0.00643148 165.906C-0.0163353 165.978 0.023306 166.054 0.0949795 166.077C0.166653 166.1 0.243213 166.06 0.26598 165.989Z" fill="white"/>
<path opacity="0.11" d="M1.47909 172.525C1.50186 172.453 1.46222 172.377 1.39054 172.354C1.31887 172.331 1.24231 172.37 1.21954 172.442C1.19677 172.514 1.23642 172.59 1.3081 172.613C1.37977 172.636 1.45632 172.597 1.47909 172.525Z" fill="white"/>
<path opacity="0.11" d="M10.6302 170.73C10.653 170.658 10.6134 170.581 10.5417 170.559C10.47 170.536 10.3935 170.575 10.3707 170.647C10.3479 170.718 10.3876 170.795 10.4593 170.818C10.5309 170.841 10.6075 170.801 10.6302 170.73Z" fill="white"/>
<path opacity="0.11" d="M15.2518 138.176C15.2746 138.104 15.2349 138.028 15.1633 138.005C15.0916 137.982 15.015 138.021 14.9923 138.093C14.9695 138.165 15.0091 138.241 15.0808 138.264C15.1525 138.287 15.229 138.247 15.2518 138.176Z" fill="white"/>
<path opacity="0.11" d="M29.4687 125.844C29.4914 125.772 29.4518 125.696 29.3801 125.673C29.3084 125.65 29.2319 125.69 29.2091 125.761C29.1864 125.833 29.226 125.91 29.2977 125.932C29.3693 125.955 29.4459 125.916 29.4687 125.844Z" fill="white"/>
<path opacity="0.11" d="M36.088 100.506C36.1107 100.435 36.0711 100.358 35.9994 100.335C35.9277 100.312 35.8512 100.352 35.8284 100.423C35.8056 100.495 35.8453 100.572 35.917 100.595C35.9886 100.617 36.0652 100.578 36.088 100.506Z" fill="white"/>
<path opacity="0.3" d="M6.54677 159.274C6.56953 159.202 6.52989 159.125 6.45821 159.102C6.38654 159.08 6.30998 159.119 6.28721 159.191C6.26445 159.262 6.30409 159.339 6.37577 159.362C6.44744 159.385 6.524 159.345 6.54677 159.274Z" fill="white"/>
<path d="M9.0219 127.179C9.04467 127.107 9.00502 127.03 8.93335 127.007C8.86168 126.984 8.78511 127.024 8.76235 127.096C8.73958 127.167 8.77923 127.244 8.8509 127.267C8.92258 127.29 8.99914 127.25 9.0219 127.179Z" fill="white"/>
<path d="M15.1129 107.105C15.1357 107.033 15.096 106.957 15.0244 106.934C14.9527 106.911 14.8761 106.95 14.8534 107.022C14.8306 107.094 14.8702 107.17 14.9419 107.193C15.0136 107.216 15.0901 107.177 15.1129 107.105Z" fill="white"/>
<path d="M18.1613 139.82C18.1841 139.749 18.1444 139.672 18.0728 139.649C18.0011 139.626 17.9245 139.666 17.9018 139.737C17.879 139.809 17.9186 139.886 17.9903 139.909C18.062 139.932 18.1385 139.892 18.1613 139.82Z" fill="white"/>
<path opacity="0.3" d="M15.2753 148.908C15.2981 148.836 15.2584 148.76 15.1867 148.737C15.1151 148.714 15.0385 148.753 15.0157 148.825C14.993 148.897 15.0326 148.973 15.1043 148.996C15.176 149.019 15.2525 148.98 15.2753 148.908Z" fill="white"/>
<path opacity="0.11" d="M3.84466 156.98C3.86743 156.908 3.82778 156.832 3.75611 156.809C3.68443 156.786 3.60787 156.825 3.58511 156.897C3.56234 156.969 3.60199 157.045 3.67366 157.068C3.74534 157.091 3.82189 157.052 3.84466 156.98Z" fill="white"/>
<path opacity="0.3" d="M12.8804 125.836C12.9031 125.765 12.8635 125.688 12.7918 125.665C12.7201 125.642 12.6436 125.682 12.6208 125.753C12.5981 125.825 12.6377 125.902 12.7094 125.925C12.781 125.948 12.8576 125.908 12.8804 125.836Z" fill="white"/>
<path opacity="0.3" d="M21.3311 138.401C21.3538 138.33 21.3142 138.253 21.2425 138.23C21.1708 138.207 21.0943 138.247 21.0715 138.318C21.0487 138.39 21.0884 138.467 21.1601 138.49C21.2317 138.513 21.3083 138.473 21.3311 138.401Z" fill="white"/>
<path opacity="0.3" d="M17.6389 154.523C17.6616 154.451 17.622 154.375 17.5503 154.352C17.4786 154.329 17.4021 154.368 17.3793 154.44C17.3566 154.512 17.3962 154.588 17.4679 154.611C17.5396 154.634 17.6161 154.595 17.6389 154.523Z" fill="white"/>
<path opacity="0.3" d="M7.74422 155.509C7.76699 155.437 7.72734 155.36 7.65567 155.337C7.584 155.315 7.50744 155.354 7.48467 155.426C7.4619 155.497 7.50155 155.574 7.57322 155.597C7.6449 155.62 7.72146 155.58 7.74422 155.509Z" fill="white"/>
<path opacity="0.3" d="M33.0063 74.6436C33.029 74.5719 32.9894 74.4953 32.9177 74.4724C32.846 74.4495 32.7695 74.489 32.7467 74.5607C32.7239 74.6323 32.7636 74.709 32.8353 74.7319C32.9069 74.7548 32.9835 74.7152 33.0063 74.6436Z" fill="white"/>
<path opacity="0.11" d="M21.0434 93.8425C21.0662 93.7708 21.0266 93.6942 20.9549 93.6713C20.8832 93.6484 20.8066 93.6879 20.7839 93.7596C20.7611 93.8313 20.8008 93.9079 20.8724 93.9308C20.9441 93.9537 21.0207 93.9142 21.0434 93.8425Z" fill="white"/>
<path opacity="0.11" d="M37.4752 79.9309C37.498 79.8592 37.4583 79.7826 37.3867 79.7597C37.315 79.7368 37.2384 79.7763 37.2157 79.848C37.1929 79.9196 37.2325 79.9963 37.3042 80.0192C37.3759 80.0421 37.4524 80.0025 37.4752 79.9309Z" fill="white"/>
<path opacity="0.3" d="M28.2105 113.146C28.2561 113.003 28.1767 112.849 28.0333 112.803C27.8898 112.758 27.7366 112.837 27.691 112.98C27.6454 113.124 27.7248 113.277 27.8682 113.323C28.0117 113.369 28.165 113.29 28.2105 113.146Z" fill="white"/>
<path opacity="0.11" d="M26.7489 104.244C26.7945 104.101 26.7151 103.947 26.5717 103.901C26.4282 103.855 26.275 103.935 26.2294 104.078C26.1838 104.221 26.2632 104.375 26.4066 104.421C26.5501 104.467 26.7034 104.387 26.7489 104.244Z" fill="white"/>
<path d="M22.1841 102.856C22.2183 102.748 22.1588 102.633 22.0512 102.599C21.9437 102.564 21.8288 102.624 21.7946 102.731C21.7604 102.839 21.8199 102.954 21.9275 102.988C22.0351 103.023 22.15 102.963 22.1841 102.856Z" fill="white"/>
<path d="M32.971 116.168C33.0052 116.06 32.9457 115.945 32.8381 115.911C32.7305 115.876 32.6156 115.936 32.5815 116.043C32.5473 116.151 32.6068 116.266 32.7144 116.3C32.822 116.335 32.9369 116.275 32.971 116.168Z" fill="white"/>
<path d="M49.26 73.8996C49.2941 73.792 49.2346 73.677 49.1271 73.6426C49.0195 73.6083 48.9046 73.6676 48.8704 73.7751C48.8363 73.8827 48.8958 73.9977 49.0033 74.0321C49.1109 74.0665 49.2258 74.0071 49.26 73.8996Z" fill="white"/>
<path d="M20.2862 157.444C20.3204 157.336 20.2609 157.221 20.1533 157.187C20.0457 157.152 19.9308 157.212 19.8966 157.319C19.8625 157.427 19.922 157.542 20.0295 157.576C20.1371 157.611 20.252 157.551 20.2862 157.444Z" fill="white"/>
<path d="M11.814 173.753C11.8482 173.645 11.7887 173.53 11.6811 173.496C11.5735 173.461 11.4586 173.521 11.4244 173.628C11.3903 173.736 11.4498 173.851 11.5573 173.885C11.6649 173.92 11.7798 173.86 11.814 173.753Z" fill="white"/>
<path d="M5.92063 174.302C5.9548 174.194 5.8953 174.079 5.78772 174.045C5.68015 174.01 5.56525 174.07 5.53108 174.177C5.49691 174.285 5.55641 174.4 5.66399 174.434C5.77156 174.468 5.88646 174.409 5.92063 174.302Z" fill="white"/>
<path d="M22.8024 109.917C22.8366 109.809 22.7771 109.694 22.6695 109.66C22.562 109.625 22.447 109.685 22.4129 109.792C22.3787 109.9 22.4382 110.015 22.5458 110.049C22.6534 110.084 22.7683 110.024 22.8024 109.917Z" fill="white"/>
<path d="M25.2326 135.573C25.2667 135.465 25.2072 135.35 25.0997 135.316C24.9921 135.281 24.8772 135.341 24.843 135.448C24.8088 135.556 24.8683 135.671 24.9759 135.705C25.0835 135.739 25.1984 135.68 25.2326 135.573Z" fill="white"/>
<path d="M41.2104 104.644C41.2446 104.536 41.1851 104.421 41.0775 104.387C40.9699 104.352 40.855 104.412 40.8208 104.519C40.7867 104.627 40.8462 104.742 40.9538 104.776C41.0613 104.81 41.1762 104.751 41.2104 104.644Z" fill="white"/>
<path d="M43.3079 67.4226C43.3421 67.3151 43.2826 67.2001 43.175 67.1657C43.0674 67.1313 42.9525 67.1907 42.9184 67.2982C42.8842 67.4058 42.9437 67.5208 43.0513 67.5552C43.1588 67.5895 43.2737 67.5302 43.3079 67.4226Z" fill="white"/>
<path d="M37.1582 62.0277C37.1924 61.9202 37.1329 61.8051 37.0253 61.7708C36.9177 61.7364 36.8028 61.7958 36.7687 61.9033C36.7345 62.0109 36.794 62.1259 36.9016 62.1603C37.0091 62.1946 37.124 62.1353 37.1582 62.0277Z" fill="white"/>
<path opacity="0.3" d="M25.7158 92.1882C25.7614 92.0448 25.682 91.8913 25.5386 91.8455C25.3951 91.7997 25.2419 91.8788 25.1963 92.0223C25.1507 92.1657 25.2301 92.3191 25.3735 92.365C25.517 92.4108 25.6703 92.3317 25.7158 92.1882Z" fill="white"/>
<path d="M16.4981 89.244C16.5437 89.1005 16.4644 88.9471 16.3209 88.9013C16.1774 88.8554 16.0242 88.9346 15.9786 89.078C15.933 89.2215 16.0124 89.3749 16.1559 89.4207C16.2993 89.4665 16.4526 89.3874 16.4981 89.244Z" fill="white"/>
<path d="M30.6974 86.4147C30.7316 86.3071 30.6721 86.1921 30.5645 86.1577C30.457 86.1234 30.3421 86.1827 30.3079 86.2902C30.2737 86.3978 30.3332 86.5128 30.4408 86.5472C30.5484 86.5816 30.6633 86.5222 30.6974 86.4147Z" fill="white"/>
<path opacity="0.3" d="M27.6333 78.5011C27.6789 78.3577 27.5995 78.2042 27.4561 78.1584C27.3126 78.1126 27.1594 78.1917 27.1138 78.3352C27.0682 78.4786 27.1476 78.632 27.291 78.6778C27.4345 78.7237 27.5878 78.6445 27.6333 78.5011Z" fill="white"/>
<path opacity="0.3" d="M40.9345 68.5962C40.9801 68.4527 40.9007 68.2993 40.7572 68.2535C40.6138 68.2076 40.4605 68.2868 40.4149 68.4302C40.3694 68.5736 40.4487 68.7271 40.5922 68.7729C40.7357 68.8187 40.8889 68.7396 40.9345 68.5962Z" fill="white"/>
<path opacity="0.3" d="M36.3677 83.8652C36.4133 83.7218 36.3339 83.5683 36.1905 83.5225C36.047 83.4767 35.8937 83.5558 35.8482 83.6992C35.8026 83.8427 35.882 83.9961 36.0254 84.0419C36.1689 84.0878 36.3221 84.0086 36.3677 83.8652Z" fill="white"/>
<path opacity="0.3" d="M14.9015 159.082C14.9471 158.939 14.8677 158.786 14.7243 158.74C14.5808 158.694 14.4275 158.773 14.382 158.916C14.3364 159.06 14.4158 159.213 14.5592 159.259C14.7027 159.305 14.856 159.226 14.9015 159.082Z" fill="white"/>
<path opacity="0.3" d="M4.41988 167.318C4.46545 167.175 4.38608 167.022 4.24262 166.976C4.09915 166.93 3.9459 167.009 3.90033 167.152C3.85476 167.296 3.93411 167.449 4.07758 167.495C4.22105 167.541 4.3743 167.462 4.41988 167.318Z" fill="white"/>
<path opacity="0.11" d="M35.3483 72.6733C35.3939 72.5298 35.3145 72.3764 35.1711 72.3306C35.0276 72.2848 34.8743 72.3639 34.8288 72.5073C34.7832 72.6508 34.8626 72.8042 35.006 72.85C35.1495 72.8958 35.3027 72.8167 35.3483 72.6733Z" fill="white"/>
<path opacity="0.3" d="M5.903 147.345C5.94857 147.202 5.86921 147.048 5.72574 147.002C5.58227 146.957 5.42903 147.036 5.38345 147.179C5.33788 147.323 5.41724 147.476 5.56071 147.522C5.70418 147.568 5.85742 147.489 5.903 147.345Z" fill="white"/>
<path opacity="0.11" d="M2.19323 150.02C2.2388 149.877 2.15945 149.723 2.01598 149.678C1.87251 149.632 1.71926 149.711 1.67368 149.854C1.62811 149.998 1.70748 150.151 1.85095 150.197C1.99441 150.243 2.14766 150.164 2.19323 150.02Z" fill="white"/>
<path opacity="0.3" d="M10.1743 153.711C10.2199 153.568 10.1405 153.415 9.99707 153.369C9.8536 153.323 9.70035 153.402 9.65478 153.546C9.6092 153.689 9.68857 153.842 9.83204 153.888C9.97551 153.934 10.1288 153.855 10.1743 153.711Z" fill="white"/>
<path d="M12.6221 145.558C12.6563 145.45 12.5967 145.335 12.4892 145.301C12.3816 145.266 12.2667 145.326 12.2325 145.433C12.1984 145.541 12.2579 145.656 12.3654 145.69C12.473 145.725 12.5879 145.665 12.6221 145.558Z" fill="white"/>
<path opacity="0.11" d="M61.9663 60.323C62.0119 60.1796 61.9325 60.0262 61.789 59.9803C61.6456 59.9345 61.4923 60.0136 61.4468 60.1571C61.4012 60.3005 61.4805 60.454 61.624 60.4998C61.7675 60.5456 61.9207 60.4665 61.9663 60.323Z" fill="white"/>
<path d="M63.6627 59.9361C63.6969 59.8285 63.6374 59.7135 63.5298 59.6791C63.4222 59.6448 63.3073 59.7041 63.2732 59.8117C63.239 59.9192 63.2985 60.0343 63.4061 60.0686C63.5136 60.103 63.6285 60.0436 63.6627 59.9361Z" fill="white"/>
<path d="M62.297 54.7818C62.3311 54.6743 62.2716 54.5593 62.1641 54.5249C62.0565 54.4905 61.9416 54.5499 61.9074 54.6574C61.8732 54.765 61.9327 54.88 62.0403 54.9144C62.1479 54.9487 62.2628 54.8894 62.297 54.7818Z" fill="white"/>
<path d="M58.5305 65.7316C58.5646 65.6241 58.5051 65.509 58.3976 65.4747C58.29 65.4403 58.1751 65.4997 58.1409 65.6072C58.1067 65.7148 58.1662 65.8298 58.2738 65.8642C58.3814 65.8985 58.4963 65.8392 58.5305 65.7316Z" fill="white"/>
<path opacity="0.11" d="M59.6047 73.1531C59.6502 73.0097 59.5709 72.8563 59.4274 72.8104C59.2839 72.7646 59.1307 72.8438 59.0851 72.9872C59.0395 73.1306 59.1189 73.2841 59.2624 73.3299C59.4058 73.3757 59.5591 73.2966 59.6047 73.1531Z" fill="white"/>
<path d="M55.9654 74.7081C55.9881 74.6365 55.9485 74.5598 55.8768 74.5369C55.8051 74.5141 55.7286 74.5536 55.7058 74.6252C55.683 74.6969 55.7227 74.7735 55.7944 74.7964C55.866 74.8193 55.9426 74.7798 55.9654 74.7081Z" fill="white"/>
<path d="M66.9049 62.3305C66.9276 62.2588 66.888 62.1822 66.8163 62.1593C66.7446 62.1364 66.6681 62.1759 66.6453 62.2476C66.6225 62.3192 66.6622 62.3959 66.7339 62.4188C66.8055 62.4417 66.8821 62.4022 66.9049 62.3305Z" fill="white"/>
<path d="M75.8975 34.0308C75.9203 33.9591 75.8806 33.8825 75.809 33.8596C75.7373 33.8367 75.6607 33.8762 75.638 33.9479C75.6152 34.0196 75.6548 34.0962 75.7265 34.1191C75.7982 34.142 75.8748 34.1025 75.8975 34.0308Z" fill="white"/>
<path d="M73.3793 17.643C73.4021 17.5714 73.3625 17.4947 73.2908 17.4718C73.2191 17.4489 73.1426 17.4885 73.1198 17.5601C73.097 17.6318 73.1367 17.7084 73.2083 17.7313C73.28 17.7542 73.3566 17.7147 73.3793 17.643Z" fill="white"/>
<path d="M84.4676 15.6076C84.4903 15.536 84.4507 15.4593 84.379 15.4365C84.3073 15.4136 84.2308 15.4531 84.208 15.5247C84.1852 15.5964 84.2249 15.6731 84.2966 15.696C84.3682 15.7188 84.4448 15.6793 84.4676 15.6076Z" fill="white"/>
<path d="M49.9253 104.522C49.948 104.45 49.9084 104.373 49.8367 104.351C49.765 104.328 49.6885 104.367 49.6657 104.439C49.6429 104.511 49.6826 104.587 49.7543 104.61C49.8259 104.633 49.9025 104.593 49.9253 104.522Z" fill="white"/>
<path opacity="0.11" d="M42.2963 104.229C42.3191 104.158 42.2795 104.081 42.2078 104.058C42.1361 104.035 42.0596 104.075 42.0368 104.146C42.014 104.218 42.0537 104.295 42.1253 104.318C42.197 104.34 42.2736 104.301 42.2963 104.229Z" fill="white"/>
<path opacity="0.11" d="M43.5095 110.764C43.5322 110.692 43.4926 110.616 43.4209 110.593C43.3492 110.57 43.2727 110.609 43.2499 110.681C43.2271 110.753 43.2668 110.829 43.3385 110.852C43.4101 110.875 43.4867 110.836 43.5095 110.764Z" fill="white"/>
<path opacity="0.11" d="M52.6606 108.969C52.6834 108.897 52.6437 108.82 52.5721 108.798C52.5004 108.775 52.4238 108.814 52.4011 108.886C52.3783 108.957 52.4179 109.034 52.4896 109.057C52.5613 109.08 52.6378 109.04 52.6606 108.969Z" fill="white"/>
<path opacity="0.11" d="M57.2822 76.4148C57.3049 76.3431 57.2653 76.2665 57.1936 76.2436C57.1219 76.2207 57.0454 76.2602 57.0226 76.3319C56.9998 76.4036 57.0395 76.4802 57.1112 76.5031C57.1828 76.526 57.2594 76.4865 57.2822 76.4148Z" fill="white"/>
<path opacity="0.11" d="M71.4971 64.0841C71.5198 64.0125 71.4802 63.9358 71.4085 63.9129C71.3368 63.89 71.2603 63.9296 71.2375 64.0012C71.2147 64.0729 71.2544 64.1495 71.3261 64.1724C71.3977 64.1953 71.4743 64.1558 71.4971 64.0841Z" fill="white"/>
<path opacity="0.11" d="M78.1183 38.7453C78.1411 38.6736 78.1014 38.597 78.0297 38.5741C77.9581 38.5512 77.8815 38.5907 77.8587 38.6624C77.836 38.734 77.8756 38.8107 77.9473 38.8336C78.019 38.8565 78.0955 38.817 78.1183 38.7453Z" fill="white"/>
<path opacity="0.3" d="M48.5771 97.5127C48.5999 97.441 48.5602 97.3643 48.4886 97.3415C48.4169 97.3186 48.3403 97.3581 48.3176 97.4297C48.2948 97.5014 48.3345 97.5781 48.4061 97.601C48.4778 97.6238 48.5544 97.5843 48.5771 97.5127Z" fill="white"/>
<path d="M51.0503 65.4176C51.0731 65.3459 51.0334 65.2693 50.9617 65.2464C50.8901 65.2235 50.8135 65.263 50.7908 65.3347C50.768 65.4063 50.8076 65.483 50.8793 65.5059C50.951 65.5288 51.0275 65.4892 51.0503 65.4176Z" fill="white"/>
<path d="M57.1432 45.3426C57.166 45.2709 57.1263 45.1943 57.0547 45.1714C56.983 45.1485 56.9064 45.188 56.8837 45.2597C56.8609 45.3313 56.9006 45.408 56.9722 45.4309C57.0439 45.4537 57.1205 45.4142 57.1432 45.3426Z" fill="white"/>
<path d="M60.1917 78.0593C60.2144 77.9877 60.1748 77.911 60.1031 77.8882C60.0314 77.8653 59.9549 77.9048 59.9321 77.9764C59.9094 78.0481 59.949 78.1248 60.0207 78.1477C60.0924 78.1705 60.1689 78.131 60.1917 78.0593Z" fill="white"/>
<path opacity="0.3" d="M57.3056 87.1469C57.3284 87.0753 57.2888 86.9986 57.2171 86.9757C57.1454 86.9528 57.0689 86.9924 57.0461 87.064C57.0233 87.1357 57.063 87.2123 57.1346 87.2352C57.2063 87.2581 57.2829 87.2186 57.3056 87.1469Z" fill="white"/>
<path opacity="0.11" d="M45.875 95.219C45.8978 95.1473 45.8581 95.0707 45.7865 95.0478C45.7148 95.0249 45.6382 95.0644 45.6155 95.1361C45.5927 95.2077 45.6323 95.2844 45.704 95.3073C45.7757 95.3302 45.8522 95.2907 45.875 95.219Z" fill="white"/>
<path opacity="0.3" d="M54.9107 64.0743C54.9335 64.0027 54.8939 63.926 54.8222 63.9031C54.7505 63.8802 54.6739 63.9198 54.6512 63.9914C54.6284 64.0631 54.6681 64.1398 54.7397 64.1626C54.8114 64.1855 54.888 64.146 54.9107 64.0743Z" fill="white"/>
<path opacity="0.3" d="M63.3614 76.6403C63.3842 76.5687 63.3445 76.492 63.2729 76.4691C63.2012 76.4462 63.1246 76.4858 63.1019 76.5574C63.0791 76.6291 63.1188 76.7057 63.1904 76.7286C63.2621 76.7515 63.3387 76.712 63.3614 76.6403Z" fill="white"/>
<path opacity="0.3" d="M59.6673 92.762C59.6901 92.6903 59.6504 92.6136 59.5787 92.5908C59.5071 92.5679 59.4305 92.6074 59.4077 92.679C59.385 92.7507 59.4246 92.8274 59.4963 92.8503C59.568 92.8732 59.6445 92.8336 59.6673 92.762Z" fill="white"/>
<path opacity="0.3" d="M49.7726 93.7476C49.7954 93.6759 49.7558 93.5993 49.6841 93.5764C49.6124 93.5535 49.5359 93.593 49.5131 93.6647C49.4903 93.7364 49.53 93.813 49.6016 93.8359C49.6733 93.8588 49.7499 93.8193 49.7726 93.7476Z" fill="white"/>
<path opacity="0.3" d="M75.0366 12.8826C75.0594 12.8109 75.0197 12.7342 74.9481 12.7114C74.8764 12.6885 74.7998 12.728 74.7771 12.7996C74.7543 12.8713 74.7939 12.948 74.8656 12.9709C74.9373 12.9938 75.0138 12.9542 75.0366 12.8826Z" fill="white"/>
<path opacity="0.11" d="M63.0718 32.0805C63.0946 32.0089 63.0549 31.9322 62.9833 31.9093C62.9116 31.8864 62.835 31.926 62.8123 31.9976C62.7895 32.0693 62.8291 32.1459 62.9008 32.1688C62.9725 32.1917 63.0491 32.1522 63.0718 32.0805Z" fill="white"/>
<path opacity="0.11" d="M79.5055 18.1689C79.5283 18.0972 79.4887 18.0206 79.417 17.9977C79.3453 17.9748 79.2688 18.0143 79.246 18.086C79.2232 18.1576 79.2629 18.2343 79.3346 18.2572C79.4062 18.2801 79.4828 18.2405 79.5055 18.1689Z" fill="white"/>
<path opacity="0.3" d="M70.2389 51.3866C70.2845 51.2432 70.2051 51.0897 70.0617 51.0439C69.9182 50.9981 69.7649 51.0772 69.7194 51.2207C69.6738 51.3641 69.7532 51.5175 69.8966 51.5634C70.0401 51.6092 70.1934 51.53 70.2389 51.3866Z" fill="white"/>
<path opacity="0.11" d="M68.7793 42.4815C68.8248 42.3381 68.7455 42.1846 68.602 42.1388C68.4585 42.093 68.3053 42.1721 68.2597 42.3156C68.2142 42.459 68.2935 42.6124 68.437 42.6583C68.5805 42.7041 68.7337 42.6249 68.7793 42.4815Z" fill="white"/>
<path d="M64.2145 41.0947C64.2486 40.9872 64.1891 40.8721 64.0816 40.8378C63.974 40.8034 63.8591 40.8628 63.8249 40.9703C63.7908 41.0779 63.8503 41.1929 63.9578 41.2273C64.0654 41.2616 64.1803 41.2023 64.2145 41.0947Z" fill="white"/>
<path d="M75.0014 54.4067C75.0355 54.2991 74.976 54.1841 74.8685 54.1497C74.7609 54.1154 74.646 54.1747 74.6118 54.2822C74.5777 54.3898 74.6372 54.5048 74.7447 54.5392C74.8523 54.5735 74.9672 54.5142 75.0014 54.4067Z" fill="white"/>
<path d="M91.2903 12.1386C91.3245 12.031 91.265 11.916 91.1574 11.8816C91.0498 11.8473 90.9349 11.9066 90.9007 12.0141C90.8666 12.1217 90.9261 12.2367 91.0337 12.2711C91.1412 12.3055 91.2561 12.2461 91.2903 12.1386Z" fill="white"/>
<path d="M62.3166 95.6818C62.3507 95.5742 62.2912 95.4592 62.1836 95.4248C62.0761 95.3905 61.9612 95.4498 61.927 95.5573C61.8928 95.6649 61.9523 95.7799 62.0599 95.8143C62.1675 95.8486 62.2824 95.7893 62.3166 95.6818Z" fill="white"/>
<path d="M53.8463 111.992C53.8805 111.884 53.821 111.769 53.7134 111.735C53.6058 111.7 53.4909 111.76 53.4568 111.867C53.4226 111.975 53.4821 112.09 53.5897 112.124C53.6972 112.159 53.8121 112.099 53.8463 111.992Z" fill="white"/>
<path d="M47.951 112.541C47.9852 112.433 47.9256 112.318 47.8181 112.284C47.7105 112.249 47.5956 112.309 47.5614 112.416C47.5273 112.524 47.5868 112.639 47.6943 112.673C47.8019 112.707 47.9168 112.648 47.951 112.541Z" fill="white"/>
<path d="M64.8308 48.1557C64.865 48.0482 64.8055 47.9331 64.6979 47.8988C64.5903 47.8644 64.4754 47.9237 64.4413 48.0313C64.4071 48.1388 64.4666 48.2539 64.5742 48.2882C64.6817 48.3226 64.7966 48.2633 64.8308 48.1557Z" fill="white"/>
<path d="M67.2629 73.8115C67.2971 73.704 67.2376 73.5889 67.13 73.5546C67.0224 73.5202 66.9075 73.5796 66.8734 73.6871C66.8392 73.7947 66.8987 73.9097 67.0063 73.9441C67.1138 73.9784 67.2287 73.9191 67.2629 73.8115Z" fill="white"/>
<path d="M83.2388 42.8826C83.2729 42.7751 83.2134 42.66 83.1059 42.6257C82.9983 42.5913 82.8834 42.6506 82.8492 42.7582C82.8151 42.8657 82.8746 42.9808 82.9821 43.0151C83.0897 43.0495 83.2046 42.9902 83.2388 42.8826Z" fill="white"/>
<path d="M85.3382 5.66311C85.3724 5.55556 85.3129 5.44052 85.2053 5.40616C85.0978 5.3718 84.9829 5.43113 84.9487 5.53868C84.9145 5.64623 84.974 5.76127 85.0816 5.79563C85.1892 5.82999 85.3041 5.77066 85.3382 5.66311Z" fill="white"/>
<path d="M79.1886 0.266723C79.2227 0.159173 79.1632 0.0441364 79.0557 0.00977711C78.9481 -0.0245822 78.8332 0.0347466 78.799 0.142297C78.7648 0.249847 78.8243 0.364883 78.9319 0.399242C79.0395 0.433602 79.1544 0.374273 79.1886 0.266723Z" fill="white"/>
<path opacity="0.3" d="M67.7442 30.4282C67.7898 30.2847 67.7104 30.1313 67.567 30.0855C67.4235 30.0396 67.2702 30.1188 67.2247 30.2622C67.1791 30.4057 67.2585 30.5591 67.4019 30.6049C67.5454 30.6508 67.6986 30.5716 67.7442 30.4282Z" fill="white"/>
<path d="M58.5265 27.4844C58.5721 27.341 58.4927 27.1876 58.3493 27.1417C58.2058 27.0959 58.0526 27.175 58.007 27.3185C57.9614 27.4619 58.0408 27.6154 58.1842 27.6612C58.3277 27.707 58.481 27.6279 58.5265 27.4844Z" fill="white"/>
<path d="M72.7258 24.6537C72.76 24.5461 72.7005 24.4311 72.5929 24.3967C72.4853 24.3624 72.3704 24.4217 72.3363 24.5292C72.3021 24.6368 72.3616 24.7518 72.4692 24.7862C72.5767 24.8205 72.6916 24.7612 72.7258 24.6537Z" fill="white"/>
<path opacity="0.3" d="M69.6617 16.7411C69.7073 16.5976 69.6279 16.4442 69.4845 16.3984C69.341 16.3525 69.1877 16.4317 69.1422 16.5751C69.0966 16.7186 69.176 16.872 69.3194 16.9178C69.4629 16.9636 69.6161 16.8845 69.6617 16.7411Z" fill="white"/>
<path opacity="0.3" d="M82.9648 6.83319C83.0104 6.68974 82.931 6.53632 82.7876 6.49049C82.6441 6.44467 82.4909 6.5238 82.4453 6.66724C82.3997 6.81068 82.4791 6.96411 82.6225 7.00993C82.766 7.05576 82.9193 6.97663 82.9648 6.83319Z" fill="white"/>
<path opacity="0.3" d="M78.4 22.1032C78.4456 21.9598 78.3662 21.8063 78.2228 21.7605C78.0793 21.7147 77.926 21.7938 77.8805 21.9373C77.8349 22.0807 77.9143 22.2341 78.0577 22.28C78.2012 22.3258 78.3544 22.2467 78.4 22.1032Z" fill="white"/>
<path opacity="0.3" d="M56.9319 97.3214C56.9775 97.178 56.8981 97.0246 56.7546 96.9787C56.6112 96.9329 56.4579 97.012 56.4124 97.1555C56.3668 97.2989 56.4461 97.4523 56.5896 97.4982C56.7331 97.544 56.8863 97.4649 56.9319 97.3214Z" fill="white"/>
<path opacity="0.3" d="M46.4502 105.556C46.4958 105.413 46.4164 105.26 46.273 105.214C46.1295 105.168 45.9763 105.247 45.9307 105.39C45.8851 105.534 45.9645 105.687 46.1079 105.733C46.2514 105.779 46.4047 105.7 46.4502 105.556Z" fill="white"/>
<path opacity="0.11" d="M77.3787 10.9113C77.4242 10.7679 77.3449 10.6144 77.2014 10.5686C77.0579 10.5228 76.9047 10.6019 76.8591 10.7453C76.8135 10.8888 76.8929 11.0422 77.0364 11.088C77.1798 11.1339 77.3331 11.0547 77.3787 10.9113Z" fill="white"/>
<path opacity="0.3" d="M47.9334 85.5826C47.9789 85.4392 47.8996 85.2858 47.7561 85.2399C47.6126 85.1941 47.4594 85.2732 47.4138 85.4167C47.3682 85.5601 47.4476 85.7136 47.5911 85.7594C47.7345 85.8052 47.8878 85.7261 47.9334 85.5826Z" fill="white"/>
<path opacity="0.11" d="M44.2236 88.2583C44.2692 88.1149 44.1898 87.9614 44.0463 87.9156C43.9029 87.8698 43.7496 87.9489 43.704 88.0924C43.6585 88.2358 43.7378 88.3892 43.8813 88.4351C44.0248 88.4809 44.178 88.4018 44.2236 88.2583Z" fill="white"/>
<path opacity="0.3" d="M52.2027 91.9505C52.2483 91.807 52.1689 91.6536 52.0255 91.6078C51.882 91.562 51.7288 91.6411 51.6832 91.7845C51.6376 91.928 51.717 92.0814 51.8604 92.1272C52.0039 92.1731 52.1572 92.0939 52.2027 91.9505Z" fill="white"/>
<path d="M54.6505 83.7962C54.6847 83.6886 54.6252 83.5736 54.5176 83.5393C54.41 83.5049 54.2951 83.5642 54.2609 83.6718C54.2268 83.7793 54.2863 83.8944 54.3938 83.9287C54.5014 83.9631 54.6163 83.9037 54.6505 83.7962Z" fill="white"/>
</svg>
