<svg width="34" height="34" viewBox="0 0 34 34" fill="none" xmlns="http://www.w3.org/2000/svg">
<path opacity="0.5" fill-rule="evenodd" clip-rule="evenodd" d="M19.1107 2.63949C19.3733 1.47377 18.6411 0.315918 17.4754 0.0533534C16.3097 -0.209223 15.1518 0.522905 14.8893 1.68861C13.9265 5.96274 12.6799 8.68857 10.8001 10.6071C8.92536 12.5205 6.17755 13.8781 1.68859 14.8893C0.522886 15.1518 -0.209231 16.3098 0.0533583 17.4755C0.315947 18.6411 1.4738 19.3733 2.63949 19.1106C7.52055 18.0111 11.1902 16.3919 13.8909 13.6356C16.5864 10.8845 18.0727 7.2477 19.1107 2.63949ZM32.3114 19.1106C33.4771 18.8481 34.2092 17.6902 33.9467 16.5245C33.684 15.3589 32.5262 14.6267 31.3605 14.8893C26.7523 15.9273 23.1155 17.4137 20.3644 20.1092C17.6081 22.8097 15.9888 26.4794 14.8893 31.3605C14.6267 32.5262 15.3589 33.684 16.5245 33.9466C17.6902 34.2092 18.8481 33.4771 19.1107 32.3114C20.1219 27.8224 21.4795 25.0746 23.3928 23.2C25.3114 21.3202 28.0372 20.0735 32.3114 19.1106Z" fill="white"/>
<path fill-rule="evenodd" clip-rule="evenodd" d="M19.1107 1.68861C18.8481 0.522905 17.6903 -0.209223 16.5246 0.0533533C15.3589 0.315918 14.6267 1.47377 14.8893 2.63949C15.9273 7.2477 17.4136 10.8845 20.109 13.6356C22.8097 16.3919 26.4794 18.0111 31.3605 19.1106C32.5262 19.3733 33.684 18.6411 33.9467 17.4755C34.2092 16.3098 33.4771 15.1518 32.3114 14.8893C27.8224 13.878 25.0746 12.5205 23.1999 10.6071C21.32 8.68857 20.0735 5.96274 19.1107 1.68861ZM2.63949 14.8892C1.4738 14.6267 0.315947 15.3587 0.0533583 16.5245C-0.209231 17.6902 0.522886 18.848 1.68859 19.1105C6.17755 20.1218 8.92536 21.4793 10.8001 23.3927C12.6799 25.3113 13.9265 28.0372 14.8893 32.3112C15.1518 33.477 16.3097 34.2091 17.4754 33.9465C18.6411 33.684 19.3733 32.5261 19.1107 31.3603C18.0727 26.7523 16.5864 23.1155 13.8909 20.3644C11.1902 17.608 7.52055 15.9887 2.63949 14.8892Z" fill="white"/>
</svg>
