<svg width="195" height="158" viewBox="0 0 195 158" fill="none" xmlns="http://www.w3.org/2000/svg">
<g opacity="0.7">
<path opacity="0.11" d="M48.1161 121.797C48.2468 121.712 48.284 121.537 48.1992 121.406C48.1144 121.275 47.9397 121.238 47.809 121.323C47.6784 121.408 47.6412 121.583 47.726 121.714C47.8108 121.845 47.9854 121.882 48.1161 121.797Z" fill="white" fill-opacity="0.8"/>
<path d="M49.727 122.601C49.8249 122.537 49.8528 122.406 49.7892 122.308C49.7257 122.21 49.5947 122.182 49.4967 122.246C49.3987 122.309 49.3708 122.441 49.4344 122.539C49.498 122.637 49.629 122.665 49.727 122.601Z" fill="white" fill-opacity="0.8"/>
<path d="M52.0189 117.578C52.1169 117.514 52.1448 117.383 52.0812 117.285C52.0176 117.187 51.8866 117.159 51.7887 117.223C51.6907 117.286 51.6628 117.417 51.7264 117.516C51.79 117.614 51.9209 117.642 52.0189 117.578Z" fill="white" fill-opacity="0.8"/>
<path d="M41.8137 123.874C41.9117 123.81 41.9396 123.679 41.876 123.581C41.8124 123.482 41.6814 123.455 41.5834 123.518C41.4855 123.582 41.4576 123.713 41.5212 123.811C41.5847 123.909 41.7157 123.937 41.8137 123.874Z" fill="white" fill-opacity="0.8"/>
<path opacity="0.11" d="M37.801 130.522C37.9317 130.437 37.9689 130.262 37.8841 130.131C37.7992 130 37.6246 129.963 37.4939 130.048C37.3632 130.133 37.326 130.308 37.4108 130.439C37.4956 130.57 37.6703 130.607 37.801 130.522Z" fill="white" fill-opacity="0.8"/>
<path d="M33.8663 129.375C33.9316 129.333 33.9502 129.246 33.9078 129.18C33.8655 129.115 33.7782 129.096 33.7129 129.139C33.6476 129.181 33.6291 129.269 33.6714 129.334C33.7138 129.399 33.8011 129.418 33.8663 129.375Z" fill="white" fill-opacity="0.8"/>
<path d="M50.7535 126.648C50.8188 126.606 50.8374 126.518 50.795 126.453C50.7527 126.388 50.6654 126.369 50.6001 126.411C50.5348 126.454 50.5163 126.541 50.5586 126.607C50.601 126.672 50.6882 126.691 50.7535 126.648Z" fill="white" fill-opacity="0.8"/>
<path d="M76.5342 109.89C76.5995 109.848 76.6181 109.761 76.5757 109.695C76.5334 109.63 76.4461 109.611 76.3808 109.654C76.3155 109.696 76.297 109.784 76.3393 109.849C76.3817 109.914 76.469 109.933 76.5342 109.89Z" fill="white" fill-opacity="0.8"/>
<path d="M85.2787 95.113C85.344 95.0706 85.3626 94.9832 85.3202 94.9178C85.2778 94.8524 85.1906 94.8338 85.1253 94.8762C85.06 94.9187 85.0414 95.0061 85.0838 95.0715C85.1262 95.1369 85.2134 95.1555 85.2787 95.113Z" fill="white" fill-opacity="0.8"/>
<path d="M95.4937 100.762C95.559 100.719 95.5776 100.632 95.5352 100.566C95.4929 100.501 95.4056 100.482 95.3403 100.525C95.275 100.567 95.2564 100.655 95.2988 100.72C95.3412 100.786 95.4284 100.804 95.4937 100.762Z" fill="white" fill-opacity="0.8"/>
<path d="M9.45429 149.286C9.51957 149.243 9.53815 149.156 9.49579 149.091C9.45342 149.025 9.36615 149.007 9.30087 149.049C9.23559 149.092 9.21702 149.179 9.25938 149.244C9.30175 149.31 9.38901 149.328 9.45429 149.286Z" fill="white" fill-opacity="0.8"/>
<path opacity="0.11" d="M3.53715 144.041C3.60244 143.999 3.62101 143.911 3.57864 143.846C3.53628 143.781 3.44902 143.762 3.38374 143.804C3.31845 143.847 3.29987 143.934 3.34224 144C3.3846 144.065 3.47187 144.084 3.53715 144.041Z" fill="white" fill-opacity="0.8"/>
<path opacity="0.11" d="M0.217635 150.072C0.282917 150.03 0.301497 149.942 0.259132 149.877C0.216767 149.812 0.129505 149.793 0.0642235 149.835C-0.00105809 149.878 -0.0196387 149.965 0.0227265 150.031C0.0650918 150.096 0.152354 150.115 0.217635 150.072Z" fill="white" fill-opacity="0.8"/>
<path opacity="0.11" d="M8.72493 154.642C8.79021 154.6 8.80878 154.513 8.76641 154.447C8.72405 154.382 8.63679 154.363 8.57151 154.406C8.50622 154.448 8.48764 154.535 8.53001 154.601C8.57237 154.666 8.65964 154.685 8.72493 154.642Z" fill="white" fill-opacity="0.8"/>
<path opacity="0.11" d="M33.7978 131.609C33.8631 131.566 33.8816 131.479 33.8393 131.413C33.7969 131.348 33.7096 131.329 33.6444 131.372C33.5791 131.414 33.5605 131.502 33.6029 131.567C33.6452 131.632 33.7325 131.651 33.7978 131.609Z" fill="white" fill-opacity="0.8"/>
<path opacity="0.11" d="M53.2808 131.066C53.3461 131.023 53.3647 130.936 53.3223 130.87C53.2799 130.805 53.1927 130.786 53.1274 130.829C53.0621 130.871 53.0435 130.959 53.0859 131.024C53.1283 131.089 53.2155 131.108 53.2808 131.066Z" fill="white" fill-opacity="0.8"/>
<path opacity="0.11" d="M75.2186 115.122C75.2839 115.079 75.3024 114.992 75.2601 114.926C75.2177 114.861 75.1305 114.842 75.0652 114.885C74.9999 114.927 74.9813 115.015 75.0237 115.08C75.066 115.145 75.1533 115.164 75.2186 115.122Z" fill="white" fill-opacity="0.8"/>
<path opacity="0.3" d="M12.9756 142.788C13.0409 142.746 13.0595 142.658 13.0171 142.593C12.9748 142.528 12.8875 142.509 12.8222 142.552C12.7569 142.594 12.7384 142.681 12.7807 142.747C12.8231 142.812 12.9103 142.831 12.9756 142.788Z" fill="white" fill-opacity="0.8"/>
<path d="M36.031 118.71C36.0963 118.667 36.1148 118.58 36.0725 118.514C36.0301 118.449 35.9428 118.43 35.8776 118.473C35.8123 118.515 35.7937 118.603 35.8361 118.668C35.8784 118.733 35.9657 118.752 36.031 118.71Z" fill="white" fill-opacity="0.8"/>
<path d="M54.0906 106.636C54.1558 106.593 54.1744 106.506 54.1321 106.441C54.0897 106.375 54.0024 106.357 53.9371 106.399C53.8719 106.441 53.8533 106.529 53.8957 106.594C53.938 106.66 54.0253 106.678 54.0906 106.636Z" fill="white" fill-opacity="0.8"/>
<path d="M35.0487 134.836C35.114 134.793 35.1325 134.706 35.0902 134.641C35.0478 134.575 34.9605 134.557 34.8953 134.599C34.83 134.642 34.8114 134.729 34.8538 134.794C34.8961 134.86 34.9834 134.878 35.0487 134.836Z" fill="white" fill-opacity="0.8"/>
<path opacity="0.3" d="M26.7708 140.218C26.8361 140.175 26.8547 140.088 26.8123 140.023C26.7699 139.957 26.6827 139.939 26.6174 139.981C26.5521 140.024 26.5335 140.111 26.5759 140.176C26.6182 140.242 26.7055 140.26 26.7708 140.218Z" fill="white" fill-opacity="0.8"/>
<path opacity="0.11" d="M12.3168 139.177C12.3821 139.134 12.4007 139.047 12.3583 138.982C12.316 138.916 12.2287 138.898 12.1634 138.94C12.0981 138.982 12.0796 139.07 12.1219 139.135C12.1643 139.201 12.2516 139.219 12.3168 139.177Z" fill="white" fill-opacity="0.8"/>
<path opacity="0.3" d="M40.0013 120.17C40.0666 120.128 40.0852 120.04 40.0428 119.975C40.0004 119.91 39.9132 119.891 39.8479 119.933C39.7826 119.976 39.764 120.063 39.8064 120.129C39.8487 120.194 39.936 120.213 40.0013 120.17Z" fill="white" fill-opacity="0.8"/>
<path opacity="0.3" d="M38.519 135.781C38.5843 135.739 38.6029 135.651 38.5605 135.586C38.5182 135.52 38.4309 135.502 38.3656 135.544C38.3003 135.587 38.2818 135.674 38.3241 135.739C38.3665 135.805 38.4538 135.823 38.519 135.781Z" fill="white" fill-opacity="0.8"/>
<path opacity="0.3" d="M24.977 146.267C25.0423 146.224 25.0608 146.137 25.0185 146.071C24.9761 146.006 24.8888 145.987 24.8236 146.03C24.7583 146.072 24.7397 146.16 24.7821 146.225C24.8244 146.29 24.9117 146.309 24.977 146.267Z" fill="white" fill-opacity="0.8"/>
<path opacity="0.3" d="M16.4068 140.559C16.4721 140.517 16.4906 140.429 16.4483 140.364C16.4059 140.298 16.3186 140.28 16.2534 140.322C16.1881 140.365 16.1695 140.452 16.2119 140.518C16.2542 140.583 16.3415 140.601 16.4068 140.559Z" fill="white" fill-opacity="0.8"/>
<path opacity="0.3" d="M89.7315 92.3877C89.7968 92.3453 89.8154 92.2579 89.773 92.1925C89.7307 92.1271 89.6434 92.1085 89.5781 92.1509C89.5128 92.1933 89.4943 92.2808 89.5366 92.3462C89.579 92.4115 89.6663 92.4302 89.7315 92.3877Z" fill="white" fill-opacity="0.8"/>
<path opacity="0.11" d="M67.5446 99.9068C67.6099 99.8644 67.6284 99.777 67.5861 99.7116C67.5437 99.6462 67.4564 99.6276 67.3912 99.67C67.3259 99.7125 67.3073 99.7999 67.3497 99.8653C67.392 99.9307 67.4793 99.9493 67.5446 99.9068Z" fill="white" fill-opacity="0.8"/>
<path opacity="0.11" d="M89.8392 99.5578C89.9045 99.5154 89.9231 99.428 89.8807 99.3626C89.8383 99.2972 89.7511 99.2786 89.6858 99.321C89.6205 99.3635 89.6019 99.4509 89.6443 99.5163C89.6866 99.5817 89.7739 99.6003 89.8392 99.5578Z" fill="white" fill-opacity="0.8"/>
<path opacity="0.3" d="M60.6094 120.072C60.74 119.987 60.7772 119.812 60.6924 119.681C60.6076 119.55 60.4329 119.513 60.3023 119.598C60.1716 119.683 60.1344 119.858 60.2192 119.988C60.304 120.119 60.4787 120.157 60.6094 120.072Z" fill="white" fill-opacity="0.8"/>
<path opacity="0.11" d="M65.2855 111.984C65.4161 111.899 65.4533 111.724 65.3685 111.593C65.2837 111.462 65.109 111.425 64.9784 111.51C64.8477 111.595 64.8105 111.77 64.8953 111.901C64.9801 112.032 65.1548 112.069 65.2855 111.984Z" fill="white" fill-opacity="0.8"/>
<path d="M62.5398 107.877C62.6378 107.813 62.6656 107.682 62.6021 107.584C62.5385 107.485 62.4075 107.458 62.3095 107.521C62.2115 107.585 62.1837 107.716 62.2473 107.814C62.3108 107.912 62.4418 107.94 62.5398 107.877Z" fill="white" fill-opacity="0.8"/>
<path d="M62.4398 125.619C62.5378 125.555 62.5657 125.424 62.5021 125.326C62.4385 125.227 62.3075 125.199 62.2095 125.263C62.1116 125.327 62.0837 125.458 62.1473 125.556C62.2108 125.654 62.3418 125.682 62.4398 125.619Z" fill="white" fill-opacity="0.8"/>
<path d="M103.235 102.465C103.333 102.402 103.361 102.27 103.297 102.172C103.234 102.074 103.103 102.046 103.005 102.11C102.907 102.173 102.879 102.305 102.943 102.403C103.006 102.501 103.137 102.529 103.235 102.465Z" fill="white" fill-opacity="0.8"/>
<path d="M25.1815 150.342C25.2794 150.279 25.3073 150.148 25.2437 150.049C25.1801 149.951 25.0492 149.923 24.9512 149.987C24.8532 150.051 24.8253 150.182 24.8889 150.28C24.9525 150.378 25.0835 150.406 25.1815 150.342Z" fill="white" fill-opacity="0.8"/>
<path d="M7.68844 157.842C7.78641 157.778 7.81429 157.647 7.75071 157.549C7.68712 157.451 7.55615 157.423 7.45817 157.487C7.3602 157.55 7.33231 157.681 7.3959 157.78C7.45948 157.878 7.59046 157.906 7.68844 157.842Z" fill="white" fill-opacity="0.8"/>
<path d="M2.60844 154.411C2.70642 154.347 2.7343 154.216 2.67072 154.118C2.60713 154.02 2.47616 153.992 2.37818 154.055C2.2802 154.119 2.25232 154.25 2.31591 154.348C2.37949 154.447 2.51046 154.475 2.60844 154.411Z" fill="white" fill-opacity="0.8"/>
<path d="M58.3989 113.935C58.4969 113.871 58.5247 113.74 58.4612 113.642C58.3976 113.544 58.2666 113.516 58.1686 113.58C58.0706 113.643 58.0428 113.775 58.1064 113.873C58.1699 113.971 58.3009 113.999 58.3989 113.935Z" fill="white" fill-opacity="0.8"/>
<path d="M43.5017 136.077C43.5997 136.013 43.6276 135.882 43.564 135.784C43.5004 135.686 43.3694 135.658 43.2714 135.721C43.1735 135.785 43.1456 135.916 43.2092 136.014C43.2728 136.113 43.4037 136.14 43.5017 136.077Z" fill="white" fill-opacity="0.8"/>
<path d="M76.6016 121.799C76.6996 121.736 76.7275 121.604 76.6639 121.506C76.6003 121.408 76.4693 121.38 76.3713 121.444C76.2734 121.508 76.2455 121.639 76.3091 121.737C76.3727 121.835 76.5036 121.863 76.6016 121.799Z" fill="white" fill-opacity="0.8"/>
<path d="M102.722 93.3717C102.82 93.308 102.847 93.1768 102.784 93.0787C102.72 92.9805 102.589 92.9526 102.491 93.0163C102.393 93.08 102.366 93.2112 102.429 93.3093C102.493 93.4075 102.624 93.4354 102.722 93.3717Z" fill="white" fill-opacity="0.8"/>
<path d="M101.339 85.0115C101.437 84.9478 101.465 84.8166 101.401 84.7184C101.338 84.6203 101.207 84.5924 101.109 84.6561C101.011 84.7198 100.983 84.8509 101.047 84.9491C101.11 85.0472 101.241 85.0752 101.339 85.0115Z" fill="white" fill-opacity="0.8"/>
<path opacity="0.3" d="M72.3732 101.651C72.5039 101.566 72.5411 101.391 72.4563 101.26C72.3715 101.13 72.1968 101.092 72.0661 101.177C71.9355 101.262 71.8983 101.437 71.9831 101.568C72.0679 101.699 72.2426 101.736 72.3732 101.651Z" fill="white" fill-opacity="0.8"/>
<path d="M66.9248 93.242C67.0554 93.1571 67.0926 92.9821 67.0078 92.8512C66.923 92.7203 66.7483 92.6831 66.6177 92.768C66.487 92.853 66.4498 93.0279 66.5346 93.1588C66.6194 93.2897 66.7941 93.327 66.9248 93.242Z" fill="white" fill-opacity="0.8"/>
<path d="M80.1543 100.299C80.2523 100.235 80.2802 100.104 80.2166 100.006C80.153 99.9075 80.022 99.8796 79.9241 99.9433C79.8261 100.007 79.7982 100.138 79.8618 100.236C79.9254 100.334 80.0563 100.362 80.1543 100.299Z" fill="white" fill-opacity="0.8"/>
<path opacity="0.3" d="M82.8961 91.95C83.0267 91.865 83.0639 91.69 82.9791 91.5591C82.8943 91.4282 82.7196 91.391 82.589 91.4759C82.4583 91.5609 82.4211 91.7359 82.5059 91.8668C82.5907 91.9977 82.7654 92.0349 82.8961 91.95Z" fill="white" fill-opacity="0.8"/>
<path opacity="0.3" d="M100.052 92.7499C100.183 92.665 100.22 92.49 100.135 92.3591C100.05 92.2282 99.8756 92.1909 99.7449 92.2759C99.6142 92.3608 99.577 92.5358 99.6618 92.6667C99.7466 92.7976 99.9213 92.8348 100.052 92.7499Z" fill="white" fill-opacity="0.8"/>
<path opacity="0.3" d="M86.3683 101.981C86.4989 101.896 86.5361 101.721 86.4513 101.59C86.3665 101.459 86.1918 101.422 86.0612 101.507C85.9305 101.592 85.8933 101.767 85.9781 101.897C86.0629 102.028 86.2376 102.066 86.3683 101.981Z" fill="white" fill-opacity="0.8"/>
<path opacity="0.3" d="M19.7925 148.121C19.9232 148.036 19.9604 147.861 19.8756 147.73C19.7908 147.599 19.6161 147.562 19.4854 147.647C19.3547 147.732 19.3175 147.907 19.4023 148.038C19.4871 148.168 19.6618 148.206 19.7925 148.121Z" fill="white" fill-opacity="0.8"/>
<path opacity="0.3" d="M5.99132 147.833C6.12199 147.748 6.15918 147.573 6.07438 147.442C5.98958 147.311 5.8149 147.274 5.68423 147.359C5.55355 147.443 5.51636 147.618 5.60117 147.749C5.68597 147.88 5.86065 147.917 5.99132 147.833Z" fill="white" fill-opacity="0.8"/>
<path opacity="0.11" d="M92.9013 92.348C93.032 92.263 93.0692 92.0881 92.9844 91.9572C92.8995 91.8263 92.7249 91.789 92.5942 91.874C92.4635 91.9589 92.4263 92.1339 92.5111 92.2648C92.5959 92.3957 92.7706 92.4329 92.9013 92.348Z" fill="white" fill-opacity="0.8"/>
<path opacity="0.3" d="M20.2944 132.812C20.425 132.727 20.4622 132.552 20.3774 132.421C20.2926 132.29 20.1179 132.253 19.9873 132.338C19.8566 132.423 19.8194 132.598 19.9042 132.729C19.989 132.86 20.1637 132.897 20.2944 132.812Z" fill="white" fill-opacity="0.8"/>
<path opacity="0.11" d="M15.5652 132.518C15.6959 132.433 15.7331 132.258 15.6483 132.127C15.5635 131.996 15.3888 131.959 15.2581 132.044C15.1274 132.129 15.0902 132.304 15.175 132.435C15.2598 132.566 15.4345 132.603 15.5652 132.518Z" fill="white" fill-opacity="0.8"/>
<path opacity="0.3" d="M19.5316 140.715C19.6623 140.63 19.6995 140.455 19.6147 140.325C19.5299 140.194 19.3552 140.156 19.2245 140.241C19.0938 140.326 19.0566 140.501 19.1415 140.632C19.2263 140.763 19.4009 140.8 19.5316 140.715Z" fill="white" fill-opacity="0.8"/>
<path d="M26.8461 135.792C26.944 135.729 26.9719 135.598 26.9083 135.499C26.8447 135.401 26.7138 135.373 26.6158 135.437C26.5178 135.501 26.4899 135.632 26.5535 135.73C26.6171 135.828 26.7481 135.856 26.8461 135.792Z" fill="white" fill-opacity="0.8"/>
<path opacity="0.11" d="M65.5756 59.0384C65.7063 58.9535 65.7435 58.7785 65.6587 58.6476C65.5739 58.5167 65.3992 58.4794 65.2685 58.5644C65.1379 58.6493 65.1007 58.8243 65.1855 58.9552C65.2703 59.0861 65.445 59.1233 65.5756 59.0384Z" fill="white" fill-opacity="0.8"/>
<path d="M67.1885 59.8406C67.2865 59.7769 67.3144 59.6457 67.2508 59.5475C67.1872 59.4494 67.0562 59.4215 66.9582 59.4852C66.8603 59.5489 66.8324 59.6801 66.896 59.7782C66.9596 59.8763 67.0905 59.9043 67.1885 59.8406Z" fill="white" fill-opacity="0.8"/>
<path d="M69.4805 54.8174C69.5785 54.7537 69.6064 54.6225 69.5428 54.5243C69.4792 54.4262 69.3482 54.3983 69.2502 54.462C69.1523 54.5257 69.1244 54.6569 69.188 54.755C69.2516 54.8531 69.3825 54.8811 69.4805 54.8174Z" fill="white" fill-opacity="0.8"/>
<path d="M59.2733 61.115C59.3713 61.0513 59.3992 60.9201 59.3356 60.822C59.272 60.7238 59.1411 60.6959 59.0431 60.7596C58.9451 60.8233 58.9172 60.9545 58.9808 61.0526C59.0444 61.1508 59.1754 61.1787 59.2733 61.115Z" fill="white" fill-opacity="0.8"/>
<path opacity="0.11" d="M55.2606 67.7633C55.3913 67.6784 55.4285 67.5034 55.3437 67.3725C55.2589 67.2416 55.0842 67.2044 54.9535 67.2893C54.8229 67.3742 54.7857 67.5492 54.8705 67.6801C54.9553 67.811 55.13 67.8483 55.2606 67.7633Z" fill="white" fill-opacity="0.8"/>
<path d="M51.326 66.6169C51.3913 66.5744 51.4099 66.487 51.3675 66.4216C51.3252 66.3562 51.2379 66.3376 51.1726 66.3801C51.1073 66.4225 51.0888 66.5099 51.1311 66.5753C51.1735 66.6407 51.2608 66.6593 51.326 66.6169Z" fill="white" fill-opacity="0.8"/>
<path d="M68.2132 63.8896C68.2784 63.8472 68.297 63.7597 68.2547 63.6944C68.2123 63.629 68.125 63.6104 68.0597 63.6528C67.9945 63.6952 67.9759 63.7826 68.0183 63.848C68.0606 63.9134 68.1479 63.932 68.2132 63.8896Z" fill="white" fill-opacity="0.8"/>
<path d="M93.9938 47.1299C94.0591 47.0875 94.0777 47.0001 94.0353 46.9347C93.993 46.8693 93.9057 46.8507 93.8404 46.8931C93.7751 46.9355 93.7565 47.023 93.7989 47.0883C93.8413 47.1537 93.9285 47.1723 93.9938 47.1299Z" fill="white" fill-opacity="0.8"/>
<path d="M102.738 32.3544C102.804 32.312 102.822 32.2246 102.78 32.1592C102.737 32.0938 102.65 32.0752 102.585 32.1176C102.52 32.16 102.501 32.2475 102.543 32.3129C102.586 32.3782 102.673 32.3969 102.738 32.3544Z" fill="white" fill-opacity="0.8"/>
<path d="M112.955 38.0031C113.021 37.9606 113.039 37.8732 112.997 37.8078C112.954 37.7424 112.867 37.7238 112.802 37.7663C112.737 37.8087 112.718 37.8961 112.76 37.9615C112.803 38.0269 112.89 38.0455 112.955 38.0031Z" fill="white" fill-opacity="0.8"/>
<path d="M26.9139 86.5254C26.9792 86.4829 26.9978 86.3955 26.9554 86.3301C26.9131 86.2647 26.8258 86.2461 26.7605 86.2886C26.6952 86.331 26.6766 86.4184 26.719 86.4838C26.7614 86.5492 26.8486 86.5678 26.9139 86.5254Z" fill="white" fill-opacity="0.8"/>
<path opacity="0.11" d="M20.9986 81.2826C21.0639 81.2401 21.0825 81.1527 21.0401 81.0873C20.9978 81.0219 20.9105 81.0033 20.8452 81.0458C20.7799 81.0882 20.7613 81.1756 20.8037 81.241C20.8461 81.3064 20.9333 81.325 20.9986 81.2826Z" fill="white" fill-opacity="0.8"/>
<path opacity="0.11" d="M17.6773 87.3116C17.7426 87.2691 17.7611 87.1817 17.7188 87.1163C17.6764 87.0509 17.5891 87.0323 17.5239 87.0748C17.4586 87.1172 17.44 87.2046 17.4824 87.27C17.5247 87.3354 17.612 87.354 17.6773 87.3116Z" fill="white" fill-opacity="0.8"/>
<path opacity="0.11" d="M26.1847 91.8838C26.25 91.8414 26.2686 91.754 26.2262 91.6886C26.1839 91.6232 26.0966 91.6046 26.0313 91.647C25.966 91.6895 25.9475 91.7769 25.9898 91.8423C26.0322 91.9077 26.1195 91.9263 26.1847 91.8838Z" fill="white" fill-opacity="0.8"/>
<path opacity="0.11" d="M51.2594 68.8481C51.3247 68.8057 51.3432 68.7182 51.3009 68.6528C51.2585 68.5875 51.1712 68.5689 51.106 68.6113C51.0407 68.6537 51.0221 68.7411 51.0645 68.8065C51.1068 68.8719 51.1941 68.8905 51.2594 68.8481Z" fill="white" fill-opacity="0.8"/>
<path opacity="0.11" d="M70.7404 68.3069C70.8057 68.2645 70.8243 68.1771 70.7819 68.1117C70.7396 68.0463 70.6523 68.0277 70.587 68.0701C70.5218 68.1126 70.5032 68.2 70.5455 68.2654C70.5879 68.3308 70.6752 68.3494 70.7404 68.3069Z" fill="white" fill-opacity="0.8"/>
<path opacity="0.11" d="M92.6782 52.3629C92.7435 52.3205 92.7621 52.2331 92.7197 52.1677C92.6774 52.1023 92.5901 52.0837 92.5248 52.1261C92.4595 52.1685 92.4409 52.2559 92.4833 52.3213C92.5257 52.3867 92.6129 52.4053 92.6782 52.3629Z" fill="white" fill-opacity="0.8"/>
<path opacity="0.3" d="M30.4372 80.0277C30.5025 79.9853 30.5211 79.8979 30.4787 79.8325C30.4364 79.7671 30.3491 79.7485 30.2838 79.7909C30.2185 79.8334 30.1999 79.9208 30.2423 79.9862C30.2847 80.0516 30.3719 80.0702 30.4372 80.0277Z" fill="white" fill-opacity="0.8"/>
<path d="M53.4906 55.9509C53.5559 55.9085 53.5745 55.8211 53.5321 55.7557C53.4897 55.6903 53.4025 55.6717 53.3372 55.7141C53.2719 55.7565 53.2533 55.8439 53.2957 55.9093C53.3381 55.9747 53.4253 55.9933 53.4906 55.9509Z" fill="white" fill-opacity="0.8"/>
<path d="M71.5482 43.8752C71.6135 43.8328 71.6321 43.7454 71.5897 43.68C71.5474 43.6146 71.4601 43.596 71.3948 43.6384C71.3295 43.6809 71.311 43.7683 71.3533 43.8337C71.3957 43.8991 71.483 43.9177 71.5482 43.8752Z" fill="white" fill-opacity="0.8"/>
<path d="M52.5102 72.0753C52.5754 72.0329 52.594 71.9455 52.5516 71.8801C52.5093 71.8147 52.422 71.7961 52.3567 71.8385C52.2915 71.881 52.2729 71.9684 52.3152 72.0338C52.3576 72.0992 52.4449 72.1178 52.5102 72.0753Z" fill="white" fill-opacity="0.8"/>
<path opacity="0.3" d="M44.2324 77.4573C44.2977 77.4149 44.3162 77.3275 44.2739 77.2621C44.2315 77.1967 44.1443 77.1781 44.079 77.2205C44.0137 77.263 43.9951 77.3504 44.0375 77.4158C44.0798 77.4812 44.1671 77.4998 44.2324 77.4573Z" fill="white" fill-opacity="0.8"/>
<path opacity="0.11" d="M29.7784 76.4162C29.8437 76.3738 29.8623 76.2864 29.8199 76.221C29.7776 76.1556 29.6903 76.137 29.625 76.1794C29.5597 76.2219 29.5412 76.3093 29.5835 76.3747C29.6259 76.4401 29.7132 76.4587 29.7784 76.4162Z" fill="white" fill-opacity="0.8"/>
<path opacity="0.3" d="M57.4629 57.4096C57.5282 57.3672 57.5467 57.2798 57.5044 57.2144C57.462 57.149 57.3748 57.1304 57.3095 57.1728C57.2442 57.2153 57.2256 57.3027 57.268 57.3681C57.3103 57.4335 57.3976 57.4521 57.4629 57.4096Z" fill="white" fill-opacity="0.8"/>
<path opacity="0.3" d="M55.9787 73.0204C56.044 72.9779 56.0625 72.8905 56.0202 72.8251C55.9778 72.7597 55.8905 72.7411 55.8253 72.7836C55.76 72.826 55.7414 72.9134 55.7838 72.9788C55.8261 73.0442 55.9134 73.0628 55.9787 73.0204Z" fill="white" fill-opacity="0.8"/>
<path opacity="0.3" d="M42.4364 83.5059C42.5017 83.4635 42.5203 83.3761 42.4779 83.3107C42.4356 83.2453 42.3483 83.2267 42.283 83.2691C42.2177 83.3116 42.1992 83.399 42.2415 83.4644C42.2839 83.5298 42.3711 83.5484 42.4364 83.5059Z" fill="white" fill-opacity="0.8"/>
<path opacity="0.3" d="M33.8663 77.7985C33.9316 77.756 33.9502 77.6686 33.9078 77.6032C33.8655 77.5379 33.7782 77.5192 33.7129 77.5617C33.6476 77.6041 33.6291 77.6915 33.6714 77.7569C33.7138 77.8223 33.8011 77.8409 33.8663 77.7985Z" fill="white" fill-opacity="0.8"/>
<path opacity="0.3" d="M107.191 29.6291C107.256 29.5867 107.275 29.4993 107.232 29.4339C107.19 29.3685 107.103 29.3499 107.038 29.3923C106.972 29.4347 106.954 29.5222 106.996 29.5875C107.038 29.6529 107.126 29.6715 107.191 29.6291Z" fill="white" fill-opacity="0.8"/>
<path opacity="0.11" d="M85.0062 37.1482C85.0715 37.1058 85.09 37.0184 85.0477 36.953C85.0053 36.8876 84.918 36.869 84.8528 36.9114C84.7875 36.9538 84.7689 37.0413 84.8113 37.1067C84.8536 37.172 84.9409 37.1907 85.0062 37.1482Z" fill="white" fill-opacity="0.8"/>
<path opacity="0.11" d="M107.299 36.7973C107.364 36.7548 107.383 36.6674 107.34 36.602C107.298 36.5366 107.211 36.518 107.145 36.5605C107.08 36.6029 107.062 36.6903 107.104 36.7557C107.146 36.8211 107.234 36.8397 107.299 36.7973Z" fill="white" fill-opacity="0.8"/>
<path opacity="0.3" d="M78.0709 57.313C78.2016 57.2281 78.2388 57.0531 78.1539 56.9222C78.0691 56.7913 77.8945 56.7541 77.7638 56.839C77.6331 56.924 77.5959 57.0989 77.6807 57.2298C77.7655 57.3607 77.9402 57.398 78.0709 57.313Z" fill="white" fill-opacity="0.8"/>
<path opacity="0.11" d="M82.7453 49.2234C82.876 49.1384 82.9131 48.9634 82.8283 48.8325C82.7435 48.7016 82.5689 48.6644 82.4382 48.7493C82.3075 48.8343 82.2703 49.0093 82.3551 49.1402C82.4399 49.2711 82.6146 49.3083 82.7453 49.2234Z" fill="white" fill-opacity="0.8"/>
<path d="M80.0014 45.1161C80.0994 45.0524 80.1272 44.9212 80.0637 44.823C80.0001 44.7249 79.8691 44.697 79.7711 44.7606C79.6731 44.8243 79.6453 44.9555 79.7088 45.0537C79.7724 45.1518 79.9034 45.1797 80.0014 45.1161Z" fill="white" fill-opacity="0.8"/>
<path d="M79.8994 62.858C79.9974 62.7943 80.0253 62.6631 79.9617 62.565C79.8981 62.4668 79.7671 62.4389 79.6692 62.5026C79.5712 62.5663 79.5433 62.6975 79.6069 62.7956C79.6705 62.8938 79.8015 62.9217 79.8994 62.858Z" fill="white" fill-opacity="0.8"/>
<path d="M120.697 39.7046C120.795 39.6409 120.823 39.5098 120.759 39.4116C120.695 39.3135 120.564 39.2855 120.466 39.3492C120.369 39.4129 120.341 39.5441 120.404 39.6423C120.468 39.7404 120.599 39.7683 120.697 39.7046Z" fill="white" fill-opacity="0.8"/>
<path d="M42.6411 87.5819C42.7391 87.5182 42.767 87.387 42.7034 87.2889C42.6398 87.1907 42.5088 87.1628 42.4108 87.2265C42.3129 87.2902 42.285 87.4214 42.3486 87.5195C42.4121 87.6177 42.5431 87.6456 42.6411 87.5819Z" fill="white" fill-opacity="0.8"/>
<path d="M25.1501 95.0814C25.2481 95.0177 25.2759 94.8865 25.2124 94.7884C25.1488 94.6902 25.0178 94.6623 24.9198 94.726C24.8219 94.7897 24.794 94.9209 24.8576 95.019C24.9211 95.1172 25.0521 95.1451 25.1501 95.0814Z" fill="white" fill-opacity="0.8"/>
<path d="M20.0681 91.6502C20.1661 91.5866 20.194 91.4554 20.1304 91.3572C20.0668 91.2591 19.9359 91.2311 19.8379 91.2948C19.7399 91.3585 19.712 91.4897 19.7756 91.5879C19.8392 91.686 19.9702 91.7139 20.0681 91.6502Z" fill="white" fill-opacity="0.8"/>
<path d="M75.8605 51.1745C75.9585 51.1108 75.9863 50.9796 75.9228 50.8814C75.8592 50.7833 75.7282 50.7554 75.6302 50.8191C75.5322 50.8828 75.5044 51.014 75.5679 51.1121C75.6315 51.2102 75.7625 51.2382 75.8605 51.1745Z" fill="white" fill-opacity="0.8"/>
<path d="M60.9615 73.3162C61.0594 73.2525 61.0873 73.1213 61.0237 73.0231C60.9602 72.925 60.8292 72.8971 60.7312 72.9607C60.6332 73.0244 60.6053 73.1556 60.6689 73.2538C60.7325 73.3519 60.8635 73.3798 60.9615 73.3162Z" fill="white" fill-opacity="0.8"/>
<path d="M94.0632 59.0387C94.1612 58.975 94.1891 58.8438 94.1255 58.7456C94.0619 58.6475 93.9309 58.6196 93.8329 58.6833C93.735 58.7469 93.7071 58.8781 93.7707 58.9763C93.8343 59.0744 93.9652 59.1024 94.0632 59.0387Z" fill="white" fill-opacity="0.8"/>
<path d="M120.183 30.6111C120.281 30.5474 120.309 30.4162 120.245 30.3181C120.182 30.22 120.051 30.192 119.953 30.2557C119.855 30.3194 119.827 30.4506 119.891 30.5487C119.954 30.6469 120.085 30.6748 120.183 30.6111Z" fill="white" fill-opacity="0.8"/>
<path d="M118.801 22.2529C118.899 22.1892 118.927 22.058 118.863 21.9598C118.799 21.8617 118.669 21.8338 118.571 21.8974C118.473 21.9611 118.445 22.0923 118.508 22.1905C118.572 22.2886 118.703 22.3165 118.801 22.2529Z" fill="white" fill-opacity="0.8"/>
<path opacity="0.3" d="M89.8348 38.8907C89.9655 38.8058 90.0027 38.6308 89.9179 38.4999C89.8331 38.369 89.6584 38.3317 89.5277 38.4167C89.397 38.5016 89.3599 38.6766 89.4447 38.8075C89.5295 38.9384 89.7041 38.9757 89.8348 38.8907Z" fill="white" fill-opacity="0.8"/>
<path d="M84.3841 30.4815C84.5148 30.3965 84.552 30.2215 84.4672 30.0906C84.3824 29.9597 84.2077 29.9225 84.077 30.0074C83.9464 30.0924 83.9092 30.2674 83.994 30.3983C84.0788 30.5292 84.2535 30.5664 84.3841 30.4815Z" fill="white" fill-opacity="0.8"/>
<path d="M97.6139 37.5381C97.7119 37.4744 97.7398 37.3432 97.6762 37.2451C97.6126 37.1469 97.4817 37.119 97.3837 37.1827C97.2857 37.2464 97.2578 37.3776 97.3214 37.4757C97.385 37.5739 97.516 37.6018 97.6139 37.5381Z" fill="white" fill-opacity="0.8"/>
<path opacity="0.3" d="M100.356 29.1913C100.486 29.1064 100.524 28.9314 100.439 28.8005C100.354 28.6696 100.179 28.6324 100.049 28.7173C99.9179 28.8023 99.8807 28.9773 99.9655 29.1081C100.05 29.239 100.225 29.2763 100.356 29.1913Z" fill="white" fill-opacity="0.8"/>
<path opacity="0.3" d="M117.511 29.9913C117.642 29.9063 117.679 29.7314 117.595 29.6005C117.51 29.4696 117.335 29.4323 117.204 29.5173C117.074 29.6022 117.037 29.7772 117.121 29.9081C117.206 30.039 117.381 30.0762 117.511 29.9913Z" fill="white" fill-opacity="0.8"/>
<path opacity="0.3" d="M103.828 39.2221C103.959 39.1371 103.996 38.9621 103.911 38.8312C103.826 38.7003 103.652 38.6631 103.521 38.748C103.39 38.833 103.353 39.008 103.438 39.1389C103.523 39.2698 103.697 39.307 103.828 39.2221Z" fill="white" fill-opacity="0.8"/>
<path opacity="0.3" d="M37.252 85.3622C37.3827 85.2772 37.4199 85.1022 37.3351 84.9713C37.2503 84.8404 37.0756 84.8032 36.9449 84.8881C36.8142 84.9731 36.7771 85.1481 36.8619 85.279C36.9467 85.4099 37.1213 85.4471 37.252 85.3622Z" fill="white" fill-opacity="0.8"/>
<path opacity="0.3" d="M23.451 85.0739C23.5816 84.989 23.6188 84.814 23.534 84.6831C23.4492 84.5522 23.2745 84.515 23.1439 84.5999C23.0132 84.6849 22.976 84.8598 23.0608 84.9907C23.1456 85.1216 23.3203 85.1589 23.451 85.0739Z" fill="white" fill-opacity="0.8"/>
<path opacity="0.11" d="M110.361 29.5894C110.492 29.5044 110.529 29.3294 110.444 29.1985C110.359 29.0676 110.185 29.0304 110.054 29.1153C109.923 29.2003 109.886 29.3753 109.971 29.5062C110.056 29.6371 110.23 29.6743 110.361 29.5894Z" fill="white" fill-opacity="0.8"/>
<path opacity="0.3" d="M37.7539 70.0534C37.8846 69.9684 37.9218 69.7934 37.837 69.6625C37.7522 69.5316 37.5775 69.4944 37.4468 69.5793C37.3162 69.6643 37.279 69.8393 37.3638 69.9702C37.4486 70.1011 37.6233 70.1383 37.7539 70.0534Z" fill="white" fill-opacity="0.8"/>
<path opacity="0.11" d="M33.0268 69.7593C33.1575 69.6743 33.1947 69.4993 33.1099 69.3685C33.0251 69.2376 32.8504 69.2003 32.7197 69.2852C32.589 69.3702 32.5518 69.5452 32.6366 69.6761C32.7214 69.807 32.8961 69.8442 33.0268 69.7593Z" fill="white" fill-opacity="0.8"/>
<path opacity="0.3" d="M36.9932 77.9548C37.1239 77.8699 37.1611 77.6949 37.0763 77.564C36.9915 77.4331 36.8168 77.3958 36.6861 77.4808C36.5554 77.5657 36.5182 77.7407 36.6031 77.8716C36.6879 78.0025 36.8625 78.0397 36.9932 77.9548Z" fill="white" fill-opacity="0.8"/>
<path d="M44.3057 73.0319C44.4037 72.9682 44.4316 72.837 44.368 72.7388C44.3044 72.6407 44.1734 72.6128 44.0754 72.6765C43.9775 72.7401 43.9496 72.8713 44.0132 72.9695C44.0767 73.0676 44.2077 73.0956 44.3057 73.0319Z" fill="white" fill-opacity="0.8"/>
<path opacity="0.11" d="M139.784 37.1751C139.915 37.0902 139.952 36.9152 139.868 36.7843C139.783 36.6534 139.608 36.6162 139.477 36.7011C139.347 36.7861 139.31 36.961 139.394 37.0919C139.479 37.2228 139.654 37.2601 139.784 37.1751Z" fill="white" fill-opacity="0.8"/>
<path d="M141.397 37.9793C141.495 37.9156 141.523 37.7844 141.46 37.6862C141.396 37.5881 141.265 37.5602 141.167 37.6239C141.069 37.6876 141.041 37.8187 141.105 37.9169C141.168 38.015 141.299 38.043 141.397 37.9793Z" fill="white" fill-opacity="0.8"/>
<path d="M143.689 32.9541C143.787 32.8904 143.815 32.7592 143.752 32.6611C143.688 32.5629 143.557 32.535 143.459 32.5987C143.361 32.6624 143.333 32.7936 143.397 32.8917C143.46 32.9899 143.591 33.0178 143.689 32.9541Z" fill="white" fill-opacity="0.8"/>
<path d="M133.482 39.2517C133.58 39.188 133.608 39.0569 133.544 38.9587C133.481 38.8606 133.35 38.8326 133.252 38.8963C133.154 38.96 133.126 39.0912 133.19 39.1894C133.253 39.2875 133.384 39.3154 133.482 39.2517Z" fill="white" fill-opacity="0.8"/>
<path opacity="0.11" d="M129.471 45.9C129.602 45.8151 129.639 45.6401 129.554 45.5092C129.47 45.3783 129.295 45.3411 129.164 45.426C129.034 45.511 128.996 45.686 129.081 45.8168C129.166 45.9477 129.341 45.985 129.471 45.9Z" fill="white" fill-opacity="0.8"/>
<path d="M125.535 44.7536C125.6 44.7112 125.619 44.6238 125.576 44.5584C125.534 44.493 125.447 44.4744 125.381 44.5168C125.316 44.5592 125.298 44.6466 125.34 44.712C125.382 44.7774 125.47 44.796 125.535 44.7536Z" fill="white" fill-opacity="0.8"/>
<path d="M142.422 42.0263C142.487 41.9839 142.506 41.8965 142.464 41.8311C142.421 41.7657 142.334 41.7471 142.269 41.7895C142.203 41.832 142.185 41.9194 142.227 41.9848C142.269 42.0502 142.357 42.0688 142.422 42.0263Z" fill="white" fill-opacity="0.8"/>
<path d="M168.205 25.2666C168.27 25.2242 168.288 25.1368 168.246 25.0714C168.204 25.006 168.116 24.9874 168.051 25.0298C167.986 25.0723 167.967 25.1597 168.01 25.2251C168.052 25.2905 168.139 25.3091 168.205 25.2666Z" fill="white" fill-opacity="0.8"/>
<path d="M176.949 10.4912C177.014 10.4487 177.033 10.3613 176.991 10.2959C176.948 10.2305 176.861 10.2119 176.796 10.2543C176.73 10.2968 176.712 10.3842 176.754 10.4496C176.797 10.515 176.884 10.5336 176.949 10.4912Z" fill="white" fill-opacity="0.8"/>
<path d="M187.164 16.1398C187.229 16.0974 187.248 16.0099 187.206 15.9446C187.163 15.8792 187.076 15.8605 187.011 15.903C186.945 15.9454 186.927 16.0328 186.969 16.0982C187.012 16.1636 187.099 16.1822 187.164 16.1398Z" fill="white" fill-opacity="0.8"/>
<path d="M101.123 64.6641C101.188 64.6216 101.207 64.5342 101.164 64.4688C101.122 64.4034 101.035 64.3848 100.969 64.4272C100.904 64.4697 100.885 64.5571 100.928 64.6225C100.97 64.6879 101.057 64.7065 101.123 64.6641Z" fill="white" fill-opacity="0.8"/>
<path opacity="0.11" d="M95.2055 59.4193C95.2708 59.3769 95.2894 59.2895 95.247 59.2241C95.2046 59.1587 95.1174 59.1401 95.0521 59.1825C94.9868 59.2249 94.9682 59.3123 95.0106 59.3777C95.053 59.4431 95.1402 59.4617 95.2055 59.4193Z" fill="white" fill-opacity="0.8"/>
<path opacity="0.11" d="M91.8861 65.4503C91.9514 65.4078 91.97 65.3204 91.9276 65.255C91.8852 65.1896 91.798 65.171 91.7327 65.2135C91.6674 65.2559 91.6488 65.3433 91.6912 65.4087C91.7336 65.4741 91.8208 65.4927 91.8861 65.4503Z" fill="white" fill-opacity="0.8"/>
<path opacity="0.11" d="M100.393 70.0206C100.459 69.9781 100.477 69.8907 100.435 69.8253C100.393 69.7599 100.305 69.7413 100.24 69.7838C100.175 69.8262 100.156 69.9136 100.199 69.979C100.241 70.0444 100.328 70.063 100.393 70.0206Z" fill="white" fill-opacity="0.8"/>
<path opacity="0.11" d="M125.468 46.9868C125.534 46.9443 125.552 46.8569 125.51 46.7915C125.467 46.7262 125.38 46.7075 125.315 46.75C125.25 46.7924 125.231 46.8798 125.273 46.9452C125.316 47.0106 125.403 47.0292 125.468 46.9868Z" fill="white" fill-opacity="0.8"/>
<path opacity="0.11" d="M144.947 46.4437C145.013 46.4013 145.031 46.3138 144.989 46.2484C144.946 46.1831 144.859 46.1644 144.794 46.2069C144.729 46.2493 144.71 46.3367 144.752 46.4021C144.795 46.4675 144.882 46.4861 144.947 46.4437Z" fill="white" fill-opacity="0.8"/>
<path opacity="0.11" d="M166.887 30.4996C166.952 30.4572 166.971 30.3698 166.929 30.3044C166.886 30.239 166.799 30.2204 166.734 30.2628C166.668 30.3053 166.65 30.3927 166.692 30.4581C166.735 30.5235 166.822 30.5421 166.887 30.4996Z" fill="white" fill-opacity="0.8"/>
<path opacity="0.3" d="M104.644 58.1664C104.709 58.124 104.728 58.0366 104.686 57.9712C104.643 57.9058 104.556 57.8872 104.491 57.9296C104.425 57.9721 104.407 58.0595 104.449 58.1249C104.492 58.1903 104.579 58.2089 104.644 58.1664Z" fill="white" fill-opacity="0.8"/>
<path d="M127.699 34.0876C127.765 34.0452 127.783 33.9578 127.741 33.8924C127.699 33.827 127.611 33.8084 127.546 33.8508C127.481 33.8933 127.462 33.9807 127.505 34.0461C127.547 34.1115 127.634 34.1301 127.699 34.0876Z" fill="white" fill-opacity="0.8"/>
<path d="M145.759 22.012C145.824 21.9695 145.843 21.8821 145.801 21.8167C145.758 21.7513 145.671 21.7327 145.606 21.7752C145.54 21.8176 145.522 21.905 145.564 21.9704C145.606 22.0358 145.694 22.0544 145.759 22.012Z" fill="white" fill-opacity="0.8"/>
<path d="M126.719 50.214C126.784 50.1716 126.803 50.0842 126.761 50.0188C126.718 49.9534 126.631 49.9348 126.566 49.9772C126.5 50.0197 126.482 50.1071 126.524 50.1725C126.567 50.2379 126.654 50.2565 126.719 50.214Z" fill="white" fill-opacity="0.8"/>
<path opacity="0.3" d="M118.439 55.596C118.505 55.5536 118.523 55.4662 118.481 55.4008C118.438 55.3354 118.351 55.3168 118.286 55.3592C118.221 55.4017 118.202 55.4891 118.244 55.5545C118.287 55.6199 118.374 55.6385 118.439 55.596Z" fill="white" fill-opacity="0.8"/>
<path opacity="0.11" d="M103.987 54.553C104.053 54.5105 104.071 54.4231 104.029 54.3577C103.986 54.2923 103.899 54.2737 103.834 54.3161C103.769 54.3586 103.75 54.446 103.792 54.5114C103.835 54.5768 103.922 54.5954 103.987 54.553Z" fill="white" fill-opacity="0.8"/>
<path opacity="0.3" d="M131.672 35.5464C131.737 35.5039 131.756 35.4165 131.713 35.3511C131.671 35.2857 131.584 35.2671 131.518 35.3096C131.453 35.352 131.434 35.4394 131.477 35.5048C131.519 35.5702 131.606 35.5888 131.672 35.5464Z" fill="white" fill-opacity="0.8"/>
<path opacity="0.3" d="M130.188 51.1571C130.253 51.1147 130.271 51.0272 130.229 50.9619C130.187 50.8965 130.099 50.8779 130.034 50.9203C129.969 50.9627 129.95 51.0501 129.993 51.1155C130.035 51.1809 130.122 51.1995 130.188 51.1571Z" fill="white" fill-opacity="0.8"/>
<path opacity="0.3" d="M116.645 61.6446C116.711 61.6022 116.729 61.5148 116.687 61.4494C116.644 61.384 116.557 61.3654 116.492 61.4078C116.427 61.4503 116.408 61.5377 116.45 61.6031C116.493 61.6685 116.58 61.6871 116.645 61.6446Z" fill="white" fill-opacity="0.8"/>
<path opacity="0.3" d="M108.075 55.9372C108.141 55.8947 108.159 55.8073 108.117 55.7419C108.074 55.6765 107.987 55.6579 107.922 55.7004C107.857 55.7428 107.838 55.8302 107.88 55.8956C107.923 55.961 108.01 55.9796 108.075 55.9372Z" fill="white" fill-opacity="0.8"/>
<path opacity="0.3" d="M181.4 7.76583C181.465 7.7234 181.484 7.63599 181.441 7.5706C181.399 7.5052 181.312 7.48659 181.246 7.52903C181.181 7.57147 181.163 7.65888 181.205 7.72427C181.247 7.78967 181.335 7.80827 181.4 7.76583Z" fill="white" fill-opacity="0.8"/>
<path opacity="0.11" d="M159.215 15.285C159.28 15.2425 159.299 15.1551 159.256 15.0897C159.214 15.0243 159.127 15.0057 159.061 15.0481C158.996 15.0906 158.978 15.178 159.02 15.2434C159.062 15.3088 159.15 15.3274 159.215 15.285Z" fill="white" fill-opacity="0.8"/>
<path opacity="0.11" d="M181.508 14.934C181.573 14.8916 181.592 14.8042 181.549 14.7388C181.507 14.6734 181.42 14.6548 181.354 14.6972C181.289 14.7396 181.271 14.827 181.313 14.8924C181.355 14.9578 181.443 14.9764 181.508 14.934Z" fill="white" fill-opacity="0.8"/>
<path opacity="0.3" d="M152.278 35.4498C152.408 35.3648 152.446 35.1898 152.361 35.0589C152.276 34.928 152.101 34.8908 151.971 34.9757C151.84 35.0607 151.803 35.2357 151.888 35.3666C151.972 35.4975 152.147 35.5347 152.278 35.4498Z" fill="white" fill-opacity="0.8"/>
<path opacity="0.11" d="M156.954 27.3621C157.085 27.2771 157.122 27.1021 157.037 26.9712C156.952 26.8403 156.778 26.8031 156.647 26.888C156.516 26.973 156.479 27.148 156.564 27.2789C156.649 27.4098 156.823 27.447 156.954 27.3621Z" fill="white" fill-opacity="0.8"/>
<path d="M154.21 23.2528C154.308 23.1891 154.336 23.0579 154.272 22.9598C154.209 22.8616 154.078 22.8337 153.98 22.8974C153.882 22.9611 153.854 23.0923 153.918 23.1904C153.981 23.2885 154.112 23.3165 154.21 23.2528Z" fill="white" fill-opacity="0.8"/>
<path d="M154.108 40.9967C154.206 40.933 154.234 40.8018 154.17 40.7037C154.107 40.6055 153.976 40.5776 153.878 40.6413C153.78 40.705 153.752 40.8362 153.816 40.9343C153.879 41.0325 154.01 41.0604 154.108 40.9967Z" fill="white" fill-opacity="0.8"/>
<path d="M194.904 17.8433C195.002 17.7797 195.029 17.6485 194.966 17.5503C194.902 17.4522 194.771 17.4242 194.673 17.4879C194.575 17.5516 194.548 17.6828 194.611 17.781C194.675 17.8791 194.806 17.907 194.904 17.8433Z" fill="white" fill-opacity="0.8"/>
<path d="M116.85 65.7206C116.948 65.6569 116.976 65.5257 116.912 65.4276C116.849 65.3294 116.718 65.3015 116.62 65.3652C116.522 65.4289 116.494 65.5601 116.557 65.6582C116.621 65.7563 116.752 65.7843 116.85 65.7206Z" fill="white" fill-opacity="0.8"/>
<path d="M99.3572 73.2201C99.4551 73.1564 99.483 73.0252 99.4194 72.9271C99.3558 72.8289 99.2249 72.801 99.1269 72.8647C99.0289 72.9284 99.001 73.0596 99.0646 73.1577C99.1282 73.2558 99.2592 73.2838 99.3572 73.2201Z" fill="white" fill-opacity="0.8"/>
<path d="M94.2769 69.7889C94.3748 69.7252 94.4027 69.594 94.3391 69.4959C94.2755 69.3978 94.1446 69.3698 94.0466 69.4335C93.9486 69.4972 93.9207 69.6284 93.9843 69.7266C94.0479 69.8247 94.1789 69.8526 94.2769 69.7889Z" fill="white" fill-opacity="0.8"/>
<path d="M150.067 29.3112C150.165 29.2475 150.193 29.1163 150.13 29.0182C150.066 28.92 149.935 28.8921 149.837 28.9558C149.739 29.0195 149.711 29.1507 149.775 29.2488C149.838 29.347 149.969 29.3749 150.067 29.3112Z" fill="white" fill-opacity="0.8"/>
<path d="M135.17 51.4549C135.268 51.3912 135.296 51.26 135.233 51.1618C135.169 51.0637 135.038 51.0358 134.94 51.0994C134.842 51.1631 134.814 51.2943 134.878 51.3925C134.941 51.4906 135.072 51.5185 135.17 51.4549Z" fill="white" fill-opacity="0.8"/>
<path d="M168.272 37.1754C168.37 37.1117 168.398 36.9805 168.334 36.8824C168.271 36.7842 168.14 36.7563 168.042 36.82C167.944 36.8837 167.916 37.0149 167.98 37.113C168.043 37.2112 168.174 37.2391 168.272 37.1754Z" fill="white" fill-opacity="0.8"/>
<path d="M194.39 8.74786C194.488 8.68417 194.516 8.55298 194.452 8.45484C194.389 8.35669 194.258 8.32876 194.16 8.39245C194.062 8.45614 194.034 8.58734 194.097 8.68548C194.161 8.78362 194.292 8.81155 194.39 8.74786Z" fill="white" fill-opacity="0.8"/>
<path d="M193.008 0.389589C193.106 0.325897 193.134 0.194706 193.07 0.0965625C193.006 -0.00158132 192.875 -0.0295129 192.777 0.0341786C192.679 0.0978702 192.652 0.229061 192.715 0.327205C192.779 0.425349 192.91 0.453281 193.008 0.389589Z" fill="white" fill-opacity="0.8"/>
<path opacity="0.3" d="M164.042 17.0294C164.172 16.9444 164.21 16.7695 164.125 16.6386C164.04 16.5077 163.865 16.4704 163.735 16.5554C163.604 16.6403 163.567 16.8153 163.652 16.9462C163.736 17.0771 163.911 17.1143 164.042 17.0294Z" fill="white" fill-opacity="0.8"/>
<path d="M158.593 8.62015C158.724 8.53521 158.761 8.36023 158.676 8.22934C158.591 8.09844 158.417 8.06119 158.286 8.14614C158.155 8.23108 158.118 8.40605 158.203 8.53695C158.288 8.66785 158.462 8.7051 158.593 8.62015Z" fill="white" fill-opacity="0.8"/>
<path d="M171.823 15.6768C171.921 15.6131 171.949 15.4819 171.885 15.3838C171.821 15.2856 171.691 15.2577 171.593 15.3214C171.495 15.3851 171.467 15.5163 171.53 15.6144C171.594 15.7126 171.725 15.7405 171.823 15.6768Z" fill="white" fill-opacity="0.8"/>
<path opacity="0.3" d="M174.563 7.32808C174.693 7.24313 174.73 7.06816 174.646 6.93727C174.561 6.80637 174.386 6.76912 174.255 6.85406C174.125 6.93901 174.088 7.11398 174.172 7.24488C174.257 7.37578 174.432 7.41303 174.563 7.32808Z" fill="white" fill-opacity="0.8"/>
<path opacity="0.3" d="M191.722 8.12803C191.853 8.04308 191.89 7.86811 191.805 7.73721C191.72 7.60632 191.546 7.56907 191.415 7.65401C191.284 7.73896 191.247 7.91393 191.332 8.04483C191.417 8.17572 191.592 8.21297 191.722 8.12803Z" fill="white" fill-opacity="0.8"/>
<path opacity="0.3" d="M178.039 17.3588C178.169 17.2738 178.207 17.0989 178.122 16.968C178.037 16.8371 177.862 16.7998 177.732 16.8848C177.601 16.9697 177.564 17.1447 177.649 17.2756C177.733 17.4065 177.908 17.4437 178.039 17.3588Z" fill="white" fill-opacity="0.8"/>
<path opacity="0.3" d="M111.461 63.4989C111.592 63.4139 111.629 63.239 111.544 63.1081C111.459 62.9772 111.284 62.9399 111.154 63.0249C111.023 63.1098 110.986 63.2848 111.071 63.4157C111.156 63.5466 111.33 63.5838 111.461 63.4989Z" fill="white" fill-opacity="0.8"/>
<path opacity="0.3" d="M97.6618 63.2107C97.7924 63.1257 97.8296 62.9508 97.7448 62.8199C97.66 62.689 97.4853 62.6517 97.3547 62.7367C97.224 62.8216 97.1868 62.9966 97.2716 63.1275C97.3564 63.2584 97.5311 63.2956 97.6618 63.2107Z" fill="white" fill-opacity="0.8"/>
<path opacity="0.11" d="M184.57 7.72609C184.7 7.64115 184.738 7.46617 184.653 7.33528C184.568 7.20438 184.393 7.16713 184.263 7.25208C184.132 7.33702 184.095 7.512 184.18 7.64289C184.264 7.77379 184.439 7.81104 184.57 7.72609Z" fill="white" fill-opacity="0.8"/>
<path opacity="0.3" d="M111.963 48.1901C112.093 48.1051 112.131 47.9302 112.046 47.7993C111.961 47.6684 111.786 47.6311 111.656 47.7161C111.525 47.801 111.488 47.976 111.573 48.1069C111.657 48.2378 111.832 48.275 111.963 48.1901Z" fill="white" fill-opacity="0.8"/>
<path opacity="0.11" d="M107.236 47.896C107.366 47.811 107.403 47.6361 107.319 47.5052C107.234 47.3743 107.059 47.337 106.929 47.422C106.798 47.5069 106.761 47.6819 106.845 47.8128C106.93 47.9437 107.105 47.9809 107.236 47.896Z" fill="white" fill-opacity="0.8"/>
<path opacity="0.3" d="M111.2 56.0915C111.331 56.0066 111.368 55.8316 111.283 55.7007C111.198 55.5698 111.024 55.5326 110.893 55.6175C110.762 55.7025 110.725 55.8774 110.81 56.0083C110.895 56.1392 111.069 56.1765 111.2 56.0915Z" fill="white" fill-opacity="0.8"/>
<path d="M118.515 51.1706C118.613 51.1069 118.641 50.9757 118.577 50.8775C118.513 50.7794 118.382 50.7514 118.284 50.8151C118.186 50.8788 118.159 51.01 118.222 51.1082C118.286 51.2063 118.417 51.2342 118.515 51.1706Z" fill="white" fill-opacity="0.8"/>
</g>
</svg>
