<svg width="135" height="343" viewBox="0 0 135 343" fill="none" xmlns="http://www.w3.org/2000/svg">
<path opacity="0.11" d="M67.0083 265.589C67.0757 265.377 66.9584 265.15 66.7463 265.082C66.5342 265.014 66.3076 265.131 66.2402 265.344C66.1728 265.556 66.2902 265.782 66.5023 265.85C66.7144 265.918 66.941 265.801 67.0083 265.589Z" fill="white" fill-opacity="0.8"/>
<path d="M69.5127 265.018C69.5632 264.859 69.4753 264.689 69.3162 264.638C69.1572 264.587 68.9873 264.675 68.9368 264.834C68.8863 264.993 68.9743 265.163 69.1333 265.214C69.2923 265.265 69.4622 265.177 69.5127 265.018Z" fill="white" fill-opacity="0.8"/>
<path d="M67.4967 257.395C67.5472 257.236 67.4593 257.066 67.3002 257.015C67.1412 256.965 66.9713 257.052 66.9208 257.211C66.8703 257.37 66.9582 257.54 67.1173 257.591C67.2763 257.642 67.4462 257.554 67.4967 257.395Z" fill="white" fill-opacity="0.8"/>
<path d="M61.9272 273.586C61.9777 273.427 61.8898 273.257 61.7307 273.206C61.5717 273.155 61.4018 273.243 61.3513 273.402C61.3008 273.561 61.3887 273.731 61.5478 273.782C61.7068 273.833 61.8767 273.745 61.9272 273.586Z" fill="white" fill-opacity="0.8"/>
<path opacity="0.11" d="M63.5174 284.558C63.5848 284.345 63.4674 284.119 63.2553 284.051C63.0432 283.983 62.8167 284.1 62.7493 284.312C62.6819 284.524 62.7992 284.751 63.0113 284.819C63.2235 284.887 63.45 284.77 63.5174 284.558Z" fill="white" fill-opacity="0.8"/>
<path d="M58.1354 286.854C58.1691 286.748 58.1105 286.635 58.0045 286.601C57.8985 286.567 57.7853 286.625 57.7517 286.731C57.718 286.837 57.7766 286.951 57.8826 286.984C57.9886 287.018 58.1018 286.96 58.1354 286.854Z" fill="white" fill-opacity="0.8"/>
<path d="M74.3086 268.557C74.3423 268.451 74.2837 268.338 74.1777 268.304C74.0717 268.27 73.9585 268.329 73.9249 268.435C73.8912 268.541 73.9499 268.654 74.0558 268.688C74.1618 268.722 74.275 268.663 74.3086 268.557Z" fill="white" fill-opacity="0.8"/>
<path d="M87.6043 226.719C87.6379 226.613 87.5793 226.499 87.4734 226.466C87.3674 226.432 87.2542 226.49 87.2205 226.596C87.1869 226.702 87.2455 226.815 87.3515 226.849C87.4574 226.883 87.5706 226.825 87.6043 226.719Z" fill="white" fill-opacity="0.8"/>
<path d="M83.8828 202.487C83.9165 202.381 83.8579 202.268 83.7519 202.234C83.6459 202.2 83.5328 202.259 83.4991 202.365C83.4654 202.471 83.524 202.584 83.63 202.618C83.736 202.652 83.8492 202.593 83.8828 202.487Z" fill="white" fill-opacity="0.8"/>
<path d="M100.273 199.479C100.307 199.373 100.248 199.26 100.142 199.226C100.036 199.192 99.9228 199.25 99.8891 199.356C99.8555 199.462 99.9141 199.575 100.02 199.609C100.126 199.643 100.239 199.585 100.273 199.479Z" fill="white" fill-opacity="0.8"/>
<path d="M49.2059 330.935C49.2395 330.829 49.1809 330.716 49.0749 330.682C48.969 330.648 48.8558 330.707 48.8221 330.813C48.7885 330.919 48.8471 331.032 48.9531 331.066C49.059 331.1 49.1722 331.041 49.2059 330.935Z" fill="white" fill-opacity="0.8"/>
<path opacity="0.11" d="M37.9262 330.501C37.9599 330.396 37.9013 330.282 37.7953 330.248C37.6893 330.214 37.5761 330.273 37.5425 330.379C37.5088 330.485 37.5674 330.598 37.6734 330.632C37.7794 330.666 37.8926 330.607 37.9262 330.501Z" fill="white" fill-opacity="0.8"/>
<path opacity="0.11" d="M39.7196 340.162C39.7532 340.056 39.6946 339.942 39.5886 339.909C39.4827 339.875 39.3695 339.933 39.3358 340.039C39.3022 340.145 39.3608 340.258 39.4667 340.292C39.5727 340.326 39.6859 340.268 39.7196 340.162Z" fill="white" fill-opacity="0.8"/>
<path opacity="0.11" d="M53.2497 337.509C53.2833 337.403 53.2247 337.289 53.1187 337.256C53.0128 337.222 52.8996 337.28 52.8659 337.386C52.8323 337.492 52.8909 337.605 52.9968 337.639C53.1028 337.673 53.216 337.615 53.2497 337.509Z" fill="white" fill-opacity="0.8"/>
<path opacity="0.11" d="M60.0811 289.38C60.1148 289.274 60.0562 289.161 59.9502 289.127C59.8442 289.093 59.731 289.151 59.6974 289.257C59.6637 289.363 59.7223 289.477 59.8283 289.51C59.9343 289.544 60.0474 289.486 60.0811 289.38Z" fill="white" fill-opacity="0.8"/>
<path opacity="0.11" d="M81.0991 271.148C81.1327 271.042 81.0741 270.928 80.9681 270.895C80.8622 270.861 80.749 270.919 80.7153 271.025C80.6817 271.131 80.7403 271.244 80.8462 271.278C80.9522 271.312 81.0654 271.254 81.0991 271.148Z" fill="white" fill-opacity="0.8"/>
<path opacity="0.11" d="M90.8862 233.687C90.9198 233.581 90.8612 233.468 90.7552 233.434C90.6493 233.4 90.5361 233.458 90.5024 233.564C90.4688 233.67 90.5274 233.784 90.6333 233.817C90.7393 233.851 90.8525 233.793 90.8862 233.687Z" fill="white" fill-opacity="0.8"/>
<path opacity="0.3" d="M47.2113 320.572C47.245 320.466 47.1864 320.352 47.0804 320.319C46.9744 320.285 46.8612 320.343 46.8276 320.449C46.7939 320.555 46.8526 320.668 46.9585 320.702C47.0645 320.736 47.1777 320.678 47.2113 320.572Z" fill="white" fill-opacity="0.8"/>
<path d="M50.8703 273.119C50.9039 273.013 50.8453 272.899 50.7393 272.866C50.6334 272.832 50.5202 272.89 50.4865 272.996C50.4529 273.102 50.5115 273.215 50.6174 273.249C50.7234 273.283 50.8366 273.225 50.8703 273.119Z" fill="white" fill-opacity="0.8"/>
<path d="M59.876 243.441C59.9097 243.335 59.851 243.222 59.7451 243.188C59.6391 243.154 59.5259 243.212 59.4923 243.318C59.4586 243.424 59.5172 243.538 59.6232 243.571C59.7292 243.605 59.8423 243.547 59.876 243.441Z" fill="white" fill-opacity="0.8"/>
<path d="M64.3847 291.812C64.4184 291.706 64.3598 291.593 64.2538 291.559C64.1478 291.525 64.0347 291.583 64.001 291.689C63.9673 291.795 64.0259 291.909 64.1319 291.943C64.2379 291.976 64.3511 291.918 64.3847 291.812Z" fill="white" fill-opacity="0.8"/>
<path opacity="0.3" d="M60.1163 305.246C60.1499 305.14 60.0913 305.027 59.9854 304.993C59.8794 304.959 59.7662 305.018 59.7326 305.124C59.6989 305.23 59.7575 305.343 59.8635 305.377C59.9694 305.411 60.0826 305.352 60.1163 305.246Z" fill="white" fill-opacity="0.8"/>
<path opacity="0.11" d="M43.2164 317.18C43.25 317.074 43.1914 316.961 43.0854 316.927C42.9795 316.893 42.8663 316.952 42.8326 317.058C42.799 317.164 42.8576 317.277 42.9636 317.311C43.0695 317.345 43.1827 317.286 43.2164 317.18Z" fill="white" fill-opacity="0.8"/>
<path opacity="0.3" d="M56.5765 271.136C56.6102 271.03 56.5515 270.917 56.4456 270.883C56.3396 270.849 56.2264 270.907 56.1928 271.013C56.1591 271.119 56.2177 271.233 56.3237 271.266C56.4296 271.3 56.5428 271.242 56.5765 271.136Z" fill="white" fill-opacity="0.8"/>
<path opacity="0.3" d="M69.0693 289.714C69.1029 289.608 69.0443 289.495 68.9383 289.461C68.8324 289.427 68.7192 289.485 68.6855 289.591C68.6519 289.697 68.7105 289.811 68.8165 289.844C68.9224 289.878 69.0356 289.82 69.0693 289.714Z" fill="white" fill-opacity="0.8"/>
<path opacity="0.3" d="M63.6092 313.549C63.6428 313.443 63.5842 313.33 63.4783 313.296C63.3723 313.262 63.2591 313.32 63.2254 313.426C63.1918 313.532 63.2504 313.645 63.3564 313.679C63.4623 313.713 63.5755 313.655 63.6092 313.549Z" fill="white" fill-opacity="0.8"/>
<path opacity="0.3" d="M48.9812 315.006C49.0149 314.9 48.9563 314.787 48.8503 314.753C48.7443 314.719 48.6311 314.778 48.5975 314.884C48.5638 314.99 48.6224 315.103 48.7284 315.137C48.8344 315.171 48.9476 315.112 48.9812 315.006Z" fill="white" fill-opacity="0.8"/>
<path opacity="0.3" d="M86.3306 195.451C86.3643 195.345 86.3056 195.231 86.1997 195.198C86.0937 195.164 85.9805 195.222 85.9469 195.328C85.9132 195.434 85.9718 195.547 86.0778 195.581C86.1837 195.615 86.2969 195.557 86.3306 195.451Z" fill="white" fill-opacity="0.8"/>
<path opacity="0.11" d="M68.6434 223.833C68.6771 223.727 68.6184 223.614 68.5125 223.58C68.4065 223.546 68.2933 223.605 68.2597 223.711C68.226 223.817 68.2846 223.93 68.3906 223.964C68.4965 223.998 68.6097 223.939 68.6434 223.833Z" fill="white" fill-opacity="0.8"/>
<path opacity="0.11" d="M92.9394 203.267C92.973 203.161 92.9144 203.047 92.8084 203.014C92.7025 202.98 92.5893 203.038 92.5556 203.144C92.522 203.25 92.5806 203.363 92.6865 203.397C92.7925 203.431 92.9057 203.373 92.9394 203.267Z" fill="white" fill-opacity="0.8"/>
<path opacity="0.3" d="M79.2394 252.375C79.3067 252.163 79.1894 251.936 78.9773 251.869C78.7652 251.801 78.5386 251.918 78.4712 252.13C78.4038 252.342 78.5212 252.569 78.7333 252.637C78.9454 252.704 79.172 252.587 79.2394 252.375Z" fill="white" fill-opacity="0.8"/>
<path opacity="0.11" d="M77.0787 239.212C77.1461 239 77.0288 238.773 76.8167 238.706C76.6046 238.638 76.378 238.755 76.3106 238.967C76.2432 239.179 76.3606 239.406 76.5727 239.474C76.7848 239.541 77.0114 239.424 77.0787 239.212Z" fill="white" fill-opacity="0.8"/>
<path d="M70.3293 237.163C70.3798 237.004 70.2919 236.834 70.1328 236.783C69.9738 236.732 69.8039 236.82 69.7534 236.979C69.7029 237.138 69.7908 237.308 69.9499 237.359C70.1089 237.409 70.2788 237.322 70.3293 237.163Z" fill="white" fill-opacity="0.8"/>
<path d="M86.2798 256.84C86.3303 256.681 86.2424 256.511 86.0833 256.461C85.9243 256.41 85.7544 256.498 85.7039 256.657C85.6534 256.816 85.7413 256.986 85.9004 257.036C86.0594 257.087 86.2293 257 86.2798 256.84Z" fill="white" fill-opacity="0.8"/>
<path d="M110.361 194.351C110.411 194.192 110.323 194.022 110.164 193.971C110.005 193.921 109.835 194.008 109.785 194.167C109.734 194.326 109.822 194.496 109.981 194.547C110.14 194.598 110.31 194.51 110.361 194.351Z" fill="white" fill-opacity="0.8"/>
<path d="M67.524 317.865C67.5746 317.706 67.4866 317.536 67.3276 317.485C67.1685 317.434 66.9986 317.522 66.9481 317.681C66.8976 317.84 66.9856 318.01 67.1446 318.061C67.3037 318.111 67.4735 318.024 67.524 317.865Z" fill="white" fill-opacity="0.8"/>
<path d="M55.002 341.979C55.0525 341.82 54.9645 341.65 54.8055 341.599C54.6464 341.548 54.4766 341.636 54.4261 341.795C54.3755 341.954 54.4635 342.124 54.6225 342.175C54.7816 342.226 54.9515 342.138 55.002 341.979Z" fill="white" fill-opacity="0.8"/>
<path d="M46.2854 342.79C46.3359 342.631 46.2479 342.46 46.0889 342.41C45.9298 342.359 45.7599 342.447 45.7094 342.606C45.6589 342.765 45.7469 342.935 45.9059 342.986C46.065 343.036 46.2348 342.949 46.2854 342.79Z" fill="white" fill-opacity="0.8"/>
<path d="M71.2436 247.598C71.2941 247.439 71.2061 247.269 71.0471 247.219C70.888 247.168 70.7181 247.255 70.6676 247.414C70.6171 247.573 70.7051 247.744 70.8641 247.794C71.0232 247.845 71.193 247.757 71.2436 247.598Z" fill="white" fill-opacity="0.8"/>
<path d="M74.838 285.532C74.8886 285.373 74.8006 285.203 74.6416 285.152C74.4825 285.101 74.3126 285.189 74.2621 285.348C74.2116 285.507 74.2996 285.677 74.4586 285.728C74.6177 285.779 74.7875 285.691 74.838 285.532Z" fill="white" fill-opacity="0.8"/>
<path d="M98.4581 239.804C98.5086 239.645 98.4206 239.475 98.2616 239.424C98.1025 239.373 97.9327 239.461 97.8821 239.62C97.8316 239.779 97.9196 239.949 98.0786 240C98.2377 240.051 98.4075 239.963 98.4581 239.804Z" fill="white" fill-opacity="0.8"/>
<path d="M101.562 184.777C101.613 184.618 101.525 184.448 101.366 184.397C101.207 184.346 101.037 184.434 100.986 184.593C100.936 184.752 101.024 184.922 101.183 184.973C101.342 185.024 101.512 184.936 101.562 184.777Z" fill="white" fill-opacity="0.8"/>
<path d="M92.4686 176.797C92.5191 176.638 92.4311 176.468 92.2721 176.417C92.113 176.366 91.9432 176.454 91.8926 176.613C91.8421 176.772 91.9301 176.942 92.0891 176.993C92.2482 177.044 92.4181 176.956 92.4686 176.797Z" fill="white" fill-opacity="0.8"/>
<path opacity="0.3" d="M75.553 221.39C75.6204 221.178 75.5031 220.952 75.291 220.884C75.0789 220.816 74.8523 220.933 74.7849 221.145C74.7175 221.357 74.8349 221.584 75.047 221.652C75.2591 221.719 75.4857 221.602 75.553 221.39Z" fill="white" fill-opacity="0.8"/>
<path d="M61.9233 217.036C61.9907 216.824 61.8734 216.597 61.6612 216.529C61.4491 216.462 61.2226 216.579 61.1552 216.791C61.0878 217.003 61.2051 217.23 61.4173 217.297C61.6294 217.365 61.8559 217.248 61.9233 217.036Z" fill="white" fill-opacity="0.8"/>
<path d="M82.9159 212.853C82.9664 212.694 82.8784 212.524 82.7194 212.473C82.5603 212.422 82.3904 212.51 82.3399 212.669C82.2894 212.828 82.3774 212.998 82.5364 213.049C82.6955 213.1 82.8653 213.012 82.9159 212.853Z" fill="white" fill-opacity="0.8"/>
<path opacity="0.3" d="M78.3876 201.154C78.455 200.942 78.3376 200.715 78.1255 200.647C77.9134 200.579 77.6869 200.696 77.6195 200.909C77.5521 201.121 77.6694 201.347 77.8815 201.415C78.0937 201.483 78.3202 201.366 78.3876 201.154Z" fill="white" fill-opacity="0.8"/>
<path opacity="0.3" d="M98.0517 186.506C98.1191 186.294 98.0018 186.067 97.7897 186C97.5775 185.932 97.351 186.049 97.2836 186.261C97.2162 186.473 97.3335 186.7 97.5457 186.768C97.7578 186.835 97.9843 186.718 98.0517 186.506Z" fill="white" fill-opacity="0.8"/>
<path opacity="0.3" d="M91.3004 209.085C91.3678 208.873 91.2504 208.646 91.0383 208.579C90.8262 208.511 90.5996 208.628 90.5323 208.84C90.4649 209.052 90.5822 209.279 90.7943 209.347C91.0064 209.414 91.233 209.297 91.3004 209.085Z" fill="white" fill-opacity="0.8"/>
<path opacity="0.3" d="M59.5654 320.289C59.6328 320.077 59.5155 319.85 59.3033 319.783C59.0912 319.715 58.8647 319.832 58.7973 320.044C58.7299 320.256 58.8472 320.483 59.0594 320.551C59.2715 320.618 59.498 320.501 59.5654 320.289Z" fill="white" fill-opacity="0.8"/>
<path opacity="0.3" d="M44.0681 332.464C44.1355 332.252 44.0182 332.025 43.8061 331.957C43.5939 331.889 43.3674 332.006 43.3 332.218C43.2326 332.43 43.35 332.657 43.5621 332.725C43.7742 332.793 44.0007 332.676 44.0681 332.464Z" fill="white" fill-opacity="0.8"/>
<path opacity="0.11" d="M89.7922 192.537C89.8596 192.325 89.7423 192.098 89.5302 192.03C89.3181 191.963 89.0915 192.079 89.0241 192.292C88.9567 192.504 89.0741 192.73 89.2862 192.798C89.4983 192.866 89.7249 192.749 89.7922 192.537Z" fill="white" fill-opacity="0.8"/>
<path opacity="0.3" d="M46.262 302.934C46.3293 302.722 46.212 302.495 45.9999 302.428C45.7878 302.36 45.5612 302.477 45.4938 302.689C45.4264 302.901 45.5438 303.128 45.7559 303.196C45.968 303.263 46.1946 303.146 46.262 302.934Z" fill="white" fill-opacity="0.8"/>
<path opacity="0.11" d="M40.7765 306.888C40.8438 306.676 40.7265 306.449 40.5144 306.382C40.3023 306.314 40.0757 306.431 40.0083 306.643C39.9409 306.855 40.0583 307.082 40.2704 307.15C40.4825 307.217 40.7091 307.1 40.7765 306.888Z" fill="white" fill-opacity="0.8"/>
<path opacity="0.3" d="M52.5718 312.35C52.6392 312.138 52.5218 311.911 52.3097 311.844C52.0976 311.776 51.8711 311.893 51.8037 312.105C51.7363 312.317 51.8536 312.544 52.0657 312.612C52.2779 312.679 52.5044 312.562 52.5718 312.35Z" fill="white" fill-opacity="0.8"/>
<path d="M56.1917 300.293C56.2422 300.134 56.1542 299.964 55.9952 299.913C55.8361 299.862 55.6663 299.95 55.6157 300.109C55.5652 300.268 55.6532 300.438 55.8122 300.489C55.9713 300.539 56.1412 300.452 56.1917 300.293Z" fill="white" fill-opacity="0.8"/>
<path opacity="0.11" d="M29.4734 180.495C29.5408 180.283 29.4234 180.057 29.2113 179.989C28.9992 179.921 28.7726 180.038 28.7053 180.25C28.6379 180.462 28.7552 180.689 28.9673 180.757C29.1794 180.824 29.406 180.707 29.4734 180.495Z" fill="white" fill-opacity="0.8"/>
<path d="M31.9798 179.923C32.0303 179.764 31.9423 179.593 31.7833 179.543C31.6242 179.492 31.4543 179.58 31.4038 179.739C31.3533 179.898 31.4413 180.068 31.6003 180.118C31.7594 180.169 31.9292 180.082 31.9798 179.923Z" fill="white" fill-opacity="0.8"/>
<path d="M29.9637 172.3C30.0142 172.141 29.9263 171.971 29.7672 171.92C29.6082 171.869 29.4383 171.957 29.3878 172.116C29.3373 172.275 29.4252 172.445 29.5843 172.496C29.7433 172.547 29.9132 172.459 29.9637 172.3Z" fill="white" fill-opacity="0.8"/>
<path d="M24.3962 188.493C24.4467 188.334 24.3587 188.164 24.1997 188.113C24.0406 188.062 23.8708 188.15 23.8202 188.309C23.7697 188.468 23.8577 188.638 24.0167 188.689C24.1758 188.739 24.3457 188.652 24.3962 188.493Z" fill="white" fill-opacity="0.8"/>
<path opacity="0.11" d="M25.9844 199.464C26.0518 199.252 25.9344 199.025 25.7223 198.957C25.5102 198.89 25.2837 199.007 25.2163 199.219C25.1489 199.431 25.2662 199.658 25.4783 199.725C25.6905 199.793 25.917 199.676 25.9844 199.464Z" fill="white" fill-opacity="0.8"/>
<path d="M20.6024 201.76C20.6361 201.655 20.5775 201.541 20.4715 201.507C20.3655 201.474 20.2524 201.532 20.2187 201.638C20.185 201.744 20.2436 201.857 20.3496 201.891C20.4556 201.925 20.5688 201.866 20.6024 201.76Z" fill="white" fill-opacity="0.8"/>
<path d="M36.7756 183.464C36.8093 183.358 36.7507 183.245 36.6447 183.211C36.5387 183.177 36.4255 183.235 36.3919 183.341C36.3582 183.447 36.4168 183.561 36.5228 183.594C36.6288 183.628 36.742 183.57 36.7756 183.464Z" fill="white" fill-opacity="0.8"/>
<path d="M50.0693 141.625C50.103 141.519 50.0444 141.406 49.9384 141.372C49.8324 141.338 49.7192 141.397 49.6856 141.503C49.6519 141.609 49.7105 141.722 49.8165 141.756C49.9225 141.79 50.0357 141.731 50.0693 141.625Z" fill="white" fill-opacity="0.8"/>
<path d="M46.3498 117.396C46.3835 117.29 46.3248 117.176 46.2189 117.143C46.1129 117.109 45.9997 117.167 45.9661 117.273C45.9324 117.379 45.991 117.492 46.097 117.526C46.203 117.56 46.3161 117.502 46.3498 117.396Z" fill="white" fill-opacity="0.8"/>
<path d="M62.7418 114.385C62.7755 114.279 62.7169 114.166 62.6109 114.132C62.5049 114.098 62.3917 114.157 62.3581 114.263C62.3244 114.369 62.383 114.482 62.489 114.516C62.595 114.55 62.7082 114.491 62.7418 114.385Z" fill="white" fill-opacity="0.8"/>
<path d="M11.6729 245.84C11.7065 245.734 11.6479 245.62 11.542 245.587C11.436 245.553 11.3228 245.611 11.2891 245.717C11.2555 245.823 11.3141 245.936 11.4201 245.97C11.526 246.004 11.6392 245.946 11.6729 245.84Z" fill="white" fill-opacity="0.8"/>
<path opacity="0.11" d="M0.393226 245.406C0.426886 245.3 0.368268 245.187 0.262303 245.153C0.156337 245.119 0.0431573 245.178 0.00949786 245.284C-0.0241616 245.389 0.034446 245.503 0.140411 245.537C0.246377 245.57 0.359567 245.512 0.393226 245.406Z" fill="white" fill-opacity="0.8"/>
<path opacity="0.11" d="M2.18656 255.068C2.22022 254.962 2.16161 254.849 2.05565 254.815C1.94968 254.781 1.83649 254.84 1.80283 254.946C1.76917 255.052 1.82779 255.165 1.93375 255.199C2.03972 255.233 2.1529 255.174 2.18656 255.068Z" fill="white" fill-opacity="0.8"/>
<path opacity="0.11" d="M15.7166 252.413C15.7503 252.307 15.6917 252.194 15.5857 252.16C15.4798 252.126 15.3666 252.185 15.3329 252.291C15.2993 252.397 15.3579 252.51 15.4638 252.544C15.5698 252.578 15.683 252.519 15.7166 252.413Z" fill="white" fill-opacity="0.8"/>
<path opacity="0.11" d="M22.5481 204.286C22.5818 204.18 22.5232 204.067 22.4172 204.033C22.3112 203.999 22.198 204.058 22.1644 204.164C22.1307 204.27 22.1893 204.383 22.2953 204.417C22.4013 204.451 22.5145 204.392 22.5481 204.286Z" fill="white" fill-opacity="0.8"/>
<path opacity="0.11" d="M43.566 186.054C43.5997 185.948 43.5411 185.835 43.4351 185.801C43.3292 185.767 43.216 185.826 43.1823 185.932C43.1487 186.038 43.2073 186.151 43.3132 186.185C43.4192 186.219 43.5324 186.16 43.566 186.054Z" fill="white" fill-opacity="0.8"/>
<path opacity="0.11" d="M53.3532 148.593C53.3868 148.488 53.3282 148.374 53.2223 148.34C53.1163 148.307 53.0031 148.365 52.9694 148.471C52.9358 148.577 52.9944 148.69 53.1004 148.724C53.2063 148.758 53.3195 148.699 53.3532 148.593Z" fill="white" fill-opacity="0.8"/>
<path opacity="0.3" d="M9.67834 235.478C9.712 235.372 9.65338 235.259 9.54742 235.225C9.44145 235.191 9.32826 235.25 9.2946 235.356C9.26094 235.462 9.31956 235.575 9.42552 235.609C9.53149 235.643 9.64468 235.584 9.67834 235.478Z" fill="white" fill-opacity="0.8"/>
<path d="M13.3373 188.027C13.3709 187.921 13.3123 187.808 13.2063 187.774C13.1004 187.74 12.9872 187.799 12.9535 187.905C12.9199 188.011 12.9785 188.124 13.0845 188.158C13.1904 188.192 13.3036 188.133 13.3373 188.027Z" fill="white" fill-opacity="0.8"/>
<path d="M22.343 158.349C22.3767 158.243 22.318 158.13 22.2121 158.096C22.1061 158.062 21.9929 158.121 21.9593 158.227C21.9256 158.333 21.9842 158.446 22.0902 158.48C22.1962 158.514 22.3093 158.455 22.343 158.349Z" fill="white" fill-opacity="0.8"/>
<path d="M26.8517 206.717C26.8854 206.611 26.8268 206.497 26.7208 206.463C26.6148 206.43 26.5016 206.488 26.468 206.594C26.4343 206.7 26.4929 206.813 26.5989 206.847C26.7049 206.881 26.8181 206.823 26.8517 206.717Z" fill="white" fill-opacity="0.8"/>
<path opacity="0.3" d="M22.5833 220.153C22.6169 220.047 22.5583 219.934 22.4524 219.9C22.3464 219.866 22.2332 219.924 22.1996 220.03C22.1659 220.136 22.2245 220.25 22.3305 220.283C22.4364 220.317 22.5496 220.259 22.5833 220.153Z" fill="white" fill-opacity="0.8"/>
<path opacity="0.11" d="M5.68339 232.087C5.71705 231.981 5.65843 231.868 5.55246 231.834C5.4465 231.8 5.33331 231.858 5.29965 231.964C5.26599 232.07 5.32461 232.184 5.43057 232.218C5.53654 232.251 5.64973 232.193 5.68339 232.087Z" fill="white" fill-opacity="0.8"/>
<path opacity="0.3" d="M19.0435 186.042C19.0772 185.937 19.0186 185.823 18.9126 185.789C18.8066 185.756 18.6934 185.814 18.6598 185.92C18.6261 186.026 18.6847 186.139 18.7907 186.173C18.8967 186.207 19.0099 186.148 19.0435 186.042Z" fill="white" fill-opacity="0.8"/>
<path opacity="0.3" d="M31.5363 204.619C31.5699 204.513 31.5113 204.399 31.4054 204.365C31.2994 204.332 31.1862 204.39 31.1525 204.496C31.1189 204.602 31.1775 204.715 31.2835 204.749C31.3894 204.783 31.5026 204.724 31.5363 204.619Z" fill="white" fill-opacity="0.8"/>
<path opacity="0.3" d="M26.0762 228.455C26.1098 228.349 26.0512 228.236 25.9453 228.202C25.8393 228.168 25.7261 228.227 25.6925 228.333C25.6588 228.439 25.7174 228.552 25.8234 228.586C25.9293 228.62 26.0425 228.561 26.0762 228.455Z" fill="white" fill-opacity="0.8"/>
<path opacity="0.3" d="M11.4482 229.911C11.4819 229.805 11.4233 229.691 11.3173 229.658C11.2113 229.624 11.0981 229.682 11.0645 229.788C11.0308 229.894 11.0894 230.007 11.1954 230.041C11.3014 230.075 11.4146 230.017 11.4482 229.911Z" fill="white" fill-opacity="0.8"/>
<path opacity="0.3" d="M48.7976 110.355C48.8312 110.249 48.7726 110.136 48.6666 110.102C48.5607 110.068 48.4475 110.127 48.4138 110.233C48.3802 110.339 48.4388 110.452 48.5448 110.486C48.6507 110.52 48.7639 110.461 48.7976 110.355Z" fill="white" fill-opacity="0.8"/>
<path opacity="0.11" d="M31.1104 138.74C31.1441 138.634 31.0854 138.521 30.9795 138.487C30.8735 138.453 30.7603 138.511 30.7267 138.617C30.693 138.723 30.7516 138.837 30.8576 138.87C30.9636 138.904 31.0767 138.846 31.1104 138.74Z" fill="white" fill-opacity="0.8"/>
<path opacity="0.11" d="M55.4044 118.173C55.4381 118.067 55.3794 117.954 55.2735 117.92C55.1675 117.886 55.0543 117.945 55.0207 118.051C54.987 118.157 55.0456 118.27 55.1516 118.304C55.2575 118.338 55.3707 118.279 55.4044 118.173Z" fill="white" fill-opacity="0.8"/>
<path opacity="0.3" d="M41.7064 167.282C41.7737 167.07 41.6564 166.843 41.4443 166.775C41.2322 166.707 41.0056 166.824 40.9382 167.036C40.8709 167.249 40.9882 167.475 41.2003 167.543C41.4124 167.611 41.639 167.494 41.7064 167.282Z" fill="white" fill-opacity="0.8"/>
<path opacity="0.11" d="M39.5457 154.119C39.6131 153.907 39.4958 153.68 39.2837 153.612C39.0716 153.545 38.845 153.662 38.7776 153.874C38.7102 154.086 38.8276 154.313 39.0397 154.38C39.2518 154.448 39.4784 154.331 39.5457 154.119Z" fill="white" fill-opacity="0.8"/>
<path d="M32.7963 152.067C32.8468 151.908 32.7589 151.738 32.5998 151.687C32.4408 151.637 32.2709 151.724 32.2204 151.883C32.1699 152.042 32.2578 152.212 32.4169 152.263C32.5759 152.314 32.7458 152.226 32.7963 152.067Z" fill="white" fill-opacity="0.8"/>
<path d="M48.7468 171.747C48.7973 171.588 48.7093 171.418 48.5503 171.367C48.3913 171.316 48.2214 171.404 48.1709 171.563C48.1204 171.722 48.2083 171.892 48.3674 171.943C48.5264 171.994 48.6963 171.906 48.7468 171.747Z" fill="white" fill-opacity="0.8"/>
<path d="M72.8279 109.258C72.8784 109.099 72.7904 108.929 72.6314 108.878C72.4723 108.827 72.3025 108.915 72.2519 109.074C72.2014 109.233 72.2894 109.403 72.4484 109.454C72.6075 109.505 72.7774 109.417 72.8279 109.258Z" fill="white" fill-opacity="0.8"/>
<path d="M29.9911 232.771C30.0416 232.612 29.9536 232.442 29.7946 232.391C29.6355 232.34 29.4657 232.428 29.4151 232.587C29.3646 232.746 29.4526 232.916 29.6116 232.967C29.7707 233.018 29.9406 232.93 29.9911 232.771Z" fill="white" fill-opacity="0.8"/>
<path d="M17.467 256.883C17.5175 256.724 17.4296 256.554 17.2705 256.504C17.1115 256.453 16.9416 256.541 16.8911 256.7C16.8406 256.859 16.9285 257.029 17.0876 257.079C17.2466 257.13 17.4165 257.042 17.467 256.883Z" fill="white" fill-opacity="0.8"/>
<path d="M8.75238 257.694C8.80289 257.535 8.71492 257.365 8.55588 257.314C8.39684 257.264 8.22696 257.351 8.17644 257.51C8.12592 257.669 8.2139 257.839 8.37294 257.89C8.53197 257.941 8.70186 257.853 8.75238 257.694Z" fill="white" fill-opacity="0.8"/>
<path d="M33.7106 162.505C33.7611 162.346 33.6731 162.176 33.5141 162.125C33.355 162.074 33.1851 162.162 33.1346 162.321C33.0841 162.48 33.1721 162.65 33.3311 162.701C33.4902 162.752 33.66 162.664 33.7106 162.505Z" fill="white" fill-opacity="0.8"/>
<path d="M37.305 200.436C37.3556 200.277 37.2676 200.107 37.1086 200.057C36.9495 200.006 36.7796 200.094 36.7291 200.253C36.6786 200.412 36.7666 200.582 36.9256 200.632C37.0847 200.683 37.2545 200.595 37.305 200.436Z" fill="white" fill-opacity="0.8"/>
<path d="M60.9251 154.708C60.9756 154.549 60.8876 154.379 60.7286 154.329C60.5695 154.278 60.3997 154.365 60.3491 154.524C60.2986 154.684 60.3866 154.854 60.5456 154.904C60.7047 154.955 60.8745 154.867 60.9251 154.708Z" fill="white" fill-opacity="0.8"/>
<path d="M64.0292 99.6817C64.0797 99.5227 63.9917 99.3526 63.8327 99.3018C63.6737 99.251 63.5038 99.3387 63.4533 99.4977C63.4028 99.6567 63.4907 99.8268 63.6498 99.8776C63.8088 99.9284 63.9787 99.8407 64.0292 99.6817Z" fill="white" fill-opacity="0.8"/>
<path d="M54.9356 91.7035C54.9861 91.5445 54.8981 91.3744 54.7391 91.3236C54.58 91.2728 54.4102 91.3605 54.3596 91.5195C54.3091 91.6785 54.3971 91.8486 54.5561 91.8994C54.7152 91.9502 54.885 91.8625 54.9356 91.7035Z" fill="white" fill-opacity="0.8"/>
<path opacity="0.3" d="M38.02 136.295C38.0874 136.083 37.9701 135.856 37.758 135.788C37.5459 135.721 37.3193 135.838 37.2519 136.05C37.1845 136.262 37.3019 136.489 37.514 136.556C37.7261 136.624 37.9527 136.507 38.02 136.295Z" fill="white" fill-opacity="0.8"/>
<path d="M24.3903 131.943C24.4577 131.731 24.3404 131.504 24.1283 131.436C23.9161 131.368 23.6896 131.485 23.6222 131.697C23.5548 131.909 23.6722 132.136 23.8843 132.204C24.0964 132.272 24.3229 132.155 24.3903 131.943Z" fill="white" fill-opacity="0.8"/>
<path d="M45.3828 127.76C45.4334 127.601 45.3454 127.431 45.1864 127.38C45.0273 127.329 44.8574 127.417 44.8069 127.576C44.7564 127.735 44.8444 127.905 45.0034 127.956C45.1624 128.006 45.3323 127.919 45.3828 127.76Z" fill="white" fill-opacity="0.8"/>
<path opacity="0.3" d="M40.8546 116.06C40.922 115.848 40.8046 115.621 40.5925 115.554C40.3804 115.486 40.1539 115.603 40.0865 115.815C40.0191 116.027 40.1364 116.254 40.3485 116.322C40.5607 116.389 40.7872 116.272 40.8546 116.06Z" fill="white" fill-opacity="0.8"/>
<path opacity="0.3" d="M60.5187 101.415C60.5861 101.203 60.4688 100.976 60.2567 100.908C60.0446 100.841 59.818 100.958 59.7506 101.17C59.6832 101.382 59.8006 101.608 60.0127 101.676C60.2248 101.744 60.4514 101.627 60.5187 101.415Z" fill="white" fill-opacity="0.8"/>
<path opacity="0.3" d="M53.7674 123.992C53.8347 123.779 53.7174 123.553 53.5053 123.485C53.2932 123.417 53.0666 123.534 52.9992 123.746C52.9319 123.958 53.0492 124.185 53.2613 124.253C53.4734 124.321 53.7 124.204 53.7674 123.992Z" fill="white" fill-opacity="0.8"/>
<path opacity="0.3" d="M22.0324 235.196C22.0998 234.984 21.9825 234.757 21.7704 234.689C21.5583 234.622 21.3317 234.739 21.2643 234.951C21.1969 235.163 21.3143 235.39 21.5264 235.457C21.7385 235.525 21.9651 235.408 22.0324 235.196Z" fill="white" fill-opacity="0.8"/>
<path opacity="0.3" d="M6.5332 247.37C6.60058 247.158 6.48324 246.931 6.27113 246.864C6.05902 246.796 5.83245 246.913 5.76508 247.125C5.6977 247.337 5.81503 247.564 6.02714 247.632C6.23925 247.699 6.46583 247.582 6.5332 247.37Z" fill="white" fill-opacity="0.8"/>
<path opacity="0.11" d="M52.2612 107.443C52.3286 107.231 52.2112 107.005 51.9991 106.937C51.787 106.869 51.5605 106.986 51.4931 107.198C51.4257 107.41 51.543 107.637 51.7551 107.705C51.9673 107.773 52.1938 107.656 52.2612 107.443Z" fill="white" fill-opacity="0.8"/>
<path opacity="0.3" d="M8.727 217.841C8.79437 217.629 8.67705 217.402 8.46494 217.334C8.25282 217.266 8.02626 217.383 7.95888 217.596C7.89151 217.808 8.00883 218.034 8.22094 218.102C8.43306 218.17 8.65962 218.053 8.727 217.841Z" fill="white" fill-opacity="0.8"/>
<path opacity="0.11" d="M3.24152 221.797C3.30889 221.585 3.19157 221.358 2.97946 221.29C2.76735 221.222 2.54077 221.339 2.47339 221.551C2.40602 221.763 2.52335 221.99 2.73547 222.058C2.94758 222.126 3.17414 222.009 3.24152 221.797Z" fill="white" fill-opacity="0.8"/>
<path opacity="0.3" d="M15.0408 227.255C15.1082 227.043 14.9908 226.816 14.7787 226.748C14.5666 226.68 14.34 226.797 14.2727 227.01C14.2053 227.222 14.3226 227.448 14.5347 227.516C14.7468 227.584 14.9734 227.467 15.0408 227.255Z" fill="white" fill-opacity="0.8"/>
<path d="M18.6587 215.199C18.7092 215.04 18.6212 214.87 18.4622 214.819C18.3032 214.769 18.1333 214.856 18.0828 215.015C18.0322 215.174 18.1202 215.344 18.2792 215.395C18.4383 215.446 18.6082 215.358 18.6587 215.199Z" fill="white" fill-opacity="0.8"/>
<path opacity="0.11" d="M91.6129 89.1839C91.6803 88.9719 91.563 88.745 91.3509 88.6773C91.1388 88.6095 90.9122 88.7265 90.8448 88.9386C90.7774 89.1507 90.8948 89.3775 91.1069 89.4452C91.319 89.513 91.5456 89.396 91.6129 89.1839Z" fill="white" fill-opacity="0.8"/>
<path d="M94.1212 88.613C94.1718 88.454 94.0838 88.2839 93.9247 88.2331C93.7657 88.1823 93.5958 88.2701 93.5453 88.4291C93.4948 88.5881 93.5828 88.7582 93.7418 88.8089C93.9009 88.8597 94.0707 88.772 94.1212 88.613Z" fill="white" fill-opacity="0.8"/>
<path d="M92.1033 80.9923C92.1538 80.8333 92.0658 80.6633 91.9068 80.6125C91.7477 80.5617 91.5778 80.6494 91.5273 80.8084C91.4768 80.9674 91.5648 81.1375 91.7238 81.1883C91.8829 81.2391 92.0527 81.1513 92.1033 80.9923Z" fill="white" fill-opacity="0.8"/>
<path d="M86.5338 97.1812C86.5843 97.0222 86.4963 96.8521 86.3373 96.8013C86.1782 96.7505 86.0084 96.8382 85.9578 96.9972C85.9073 97.1562 85.9953 97.3263 86.1543 97.3771C86.3134 97.4279 86.4832 97.3402 86.5338 97.1812Z" fill="white" fill-opacity="0.8"/>
<path opacity="0.11" d="M88.122 108.153C88.1894 107.941 88.072 107.714 87.8599 107.646C87.6478 107.578 87.4213 107.695 87.3539 107.907C87.2865 108.119 87.4038 108.346 87.6159 108.414C87.8281 108.482 88.0546 108.365 88.122 108.153Z" fill="white" fill-opacity="0.8"/>
<path d="M82.742 110.451C82.7756 110.345 82.717 110.231 82.611 110.198C82.5051 110.164 82.3919 110.222 82.3582 110.328C82.3246 110.434 82.3832 110.547 82.4892 110.581C82.5951 110.615 82.7083 110.557 82.742 110.451Z" fill="white" fill-opacity="0.8"/>
<path d="M98.9152 92.1523C98.9488 92.0464 98.8902 91.9331 98.7843 91.8992C98.6783 91.8654 98.5651 91.9238 98.5314 92.0297C98.4978 92.1357 98.5564 92.249 98.6624 92.2829C98.7683 92.3167 98.8815 92.2583 98.9152 92.1523Z" fill="white" fill-opacity="0.8"/>
<path d="M112.209 50.3138C112.243 50.2078 112.184 50.0945 112.078 50.0607C111.972 50.0268 111.859 50.0853 111.825 50.1912C111.791 50.2971 111.85 50.4105 111.956 50.4443C112.062 50.4782 112.175 50.4197 112.209 50.3138Z" fill="white" fill-opacity="0.8"/>
<path d="M108.487 26.0842C108.521 25.9783 108.462 25.865 108.357 25.8311C108.251 25.7973 108.137 25.8557 108.104 25.9617C108.07 26.0676 108.129 26.1809 108.235 26.2148C108.341 26.2486 108.454 26.1902 108.487 26.0842Z" fill="white" fill-opacity="0.8"/>
<path d="M124.879 23.0738C124.913 22.9679 124.854 22.8546 124.749 22.8207C124.643 22.7869 124.529 22.8453 124.496 22.9513C124.462 23.0572 124.521 23.1706 124.627 23.2044C124.733 23.2383 124.846 23.1798 124.879 23.0738Z" fill="white" fill-opacity="0.8"/>
<path d="M73.8124 154.528C73.8461 154.422 73.7875 154.309 73.6815 154.275C73.5755 154.241 73.4623 154.3 73.4287 154.406C73.395 154.512 73.4536 154.625 73.5596 154.659C73.6656 154.693 73.7788 154.634 73.8124 154.528Z" fill="white" fill-opacity="0.8"/>
<path opacity="0.11" d="M62.5328 154.097C62.5664 153.991 62.5078 153.877 62.4019 153.843C62.2959 153.81 62.1827 153.868 62.1491 153.974C62.1154 154.08 62.174 154.193 62.28 154.227C62.3859 154.261 62.4991 154.202 62.5328 154.097Z" fill="white" fill-opacity="0.8"/>
<path opacity="0.11" d="M64.3261 163.759C64.3598 163.653 64.3012 163.539 64.1952 163.506C64.0892 163.472 63.976 163.53 63.9424 163.636C63.9087 163.742 63.9673 163.855 64.0733 163.889C64.1793 163.923 64.2925 163.865 64.3261 163.759Z" fill="white" fill-opacity="0.8"/>
<path opacity="0.11" d="M77.8543 161.104C77.8879 160.998 77.8293 160.885 77.7233 160.851C77.6174 160.817 77.5042 160.876 77.4705 160.981C77.4369 161.087 77.4955 161.201 77.6014 161.235C77.7074 161.268 77.8206 161.21 77.8543 161.104Z" fill="white" fill-opacity="0.8"/>
<path opacity="0.11" d="M84.6877 112.975C84.7213 112.869 84.6627 112.756 84.5568 112.722C84.4508 112.688 84.3376 112.746 84.3039 112.852C84.2703 112.958 84.3289 113.072 84.4349 113.105C84.5408 113.139 84.654 113.081 84.6877 112.975Z" fill="white" fill-opacity="0.8"/>
<path opacity="0.11" d="M105.704 94.7447C105.737 94.6387 105.679 94.5254 105.573 94.4916C105.467 94.4577 105.354 94.5161 105.32 94.6221C105.286 94.728 105.345 94.8413 105.451 94.8752C105.557 94.909 105.67 94.8506 105.704 94.7447Z" fill="white" fill-opacity="0.8"/>
<path opacity="0.11" d="M115.491 57.282C115.524 57.176 115.466 57.0627 115.36 57.0289C115.254 56.995 115.141 57.0535 115.107 57.1594C115.073 57.2654 115.132 57.3787 115.238 57.4125C115.344 57.4464 115.457 57.3879 115.491 57.282Z" fill="white" fill-opacity="0.8"/>
<path opacity="0.3" d="M71.8179 144.167C71.8515 144.061 71.7929 143.948 71.687 143.914C71.581 143.88 71.4678 143.938 71.4341 144.044C71.4005 144.15 71.4591 144.263 71.5651 144.297C71.671 144.331 71.7842 144.273 71.8179 144.167Z" fill="white" fill-opacity="0.8"/>
<path d="M75.4749 96.716C75.5085 96.61 75.4499 96.4967 75.3439 96.4629C75.238 96.429 75.1248 96.4875 75.0911 96.5934C75.0575 96.6994 75.1161 96.8127 75.2221 96.8465C75.328 96.8804 75.4412 96.8219 75.4749 96.716Z" fill="white" fill-opacity="0.8"/>
<path d="M84.4826 67.0376C84.5162 66.9317 84.4576 66.8184 84.3516 66.7845C84.2457 66.7507 84.1325 66.8091 84.0988 66.9151C84.0652 67.021 84.1238 67.1343 84.2297 67.1682C84.3357 67.202 84.4489 67.1436 84.4826 67.0376Z" fill="white" fill-opacity="0.8"/>
<path d="M88.9893 115.407C89.023 115.301 88.9644 115.188 88.8584 115.154C88.7524 115.12 88.6393 115.179 88.6056 115.284C88.5719 115.39 88.6306 115.504 88.7365 115.538C88.8425 115.571 88.9557 115.513 88.9893 115.407Z" fill="white" fill-opacity="0.8"/>
<path opacity="0.3" d="M84.7209 128.841C84.7545 128.735 84.6959 128.622 84.59 128.588C84.484 128.554 84.3708 128.613 84.3371 128.719C84.3035 128.825 84.3621 128.938 84.4681 128.972C84.574 129.006 84.6872 128.947 84.7209 128.841Z" fill="white" fill-opacity="0.8"/>
<path opacity="0.11" d="M67.821 140.775C67.8546 140.67 67.796 140.556 67.69 140.522C67.5841 140.489 67.4709 140.547 67.4372 140.653C67.4036 140.759 67.4622 140.872 67.5682 140.906C67.6741 140.94 67.7873 140.881 67.821 140.775Z" fill="white" fill-opacity="0.8"/>
<path opacity="0.3" d="M81.1831 94.731C81.2167 94.625 81.1581 94.5117 81.0521 94.4779C80.9462 94.444 80.833 94.5025 80.7993 94.6084C80.7657 94.7143 80.8243 94.8277 80.9302 94.8615C81.0362 94.8954 81.1494 94.8369 81.1831 94.731Z" fill="white" fill-opacity="0.8"/>
<path opacity="0.3" d="M93.6758 113.309C93.7095 113.203 93.6509 113.09 93.5449 113.056C93.4389 113.022 93.3257 113.081 93.2921 113.187C93.2584 113.293 93.317 113.406 93.423 113.44C93.529 113.474 93.6422 113.415 93.6758 113.309Z" fill="white" fill-opacity="0.8"/>
<path opacity="0.3" d="M88.2157 137.144C88.2494 137.038 88.1908 136.925 88.0848 136.891C87.9789 136.857 87.8657 136.916 87.832 137.022C87.7983 137.127 87.857 137.241 87.9629 137.275C88.0689 137.309 88.1821 137.25 88.2157 137.144Z" fill="white" fill-opacity="0.8"/>
<path opacity="0.3" d="M73.5858 138.601C73.6195 138.495 73.5609 138.382 73.4549 138.348C73.3489 138.314 73.2357 138.373 73.2021 138.479C73.1684 138.585 73.227 138.698 73.333 138.732C73.439 138.766 73.5522 138.707 73.5858 138.601Z" fill="white" fill-opacity="0.8"/>
<path opacity="0.3" d="M110.937 19.0457C110.971 18.9397 110.912 18.8264 110.806 18.7926C110.7 18.7587 110.587 18.8172 110.553 18.9231C110.52 19.0291 110.578 19.1424 110.684 19.1762C110.79 19.2101 110.903 19.1516 110.937 19.0457Z" fill="white" fill-opacity="0.8"/>
<path opacity="0.11" d="M93.25 47.4284C93.2836 47.3225 93.225 47.2091 93.119 47.1753C93.0131 47.1414 92.8999 47.1999 92.8662 47.3059C92.8326 47.4118 92.8912 47.5251 92.9971 47.559C93.1031 47.5928 93.2163 47.5344 93.25 47.4284Z" fill="white" fill-opacity="0.8"/>
<path opacity="0.11" d="M117.544 26.8617C117.578 26.7558 117.519 26.6425 117.413 26.6086C117.307 26.5748 117.194 26.6332 117.16 26.7392C117.127 26.8451 117.185 26.9584 117.291 26.9923C117.397 27.0261 117.51 26.9677 117.544 26.8617Z" fill="white" fill-opacity="0.8"/>
<path opacity="0.3" d="M103.844 75.9722C103.911 75.7602 103.794 75.5333 103.582 75.4656C103.37 75.3978 103.143 75.5148 103.076 75.7269C103.008 75.939 103.126 76.1658 103.338 76.2336C103.55 76.3013 103.777 76.1843 103.844 75.9722Z" fill="white" fill-opacity="0.8"/>
<path opacity="0.11" d="M101.685 62.8075C101.753 62.5954 101.635 62.3686 101.423 62.3008C101.211 62.2331 100.985 62.3501 100.917 62.5621C100.85 62.7742 100.967 63.001 101.179 63.0688C101.391 63.1365 101.618 63.0196 101.685 62.8075Z" fill="white" fill-opacity="0.8"/>
<path d="M94.9359 60.7578C94.9864 60.5988 94.8984 60.4287 94.7394 60.3779C94.5803 60.3271 94.4105 60.4148 94.3599 60.5738C94.3094 60.7328 94.3974 60.9029 94.5564 60.9537C94.7155 61.0045 94.8853 60.9168 94.9359 60.7578Z" fill="white" fill-opacity="0.8"/>
<path d="M110.884 80.4375C110.935 80.2785 110.847 80.1085 110.688 80.0577C110.529 80.0069 110.359 80.0946 110.308 80.2536C110.258 80.4126 110.346 80.5827 110.505 80.6335C110.664 80.6843 110.834 80.5965 110.884 80.4375Z" fill="white" fill-opacity="0.8"/>
<path d="M134.969 17.9463C135.02 17.7873 134.932 17.6173 134.773 17.5665C134.614 17.5157 134.444 17.6034 134.393 17.7624C134.343 17.9214 134.431 18.0915 134.59 18.1423C134.749 18.1931 134.919 18.1054 134.969 17.9463Z" fill="white" fill-opacity="0.8"/>
<path d="M92.1306 141.46C92.1811 141.301 92.0931 141.131 91.9341 141.08C91.7751 141.029 91.6052 141.117 91.5547 141.276C91.5042 141.435 91.5921 141.605 91.7512 141.656C91.9102 141.706 92.0801 141.619 92.1306 141.46Z" fill="white" fill-opacity="0.8"/>
<path d="M79.6066 165.574C79.6571 165.415 79.5691 165.245 79.4101 165.194C79.251 165.143 79.0812 165.231 79.0307 165.39C78.9801 165.549 79.0681 165.719 79.2271 165.77C79.3862 165.821 79.5561 165.733 79.6066 165.574Z" fill="white" fill-opacity="0.8"/>
<path d="M70.8919 166.385C70.9424 166.226 70.8545 166.056 70.6954 166.005C70.5364 165.954 70.3665 166.042 70.316 166.201C70.2655 166.36 70.3534 166.53 70.5125 166.581C70.6715 166.631 70.8414 166.544 70.8919 166.385Z" fill="white" fill-opacity="0.8"/>
<path d="M95.8482 71.1957C95.8987 71.0367 95.8107 70.8666 95.6517 70.8158C95.4926 70.765 95.3227 70.8527 95.2722 71.0117C95.2217 71.1707 95.3097 71.3408 95.4687 71.3916C95.6278 71.4424 95.7976 71.3547 95.8482 71.1957Z" fill="white" fill-opacity="0.8"/>
<path d="M99.4446 109.127C99.4951 108.968 99.4071 108.798 99.2481 108.747C99.0891 108.696 98.9192 108.784 98.8687 108.943C98.8181 109.102 98.9061 109.272 99.0652 109.323C99.2242 109.374 99.3941 109.286 99.4446 109.127Z" fill="white" fill-opacity="0.8"/>
<path d="M123.065 63.3989C123.115 63.2399 123.027 63.0698 122.868 63.019C122.709 62.9682 122.539 63.056 122.489 63.215C122.438 63.374 122.526 63.5441 122.685 63.5949C122.844 63.6456 123.014 63.5579 123.065 63.3989Z" fill="white" fill-opacity="0.8"/>
<path d="M126.169 8.37214C126.219 8.21313 126.131 8.04306 125.972 7.99226C125.813 7.94146 125.643 8.02918 125.593 8.18818C125.542 8.34719 125.63 8.51727 125.789 8.56806C125.948 8.61886 126.118 8.53115 126.169 8.37214Z" fill="white" fill-opacity="0.8"/>
<path d="M117.075 0.394203C117.126 0.235196 117.038 0.0651214 116.879 0.0143231C116.72 -0.0364753 116.55 0.0512391 116.499 0.210246C116.449 0.369253 116.537 0.539328 116.696 0.590126C116.855 0.640925 117.025 0.55321 117.075 0.394203Z" fill="white" fill-opacity="0.8"/>
<path opacity="0.3" d="M100.158 44.9855C100.225 44.7734 100.108 44.5466 99.8956 44.4788C99.6835 44.4111 99.4569 44.5281 99.3895 44.7401C99.3222 44.9522 99.4395 45.1791 99.6516 45.2468C99.8637 45.3146 100.09 45.1976 100.158 44.9855Z" fill="white" fill-opacity="0.8"/>
<path d="M86.5279 40.6331C86.5953 40.421 86.478 40.1942 86.2659 40.1264C86.0537 40.0587 85.8272 40.1756 85.7598 40.3877C85.6924 40.5998 85.8098 40.8266 86.0219 40.8944C86.234 40.9621 86.4606 40.8451 86.5279 40.6331Z" fill="white" fill-opacity="0.8"/>
<path d="M107.522 36.4501C107.573 36.2911 107.485 36.121 107.326 36.0702C107.167 36.0194 106.997 36.1071 106.946 36.2661C106.896 36.4252 106.984 36.5952 107.143 36.646C107.302 36.6968 107.472 36.6091 107.522 36.4501Z" fill="white" fill-opacity="0.8"/>
<path opacity="0.3" d="M102.992 24.7509C103.06 24.5389 102.942 24.312 102.73 24.2443C102.518 24.1765 102.291 24.2935 102.224 24.5056C102.157 24.7177 102.274 24.9445 102.486 25.0122C102.698 25.08 102.925 24.963 102.992 24.7509Z" fill="white" fill-opacity="0.8"/>
<path opacity="0.3" d="M122.66 10.1034C122.728 9.89136 122.61 9.66453 122.398 9.59678C122.186 9.52903 121.96 9.64602 121.892 9.85809C121.825 10.0702 121.942 10.297 122.154 10.3647C122.366 10.4325 122.593 10.3155 122.66 10.1034Z" fill="white" fill-opacity="0.8"/>
<path opacity="0.3" d="M115.909 32.6803C115.976 32.4682 115.859 32.2414 115.647 32.1736C115.435 32.1059 115.208 32.2229 115.141 32.4349C115.073 32.647 115.191 32.8738 115.403 32.9416C115.615 33.0093 115.842 32.8923 115.909 32.6803Z" fill="white" fill-opacity="0.8"/>
<path opacity="0.3" d="M84.17 143.884C84.2374 143.672 84.1201 143.446 83.908 143.378C83.6959 143.31 83.4693 143.427 83.4019 143.639C83.3345 143.851 83.4519 144.078 83.664 144.146C83.8761 144.214 84.1027 144.097 84.17 143.884Z" fill="white" fill-opacity="0.8"/>
<path opacity="0.3" d="M68.6747 156.059C68.7421 155.847 68.6247 155.62 68.4126 155.552C68.2005 155.484 67.974 155.601 67.9066 155.813C67.8392 156.026 67.9565 156.252 68.1686 156.32C68.3807 156.388 68.6073 156.271 68.6747 156.059Z" fill="white" fill-opacity="0.8"/>
<path opacity="0.11" d="M114.401 16.132C114.468 15.9199 114.351 15.6931 114.139 15.6253C113.927 15.5576 113.7 15.6746 113.633 15.8867C113.565 16.0987 113.683 16.3256 113.895 16.3933C114.107 16.4611 114.333 16.3441 114.401 16.132Z" fill="white" fill-opacity="0.8"/>
<path opacity="0.3" d="M70.8666 126.529C70.9339 126.317 70.8166 126.09 70.6045 126.023C70.3924 125.955 70.1658 126.072 70.0984 126.284C70.0311 126.496 70.1484 126.723 70.3605 126.791C70.5726 126.858 70.7992 126.741 70.8666 126.529Z" fill="white" fill-opacity="0.8"/>
<path opacity="0.11" d="M65.383 130.485C65.4504 130.273 65.3331 130.046 65.1209 129.979C64.9088 129.911 64.6823 130.028 64.6149 130.24C64.5475 130.452 64.6648 130.679 64.877 130.747C65.0891 130.814 65.3156 130.697 65.383 130.485Z" fill="white" fill-opacity="0.8"/>
<path opacity="0.3" d="M77.1784 135.944C77.2457 135.732 77.1284 135.505 76.9163 135.437C76.7042 135.369 76.4776 135.486 76.4103 135.698C76.3429 135.91 76.4602 136.137 76.6723 136.205C76.8844 136.273 77.111 136.156 77.1784 135.944Z" fill="white" fill-opacity="0.8"/>
<path d="M80.7982 123.888C80.8488 123.729 80.7608 123.559 80.6017 123.508C80.4427 123.457 80.2728 123.545 80.2223 123.704C80.1718 123.863 80.2598 124.033 80.4188 124.084C80.5778 124.134 80.7477 124.047 80.7982 123.888Z" fill="white" fill-opacity="0.8"/>
</svg>
