<svg width="89" height="19" viewBox="0 0 89 19" fill="none" xmlns="http://www.w3.org/2000/svg">
<path d="M86.7224 13.873V7.67334C86.7224 6.97399 86.5491 6.42899 86.2026 6.03836C85.8561 5.64143 85.3867 5.44296 84.7944 5.44296C84.429 5.44296 84.1014 5.52802 83.8115 5.69813C83.5217 5.86195 83.2918 6.10767 83.1216 6.43529C82.9515 6.75662 82.8665 7.14095 82.8665 7.58829L81.8552 6.99289C81.8489 6.28723 82.0065 5.66663 82.3278 5.13109C82.6554 4.58925 83.0964 4.16711 83.6509 3.86469C84.2053 3.56227 84.8228 3.41105 85.5032 3.41105C86.631 3.41105 87.4942 3.75128 88.0927 4.43173C88.6976 5.10589 89 5.99426 89 7.09685V13.873H86.7224ZM74.4459 13.873V3.66622H76.4589V6.83222H76.7424V13.873H74.4459ZM80.5983 13.873V7.70169C80.5983 6.98974 80.425 6.43529 80.0785 6.03836C79.732 5.64143 79.2594 5.44296 78.6609 5.44296C78.0812 5.44296 77.615 5.64143 77.2622 6.03836C76.9157 6.43529 76.7424 6.95193 76.7424 7.58829L75.7217 6.90783C75.7217 6.24628 75.8855 5.65088 76.2131 5.12164C76.5408 4.5924 76.9818 4.17656 77.5363 3.87414C78.097 3.56542 78.7239 3.41105 79.4169 3.41105C80.1793 3.41105 80.8157 3.57487 81.326 3.90249C81.8426 4.22382 82.227 4.66485 82.479 5.2256C82.7373 5.78004 82.8665 6.40694 82.8665 7.1063V13.873H80.5983Z" fill="#CEE0E0"/>
<path d="M66.4609 14.1663C65.7048 14.1663 65.0811 14.0403 64.5896 13.7882C64.0982 13.5362 63.7075 13.2149 63.4177 12.8243C63.1279 12.4336 62.9137 12.0178 62.7751 11.5768C62.6365 11.1357 62.5451 10.7199 62.501 10.3293C62.4632 9.93234 62.4443 9.61101 62.4443 9.36529V3.66649H64.7503V8.58088C64.7503 8.89591 64.7723 9.25188 64.8164 9.64881C64.8605 10.0394 64.9613 10.4175 65.1189 10.7829C65.2827 11.142 65.5221 11.4382 65.8371 11.6713C66.1584 11.9044 66.59 12.021 67.1319 12.021C67.4217 12.021 67.7084 11.9737 67.9919 11.8792C68.2754 11.7847 68.5306 11.624 68.7574 11.3972C68.9905 11.1641 69.1764 10.8459 69.315 10.4427C69.4536 10.0394 69.5229 9.52911 69.5229 8.91166L70.8744 9.48815C70.8744 10.3576 70.7042 11.1452 70.364 11.8508C70.0301 12.5565 69.5355 13.1204 68.8803 13.5425C68.225 13.9584 67.4185 14.1663 66.4609 14.1663ZM69.797 13.8733V10.7073H69.5229V3.66649H71.81V13.8733H69.797Z" fill="#CEE0E0"/>
<path d="M55.0877 13.8726V3.66581H57.1007V6.15135L56.855 5.83003C56.981 5.4898 57.148 5.18108 57.3559 4.90386C57.5701 4.62033 57.8253 4.38721 58.1214 4.2045C58.3734 4.03439 58.6507 3.90208 58.9531 3.80757C59.2618 3.70676 59.5768 3.6469 59.8982 3.628C60.2195 3.6028 60.5314 3.6154 60.8338 3.66581V5.79223C60.5314 5.70402 60.1817 5.67567 59.7848 5.70717C59.3941 5.73867 59.0413 5.84893 58.7263 6.03795C58.4112 6.20806 58.1529 6.42543 57.9513 6.69005C57.756 6.95467 57.6111 7.25709 57.5166 7.59732C57.4221 7.93125 57.3748 8.29352 57.3748 8.68416V13.8726H55.0877Z" fill="#CEE0E0"/>
<path d="M52.8906 13.8751C52.2164 14.0012 51.5549 14.0547 50.9059 14.0358C50.2633 14.0232 49.6868 13.9067 49.1764 13.6861C48.6661 13.4593 48.2786 13.1033 48.014 12.6182C47.7809 12.1772 47.658 11.7267 47.6454 11.2667C47.6328 10.8068 47.6265 10.287 47.6265 9.70737V0.833115H49.8947V9.57506C49.8947 9.98459 49.8978 10.3437 49.9041 10.6524C49.9167 10.9612 49.9829 11.2132 50.1026 11.4085C50.3294 11.7865 50.6917 11.9976 51.1894 12.0417C51.6872 12.0858 52.2542 12.0606 52.8906 11.9661V13.8751ZM45.7741 5.45453V3.66834H52.8906V5.45453H45.7741Z" fill="#CEE0E0"/>
<path d="M40.4697 14.1574C39.4175 14.1574 38.5197 13.9243 37.7762 13.458C37.0328 12.9855 36.4626 12.3429 36.0656 11.5301C35.675 10.7173 35.4765 9.79745 35.4702 8.77047C35.4765 7.72459 35.6813 6.79842 36.0845 5.99195C36.4941 5.17919 37.0737 4.54284 37.8235 4.0829C38.5732 3.61666 39.4648 3.38355 40.498 3.38355C41.6573 3.38355 42.6371 3.67652 43.4372 4.26246C44.2437 4.84211 44.7698 5.63597 45.0155 6.64405L42.7473 7.25835C42.5709 6.71021 42.2779 6.28492 41.8684 5.9825C41.4589 5.67378 40.9926 5.51941 40.4697 5.51941C39.8774 5.51941 39.3892 5.66118 39.0048 5.9447C38.6205 6.22192 38.337 6.60625 38.1543 7.09769C37.9715 7.58913 37.8802 8.14672 37.8802 8.77047C37.8802 9.74075 38.0976 10.5252 38.5323 11.1237C38.967 11.7223 39.6128 12.0215 40.4697 12.0215C41.0745 12.0215 41.5502 11.8829 41.8968 11.6057C42.2496 11.3285 42.5142 10.9284 42.6906 10.4055L45.0155 10.9252C44.7005 11.9648 44.1492 12.765 43.3616 13.3257C42.5741 13.8802 41.6101 14.1574 40.4697 14.1574Z" fill="#CEE0E0"/>
<path d="M29.3048 14.1574C28.2715 14.1574 27.3643 13.9337 26.583 13.4864C25.8017 13.0391 25.1906 12.4185 24.7495 11.6246C24.3148 10.8307 24.0974 9.91716 24.0974 8.88388C24.0974 7.76869 24.3117 6.80157 24.7401 5.9825C25.1685 5.15714 25.7639 4.51763 26.5263 4.064C27.2886 3.61036 28.1707 3.38355 29.1725 3.38355C30.231 3.38355 31.1288 3.63242 31.866 4.13015C32.6094 4.62159 33.1607 5.3178 33.5198 6.21877C33.879 7.11974 34.0144 8.18138 33.9262 9.40367H31.6675V8.57201C31.6612 7.46312 31.4659 6.6535 31.0815 6.14316C30.6972 5.63282 30.0924 5.37765 29.267 5.37765C28.3345 5.37765 27.6415 5.66748 27.1878 6.24712C26.7342 6.82047 26.5074 7.66158 26.5074 8.77047C26.5074 9.80375 26.7342 10.6039 27.1878 11.171C27.6415 11.738 28.303 12.0215 29.1725 12.0215C29.7332 12.0215 30.2152 11.8987 30.6185 11.653C31.028 11.4009 31.343 11.0387 31.5635 10.5661L33.8128 11.2466C33.4222 12.1664 32.8173 12.8815 31.9983 13.3919C31.1855 13.9022 30.2877 14.1574 29.3048 14.1574ZM25.7891 9.40367V7.68364H32.811V9.40367H25.7891Z" fill="#CEE0E0"/>
<path d="M17.9236 14.1574C16.9281 14.1574 16.0933 13.9211 15.4191 13.4486C14.745 12.9761 14.2378 12.3334 13.8976 11.5206C13.5573 10.7016 13.3872 9.78485 13.3872 8.77047C13.3872 7.74349 13.5573 6.82362 13.8976 6.01085C14.2378 5.19809 14.7355 4.55859 15.3908 4.09235C16.0523 3.61981 16.8682 3.38355 17.8385 3.38355C18.8025 3.38355 19.6373 3.61981 20.343 4.09235C21.0549 4.55859 21.6062 5.19809 21.9968 6.01085C22.3875 6.81732 22.5828 7.73719 22.5828 8.77047C22.5828 9.79115 22.3906 10.7079 22.0063 11.5206C21.622 12.3334 21.0801 12.9761 20.3808 13.4486C19.6814 13.9211 18.8623 14.1574 17.9236 14.1574ZM12.9997 18.4102V3.66707H15.0127V10.8307H15.2963V18.4102H12.9997ZM17.5739 12.116C18.1661 12.116 18.6544 11.968 19.0388 11.6719C19.4231 11.3757 19.7066 10.9756 19.8893 10.4716C20.0783 9.96127 20.1729 9.39422 20.1729 8.77047C20.1729 8.15302 20.0783 7.59228 19.8893 7.08824C19.7003 6.5779 19.4073 6.17467 19.0104 5.87854C18.6135 5.57612 18.1094 5.42491 17.4983 5.42491C16.9186 5.42491 16.4461 5.56667 16.0807 5.85019C15.7152 6.12741 15.4443 6.51804 15.2679 7.02208C15.0978 7.51982 15.0127 8.10262 15.0127 8.77047C15.0127 9.43202 15.0978 10.0148 15.2679 10.5189C15.4443 11.0229 15.7184 11.4167 16.0901 11.7002C16.4682 11.9774 16.9627 12.116 17.5739 12.116Z" fill="#CEE0E0"/>
<path d="M5.63265 14.1574C4.63717 14.1574 3.73935 13.9842 2.93918 13.6376C2.14532 13.2911 1.49007 12.7965 0.973427 12.1539C0.463087 11.5049 0.138611 10.7362 0 9.84788L2.36269 9.48875C2.5643 10.2952 2.97699 10.919 3.60074 11.36C4.23079 11.801 4.95534 12.0216 5.77441 12.0216C6.25955 12.0216 6.71633 11.9459 7.14477 11.7947C7.5732 11.6435 7.91973 11.423 8.18435 11.1332C8.45527 10.8434 8.59073 10.4874 8.59073 10.0652C8.59073 9.87623 8.55923 9.70297 8.49622 9.54546C8.43322 9.38164 8.33871 9.23673 8.2127 9.11072C8.09299 8.98471 7.93548 8.8713 7.74016 8.77049C7.55115 8.66339 7.33063 8.57203 7.07861 8.49642L3.56293 7.45684C3.26051 7.36863 2.93288 7.25207 2.58005 7.10716C2.23353 6.95595 1.90275 6.75118 1.58773 6.49286C1.279 6.22824 1.02383 5.89432 0.822215 5.49108C0.6269 5.08155 0.529242 4.57751 0.529242 3.97896C0.529242 3.10319 0.749759 2.36918 1.19079 1.77694C1.63813 1.17839 2.23668 0.731055 2.98644 0.434931C3.7425 0.138808 4.58046 -0.00610389 5.50034 0.000196909C6.43281 0.00649695 7.26448 0.16716 7.99533 0.482185C8.72619 0.79091 9.33734 1.2414 9.82878 1.83364C10.3202 2.42589 10.6667 3.141 10.8684 3.97896L8.42062 4.40425C8.31981 3.92541 8.12449 3.51903 7.83467 3.1851C7.55115 2.84487 7.20147 2.58655 6.78564 2.41014C6.37611 2.23372 5.93822 2.13922 5.47198 2.12662C5.01835 2.12032 4.59621 2.18962 4.20558 2.33453C3.82125 2.47314 3.50938 2.67476 3.26996 2.93938C3.03684 3.204 2.92028 3.51273 2.92028 3.86555C2.92028 4.19948 3.02109 4.47355 3.22271 4.68777C3.42432 4.89569 3.67319 5.06265 3.96931 5.18866C4.27174 5.30837 4.57731 5.40918 4.88604 5.49108L7.32433 6.17154C7.65826 6.25974 8.03314 6.37945 8.44897 6.53067C8.8648 6.68188 9.26488 6.89294 9.64921 7.16387C10.0335 7.43479 10.3486 7.79077 10.5943 8.2318C10.8463 8.67284 10.9723 9.23358 10.9723 9.91404C10.9723 10.6197 10.8243 11.2403 10.5281 11.7758C10.2383 12.3051 9.84453 12.7461 9.34679 13.0989C8.84905 13.4518 8.27886 13.7164 7.63621 13.8928C6.99986 14.0692 6.332 14.1574 5.63265 14.1574Z" fill="#CEE0E0"/>
</svg>
