<svg width="163" height="412" viewBox="0 0 163 412" fill="none" xmlns="http://www.w3.org/2000/svg">
<path opacity="0.11" d="M80.4873 319.016C80.5683 318.762 80.4273 318.489 80.1726 318.408C79.9178 318.326 79.6456 318.467 79.5647 318.722C79.4838 318.976 79.6247 319.249 79.8795 319.33C80.1343 319.412 80.4064 319.271 80.4873 319.016Z" fill="white" fill-opacity="0.8"/>
<path d="M83.4962 318.329C83.5569 318.138 83.4512 317.934 83.2602 317.873C83.0692 317.812 82.8651 317.917 82.8045 318.108C82.7438 318.299 82.8494 318.504 83.0405 318.565C83.2315 318.626 83.4356 318.52 83.4962 318.329Z" fill="white" fill-opacity="0.8"/>
<path d="M81.0736 309.176C81.1343 308.985 81.0286 308.781 80.8376 308.72C80.6466 308.659 80.4425 308.764 80.3818 308.955C80.3211 309.146 80.4268 309.35 80.6179 309.411C80.8089 309.472 81.0129 309.367 81.0736 309.176Z" fill="white" fill-opacity="0.8"/>
<path d="M74.386 328.624C74.4467 328.433 74.341 328.228 74.1499 328.167C73.9589 328.106 73.7549 328.212 73.6942 328.403C73.6335 328.594 73.7392 328.798 73.9302 328.859C74.1212 328.92 74.3253 328.815 74.386 328.624Z" fill="white" fill-opacity="0.8"/>
<path opacity="0.11" d="M76.2946 341.801C76.3756 341.546 76.2346 341.274 75.9798 341.192C75.7251 341.111 75.4529 341.251 75.372 341.506C75.2911 341.761 75.432 342.033 75.6868 342.115C75.9416 342.196 76.2137 342.056 76.2946 341.801Z" fill="white" fill-opacity="0.8"/>
<path d="M69.83 344.561C69.8704 344.434 69.8 344.297 69.6728 344.257C69.5455 344.216 69.4095 344.286 69.3691 344.414C69.3286 344.541 69.3991 344.677 69.5263 344.718C69.6536 344.758 69.7896 344.688 69.83 344.561Z" fill="white" fill-opacity="0.8"/>
<path d="M89.258 322.581C89.2984 322.454 89.228 322.318 89.1007 322.277C88.9734 322.236 88.8375 322.307 88.797 322.434C88.7566 322.561 88.827 322.697 88.9543 322.738C89.0816 322.778 89.2175 322.708 89.258 322.581Z" fill="white" fill-opacity="0.8"/>
<path d="M105.226 272.327C105.266 272.2 105.196 272.064 105.069 272.023C104.941 271.983 104.805 272.053 104.765 272.18C104.724 272.307 104.795 272.443 104.922 272.484C105.049 272.525 105.185 272.454 105.226 272.327Z" fill="white" fill-opacity="0.8"/>
<path d="M100.758 243.222C100.798 243.095 100.728 242.959 100.6 242.918C100.473 242.878 100.337 242.948 100.297 243.075C100.256 243.202 100.327 243.339 100.454 243.379C100.581 243.42 100.717 243.35 100.758 243.222Z" fill="white" fill-opacity="0.8"/>
<path d="M120.445 239.608C120.486 239.481 120.415 239.345 120.288 239.304C120.161 239.263 120.025 239.334 119.984 239.461C119.944 239.588 120.014 239.724 120.142 239.765C120.269 239.805 120.405 239.735 120.445 239.608Z" fill="white" fill-opacity="0.8"/>
<path d="M59.1059 397.507C59.1464 397.38 59.076 397.244 58.9487 397.203C58.8214 397.162 58.6854 397.233 58.645 397.36C58.6046 397.487 58.675 397.623 58.8023 397.664C58.9296 397.704 59.0655 397.634 59.1059 397.507Z" fill="white" fill-opacity="0.8"/>
<path opacity="0.11" d="M45.5548 396.987C45.5953 396.86 45.5248 396.724 45.3976 396.683C45.2703 396.643 45.1343 396.713 45.0939 396.84C45.0535 396.967 45.1239 397.103 45.2511 397.144C45.3784 397.185 45.5144 397.115 45.5548 396.987Z" fill="white" fill-opacity="0.8"/>
<path opacity="0.11" d="M47.7097 408.593C47.7501 408.465 47.6798 408.329 47.5525 408.288C47.4252 408.248 47.2892 408.318 47.2488 408.445C47.2084 408.573 47.2788 408.709 47.4061 408.749C47.5333 408.79 47.6693 408.72 47.7097 408.593Z" fill="white" fill-opacity="0.8"/>
<path opacity="0.11" d="M63.9609 405.404C64.0014 405.277 63.9309 405.141 63.8036 405.1C63.6764 405.059 63.5404 405.13 63.5 405.257C63.4596 405.384 63.53 405.52 63.6572 405.561C63.7845 405.601 63.9205 405.531 63.9609 405.404Z" fill="white" fill-opacity="0.8"/>
<path opacity="0.11" d="M72.1686 347.595C72.209 347.468 72.1386 347.332 72.0114 347.291C71.8841 347.25 71.7481 347.32 71.7077 347.448C71.6673 347.575 71.7377 347.711 71.8649 347.752C71.9922 347.792 72.1282 347.722 72.1686 347.595Z" fill="white" fill-opacity="0.8"/>
<path opacity="0.11" d="M97.4148 325.693C97.4552 325.566 97.3848 325.43 97.2575 325.389C97.1303 325.349 96.9943 325.419 96.9539 325.546C96.9134 325.673 96.9838 325.809 97.1111 325.85C97.2384 325.891 97.3744 325.821 97.4148 325.693Z" fill="white" fill-opacity="0.8"/>
<path opacity="0.11" d="M109.17 280.697C109.211 280.57 109.14 280.434 109.013 280.393C108.886 280.352 108.75 280.423 108.709 280.55C108.669 280.677 108.739 280.813 108.867 280.854C108.994 280.894 109.13 280.824 109.17 280.697Z" fill="white" fill-opacity="0.8"/>
<path opacity="0.3" d="M56.7087 385.062C56.7491 384.934 56.6787 384.798 56.5515 384.758C56.4242 384.717 56.2882 384.787 56.2478 384.914C56.2073 385.042 56.2778 385.178 56.4051 385.219C56.5323 385.259 56.6683 385.189 56.7087 385.062Z" fill="white" fill-opacity="0.8"/>
<path d="M61.1027 328.061C61.1431 327.934 61.0727 327.798 60.9454 327.757C60.8181 327.717 60.6822 327.787 60.6417 327.914C60.6013 328.041 60.6717 328.178 60.799 328.218C60.9263 328.259 61.0622 328.189 61.1027 328.061Z" fill="white" fill-opacity="0.8"/>
<path d="M71.9225 292.416C71.9629 292.288 71.8925 292.152 71.7652 292.112C71.6379 292.071 71.502 292.141 71.4615 292.268C71.4211 292.396 71.4915 292.532 71.6188 292.572C71.7461 292.613 71.882 292.543 71.9225 292.416Z" fill="white" fill-opacity="0.8"/>
<path d="M77.3362 350.514C77.3767 350.387 77.3063 350.25 77.179 350.21C77.0517 350.169 76.9158 350.239 76.8753 350.367C76.8349 350.494 76.9053 350.63 77.0326 350.671C77.1599 350.711 77.2958 350.641 77.3362 350.514Z" fill="white" fill-opacity="0.8"/>
<path opacity="0.3" d="M72.2096 366.652C72.2501 366.524 72.1797 366.388 72.0524 366.348C71.9251 366.307 71.7892 366.377 71.7487 366.504C71.7083 366.632 71.7787 366.768 71.906 366.808C72.0333 366.849 72.1692 366.779 72.2096 366.652Z" fill="white" fill-opacity="0.8"/>
<path opacity="0.11" d="M51.9103 380.986C51.9508 380.859 51.8804 380.723 51.7531 380.682C51.6258 380.642 51.4898 380.712 51.4494 380.839C51.409 380.966 51.4794 381.102 51.6067 381.143C51.734 381.184 51.8699 381.113 51.9103 380.986Z" fill="white" fill-opacity="0.8"/>
<path opacity="0.3" d="M67.9564 325.68C67.9968 325.553 67.9264 325.416 67.7991 325.376C67.6718 325.335 67.5359 325.405 67.4954 325.533C67.455 325.66 67.5254 325.796 67.6527 325.837C67.78 325.877 67.9159 325.807 67.9564 325.68Z" fill="white" fill-opacity="0.8"/>
<path opacity="0.3" d="M82.965 347.993C83.0054 347.866 82.935 347.73 82.8077 347.689C82.6804 347.649 82.5445 347.719 82.504 347.846C82.4636 347.974 82.534 348.11 82.6613 348.15C82.7886 348.191 82.9245 348.121 82.965 347.993Z" fill="white" fill-opacity="0.8"/>
<path opacity="0.3" d="M76.4063 376.625C76.4467 376.498 76.3763 376.362 76.249 376.321C76.1217 376.281 75.9858 376.351 75.9453 376.478C75.9049 376.606 75.9753 376.742 76.1026 376.782C76.2299 376.823 76.3658 376.753 76.4063 376.625Z" fill="white" fill-opacity="0.8"/>
<path opacity="0.3" d="M58.8344 378.374C58.8748 378.247 58.8044 378.111 58.6771 378.07C58.5498 378.029 58.4139 378.1 58.3734 378.227C58.333 378.354 58.4034 378.49 58.5307 378.531C58.658 378.572 58.7939 378.501 58.8344 378.374Z" fill="white" fill-opacity="0.8"/>
<path opacity="0.3" d="M103.698 234.769C103.738 234.641 103.668 234.505 103.541 234.465C103.413 234.424 103.277 234.494 103.237 234.621C103.197 234.749 103.267 234.885 103.394 234.925C103.522 234.966 103.658 234.896 103.698 234.769Z" fill="white" fill-opacity="0.8"/>
<path opacity="0.11" d="M82.4531 268.861C82.4935 268.734 82.4231 268.598 82.2958 268.557C82.1685 268.517 82.0326 268.587 81.9922 268.714C81.9517 268.841 82.0221 268.977 82.1494 269.018C82.2767 269.059 82.4127 268.989 82.4531 268.861Z" fill="white" fill-opacity="0.8"/>
<path opacity="0.11" d="M111.636 244.158C111.676 244.031 111.606 243.895 111.479 243.854C111.351 243.814 111.216 243.884 111.175 244.011C111.135 244.138 111.205 244.274 111.332 244.315C111.46 244.356 111.596 244.286 111.636 244.158Z" fill="white" fill-opacity="0.8"/>
<path opacity="0.3" d="M95.1795 303.146C95.2604 302.891 95.1195 302.619 94.8647 302.538C94.6099 302.456 94.3377 302.597 94.2568 302.851C94.1759 303.106 94.3168 303.379 94.5716 303.46C94.8264 303.541 95.0985 303.401 95.1795 303.146Z" fill="white" fill-opacity="0.8"/>
<path opacity="0.11" d="M92.5849 287.335C92.6658 287.08 92.5249 286.807 92.2701 286.726C92.0153 286.645 91.7432 286.785 91.6622 287.04C91.5813 287.295 91.7222 287.567 91.977 287.648C92.2318 287.73 92.504 287.589 92.5849 287.335Z" fill="white" fill-opacity="0.8"/>
<path d="M84.479 284.872C84.5397 284.681 84.434 284.476 84.243 284.415C84.0519 284.354 83.8479 284.46 83.7872 284.651C83.7265 284.842 83.8322 285.046 84.0232 285.107C84.2142 285.168 84.4183 285.063 84.479 284.872Z" fill="white" fill-opacity="0.8"/>
<path d="M103.635 308.51C103.696 308.319 103.59 308.114 103.399 308.053C103.208 307.992 103.004 308.098 102.944 308.289C102.883 308.48 102.989 308.684 103.18 308.745C103.371 308.806 103.575 308.701 103.635 308.51Z" fill="white" fill-opacity="0.8"/>
<path d="M132.562 233.447C132.623 233.256 132.517 233.052 132.326 232.991C132.135 232.93 131.931 233.035 131.871 233.226C131.81 233.417 131.916 233.622 132.107 233.683C132.298 233.744 132.502 233.638 132.562 233.447Z" fill="white" fill-opacity="0.8"/>
<path d="M81.1087 381.81C81.1694 381.619 81.0638 381.415 80.8727 381.354C80.6817 381.292 80.4776 381.398 80.417 381.589C80.3563 381.78 80.4619 381.984 80.653 382.045C80.844 382.106 81.0481 382.001 81.1087 381.81Z" fill="white" fill-opacity="0.8"/>
<path d="M66.0669 410.774C66.1276 410.583 66.0219 410.379 65.8309 410.318C65.6399 410.257 65.4358 410.362 65.3751 410.553C65.3145 410.744 65.4201 410.949 65.6112 411.01C65.8022 411.071 66.0063 410.965 66.0669 410.774Z" fill="white" fill-opacity="0.8"/>
<path d="M55.5969 411.747C55.6576 411.556 55.5519 411.352 55.3609 411.291C55.1698 411.23 54.9658 411.335 54.9051 411.526C54.8444 411.717 54.9501 411.921 55.1411 411.983C55.3321 412.044 55.5362 411.938 55.5969 411.747Z" fill="white" fill-opacity="0.8"/>
<path d="M85.577 297.409C85.6377 297.218 85.532 297.013 85.341 296.952C85.1499 296.891 84.9459 296.997 84.8852 297.188C84.8245 297.379 84.9302 297.583 85.1212 297.644C85.3123 297.705 85.5163 297.6 85.577 297.409Z" fill="white" fill-opacity="0.8"/>
<path d="M89.8928 342.972C89.9535 342.781 89.8478 342.576 89.6568 342.515C89.4657 342.454 89.2617 342.56 89.201 342.751C89.1403 342.942 89.246 343.146 89.437 343.207C89.6281 343.268 89.8321 343.163 89.8928 342.972Z" fill="white" fill-opacity="0.8"/>
<path d="M118.265 288.044C118.326 287.853 118.22 287.649 118.029 287.588C117.838 287.527 117.634 287.632 117.573 287.823C117.512 288.014 117.618 288.219 117.809 288.28C118 288.341 118.204 288.235 118.265 288.044Z" fill="white" fill-opacity="0.8"/>
<path d="M121.995 221.948C122.055 221.757 121.95 221.552 121.759 221.491C121.568 221.43 121.363 221.536 121.303 221.727C121.242 221.918 121.348 222.122 121.539 222.183C121.73 222.244 121.934 222.139 121.995 221.948Z" fill="white" fill-opacity="0.8"/>
<path d="M111.069 212.364C111.13 212.173 111.024 211.969 110.833 211.908C110.642 211.847 110.438 211.953 110.378 212.144C110.317 212.335 110.423 212.539 110.614 212.6C110.805 212.661 111.009 212.555 111.069 212.364Z" fill="white" fill-opacity="0.8"/>
<path opacity="0.3" d="M90.7503 265.927C90.8313 265.673 90.6903 265.4 90.4355 265.319C90.1808 265.238 89.9086 265.378 89.8277 265.633C89.7468 265.887 89.8877 266.16 90.1425 266.241C90.3972 266.323 90.6694 266.182 90.7503 265.927Z" fill="white" fill-opacity="0.8"/>
<path d="M74.38 260.697C74.4609 260.443 74.32 260.17 74.0652 260.089C73.8104 260.007 73.5383 260.148 73.4573 260.403C73.3764 260.657 73.5173 260.93 73.7721 261.011C74.0269 261.093 74.299 260.952 74.38 260.697Z" fill="white" fill-opacity="0.8"/>
<path d="M99.597 255.673C99.6576 255.482 99.552 255.278 99.3609 255.217C99.1699 255.156 98.9659 255.261 98.9052 255.452C98.8445 255.643 98.9502 255.847 99.1412 255.908C99.3322 255.969 99.5363 255.864 99.597 255.673Z" fill="white" fill-opacity="0.8"/>
<path opacity="0.3" d="M94.1576 241.619C94.2385 241.364 94.0976 241.092 93.8428 241.01C93.588 240.929 93.3159 241.07 93.235 241.324C93.154 241.579 93.295 241.852 93.5498 241.933C93.8045 242.014 94.0767 241.874 94.1576 241.619Z" fill="white" fill-opacity="0.8"/>
<path opacity="0.3" d="M117.778 224.026C117.859 223.771 117.718 223.498 117.463 223.417C117.209 223.336 116.937 223.476 116.856 223.731C116.775 223.986 116.916 224.258 117.17 224.34C117.425 224.421 117.697 224.28 117.778 224.026Z" fill="white" fill-opacity="0.8"/>
<path opacity="0.3" d="M109.668 251.147C109.749 250.893 109.608 250.62 109.354 250.539C109.099 250.457 108.827 250.598 108.746 250.853C108.665 251.107 108.806 251.38 109.06 251.461C109.315 251.543 109.587 251.402 109.668 251.147Z" fill="white" fill-opacity="0.8"/>
<path opacity="0.3" d="M71.547 384.72C71.628 384.466 71.487 384.193 71.2323 384.112C70.9775 384.031 70.7053 384.171 70.6244 384.426C70.5435 384.681 70.6844 384.953 70.9392 385.034C71.194 385.116 71.4661 384.975 71.547 384.72Z" fill="white" fill-opacity="0.8"/>
<path opacity="0.3" d="M52.9338 399.344C53.0147 399.089 52.8738 398.817 52.619 398.736C52.3642 398.654 52.0921 398.795 52.0112 399.05C51.9302 399.304 52.0712 399.577 52.3259 399.658C52.5807 399.739 52.8529 399.599 52.9338 399.344Z" fill="white" fill-opacity="0.8"/>
<path opacity="0.11" d="M107.855 231.27C107.936 231.015 107.795 230.743 107.54 230.662C107.286 230.58 107.014 230.721 106.933 230.975C106.852 231.23 106.993 231.503 107.247 231.584C107.502 231.665 107.774 231.525 107.855 231.27Z" fill="white" fill-opacity="0.8"/>
<path opacity="0.3" d="M55.5675 363.874C55.6484 363.619 55.5074 363.347 55.2527 363.266C54.9979 363.184 54.7257 363.325 54.6448 363.579C54.5639 363.834 54.7048 364.107 54.9596 364.188C55.2144 364.269 55.4865 364.129 55.5675 363.874Z" fill="white" fill-opacity="0.8"/>
<path opacity="0.11" d="M48.9795 368.626C49.0604 368.371 48.9194 368.098 48.6647 368.017C48.4099 367.936 48.1377 368.076 48.0568 368.331C47.9759 368.586 48.1168 368.858 48.3716 368.939C48.6264 369.021 48.8985 368.88 48.9795 368.626Z" fill="white" fill-opacity="0.8"/>
<path opacity="0.3" d="M63.1499 375.184C63.2308 374.93 63.0899 374.657 62.8351 374.576C62.5803 374.494 62.3082 374.635 62.2273 374.89C62.1463 375.144 62.2873 375.417 62.542 375.498C62.7968 375.58 63.069 375.439 63.1499 375.184Z" fill="white" fill-opacity="0.8"/>
<path d="M67.4971 360.702C67.5578 360.511 67.4521 360.307 67.2611 360.246C67.07 360.185 66.866 360.29 66.8053 360.481C66.7446 360.672 66.8503 360.876 67.0413 360.937C67.2324 360.998 67.4364 360.893 67.4971 360.702Z" fill="white" fill-opacity="0.8"/>
<path opacity="0.11" d="M35.4029 216.805C35.4839 216.55 35.3429 216.277 35.0882 216.196C34.8334 216.115 34.5612 216.255 34.4803 216.51C34.3994 216.765 34.5403 217.037 34.7951 217.119C35.0499 217.2 35.322 217.059 35.4029 216.805Z" fill="white" fill-opacity="0.8"/>
<path d="M38.4138 216.118C38.4745 215.927 38.3688 215.722 38.1778 215.661C37.9867 215.6 37.7827 215.706 37.722 215.897C37.6613 216.088 37.767 216.292 37.958 216.353C38.1491 216.414 38.3531 216.309 38.4138 216.118Z" fill="white" fill-opacity="0.8"/>
<path d="M35.9911 206.962C36.0518 206.771 35.9462 206.567 35.7551 206.506C35.5641 206.445 35.36 206.55 35.2993 206.741C35.2387 206.932 35.3443 207.137 35.5354 207.198C35.7264 207.259 35.9305 207.153 35.9911 206.962Z" fill="white" fill-opacity="0.8"/>
<path d="M29.3035 226.412C29.3642 226.221 29.2585 226.017 29.0675 225.956C28.8765 225.895 28.6724 226 28.6117 226.191C28.551 226.382 28.6567 226.586 28.8478 226.647C29.0388 226.708 29.2428 226.603 29.3035 226.412Z" fill="white" fill-opacity="0.8"/>
<path opacity="0.11" d="M31.2122 239.591C31.2931 239.336 31.1522 239.064 30.8974 238.983C30.6426 238.901 30.3704 239.042 30.2895 239.296C30.2086 239.551 30.3495 239.824 30.6043 239.905C30.8591 239.986 31.1312 239.846 31.2122 239.591Z" fill="white" fill-opacity="0.8"/>
<path d="M24.7475 242.349C24.788 242.222 24.7176 242.086 24.5903 242.045C24.463 242.004 24.327 242.075 24.2866 242.202C24.2462 242.329 24.3166 242.465 24.4439 242.506C24.5712 242.547 24.7071 242.476 24.7475 242.349Z" fill="white" fill-opacity="0.8"/>
<path d="M44.1755 220.372C44.2159 220.244 44.1455 220.108 44.0182 220.067C43.891 220.027 43.755 220.097 43.7146 220.224C43.6741 220.352 43.7445 220.488 43.8718 220.528C43.9991 220.569 44.1351 220.499 44.1755 220.372Z" fill="white" fill-opacity="0.8"/>
<path d="M60.1433 170.115C60.1838 169.988 60.1134 169.852 59.9861 169.811C59.8588 169.771 59.7228 169.841 59.6824 169.968C59.642 170.095 59.7124 170.231 59.8397 170.272C59.967 170.313 60.1029 170.243 60.1433 170.115Z" fill="white" fill-opacity="0.8"/>
<path d="M55.6732 141.012C55.7136 140.885 55.6432 140.749 55.5159 140.708C55.3887 140.668 55.2527 140.738 55.2123 140.865C55.1718 140.992 55.2422 141.129 55.3695 141.169C55.4968 141.21 55.6328 141.14 55.6732 141.012Z" fill="white" fill-opacity="0.8"/>
<path d="M75.3629 137.396C75.4034 137.269 75.3329 137.133 75.2057 137.092C75.0784 137.051 74.9424 137.122 74.902 137.249C74.8616 137.376 74.932 137.512 75.0593 137.553C75.1865 137.594 75.3225 137.523 75.3629 137.396Z" fill="white" fill-opacity="0.8"/>
<path d="M14.0215 295.295C14.062 295.168 13.9916 295.032 13.8643 294.991C13.737 294.951 13.601 295.021 13.5606 295.148C13.5202 295.275 13.5906 295.412 13.7179 295.452C13.8451 295.493 13.9811 295.423 14.0215 295.295Z" fill="white" fill-opacity="0.8"/>
<path opacity="0.11" d="M0.472341 294.774C0.512771 294.646 0.442362 294.51 0.31508 294.47C0.187798 294.429 0.0518497 294.499 0.011419 294.626C-0.0290116 294.754 0.0413858 294.89 0.168668 294.931C0.29595 294.971 0.43191 294.901 0.472341 294.774Z" fill="white" fill-opacity="0.8"/>
<path opacity="0.11" d="M2.62536 306.381C2.66579 306.254 2.59539 306.117 2.46811 306.077C2.34083 306.036 2.20487 306.106 2.16444 306.234C2.12401 306.361 2.19442 306.497 2.3217 306.538C2.44898 306.578 2.58493 306.508 2.62536 306.381Z" fill="white" fill-opacity="0.8"/>
<path opacity="0.11" d="M18.8785 303.192C18.9189 303.065 18.8485 302.929 18.7213 302.888C18.594 302.848 18.458 302.918 18.4176 303.045C18.3772 303.172 18.4476 303.309 18.5748 303.349C18.7021 303.39 18.8381 303.32 18.8785 303.192Z" fill="white" fill-opacity="0.8"/>
<path opacity="0.11" d="M27.0842 245.381C27.1246 245.254 27.0542 245.118 26.9269 245.077C26.7996 245.037 26.6637 245.107 26.6233 245.234C26.5828 245.361 26.6532 245.497 26.7805 245.538C26.9078 245.579 27.0438 245.509 27.0842 245.381Z" fill="white" fill-opacity="0.8"/>
<path opacity="0.11" d="M52.3304 223.482C52.3708 223.355 52.3004 223.218 52.1731 223.178C52.0458 223.137 51.9099 223.207 51.8695 223.335C51.829 223.462 51.8994 223.598 52.0267 223.639C52.154 223.679 52.2899 223.609 52.3304 223.482Z" fill="white" fill-opacity="0.8"/>
<path opacity="0.11" d="M64.086 178.485C64.1264 178.358 64.056 178.222 63.9287 178.181C63.8014 178.14 63.6655 178.211 63.6251 178.338C63.5846 178.465 63.655 178.601 63.7823 178.642C63.9096 178.683 64.0456 178.612 64.086 178.485Z" fill="white" fill-opacity="0.8"/>
<path opacity="0.3" d="M11.6262 282.848C11.6667 282.721 11.5963 282.585 11.469 282.544C11.3417 282.503 11.2057 282.574 11.1653 282.701C11.1249 282.828 11.1953 282.964 11.3226 283.005C11.4499 283.046 11.5858 282.975 11.6262 282.848Z" fill="white" fill-opacity="0.8"/>
<path d="M16.0202 225.852C16.0606 225.725 15.9902 225.588 15.8629 225.548C15.7357 225.507 15.5997 225.577 15.5593 225.705C15.5188 225.832 15.5892 225.968 15.7165 226.009C15.8438 226.049 15.9798 225.979 16.0202 225.852Z" fill="white" fill-opacity="0.8"/>
<path d="M26.838 190.204C26.8785 190.077 26.8081 189.941 26.6808 189.9C26.5535 189.859 26.4175 189.929 26.3771 190.057C26.3367 190.184 26.4071 190.32 26.5344 190.361C26.6616 190.401 26.7976 190.331 26.838 190.204Z" fill="white" fill-opacity="0.8"/>
<path d="M32.2518 248.302C32.2922 248.175 32.2218 248.039 32.0946 247.998C31.9673 247.957 31.8313 248.028 31.7909 248.155C31.7505 248.282 31.8209 248.418 31.9481 248.459C32.0754 248.5 32.2114 248.429 32.2518 248.302Z" fill="white" fill-opacity="0.8"/>
<path opacity="0.3" d="M27.1252 264.44C27.1657 264.313 27.0953 264.177 26.968 264.136C26.8407 264.095 26.7047 264.166 26.6643 264.293C26.6239 264.42 26.6943 264.556 26.8216 264.597C26.9489 264.637 27.0848 264.567 27.1252 264.44Z" fill="white" fill-opacity="0.8"/>
<path opacity="0.11" d="M6.82592 278.775C6.86635 278.647 6.79594 278.511 6.66866 278.471C6.54138 278.43 6.40541 278.5 6.36498 278.627C6.32455 278.755 6.39496 278.891 6.52225 278.931C6.64953 278.972 6.78549 278.902 6.82592 278.775Z" fill="white" fill-opacity="0.8"/>
<path opacity="0.3" d="M22.8739 223.468C22.9143 223.341 22.8439 223.205 22.7166 223.164C22.5893 223.124 22.4534 223.194 22.413 223.321C22.3725 223.448 22.4429 223.584 22.5702 223.625C22.6975 223.666 22.8335 223.595 22.8739 223.468Z" fill="white" fill-opacity="0.8"/>
<path opacity="0.3" d="M37.8786 245.782C37.919 245.655 37.8486 245.518 37.7213 245.478C37.5941 245.437 37.4581 245.507 37.4177 245.635C37.3772 245.762 37.4476 245.898 37.5749 245.939C37.7022 245.979 37.8382 245.909 37.8786 245.782Z" fill="white" fill-opacity="0.8"/>
<path opacity="0.3" d="M31.3219 274.412C31.3623 274.285 31.2919 274.148 31.1646 274.108C31.0373 274.067 30.9014 274.137 30.8609 274.265C30.8205 274.392 30.8909 274.528 31.0182 274.569C31.1455 274.609 31.2814 274.539 31.3219 274.412Z" fill="white" fill-opacity="0.8"/>
<path opacity="0.3" d="M13.7519 276.162C13.7923 276.035 13.7219 275.899 13.5947 275.858C13.4674 275.818 13.3314 275.888 13.291 276.015C13.2505 276.142 13.321 276.279 13.4482 276.319C13.5755 276.36 13.7115 276.29 13.7519 276.162Z" fill="white" fill-opacity="0.8"/>
<path opacity="0.3" d="M58.6155 132.557C58.656 132.429 58.5856 132.293 58.4583 132.253C58.331 132.212 58.195 132.282 58.1546 132.409C58.1142 132.537 58.1846 132.673 58.3119 132.714C58.4391 132.754 58.5751 132.684 58.6155 132.557Z" fill="white" fill-opacity="0.8"/>
<path opacity="0.11" d="M37.3686 166.651C37.4091 166.524 37.3387 166.388 37.2114 166.347C37.0841 166.307 36.9481 166.377 36.9077 166.504C36.8673 166.631 36.9377 166.767 37.065 166.808C37.1923 166.849 37.3282 166.779 37.3686 166.651Z" fill="white" fill-opacity="0.8"/>
<path opacity="0.11" d="M66.5496 141.946C66.5901 141.819 66.5197 141.683 66.3924 141.642C66.2651 141.602 66.1292 141.672 66.0887 141.799C66.0483 141.926 66.1187 142.063 66.246 142.103C66.3733 142.144 66.5092 142.074 66.5496 141.946Z" fill="white" fill-opacity="0.8"/>
<path opacity="0.3" d="M50.097 200.933C50.1779 200.678 50.037 200.405 49.7822 200.324C49.5274 200.243 49.2552 200.383 49.1743 200.638C49.0934 200.893 49.2343 201.165 49.4891 201.246C49.7439 201.328 50.016 201.187 50.097 200.933Z" fill="white" fill-opacity="0.8"/>
<path opacity="0.11" d="M47.5024 185.123C47.5833 184.868 47.4424 184.596 47.1876 184.514C46.9328 184.433 46.6607 184.573 46.5797 184.828C46.4988 185.083 46.6397 185.355 46.8945 185.437C47.1493 185.518 47.4214 185.378 47.5024 185.123Z" fill="white" fill-opacity="0.8"/>
<path d="M39.3945 182.658C39.4552 182.467 39.3495 182.263 39.1585 182.202C38.9675 182.141 38.7634 182.246 38.7027 182.437C38.642 182.628 38.7477 182.832 38.9387 182.893C39.1298 182.954 39.3338 182.849 39.3945 182.658Z" fill="white" fill-opacity="0.8"/>
<path d="M58.5528 206.298C58.6135 206.107 58.5078 205.903 58.3168 205.842C58.1258 205.781 57.9217 205.886 57.8611 206.077C57.8004 206.268 57.906 206.472 58.0971 206.533C58.2881 206.594 58.4922 206.489 58.5528 206.298Z" fill="white" fill-opacity="0.8"/>
<path d="M87.4799 131.235C87.5406 131.044 87.4349 130.84 87.2439 130.779C87.0528 130.718 86.8488 130.823 86.7881 131.014C86.7274 131.205 86.8331 131.41 87.0241 131.471C87.2152 131.532 87.4192 131.426 87.4799 131.235Z" fill="white" fill-opacity="0.8"/>
<path d="M36.0244 279.598C36.0851 279.407 35.9794 279.203 35.7884 279.142C35.5973 279.081 35.3933 279.186 35.3326 279.377C35.2719 279.568 35.3776 279.773 35.5686 279.834C35.7597 279.895 35.9637 279.789 36.0244 279.598Z" fill="white" fill-opacity="0.8"/>
<path d="M20.9806 308.561C21.0413 308.37 20.9356 308.165 20.7445 308.104C20.5535 308.043 20.3495 308.149 20.2888 308.34C20.2281 308.531 20.3338 308.735 20.5248 308.796C20.7158 308.857 20.9199 308.752 20.9806 308.561Z" fill="white" fill-opacity="0.8"/>
<path d="M10.5125 309.536C10.5732 309.345 10.4675 309.14 10.2765 309.079C10.0854 309.018 9.88137 309.124 9.82069 309.315C9.76001 309.506 9.86568 309.71 10.0567 309.771C10.2477 309.832 10.4518 309.726 10.5125 309.536Z" fill="white" fill-opacity="0.8"/>
<path d="M40.4925 195.197C40.5532 195.006 40.4475 194.802 40.2565 194.741C40.0655 194.68 39.8614 194.785 39.8007 194.976C39.74 195.167 39.8457 195.371 40.0368 195.432C40.2278 195.493 40.4318 195.388 40.4925 195.197Z" fill="white" fill-opacity="0.8"/>
<path d="M44.8103 240.758C44.871 240.567 44.7653 240.363 44.5743 240.302C44.3833 240.241 44.1792 240.346 44.1185 240.537C44.0579 240.728 44.1635 240.932 44.3546 240.993C44.5456 241.054 44.7496 240.949 44.8103 240.758Z" fill="white" fill-opacity="0.8"/>
<path d="M73.1824 185.833C73.2431 185.642 73.1374 185.437 72.9464 185.376C72.7554 185.315 72.5513 185.421 72.4906 185.612C72.4299 185.803 72.5356 186.007 72.7267 186.068C72.9177 186.129 73.1217 186.024 73.1824 185.833Z" fill="white" fill-opacity="0.8"/>
<path d="M76.9102 119.734C76.9708 119.543 76.8652 119.338 76.6741 119.277C76.4831 119.216 76.2791 119.322 76.2184 119.513C76.1577 119.704 76.2634 119.908 76.4544 119.969C76.6454 120.03 76.8495 119.925 76.9102 119.734Z" fill="white" fill-opacity="0.8"/>
<path d="M65.9868 110.153C66.0475 109.962 65.9418 109.757 65.7508 109.696C65.5598 109.635 65.3557 109.741 65.295 109.932C65.2344 110.123 65.34 110.327 65.5311 110.388C65.7221 110.449 65.9262 110.344 65.9868 110.153Z" fill="white" fill-opacity="0.8"/>
<path opacity="0.3" d="M45.6678 163.714C45.7488 163.459 45.6078 163.186 45.353 163.105C45.0983 163.024 44.8261 163.164 44.7452 163.419C44.6643 163.674 44.8052 163.946 45.06 164.027C45.3148 164.109 45.5869 163.968 45.6678 163.714Z" fill="white" fill-opacity="0.8"/>
<path d="M29.2975 158.485C29.3784 158.231 29.2375 157.958 28.9827 157.877C28.7279 157.795 28.4558 157.936 28.3748 158.191C28.2939 158.445 28.4348 158.718 28.6896 158.799C28.9444 158.881 29.2166 158.74 29.2975 158.485Z" fill="white" fill-opacity="0.8"/>
<path d="M54.5125 153.461C54.5732 153.27 54.4675 153.066 54.2765 153.005C54.0855 152.944 53.8814 153.049 53.8208 153.24C53.7601 153.431 53.8657 153.635 54.0568 153.696C54.2478 153.757 54.4519 153.652 54.5125 153.461Z" fill="white" fill-opacity="0.8"/>
<path opacity="0.3" d="M49.0732 139.407C49.1541 139.152 49.0132 138.88 48.7584 138.799C48.5036 138.717 48.2315 138.858 48.1506 139.112C48.0696 139.367 48.2106 139.64 48.4653 139.721C48.7201 139.802 48.9923 139.662 49.0732 139.407Z" fill="white" fill-opacity="0.8"/>
<path opacity="0.3" d="M72.6939 121.818C72.7748 121.563 72.6339 121.29 72.3791 121.209C72.1243 121.128 71.8522 121.268 71.7712 121.523C71.6903 121.778 71.8312 122.05 72.086 122.132C72.3408 122.213 72.6129 122.072 72.6939 121.818Z" fill="white" fill-opacity="0.8"/>
<path opacity="0.3" d="M64.5839 148.934C64.6648 148.679 64.5239 148.406 64.2691 148.325C64.0143 148.244 63.7422 148.384 63.6613 148.639C63.5803 148.894 63.7213 149.166 63.9761 149.247C64.2308 149.329 64.503 149.188 64.5839 148.934Z" fill="white" fill-opacity="0.8"/>
<path opacity="0.3" d="M26.4646 282.509C26.5455 282.254 26.4046 281.982 26.1498 281.9C25.895 281.819 25.6229 281.959 25.5419 282.214C25.461 282.469 25.6019 282.741 25.8567 282.823C26.1115 282.904 26.3837 282.764 26.4646 282.509Z" fill="white" fill-opacity="0.8"/>
<path opacity="0.3" d="M7.84938 297.134C7.93031 296.88 7.78937 296.607 7.53459 296.526C7.27981 296.445 7.00766 296.585 6.92673 296.84C6.8458 297.095 6.98673 297.367 7.24151 297.448C7.4963 297.53 7.76845 297.389 7.84938 297.134Z" fill="white" fill-opacity="0.8"/>
<path opacity="0.11" d="M62.7747 129.058C62.8557 128.803 62.7147 128.531 62.46 128.45C62.2052 128.368 61.933 128.509 61.8521 128.764C61.7712 129.018 61.9121 129.291 62.1669 129.372C62.4217 129.453 62.6938 129.313 62.7747 129.058Z" fill="white" fill-opacity="0.8"/>
<path opacity="0.3" d="M10.483 261.664C10.5639 261.41 10.423 261.137 10.1682 261.056C9.91343 260.974 9.64129 261.115 9.56036 261.37C9.47943 261.624 9.62035 261.897 9.87514 261.978C10.1299 262.06 10.4021 261.919 10.483 261.664Z" fill="white" fill-opacity="0.8"/>
<path opacity="0.11" d="M3.895 266.416C3.97593 266.161 3.835 265.889 3.58022 265.807C3.32544 265.726 3.05329 265.866 2.97236 266.121C2.89143 266.376 3.03237 266.648 3.28715 266.73C3.54193 266.811 3.81407 266.671 3.895 266.416Z" fill="white" fill-opacity="0.8"/>
<path opacity="0.3" d="M18.0674 272.971C18.1484 272.716 18.0074 272.443 17.7527 272.362C17.4979 272.281 17.2257 272.421 17.1448 272.676C17.0639 272.931 17.2048 273.203 17.4596 273.285C17.7144 273.366 17.9865 273.225 18.0674 272.971Z" fill="white" fill-opacity="0.8"/>
<path d="M22.4127 258.49C22.4734 258.299 22.3677 258.095 22.1767 258.034C21.9856 257.973 21.7816 258.078 21.7209 258.269C21.6602 258.46 21.7659 258.665 21.9569 258.726C22.1479 258.787 22.352 258.681 22.4127 258.49Z" fill="white" fill-opacity="0.8"/>
<path opacity="0.11" d="M110.043 107.126C110.124 106.871 109.983 106.598 109.729 106.517C109.474 106.436 109.202 106.576 109.121 106.831C109.04 107.086 109.181 107.358 109.436 107.439C109.69 107.521 109.963 107.38 110.043 107.126Z" fill="white" fill-opacity="0.8"/>
<path d="M113.054 106.439C113.115 106.248 113.009 106.043 112.818 105.982C112.627 105.921 112.423 106.027 112.363 106.218C112.302 106.409 112.407 106.613 112.599 106.674C112.79 106.735 112.994 106.63 113.054 106.439Z" fill="white" fill-opacity="0.8"/>
<path d="M110.632 97.2853C110.692 97.0943 110.587 96.89 110.396 96.829C110.205 96.7679 110.001 96.8733 109.94 97.0643C109.879 97.2553 109.985 97.4596 110.176 97.5206C110.367 97.5816 110.571 97.4763 110.632 97.2853Z" fill="white" fill-opacity="0.8"/>
<path d="M103.942 116.731C104.003 116.54 103.897 116.336 103.706 116.274C103.515 116.213 103.311 116.319 103.25 116.51C103.19 116.701 103.295 116.905 103.486 116.966C103.677 117.027 103.881 116.922 103.942 116.731Z" fill="white" fill-opacity="0.8"/>
<path opacity="0.11" d="M105.851 129.91C105.932 129.655 105.791 129.383 105.536 129.301C105.281 129.22 105.009 129.361 104.928 129.615C104.847 129.87 104.988 130.143 105.243 130.224C105.498 130.305 105.77 130.165 105.851 129.91Z" fill="white" fill-opacity="0.8"/>
<path d="M99.3861 132.672C99.4265 132.545 99.3561 132.409 99.2288 132.368C99.1015 132.327 98.9656 132.397 98.9252 132.525C98.8847 132.652 98.9551 132.788 99.0824 132.829C99.2097 132.869 99.3457 132.799 99.3861 132.672Z" fill="white" fill-opacity="0.8"/>
<path d="M118.812 110.69C118.853 110.563 118.782 110.427 118.655 110.386C118.528 110.346 118.392 110.416 118.351 110.543C118.311 110.67 118.381 110.807 118.508 110.847C118.636 110.888 118.772 110.818 118.812 110.69Z" fill="white" fill-opacity="0.8"/>
<path d="M134.782 60.4345C134.822 60.3073 134.752 60.1712 134.625 60.1305C134.497 60.0899 134.361 60.16 134.321 60.2873C134.281 60.4146 134.351 60.5507 134.478 60.5913C134.606 60.632 134.741 60.5618 134.782 60.4345Z" fill="white" fill-opacity="0.8"/>
<path d="M130.312 31.3317C130.352 31.2044 130.282 31.0683 130.155 31.0276C130.027 30.987 129.891 31.0572 129.851 31.1844C129.81 31.3117 129.881 31.4478 130.008 31.4885C130.135 31.5291 130.271 31.4589 130.312 31.3317Z" fill="white" fill-opacity="0.8"/>
<path d="M150.002 27.7172C150.042 27.59 149.972 27.4539 149.844 27.4132C149.717 27.3726 149.581 27.4428 149.541 27.57C149.5 27.6973 149.571 27.8334 149.698 27.8741C149.825 27.9147 149.961 27.8445 150.002 27.7172Z" fill="white" fill-opacity="0.8"/>
<path d="M88.6601 185.617C88.7005 185.489 88.6301 185.353 88.5028 185.312C88.3755 185.272 88.2396 185.342 88.1991 185.469C88.1587 185.597 88.2291 185.733 88.3564 185.773C88.4837 185.814 88.6196 185.744 88.6601 185.617Z" fill="white" fill-opacity="0.8"/>
<path opacity="0.11" d="M75.1109 185.097C75.1513 184.97 75.0809 184.833 74.9537 184.793C74.8264 184.752 74.6904 184.822 74.65 184.95C74.6096 185.077 74.68 185.213 74.8073 185.254C74.9345 185.294 75.0705 185.224 75.1109 185.097Z" fill="white" fill-opacity="0.8"/>
<path opacity="0.11" d="M77.2659 196.702C77.3063 196.575 77.2359 196.439 77.1086 196.398C76.9814 196.357 76.8454 196.428 76.805 196.555C76.7645 196.682 76.8349 196.818 76.9622 196.859C77.0895 196.899 77.2255 196.829 77.2659 196.702Z" fill="white" fill-opacity="0.8"/>
<path opacity="0.11" d="M93.517 193.514C93.5575 193.386 93.4871 193.25 93.3598 193.209C93.2325 193.169 93.0965 193.239 93.0561 193.366C93.0157 193.494 93.0861 193.63 93.2134 193.67C93.3407 193.711 93.4766 193.641 93.517 193.514Z" fill="white" fill-opacity="0.8"/>
<path opacity="0.11" d="M101.725 135.702C101.765 135.575 101.695 135.439 101.567 135.398C101.44 135.358 101.304 135.428 101.264 135.555C101.223 135.682 101.294 135.818 101.421 135.859C101.548 135.9 101.684 135.829 101.725 135.702Z" fill="white" fill-opacity="0.8"/>
<path opacity="0.11" d="M126.969 113.805C127.009 113.677 126.939 113.541 126.812 113.501C126.684 113.46 126.548 113.53 126.508 113.658C126.468 113.785 126.538 113.921 126.665 113.962C126.793 114.002 126.929 113.932 126.969 113.805Z" fill="white" fill-opacity="0.8"/>
<path opacity="0.11" d="M138.725 68.8063C138.765 68.679 138.695 68.5429 138.567 68.5022C138.44 68.4616 138.304 68.5318 138.264 68.6591C138.223 68.7863 138.294 68.9224 138.421 68.9631C138.548 69.0037 138.684 68.9335 138.725 68.8063Z" fill="white" fill-opacity="0.8"/>
<path opacity="0.3" d="M86.2648 173.169C86.3052 173.042 86.2348 172.906 86.1075 172.865C85.9802 172.824 85.8443 172.895 85.8038 173.022C85.7634 173.149 85.8338 173.285 85.9611 173.326C86.0884 173.366 86.2243 173.296 86.2648 173.169Z" fill="white" fill-opacity="0.8"/>
<path d="M90.6588 116.173C90.6992 116.045 90.6288 115.909 90.5015 115.869C90.3742 115.828 90.2383 115.898 90.1978 116.025C90.1574 116.153 90.2278 116.289 90.3551 116.329C90.4824 116.37 90.6183 116.3 90.6588 116.173Z" fill="white" fill-opacity="0.8"/>
<path d="M101.479 80.5228C101.519 80.3956 101.449 80.2595 101.321 80.2188C101.194 80.1782 101.058 80.2484 101.018 80.3756C100.977 80.5029 101.048 80.639 101.175 80.6796C101.302 80.7203 101.438 80.6501 101.479 80.5228Z" fill="white" fill-opacity="0.8"/>
<path d="M106.892 138.623C106.933 138.496 106.862 138.36 106.735 138.319C106.608 138.278 106.472 138.349 106.431 138.476C106.391 138.603 106.461 138.739 106.589 138.78C106.716 138.821 106.852 138.75 106.892 138.623Z" fill="white" fill-opacity="0.8"/>
<path opacity="0.3" d="M101.766 154.761C101.806 154.634 101.736 154.498 101.608 154.457C101.481 154.416 101.345 154.486 101.305 154.614C101.264 154.741 101.335 154.877 101.462 154.918C101.589 154.958 101.725 154.888 101.766 154.761Z" fill="white" fill-opacity="0.8"/>
<path opacity="0.11" d="M81.4664 169.095C81.5068 168.968 81.4364 168.832 81.3092 168.791C81.1819 168.751 81.0459 168.821 81.0055 168.948C80.9651 169.076 81.0355 169.212 81.1627 169.252C81.29 169.293 81.426 169.223 81.4664 169.095Z" fill="white" fill-opacity="0.8"/>
<path opacity="0.3" d="M97.5144 113.787C97.5548 113.66 97.4844 113.524 97.3572 113.483C97.2299 113.442 97.0939 113.513 97.0535 113.64C97.0131 113.767 97.0835 113.903 97.2107 113.944C97.338 113.985 97.474 113.914 97.5144 113.787Z" fill="white" fill-opacity="0.8"/>
<path opacity="0.3" d="M112.519 136.103C112.56 135.975 112.489 135.839 112.362 135.799C112.235 135.758 112.099 135.828 112.058 135.956C112.018 136.083 112.088 136.219 112.215 136.26C112.343 136.3 112.479 136.23 112.519 136.103Z" fill="white" fill-opacity="0.8"/>
<path opacity="0.3" d="M105.962 164.733C106.003 164.606 105.932 164.469 105.805 164.429C105.678 164.388 105.542 164.458 105.501 164.586C105.461 164.713 105.531 164.849 105.659 164.89C105.786 164.93 105.922 164.86 105.962 164.733Z" fill="white" fill-opacity="0.8"/>
<path opacity="0.3" d="M88.3904 166.483C88.4309 166.356 88.3605 166.22 88.2332 166.179C88.1059 166.139 87.9699 166.209 87.9295 166.336C87.8891 166.463 87.9595 166.599 88.0868 166.64C88.214 166.681 88.35 166.611 88.3904 166.483Z" fill="white" fill-opacity="0.8"/>
<path opacity="0.3" d="M133.254 22.8781C133.295 22.7508 133.224 22.6147 133.097 22.5741C132.97 22.5334 132.834 22.6036 132.793 22.7309C132.753 22.8581 132.823 22.9942 132.95 23.0349C133.078 23.0756 133.214 23.0053 133.254 22.8781Z" fill="white" fill-opacity="0.8"/>
<path opacity="0.11" d="M112.007 56.9706C112.048 56.8433 111.977 56.7072 111.85 56.6665C111.723 56.6259 111.587 56.6961 111.546 56.8233C111.506 56.9506 111.576 57.0867 111.704 57.1274C111.831 57.168 111.967 57.0978 112.007 56.9706Z" fill="white" fill-opacity="0.8"/>
<path opacity="0.11" d="M141.19 32.2656C141.231 32.1383 141.16 32.0022 141.033 31.9615C140.906 31.9209 140.77 31.9911 140.729 32.1183C140.689 32.2456 140.759 32.3817 140.887 32.4224C141.014 32.463 141.15 32.3928 141.19 32.2656Z" fill="white" fill-opacity="0.8"/>
<path opacity="0.3" d="M124.736 91.2556C124.817 91.0009 124.676 90.7284 124.421 90.647C124.166 90.5657 123.894 90.7062 123.813 90.9609C123.732 91.2156 123.873 91.4881 124.128 91.5695C124.382 91.6509 124.655 91.5103 124.736 91.2556Z" fill="white" fill-opacity="0.8"/>
<path opacity="0.11" d="M122.143 75.4418C122.224 75.1871 122.083 74.9147 121.828 74.8333C121.573 74.7519 121.301 74.8924 121.22 75.1471C121.139 75.4019 121.28 75.6743 121.535 75.7557C121.79 75.8371 122.062 75.6966 122.143 75.4418Z" fill="white" fill-opacity="0.8"/>
<path d="M114.035 72.9788C114.096 72.7878 113.99 72.5835 113.799 72.5225C113.608 72.4615 113.404 72.5669 113.343 72.7579C113.283 72.9489 113.388 73.1531 113.579 73.2142C113.77 73.2752 113.974 73.1698 114.035 72.9788Z" fill="white" fill-opacity="0.8"/>
<path d="M133.191 96.619C133.252 96.428 133.146 96.2238 132.955 96.1627C132.764 96.1017 132.56 96.2071 132.5 96.3981C132.439 96.5891 132.545 96.7934 132.736 96.8544C132.927 96.9154 133.131 96.81 133.191 96.619Z" fill="white" fill-opacity="0.8"/>
<path d="M162.12 21.5565C162.181 21.3655 162.075 21.1612 161.884 21.1002C161.693 21.0392 161.489 21.1445 161.429 21.3355C161.368 21.5265 161.474 21.7308 161.665 21.7918C161.856 21.8528 162.06 21.7475 162.12 21.5565Z" fill="white" fill-opacity="0.8"/>
<path d="M110.665 169.917C110.726 169.726 110.62 169.522 110.429 169.461C110.238 169.4 110.034 169.505 109.973 169.696C109.912 169.887 110.018 170.092 110.209 170.153C110.4 170.214 110.604 170.108 110.665 169.917Z" fill="white" fill-opacity="0.8"/>
<path d="M95.6211 198.882C95.6818 198.691 95.5761 198.486 95.385 198.425C95.194 198.364 94.99 198.47 94.9293 198.661C94.8686 198.852 94.9743 199.056 95.1653 199.117C95.3563 199.178 95.5604 199.073 95.6211 198.882Z" fill="white" fill-opacity="0.8"/>
<path d="M85.153 199.857C85.2136 199.666 85.108 199.461 84.9169 199.4C84.7259 199.339 84.5219 199.445 84.4612 199.636C84.4005 199.827 84.5062 200.031 84.6972 200.092C84.8882 200.153 85.0923 200.048 85.153 199.857Z" fill="white" fill-opacity="0.8"/>
<path d="M115.131 85.5179C115.192 85.3269 115.086 85.1226 114.895 85.0616C114.704 85.0006 114.5 85.106 114.439 85.2969C114.379 85.4879 114.484 85.6922 114.675 85.7532C114.866 85.8143 115.07 85.7089 115.131 85.5179Z" fill="white" fill-opacity="0.8"/>
<path d="M119.449 131.079C119.51 130.888 119.404 130.684 119.213 130.623C119.022 130.562 118.818 130.667 118.757 130.858C118.696 131.049 118.802 131.253 118.993 131.314C119.184 131.375 119.388 131.27 119.449 131.079Z" fill="white" fill-opacity="0.8"/>
<path d="M147.821 76.1539C147.882 75.9629 147.776 75.7586 147.585 75.6976C147.394 75.6366 147.19 75.7419 147.129 75.9329C147.069 76.1239 147.174 76.3282 147.365 76.3892C147.556 76.4502 147.76 76.3449 147.821 76.1539Z" fill="white" fill-opacity="0.8"/>
<path d="M151.549 10.057C151.609 9.86605 151.504 9.66176 151.313 9.60074C151.122 9.53973 150.918 9.64508 150.857 9.83608C150.796 10.0271 150.902 10.2314 151.093 10.2924C151.284 10.3534 151.488 10.248 151.549 10.057Z" fill="white" fill-opacity="0.8"/>
<path d="M140.627 0.473721C140.688 0.282727 140.582 0.0784389 140.391 0.0174216C140.2 -0.0435956 139.996 0.061764 139.936 0.252758C139.875 0.443752 139.981 0.64804 140.172 0.709058C140.363 0.770075 140.567 0.664715 140.627 0.473721Z" fill="white" fill-opacity="0.8"/>
<path opacity="0.3" d="M120.305 54.0369C120.385 53.7822 120.244 53.5097 119.99 53.4284C119.735 53.347 119.463 53.4875 119.382 53.7422C119.301 53.997 119.442 54.2695 119.697 54.3508C119.951 54.4322 120.224 54.2917 120.305 54.0369Z" fill="white" fill-opacity="0.8"/>
<path d="M103.936 48.8088C104.017 48.554 103.876 48.2816 103.621 48.2002C103.367 48.1188 103.094 48.2593 103.013 48.5141C102.933 48.7688 103.073 49.0413 103.328 49.1226C103.583 49.204 103.855 49.0635 103.936 48.8088Z" fill="white" fill-opacity="0.8"/>
<path d="M129.151 43.7822C129.212 43.5912 129.106 43.3869 128.915 43.3259C128.724 43.2649 128.52 43.3702 128.459 43.5612C128.399 43.7522 128.504 43.9565 128.695 44.0175C128.886 44.0785 129.09 43.9732 129.151 43.7822Z" fill="white" fill-opacity="0.8"/>
<path opacity="0.3" d="M123.71 29.7303C123.791 29.4755 123.65 29.2031 123.395 29.1217C123.14 29.0403 122.868 29.1808 122.787 29.4356C122.706 29.6903 122.847 29.9628 123.102 30.0442C123.357 30.1255 123.629 29.985 123.71 29.7303Z" fill="white" fill-opacity="0.8"/>
<path opacity="0.3" d="M147.334 12.1349C147.415 11.8802 147.274 11.6077 147.02 11.5264C146.765 11.445 146.493 11.5855 146.412 11.8402C146.331 12.095 146.472 12.3674 146.727 12.4488C146.981 12.5302 147.253 12.3897 147.334 12.1349Z" fill="white" fill-opacity="0.8"/>
<path opacity="0.3" d="M139.226 39.2528C139.307 38.9981 139.166 38.7256 138.912 38.6442C138.657 38.5628 138.385 38.7034 138.304 38.9581C138.223 39.2128 138.364 39.4853 138.619 39.5667C138.873 39.648 139.145 39.5075 139.226 39.2528Z" fill="white" fill-opacity="0.8"/>
<path opacity="0.3" d="M101.103 172.83C101.184 172.575 101.043 172.303 100.788 172.221C100.534 172.14 100.261 172.28 100.18 172.535C100.1 172.79 100.24 173.062 100.495 173.144C100.75 173.225 101.022 173.084 101.103 172.83Z" fill="white" fill-opacity="0.8"/>
<path opacity="0.3" d="M82.4899 187.454C82.5708 187.199 82.4299 186.926 82.1751 186.845C81.9203 186.764 81.6482 186.904 81.5673 187.159C81.4863 187.414 81.6273 187.686 81.882 187.768C82.1368 187.849 82.409 187.708 82.4899 187.454Z" fill="white" fill-opacity="0.8"/>
<path opacity="0.11" d="M137.415 19.3774C137.496 19.1227 137.355 18.8502 137.101 18.7689C136.846 18.6875 136.574 18.828 136.493 19.0827C136.412 19.3375 136.553 19.6099 136.807 19.6913C137.062 19.7727 137.334 19.6322 137.415 19.3774Z" fill="white" fill-opacity="0.8"/>
<path opacity="0.3" d="M85.1216 151.983C85.2025 151.729 85.0616 151.456 84.8068 151.375C84.552 151.293 84.2799 151.434 84.1989 151.689C84.118 151.943 84.2589 152.216 84.5137 152.297C84.7685 152.379 85.0407 152.238 85.1216 151.983Z" fill="white" fill-opacity="0.8"/>
<path opacity="0.11" d="M78.5355 156.735C78.6165 156.48 78.4755 156.208 78.2208 156.126C77.966 156.045 77.6938 156.185 77.6129 156.44C77.532 156.695 77.6729 156.967 77.9277 157.049C78.1825 157.13 78.4546 156.99 78.5355 156.735Z" fill="white" fill-opacity="0.8"/>
<path opacity="0.3" d="M92.704 163.292C92.7849 163.037 92.644 162.764 92.3892 162.683C92.1344 162.602 91.8623 162.742 91.7814 162.997C91.7004 163.252 91.8414 163.524 92.0961 163.605C92.3509 163.687 92.6231 163.546 92.704 163.292Z" fill="white" fill-opacity="0.8"/>
<path d="M97.0532 148.811C97.1138 148.62 97.0082 148.416 96.8171 148.355C96.6261 148.294 96.4221 148.399 96.3614 148.59C96.3007 148.781 96.4064 148.985 96.5974 149.046C96.7884 149.108 96.9925 149.002 97.0532 148.811Z" fill="white" fill-opacity="0.8"/>
</svg>
