<svg width="14" height="14" viewBox="0 0 14 14" fill="none" xmlns="http://www.w3.org/2000/svg">
<path d="M4.95966 2.48586L4.67057 1.83541C4.48155 1.41012 4.38704 1.19747 4.2457 1.03473C4.06856 0.830787 3.83766 0.680737 3.57935 0.601698C3.37324 0.538627 3.14053 0.538627 2.67513 0.538627C1.9943 0.538627 1.65389 0.538627 1.36812 0.669501C1.03151 0.823665 0.727507 1.15841 0.606383 1.50828C0.503559 1.80529 0.533016 2.11052 0.591916 2.72096C1.21892 9.21872 4.78129 12.7811 11.279 13.4081C11.8895 13.467 12.1947 13.4964 12.4917 13.3936C12.8416 13.2725 13.1763 12.9685 13.3305 12.6319C13.4613 12.3461 13.4613 12.0057 13.4613 11.3249C13.4613 10.8594 13.4613 10.6267 13.3983 10.4206C13.3193 10.1623 13.1692 9.93142 12.9652 9.7543C12.8026 9.61294 12.5899 9.51846 12.1646 9.32942L11.5141 9.04031C11.0536 8.83562 10.8233 8.73332 10.5893 8.71106C10.3653 8.68974 10.1395 8.72118 9.92985 8.80281C9.7108 8.8881 9.51724 9.04943 9.12998 9.37207C8.74459 9.69328 8.55189 9.85388 8.31641 9.93989C8.10763 10.0161 7.83165 10.0444 7.61182 10.012C7.36377 9.97543 7.17387 9.87399 6.79401 9.67095C5.61227 9.03945 4.96057 8.38777 4.32903 7.20596C4.12604 6.82617 4.02455 6.6362 3.988 6.38822C3.9556 6.16832 3.98384 5.89234 4.0601 5.68363C4.14613 5.44813 4.30673 5.25542 4.62792 4.86998C4.95059 4.48278 5.11192 4.28918 5.19722 4.07013C5.27885 3.86051 5.31028 3.63469 5.28897 3.41075C5.26671 3.17673 5.16436 2.94644 4.95966 2.48586Z" stroke="black" stroke-opacity="0.8" stroke-width="1.04167" stroke-linecap="round"/>
</svg>
