<svg width="32" height="13" viewBox="0 0 32 13" fill="none" xmlns="http://www.w3.org/2000/svg">
<path d="M25.6741 0C24.045 0 22.5684 0.621148 21.4459 1.62915C20.329 3.41086 18.3511 4.59867 16.0954 4.59867C14.1774 4.59867 12.4665 3.74323 11.306 2.39741C11.3005 2.40286 11.2951 2.40831 11.2896 2.41921C10.1291 0.948068 8.34191 0.00544879 6.3259 0.00544879C2.83331 0.00544879 0 2.83875 0 6.33135C0 9.82394 2.83331 12.6572 6.3259 12.6572C8.25473 12.6572 9.97651 11.7909 11.1316 10.4342C11.1589 10.4723 11.1861 10.5105 11.2188 10.5486C12.3794 9.14286 14.1338 8.24928 16.0954 8.24928C18.0569 8.24928 19.8168 9.14831 20.9774 10.5541C22.1325 11.8399 23.8107 12.6572 25.6741 12.6572C29.1667 12.6572 32 9.82394 32 6.33135C32 2.83875 29.1667 0.00544879 25.6741 0.00544879V0Z" fill="#CEE0E0"/>
</svg>
