<svg width="89" height="19" viewBox="0 0 89 19" fill="none" xmlns="http://www.w3.org/2000/svg">
<path d="M86.7223 13.873V7.67334C86.7223 6.97398 86.5491 6.42899 86.2025 6.03836C85.856 5.64143 85.3866 5.44296 84.7944 5.44296C84.4289 5.44296 84.1013 5.52802 83.8115 5.69813C83.5217 5.86194 83.2917 6.10766 83.1216 6.43529C82.9515 6.75661 82.8664 7.14094 82.8664 7.58828L81.8552 6.99288C81.8489 6.28723 82.0064 5.66663 82.3277 5.13109C82.6554 4.58924 83.0964 4.16711 83.6508 3.86469C84.2053 3.56226 84.8227 3.41105 85.5032 3.41105C86.631 3.41105 87.4941 3.75128 88.0927 4.43173C88.6975 5.10588 89 5.99425 89 7.09684V13.873H86.7223ZM74.4458 13.873V3.66622H76.4588V6.83222H76.7423V13.873H74.4458ZM80.5982 13.873V7.70169C80.5982 6.98973 80.425 6.43529 80.0784 6.03836C79.7319 5.64143 79.2594 5.44296 78.6608 5.44296C78.0812 5.44296 77.615 5.64143 77.2621 6.03836C76.9156 6.43529 76.7423 6.95193 76.7423 7.58828L75.7217 6.90783C75.7217 6.24627 75.8855 5.65088 76.2131 5.12164C76.5407 4.59239 76.9818 4.17656 77.5362 3.87414C78.0969 3.56541 78.7238 3.41105 79.4169 3.41105C80.1793 3.41105 80.8156 3.57486 81.3259 3.90249C81.8426 4.22381 82.2269 4.66485 82.4789 5.22559C82.7373 5.78004 82.8664 6.40694 82.8664 7.10629V13.873H80.5982Z" fill="#CEE0E0"/>
<path d="M66.4608 14.1663C65.7048 14.1663 65.081 14.0403 64.5896 13.7882C64.0981 13.5362 63.7075 13.2149 63.4177 12.8243C63.1279 12.4336 62.9136 12.0178 62.775 11.5768C62.6364 11.1357 62.5451 10.7199 62.501 10.3293C62.4631 9.93233 62.4442 9.61101 62.4442 9.36529V3.66649H64.7502V8.58087C64.7502 8.8959 64.7723 9.25188 64.8164 9.64881C64.8605 10.0394 64.9613 10.4175 65.1188 10.7829C65.2826 11.142 65.522 11.4381 65.8371 11.6713C66.1584 11.9044 66.59 12.0209 67.1318 12.0209C67.4216 12.0209 67.7083 11.9737 67.9918 11.8792C68.2754 11.7847 68.5305 11.624 68.7573 11.3972C68.9905 11.1641 69.1763 10.8459 69.3149 10.4427C69.4535 10.0394 69.5229 9.5291 69.5229 8.91165L70.8743 9.48815C70.8743 10.3576 70.7042 11.1452 70.364 11.8508C70.03 12.5565 69.5355 13.1204 68.8802 13.5425C68.225 13.9583 67.4185 14.1663 66.4608 14.1663ZM69.7969 13.8733V10.7073H69.5229V3.66649H71.8099V13.8733H69.7969Z" fill="#CEE0E0"/>
<path d="M55.0877 13.8726V3.6658H57.1007V6.15135L56.855 5.83002C56.981 5.4898 57.148 5.18107 57.3559 4.90385C57.5701 4.62033 57.8253 4.38721 58.1214 4.2045C58.3734 4.03438 58.6506 3.90207 58.953 3.80757C59.2618 3.70676 59.5768 3.6469 59.8981 3.628C60.2194 3.6028 60.5313 3.6154 60.8337 3.6658V5.79222C60.5313 5.70401 60.1816 5.67566 59.7847 5.70717C59.3941 5.73867 59.0413 5.84893 58.7262 6.03794C58.4112 6.20805 58.1529 6.42542 57.9513 6.69004C57.756 6.95466 57.611 7.25709 57.5165 7.59731C57.422 7.93124 57.3748 8.29352 57.3748 8.68415V13.8726H55.0877Z" fill="#CEE0E0"/>
<path d="M52.8905 13.8751C52.2164 14.0012 51.5548 14.0547 50.9059 14.0358C50.2632 14.0232 49.6867 13.9066 49.1764 13.6861C48.666 13.4593 48.2786 13.1033 48.0139 12.6182C47.7808 12.1772 47.658 11.7267 47.6454 11.2667C47.6328 10.8068 47.6265 10.287 47.6265 9.70736V0.833114H49.8946V9.57505C49.8946 9.98458 49.8978 10.3437 49.9041 10.6524C49.9167 10.9612 49.9828 11.2132 50.1026 11.4085C50.3294 11.7865 50.6916 11.9976 51.1894 12.0417C51.6871 12.0858 52.2542 12.0606 52.8905 11.9661V13.8751ZM45.7741 5.45453V3.66834H52.8905V5.45453H45.7741Z" fill="#CEE0E0"/>
<path d="M40.4697 14.1574C39.4175 14.1574 38.5197 13.9243 37.7762 13.458C37.0327 12.9855 36.4625 12.3428 36.0656 11.5301C35.675 10.7173 35.4765 9.79745 35.4702 8.77047C35.4765 7.72458 35.6813 6.79841 36.0845 5.99195C36.494 5.17918 37.0737 4.54283 37.8235 4.0829C38.5732 3.61666 39.4647 3.38354 40.498 3.38354C41.6573 3.38354 42.637 3.67652 43.4372 4.26246C44.2437 4.84211 44.7698 5.63597 45.0155 6.64405L42.7473 7.25835C42.5709 6.7102 42.2779 6.28492 41.8684 5.9825C41.4588 5.67377 40.9926 5.51941 40.4697 5.51941C39.8774 5.51941 39.3891 5.66117 39.0048 5.94469C38.6205 6.22192 38.3369 6.60625 38.1542 7.09769C37.9715 7.58912 37.8802 8.14672 37.8802 8.77047C37.8802 9.74074 38.0975 10.5252 38.5323 11.1237C38.967 11.7222 39.6128 12.0215 40.4697 12.0215C41.0745 12.0215 41.5502 11.8829 41.8967 11.6057C42.2496 11.3285 42.5142 10.9284 42.6906 10.4054L45.0155 10.9252C44.7004 11.9648 44.1492 12.765 43.3616 13.3257C42.574 13.8802 41.6101 14.1574 40.4697 14.1574Z" fill="#CEE0E0"/>
<path d="M29.3048 14.1574C28.2715 14.1574 27.3642 13.9337 26.583 13.4864C25.8017 13.0391 25.1906 12.4185 24.7495 11.6246C24.3148 10.8307 24.0974 9.91716 24.0974 8.88388C24.0974 7.76869 24.3116 6.80156 24.7401 5.9825C25.1685 5.15713 25.7639 4.51763 26.5263 4.064C27.2886 3.61036 28.1707 3.38354 29.1725 3.38354C30.231 3.38354 31.1288 3.63241 31.8659 4.13015C32.6094 4.62159 33.1607 5.31779 33.5198 6.21877C33.8789 7.11974 34.0144 8.18137 33.9262 9.40367H31.6675V8.572C31.6612 7.46311 31.4659 6.6535 31.0815 6.14316C30.6972 5.63282 30.0923 5.37765 29.267 5.37765C28.3345 5.37765 27.6415 5.66747 27.1878 6.24712C26.7342 6.82046 26.5074 7.66158 26.5074 8.77047C26.5074 9.80375 26.7342 10.6039 27.1878 11.171C27.6415 11.738 28.303 12.0215 29.1725 12.0215C29.7332 12.0215 30.2152 11.8987 30.6184 11.6529C31.028 11.4009 31.343 11.0386 31.5635 10.5661L33.8128 11.2466C33.4222 12.1664 32.8173 12.8815 31.9983 13.3919C31.1855 13.9022 30.2877 14.1574 29.3048 14.1574ZM25.7891 9.40367V7.68363H32.811V9.40367H25.7891Z" fill="#CEE0E0"/>
<path d="M17.9236 14.1574C16.9281 14.1574 16.0933 13.9211 15.4191 13.4486C14.745 12.976 14.2378 12.3334 13.8975 11.5206C13.5573 10.7016 13.3872 9.78485 13.3872 8.77047C13.3872 7.74349 13.5573 6.82361 13.8975 6.01085C14.2378 5.19809 14.7355 4.55858 15.3908 4.09235C16.0523 3.61981 16.8682 3.38354 17.8385 3.38354C18.8025 3.38354 19.6373 3.61981 20.3429 4.09235C21.0549 4.55858 21.6062 5.19809 21.9968 6.01085C22.3875 6.81731 22.5828 7.73718 22.5828 8.77047C22.5828 9.79115 22.3906 10.7079 22.0063 11.5206C21.622 12.3334 21.0801 12.976 20.3808 13.4486C19.6814 13.9211 18.8623 14.1574 17.9236 14.1574ZM12.9997 18.4102V3.66706H15.0127V10.8307H15.2963V18.4102H12.9997ZM17.5739 12.116C18.1661 12.116 18.6544 11.968 19.0387 11.6718C19.4231 11.3757 19.7066 10.9756 19.8893 10.4716C20.0783 9.96126 20.1728 9.39422 20.1728 8.77047C20.1728 8.15302 20.0783 7.59227 19.8893 7.08823C19.7003 6.57789 19.4073 6.17466 19.0104 5.87854C18.6135 5.57612 18.1094 5.4249 17.4983 5.4249C16.9186 5.4249 16.4461 5.56666 16.0807 5.85019C15.7152 6.12741 15.4443 6.51804 15.2679 7.02208C15.0978 7.51982 15.0127 8.10261 15.0127 8.77047C15.0127 9.43202 15.0978 10.0148 15.2679 10.5189C15.4443 11.0229 15.7184 11.4167 16.0901 11.7002C16.4681 11.9774 16.9627 12.116 17.5739 12.116Z" fill="#CEE0E0"/>
<path d="M5.63264 14.1574C4.63716 14.1574 3.73934 13.9841 2.93918 13.6376C2.14532 13.2911 1.49007 12.7965 0.973426 12.1539C0.463086 11.5049 0.138611 10.7362 0 9.84787L2.36269 9.48874C2.5643 10.2952 2.97698 10.919 3.60073 11.36C4.23078 11.801 4.95534 12.0215 5.7744 12.0215C6.25954 12.0215 6.71633 11.9459 7.14476 11.7947C7.5732 11.6435 7.91972 11.423 8.18434 11.1332C8.45527 10.8434 8.59073 10.4874 8.59073 10.0652C8.59073 9.87623 8.55922 9.70296 8.49622 9.54545C8.43321 9.38164 8.33871 9.23673 8.2127 9.11071C8.09299 8.9847 7.93547 8.8713 7.74016 8.77049C7.55114 8.66338 7.33063 8.57202 7.07861 8.49642L3.56293 7.45683C3.26051 7.36863 2.93288 7.25207 2.58005 7.10716C2.23353 6.95595 1.90275 6.75118 1.58772 6.49286C1.279 6.22824 1.02383 5.89431 0.822215 5.49108C0.626899 5.08155 0.529242 4.57751 0.529242 3.97896C0.529242 3.10319 0.749759 2.36918 1.19079 1.77694C1.63813 1.17839 2.23668 0.731054 2.98643 0.434931C3.74249 0.138808 4.58046 -0.00610388 5.50033 0.000196909C6.43281 0.00649695 7.26447 0.16716 7.99533 0.482185C8.72619 0.790909 9.33733 1.24139 9.82877 1.83364C10.3202 2.42589 10.6667 3.14099 10.8684 3.97896L8.42061 4.40424C8.3198 3.92541 8.12449 3.51902 7.83467 3.1851C7.55114 2.84487 7.20147 2.58655 6.78563 2.41014C6.3761 2.23372 5.93822 2.13922 5.47198 2.12661C5.01834 2.12031 4.59621 2.18962 4.20558 2.33453C3.82125 2.47314 3.50938 2.67476 3.26996 2.93938C3.03684 3.204 2.92028 3.51272 2.92028 3.86555C2.92028 4.19948 3.02109 4.47355 3.2227 4.68777C3.42432 4.89568 3.67319 5.06265 3.96931 5.18866C4.27174 5.30837 4.57731 5.40917 4.88603 5.49108L7.32433 6.17153C7.65825 6.25974 8.03313 6.37945 8.44896 6.53066C8.8648 6.68187 9.26488 6.89294 9.64921 7.16386C10.0335 7.43478 10.3486 7.79076 10.5943 8.2318C10.8463 8.67283 10.9723 9.23358 10.9723 9.91403C10.9723 10.6197 10.8243 11.2403 10.5281 11.7758C10.2383 12.3051 9.84452 12.7461 9.34679 13.0989C8.84905 13.4518 8.27885 13.7164 7.6362 13.8928C6.99985 14.0692 6.332 14.1574 5.63264 14.1574Z" fill="#CEE0E0"/>
</svg>
