<svg width="32" height="30" viewBox="0 0 32 30" fill="none" xmlns="http://www.w3.org/2000/svg">
<g clip-path="url(#clip0_10_5249)">
<path d="M25.1295 8.625C23.5354 8.625 22.0906 9.23278 20.9924 10.2191C19.8994 11.9625 17.9641 13.1247 15.7569 13.1247C13.8802 13.1247 12.2061 12.2877 11.0705 10.9708C11.0652 10.9762 11.0599 10.9815 11.0546 10.9922C9.91895 9.55267 8.17024 8.63033 6.19761 8.63033C2.78016 8.63033 0.0078125 11.4027 0.0078125 14.8201C0.0078125 18.2376 2.78016 21.0099 6.19761 21.0099C8.08494 21.0099 9.76968 20.1622 10.8999 18.8347C10.9266 18.872 10.9533 18.9093 10.9852 18.9467C12.1208 17.5712 13.8376 16.6968 15.7569 16.6968C17.6762 16.6968 19.3983 17.5765 20.5338 18.952C21.6641 20.2102 23.3062 21.0099 25.1295 21.0099C28.547 21.0099 31.3193 18.2376 31.3193 14.8201C31.3193 11.4027 28.547 8.63033 25.1295 8.63033V8.625Z" fill="#CEE0E0"/>
<path d="M15.656 8.99947C18.1411 8.99947 20.1557 6.98487 20.1557 4.49973C20.1557 2.0146 18.1411 0 15.656 0C13.1708 0 11.1562 2.0146 11.1562 4.49973C11.1562 6.98487 13.1708 8.99947 15.656 8.99947Z" fill="#CEE0E0"/>
<path d="M15.656 29.9995C18.1411 29.9995 20.1557 27.9849 20.1557 25.4997C20.1557 23.0146 18.1411 21 15.656 21C13.1708 21 11.1562 23.0146 11.1562 25.4997C11.1562 27.9849 13.1708 29.9995 15.656 29.9995Z" fill="#CEE0E0"/>
</g>
<defs>
<clipPath id="clip0_10_5249">
<rect width="31.3115" height="30" fill="white"/>
</clipPath>
</defs>
</svg>
