<svg width="77" height="20" viewBox="0 0 77 20" fill="none" xmlns="http://www.w3.org/2000/svg">
<path d="M68.8049 19.2993L70.8636 13.6478L70.9032 15.3106L66.2415 3.85922H68.7257L72.0315 12.3315H71.398L74.6147 3.85922H77L71.0417 19.2993H68.8049Z" fill="#CEE0E0"/>
<path d="M65.3924 14.5494C64.6864 14.6814 63.9936 14.7374 63.3139 14.7177C62.6409 14.7045 62.0372 14.5824 61.5027 14.3514C60.9682 14.1139 60.5624 13.7411 60.2853 13.233C60.0412 12.7712 59.9125 12.2994 59.8993 11.8177C59.8861 11.336 59.8795 10.7917 59.8795 10.1846V0.890893H62.2549V10.0461C62.2549 10.4749 62.2582 10.851 62.2648 11.1744C62.278 11.4977 62.3473 11.7616 62.4726 11.9662C62.7102 12.3621 63.0896 12.5831 63.6109 12.6293C64.1321 12.6755 64.726 12.6491 65.3924 12.5501V14.5494ZM57.9396 5.73075V3.86013H65.3924V5.73075H57.9396Z" fill="#CEE0E0"/>
<path d="M53.7768 2.23859V0.0512461H56.1621V2.23859H53.7768ZM53.7768 14.551V3.86177H56.1621V14.551H53.7768Z" fill="#CEE0E0"/>
<path d="M47.1235 14.8467C46.0216 14.8467 45.0813 14.6025 44.3027 14.1143C43.5241 13.6194 42.927 12.9464 42.5113 12.0952C42.1022 11.244 41.8944 10.2807 41.8878 9.20513C41.8944 8.10981 42.1088 7.13986 42.5311 6.29527C42.96 5.44409 43.567 4.77766 44.3522 4.29599C45.1374 3.80771 46.0711 3.56357 47.1532 3.56357C48.3673 3.56357 49.3933 3.87039 50.2313 4.48404C51.0759 5.09108 51.6269 5.92247 51.8842 6.9782L49.5088 7.62153C49.3241 7.04748 49.0172 6.60209 48.5883 6.28538C48.1594 5.96206 47.6712 5.8004 47.1235 5.8004C46.5033 5.8004 45.9919 5.94886 45.5894 6.24579C45.1869 6.53611 44.89 6.93861 44.6986 7.45328C44.5073 7.96795 44.4116 8.5519 44.4116 9.20513C44.4116 10.2213 44.6393 11.0428 45.0945 11.6696C45.5498 12.2964 46.2261 12.6099 47.1235 12.6099C47.757 12.6099 48.2551 12.4647 48.618 12.1744C48.9875 11.884 49.2647 11.4651 49.4494 10.9174L51.8842 11.4618C51.5543 12.5505 50.9769 13.3885 50.1521 13.9757C49.3273 14.5564 48.3178 14.8467 47.1235 14.8467Z" fill="#CEE0E0"/>
<path d="M34.9667 14.8467C33.8978 14.8467 32.9641 14.6058 32.1657 14.1242C31.3673 13.6425 30.7471 12.9794 30.305 12.1348C29.8695 11.2836 29.6518 10.307 29.6518 9.20513C29.6518 8.08342 29.8761 7.10027 30.3248 6.25568C30.7735 5.4111 31.397 4.75127 32.1954 4.27619C32.9938 3.80111 33.9176 3.56357 34.9667 3.56357C36.0422 3.56357 36.9792 3.80441 37.7776 4.28609C38.576 4.76776 39.1962 5.43419 39.6383 6.28538C40.0804 7.12996 40.3014 8.10321 40.3014 9.20513C40.3014 10.3136 40.0771 11.2935 39.6284 12.1447C39.1863 12.9893 38.5661 13.6524 37.7677 14.1341C36.9693 14.6091 36.0356 14.8467 34.9667 14.8467ZM34.9667 12.6099C35.9169 12.6099 36.6229 12.2931 37.0848 11.6597C37.5466 11.0263 37.7776 10.2081 37.7776 9.20513C37.7776 8.16919 37.5433 7.34441 37.0749 6.73076C36.6064 6.11052 35.9037 5.8004 34.9667 5.8004C34.3267 5.8004 33.7988 5.94556 33.3831 6.23589C32.974 6.51962 32.6705 6.91881 32.4725 7.43348C32.2746 7.94155 32.1756 8.5321 32.1756 9.20513C32.1756 10.2411 32.4099 11.0692 32.8783 11.6894C33.3534 12.303 34.0495 12.6099 34.9667 12.6099Z" fill="#CEE0E0"/>
<path d="M24.8898 14.5493V0H27.2751V14.5493H24.8898Z" fill="#CEE0E0"/>
<path d="M17.6501 14.8467C16.5679 14.8467 15.6178 14.6124 14.7996 14.144C13.9814 13.6755 13.3414 13.0256 12.8795 12.1942C12.4242 11.3628 12.1966 10.406 12.1966 9.3239C12.1966 8.156 12.4209 7.14316 12.8696 6.28538C13.3183 5.421 13.9418 4.75127 14.7402 4.27619C15.5386 3.80111 16.4624 3.56357 17.5115 3.56357C18.62 3.56357 19.5603 3.82421 20.3323 4.34547C21.1109 4.86014 21.6882 5.58925 22.0643 6.53281C22.4404 7.47637 22.5823 8.58819 22.4899 9.86826H20.1244V8.99728C20.1178 7.83598 19.9133 6.9881 19.5108 6.45363C19.1083 5.91917 18.4749 5.65194 17.6105 5.65194C16.6339 5.65194 15.9081 5.95546 15.433 6.56251C14.958 7.16295 14.7204 8.04383 14.7204 9.20513C14.7204 10.2873 14.958 11.1252 15.433 11.7191C15.9081 12.3129 16.6009 12.6099 17.5115 12.6099C18.0988 12.6099 18.6035 12.4812 19.0258 12.2239C19.4547 11.9599 19.7846 11.5805 20.0156 11.0856L22.3712 11.7983C21.9621 12.7616 21.3286 13.5105 20.4708 14.045C19.6197 14.5795 18.6794 14.8467 17.6501 14.8467ZM13.9682 9.86826V8.06692H21.322V9.86826H13.9682Z" fill="#CEE0E0"/>
<path d="M4.49345 14.548L0 0.29565H2.45457L6.21561 12.232L10.0261 0.29565H12.4807L7.98726 14.548H4.49345Z" fill="#CEE0E0"/>
</svg>
