<svg width="70" height="20" viewBox="0 0 70 20" fill="none" xmlns="http://www.w3.org/2000/svg">
<path d="M63.953 15.1393C63.1631 15.1393 62.4947 14.9908 61.9479 14.6938C61.4011 14.39 60.9859 13.9883 60.7023 13.4887C60.4256 12.9891 60.2872 12.4389 60.2872 11.8381C60.2872 11.3115 60.3749 10.8389 60.5505 10.4204C60.726 9.99506 60.996 9.6305 61.3606 9.32671C61.7251 9.01616 62.1977 8.763 62.7783 8.56722C63.2171 8.42545 63.7302 8.29718 64.3175 8.18241C64.9116 8.06765 65.5529 7.96301 66.2415 7.86849C66.9369 7.76723 67.6626 7.65921 68.4187 7.54444L67.5479 8.04064C67.5546 7.28453 67.3858 6.72757 67.0415 6.36977C66.6972 6.01197 66.1167 5.83306 65.2998 5.83306C64.807 5.83306 64.331 5.94783 63.8719 6.17737C63.4129 6.4069 63.0922 6.80183 62.9099 7.36217L60.6821 6.66344C60.9521 5.73855 61.4652 4.99594 62.2213 4.43561C62.9842 3.87527 64.0103 3.59511 65.2998 3.59511C66.2719 3.59511 67.1259 3.75375 67.8618 4.07105C68.6044 4.38835 69.1546 4.90818 69.5124 5.63053C69.7082 6.01534 69.8263 6.41027 69.8668 6.81533C69.9073 7.21364 69.9276 7.64908 69.9276 8.12165V14.8355H67.7909V12.4659L68.1453 12.8507C67.6525 13.6406 67.0753 14.2212 66.4137 14.5925C65.7589 14.957 64.9386 15.1393 63.953 15.1393ZM64.439 13.195C64.9926 13.195 65.4652 13.0971 65.8567 12.9014C66.2483 12.7056 66.5588 12.4659 66.7884 12.1824C67.0247 11.8988 67.1833 11.6322 67.2643 11.3824C67.3926 11.0718 67.4635 10.7174 67.477 10.3191C67.4972 9.91405 67.5074 9.58662 67.5074 9.33683L68.2567 9.55962C67.5209 9.67438 66.8896 9.77565 66.3631 9.86341C65.8365 9.95118 65.3842 10.0356 65.0061 10.1166C64.6281 10.1908 64.2939 10.2752 64.0036 10.3697C63.7201 10.471 63.4804 10.5891 63.2846 10.7242C63.0888 10.8592 62.9369 11.0145 62.8289 11.19C62.7277 11.3655 62.677 11.5714 62.677 11.8077C62.677 12.0777 62.7445 12.3174 62.8795 12.5267C63.0146 12.7292 63.2103 12.8912 63.4669 13.0128C63.7302 13.1343 64.0542 13.195 64.439 13.195Z" fill="#CEE0E0"/>
<path d="M55.8136 14.8368V8.19377C55.8136 7.4444 55.628 6.86044 55.2567 6.44188C54.8854 6.01657 54.3824 5.80391 53.7478 5.80391C53.3563 5.80391 53.0052 5.89505 52.6947 6.07733C52.3841 6.25285 52.1377 6.51614 51.9554 6.86719C51.7731 7.21149 51.682 7.62331 51.682 8.10263L50.5985 7.46466C50.5917 6.70854 50.7605 6.04357 51.1048 5.46974C51.4559 4.88915 51.9284 4.43683 52.5225 4.11278C53.1166 3.78874 53.7782 3.62671 54.5073 3.62671C55.7157 3.62671 56.6406 3.99127 57.282 4.72037C57.9301 5.44273 58.2541 6.39462 58.2541 7.57605V14.8368H55.8136ZM42.6593 14.8368V3.90013H44.8162V7.29251H45.12V14.8368H42.6593ZM49.2516 14.8368V8.22414C49.2516 7.46128 49.066 6.86719 48.6947 6.44188C48.3234 6.01657 47.8171 5.80391 47.1757 5.80391C46.5546 5.80391 46.0551 6.01657 45.677 6.44188C45.3057 6.86719 45.12 7.42078 45.12 8.10263L44.0264 7.37352C44.0264 6.66466 44.2019 6.02669 44.5529 5.45961C44.904 4.89252 45.3766 4.44696 45.9707 4.12291C46.5715 3.79211 47.2432 3.62671 47.9858 3.62671C48.8027 3.62671 49.4846 3.80224 50.0314 4.15329C50.585 4.49759 50.9968 4.97016 51.2668 5.571C51.5436 6.16509 51.682 6.83681 51.682 7.58618V14.8368H49.2516Z" fill="#CEE0E0"/>
<path d="M34.8034 20C34.1958 20 33.6119 19.9055 33.0515 19.7165C32.4979 19.5275 31.9984 19.2541 31.5528 18.8963C31.1072 18.5452 30.7427 18.1199 30.4591 17.6203L32.7072 16.5064C32.9165 16.9047 33.2102 17.1984 33.5882 17.3874C33.973 17.5832 34.3815 17.6811 34.8135 17.6811C35.3199 17.6811 35.7722 17.5899 36.1705 17.4077C36.5688 17.2321 36.876 16.9688 37.092 16.6178C37.3148 16.2735 37.4194 15.8414 37.4059 15.3216V12.2128H37.7097V3.8989H39.8464V15.3621C39.8464 15.6389 39.8329 15.9022 39.8059 16.152C39.7857 16.4085 39.7485 16.6583 39.6945 16.9013C39.5325 17.6102 39.2219 18.1908 38.7629 18.6431C38.3038 19.1022 37.7334 19.4431 37.0515 19.6659C36.3764 19.8887 35.627 20 34.8034 20ZM34.5908 15.1393C33.5849 15.1393 32.7072 14.8862 31.9579 14.3798C31.2085 13.8735 30.6279 13.1849 30.2161 12.314C29.8043 11.4431 29.5984 10.4609 29.5984 9.36721C29.5984 8.26005 29.8043 7.2744 30.2161 6.41027C30.6347 5.53939 31.2254 4.85417 31.9882 4.35459C32.7511 3.84827 33.649 3.59511 34.6819 3.59511C35.7216 3.59511 36.5924 3.84827 37.2945 4.35459C38.0034 4.85417 38.5401 5.53939 38.9046 6.41027C39.2692 7.28115 39.4515 8.2668 39.4515 9.36721C39.4515 10.4541 39.2692 11.4364 38.9046 12.314C38.5401 13.1849 37.9966 13.8735 37.2743 14.3798C36.5519 14.8862 35.6574 15.1393 34.5908 15.1393ZM34.9654 12.952C35.6203 12.952 36.1469 12.8035 36.5452 12.5064C36.9502 12.2026 37.2439 11.7807 37.4262 11.2406C37.6152 10.7005 37.7097 10.0761 37.7097 9.36721C37.7097 8.65161 37.6152 8.02714 37.4262 7.49381C37.2439 6.95373 36.957 6.53517 36.5654 6.23812C36.1739 5.93433 35.6675 5.78243 35.0465 5.78243C34.3916 5.78243 33.8515 5.94446 33.4262 6.2685C33.0009 6.5858 32.687 7.01786 32.4844 7.5647C32.2819 8.10478 32.1806 8.70562 32.1806 9.36721C32.1806 10.0356 32.2785 10.6432 32.4743 11.19C32.6768 11.7301 32.984 12.1588 33.3958 12.4761C33.8076 12.7933 34.3308 12.952 34.9654 12.952Z" fill="#CEE0E0"/>
<path d="M24.7312 2.23796V0H27.1717V2.23796H24.7312ZM24.7312 14.8353V3.8987H27.1717V14.8353H24.7312Z" fill="#CEE0E0"/>
<path d="M19.413 14.8338V9.56802C19.413 9.22372 19.3894 8.84229 19.3422 8.42372C19.2949 8.00516 19.1835 7.60348 19.008 7.21867C18.8392 6.82711 18.5827 6.50644 18.2384 6.25665C17.9008 6.00687 17.4418 5.88197 16.8612 5.88197C16.5506 5.88197 16.2435 5.9326 15.9397 6.03387C15.6359 6.13513 15.3591 6.31066 15.1093 6.56045C14.8662 6.80348 14.6705 7.14103 14.5219 7.5731C14.3734 7.99841 14.2992 8.54524 14.2992 9.21359L12.8511 8.59588C12.8511 7.66424 13.03 6.82036 13.3878 6.06425C13.7523 5.30814 14.2857 4.7073 14.9878 4.26173C15.6899 3.80941 16.554 3.58325 17.5802 3.58325C18.3903 3.58325 19.0586 3.71827 19.5852 3.98831C20.1118 4.25835 20.5303 4.60266 20.8409 5.02122C21.1514 5.43978 21.381 5.88535 21.5295 6.35792C21.678 6.83049 21.7725 7.27943 21.813 7.70474C21.8603 8.1233 21.8839 8.46423 21.8839 8.72752V14.8338H19.413ZM11.8283 14.8338V3.89718H14.0055V7.28956H14.2992V14.8338H11.8283Z" fill="#CEE0E0"/>
<path d="M0 14.835V0.252843H9.41765V2.54143H2.44049V6.13634H8.20247V8.42493H2.44049V12.5464H9.41765V14.835H0Z" fill="#CEE0E0"/>
</svg>
