<svg width="84" height="22" viewBox="0 0 84 22" fill="none" xmlns="http://www.w3.org/2000/svg">
<path d="M75.1697 20.7759L77.388 14.6864L77.4306 16.4781L72.4076 4.13914H75.0844L78.6464 13.268H77.9639L81.4299 4.13914H84L77.5799 20.7759H75.1697Z" fill="#CEE0E0"/>
<path d="M65.3544 21.095C64.7145 21.095 64.0996 20.9954 63.5094 20.7964C62.9264 20.5973 62.4003 20.3093 61.9311 19.9325C61.4618 19.5628 61.0779 19.1149 60.7793 18.5888L63.1469 17.4157C63.3673 17.8352 63.6765 18.1444 64.0747 18.3435C64.4799 18.5497 64.9101 18.6528 65.3651 18.6528C65.8983 18.6528 66.3747 18.5568 66.7941 18.3648C67.2136 18.18 67.5371 17.9027 67.7646 17.533C67.9992 17.1704 68.1094 16.7154 68.0952 16.1679V12.8939H68.4152V4.13828H70.6654V16.2106C70.6654 16.5021 70.6512 16.7794 70.6227 17.0424C70.6014 17.3126 70.5623 17.5757 70.5054 17.8316C70.3348 18.5781 70.0077 19.1896 69.5243 19.6659C69.0408 20.1494 68.44 20.5084 67.722 20.743C67.011 20.9777 66.2218 21.095 65.3544 21.095ZM65.1305 15.976C64.0711 15.976 63.1469 15.7093 62.3577 15.1761C61.5685 14.6429 60.9571 13.9177 60.5234 13.0005C60.0897 12.0834 59.8728 11.0489 59.8728 9.89715C59.8728 8.73116 60.0897 7.69314 60.5234 6.78309C60.9642 5.86594 61.5863 5.1443 62.3897 4.61818C63.1931 4.08495 64.1387 3.81834 65.2264 3.81834C66.3213 3.81834 67.2385 4.08495 67.9779 4.61818C68.7244 5.1443 69.2897 5.86594 69.6736 6.78309C70.0575 7.70025 70.2495 8.73827 70.2495 9.89715C70.2495 11.0418 70.0575 12.0763 69.6736 13.0005C69.2897 13.9177 68.7173 14.6429 67.9566 15.1761C67.1958 15.7093 66.2538 15.976 65.1305 15.976ZM65.5251 13.6724C66.2147 13.6724 66.7693 13.516 67.1887 13.2032C67.6153 12.8832 67.9246 12.4389 68.1165 11.8701C68.3156 11.3013 68.4152 10.6437 68.4152 9.89715C68.4152 9.14352 68.3156 8.48587 68.1165 7.9242C67.9246 7.35543 67.6224 6.91462 67.2101 6.6018C66.7977 6.28186 66.2645 6.12189 65.6104 6.12189C64.9207 6.12189 64.352 6.29252 63.904 6.63379C63.4561 6.96795 63.1255 7.42297 62.9122 7.99886C62.6989 8.56763 62.5923 9.2004 62.5923 9.89715C62.5923 10.601 62.6954 11.2409 62.9016 11.8168C63.1149 12.3856 63.4384 12.837 63.872 13.1712C64.3057 13.5053 64.8567 13.6724 65.5251 13.6724Z" fill="#CEE0E0"/>
<path d="M52.4083 15.6551V4.13734H54.6798V6.94212L54.4026 6.57953C54.5448 6.1956 54.7332 5.84723 54.9678 5.5344C55.2095 5.21446 55.4975 4.9514 55.8316 4.74522C56.116 4.55326 56.4288 4.40395 56.7701 4.29731C57.1185 4.18355 57.474 4.11601 57.8366 4.09468C58.1992 4.06624 58.5511 4.08046 58.8924 4.13734V6.53687C58.5511 6.43733 58.1565 6.40534 57.7086 6.44089C57.2678 6.47644 56.8696 6.60086 56.5141 6.81415C56.1587 7.00611 55.8672 7.2514 55.6397 7.55C55.4193 7.84861 55.2557 8.18988 55.1491 8.5738C55.0424 8.95062 54.9891 9.35943 54.9891 9.80023V15.6551H52.4083Z" fill="#CEE0E0"/>
<path d="M44.8186 15.976C43.6526 15.976 42.6288 15.7236 41.7472 15.2188C40.8656 14.714 40.1759 14.0137 39.6782 13.1179C39.1877 12.222 38.9424 11.1911 38.9424 10.0251C38.9424 8.76671 39.1841 7.67536 39.6676 6.7511C40.151 5.81973 40.8229 5.09809 41.6832 4.58619C42.5434 4.07429 43.5388 3.81834 44.6693 3.81834C45.8637 3.81834 46.8768 4.09917 47.7087 4.66084C48.5476 5.2154 49.1697 6.00102 49.575 7.01771C49.9802 8.0344 50.1331 9.23239 50.0335 10.6117H47.4847V9.67319C47.4776 8.42188 47.2572 7.50828 46.8235 6.9324C46.3898 6.35651 45.7073 6.06857 44.7759 6.06857C43.7237 6.06857 42.9416 6.39561 42.4297 7.04971C41.9178 7.69669 41.6618 8.64584 41.6618 9.89715C41.6618 11.0631 41.9178 11.9661 42.4297 12.606C42.9416 13.2458 43.6881 13.5658 44.6693 13.5658C45.302 13.5658 45.8459 13.4271 46.3009 13.1498C46.7631 12.8655 47.1186 12.4567 47.3674 11.9234L49.9056 12.6913C49.4648 13.7293 48.7822 14.5362 47.858 15.1121C46.9408 15.688 45.9277 15.976 44.8186 15.976ZM40.8513 10.6117V8.67073H48.7751V10.6117H40.8513Z" fill="#CEE0E0"/>
<path d="M34.3875 15.655V10.1094C34.3875 9.74678 34.3626 9.34508 34.3129 8.90427C34.2631 8.46347 34.1458 8.04044 33.9609 7.63519C33.7832 7.22282 33.513 6.88511 33.1504 6.62205C32.7949 6.35899 32.3115 6.22746 31.7001 6.22746C31.373 6.22746 31.0495 6.28079 30.7296 6.38743C30.4096 6.49408 30.1181 6.67893 29.8551 6.94199C29.5991 7.19794 29.3929 7.55343 29.2365 8.00845C29.0801 8.45636 29.0019 9.03225 29.0019 9.73611L27.4769 9.08557C27.4769 8.10443 27.6653 7.21572 28.0421 6.41943C28.426 5.62314 28.9877 4.99037 29.7271 4.52113C30.4665 4.04478 31.3766 3.8066 32.4572 3.8066C33.3104 3.8066 34.0143 3.9488 34.5688 4.23319C35.1234 4.51758 35.5642 4.88017 35.8912 5.32097C36.2183 5.76178 36.46 6.23102 36.6164 6.7287C36.7728 7.22638 36.8724 7.69918 36.915 8.14709C36.9648 8.58789 36.9897 8.94693 36.9897 9.22421V15.655H34.3875ZM26.3998 15.655V4.13721H28.6926V7.70984H29.0019V15.655H26.3998Z" fill="#CEE0E0"/>
<path d="M15.9933 20.7759L18.2115 14.6864L18.2542 16.4781L13.2312 4.13914H15.908L19.47 13.268H18.7874L22.2534 4.13914H24.8236L18.4035 20.7759H15.9933Z" fill="#CEE0E0"/>
<path d="M6.35609 15.9758C5.23276 15.9758 4.21962 15.7802 3.31669 15.3892C2.42086 14.9982 1.68145 14.4401 1.09845 13.7149C0.522564 12.9826 0.156414 12.1152 0 11.1127L2.66615 10.7075C2.89366 11.6175 3.35934 12.3214 4.06321 12.819C4.77418 13.3167 5.5918 13.5656 6.51606 13.5656C7.06351 13.5656 7.57896 13.4803 8.06242 13.3096C8.54589 13.139 8.93692 12.8901 9.23553 12.5631C9.54125 12.2361 9.69411 11.8344 9.69411 11.358C9.69411 11.1447 9.65856 10.9492 9.58746 10.7715C9.51636 10.5866 9.40972 10.4231 9.26752 10.2809C9.13244 10.1387 8.95469 10.0107 8.73429 9.89695C8.521 9.77609 8.27216 9.673 7.98777 9.58768L4.02055 8.41458C3.67928 8.31504 3.30958 8.18351 2.91143 8.01999C2.5204 7.84936 2.14714 7.61829 1.79165 7.32679C1.44327 7.02818 1.15533 6.65137 0.927819 6.19635C0.707417 5.73421 0.597216 5.16543 0.597216 4.49001C0.597216 3.50176 0.846057 2.67348 1.34374 2.00516C1.84853 1.32974 2.52395 0.824949 3.37001 0.490793C4.22317 0.156636 5.16877 -0.00688785 6.20679 0.000222199C7.25903 0.00733141 8.19751 0.188629 9.02224 0.544116C9.84696 0.892492 10.5366 1.40084 11.0912 2.06915C11.6457 2.73746 12.0368 3.54442 12.2643 4.49001L9.50214 4.96992C9.38839 4.42958 9.16799 3.971 8.84094 3.59419C8.521 3.21026 8.12641 2.91876 7.65717 2.71969C7.19504 2.52062 6.70091 2.41397 6.17479 2.39975C5.66289 2.39264 5.18654 2.47085 4.74574 2.63437C4.31205 2.79079 3.96011 3.0183 3.68995 3.31691C3.42689 3.61552 3.29536 3.96389 3.29536 4.36204C3.29536 4.73885 3.40911 5.04812 3.63662 5.28985C3.86413 5.52448 4.14497 5.71288 4.47912 5.85508C4.82039 5.99016 5.16521 6.10392 5.51359 6.19635L8.26505 6.96419C8.64187 7.06373 9.0649 7.19882 9.53414 7.36945C10.0034 7.54008 10.4548 7.77826 10.8885 8.08398C11.3222 8.38969 11.6777 8.79139 11.955 9.28907C12.2394 9.78675 12.3816 10.4195 12.3816 11.1874C12.3816 11.9837 12.2145 12.684 11.8803 13.2883C11.5533 13.8855 11.1089 14.3832 10.5473 14.7813C9.9856 15.1795 9.34217 15.4781 8.61698 15.6772C7.8989 15.8762 7.14527 15.9758 6.35609 15.9758Z" fill="#CEE0E0"/>
</svg>
