<svg width="84" height="22" viewBox="0 0 84 22" fill="none" xmlns="http://www.w3.org/2000/svg">
<path d="M75.1697 20.7759L77.3879 14.6864L77.4306 16.4781L72.4076 4.13914H75.0844L78.6463 13.268H77.9638L81.4298 4.13914H84L77.5799 20.7759H75.1697Z" fill="#CEE0E0"/>
<path d="M65.3544 21.0949C64.7145 21.0949 64.0995 20.9954 63.5094 20.7963C62.9264 20.5973 62.4003 20.3093 61.931 19.9325C61.4618 19.5628 61.0779 19.1149 60.7793 18.5888L63.1468 17.4157C63.3672 17.8351 63.6765 18.1444 64.0746 18.3435C64.4799 18.5497 64.91 18.6528 65.365 18.6528C65.8983 18.6528 66.3746 18.5568 66.7941 18.3648C67.2136 18.18 67.5371 17.9027 67.7646 17.533C67.9992 17.1704 68.1094 16.7154 68.0952 16.1679V12.8939H68.4151V4.13827H70.6653V16.2106C70.6653 16.5021 70.6511 16.7794 70.6227 17.0424C70.6013 17.3126 70.5622 17.5756 70.5054 17.8316C70.3347 18.5781 70.0077 19.1895 69.5242 19.6659C69.0408 20.1494 68.44 20.5084 67.7219 20.743C67.0109 20.9776 66.2218 21.0949 65.3544 21.0949ZM65.1304 15.976C64.0711 15.976 63.1468 15.7093 62.3576 15.1761C61.5685 14.6429 60.957 13.9177 60.5233 13.0005C60.0896 12.0834 59.8728 11.0489 59.8728 9.89714C59.8728 8.73115 60.0896 7.69313 60.5233 6.78309C60.9641 5.86593 61.5862 5.1443 62.3896 4.61818C63.193 4.08495 64.1386 3.81834 65.2264 3.81834C66.3213 3.81834 67.2384 4.08495 67.9779 4.61818C68.7244 5.1443 69.2896 5.86593 69.6735 6.78309C70.0575 7.70024 70.2494 8.73826 70.2494 9.89714C70.2494 11.0418 70.0575 12.0763 69.6735 13.0005C69.2896 13.9177 68.7173 14.6429 67.9565 15.1761C67.1958 15.7093 66.2538 15.976 65.1304 15.976ZM65.525 13.6724C66.2146 13.6724 66.7692 13.516 67.1887 13.2032C67.6153 12.8832 67.9245 12.4389 68.1165 11.8701C68.3156 11.3013 68.4151 10.6437 68.4151 9.89714C68.4151 9.14351 68.3156 8.48587 68.1165 7.9242C67.9245 7.35542 67.6224 6.91462 67.21 6.60179C66.7976 6.28185 66.2644 6.12188 65.6103 6.12188C64.9207 6.12188 64.3519 6.29252 63.904 6.63379C63.4561 6.96794 63.1255 7.42296 62.9122 7.99885C62.6989 8.56763 62.5922 9.20039 62.5922 9.89714C62.5922 10.601 62.6953 11.2409 62.9015 11.8168C63.1148 12.3855 63.4383 12.837 63.872 13.1712C64.3057 13.5053 64.8567 13.6724 65.525 13.6724Z" fill="#CEE0E0"/>
<path d="M52.4082 15.6551V4.13733H54.6798V6.94212L54.4025 6.57952C54.5447 6.1956 54.7331 5.84722 54.9677 5.53439C55.2095 5.21446 55.4974 4.9514 55.8316 4.74522C56.116 4.55325 56.4288 4.40395 56.7701 4.2973C57.1184 4.18355 57.4739 4.11601 57.8365 4.09468C58.1991 4.06624 58.551 4.08046 58.8923 4.13733V6.53686C58.551 6.43733 58.1565 6.40533 57.7085 6.44088C57.2677 6.47643 56.8696 6.60085 56.5141 6.81414C56.1586 7.00611 55.8671 7.25139 55.6396 7.55C55.4192 7.84861 55.2557 8.18987 55.149 8.5738C55.0424 8.95061 54.9891 9.35942 54.9891 9.80022V15.6551H52.4082Z" fill="#CEE0E0"/>
<path d="M44.8185 15.976C43.6525 15.976 42.6287 15.7236 41.7471 15.2188C40.8655 14.714 40.1759 14.0137 39.6782 13.1178C39.1876 12.222 38.9423 11.1911 38.9423 10.0251C38.9423 8.7667 39.1841 7.67536 39.6675 6.75109C40.151 5.81972 40.8229 5.09809 41.6831 4.58619C42.5434 4.07429 43.5388 3.81834 44.6692 3.81834C45.8637 3.81834 46.8768 4.09917 47.7086 4.66084C48.5476 5.2154 49.1697 6.00102 49.5749 7.01771C49.9802 8.0344 50.133 9.23239 50.0335 10.6117H47.4847V9.67319C47.4776 8.42188 47.2572 7.50828 46.8235 6.93239C46.3898 6.35651 45.7072 6.06856 44.7759 6.06856C43.7236 6.06856 42.9416 6.39561 42.4297 7.0497C41.9178 7.69669 41.6618 8.64583 41.6618 9.89714C41.6618 11.0631 41.9178 11.9661 42.4297 12.6059C42.9416 13.2458 43.6881 13.5658 44.6692 13.5658C45.302 13.5658 45.8459 13.4271 46.3009 13.1498C46.763 12.8655 47.1185 12.4566 47.3674 11.9234L49.9055 12.6913C49.4647 13.7293 48.7822 14.5362 47.8579 15.1121C46.9408 15.688 45.9276 15.976 44.8185 15.976ZM40.8513 10.6117V8.67072H48.7751V10.6117H40.8513Z" fill="#CEE0E0"/>
<path d="M34.3875 15.6549V10.1094C34.3875 9.74677 34.3626 9.34507 34.3128 8.90427C34.2631 8.46346 34.1458 8.04044 33.9609 7.63518C33.7832 7.22282 33.513 6.88511 33.1504 6.62205C32.7949 6.35899 32.3115 6.22746 31.7 6.22746C31.373 6.22746 31.0495 6.28078 30.7296 6.38743C30.4096 6.49407 30.1181 6.67893 29.8551 6.94199C29.5991 7.19794 29.3929 7.55342 29.2365 8.00844C29.0801 8.45636 29.0019 9.03224 29.0019 9.7361L27.4769 9.08556C27.4769 8.10442 27.6653 7.21571 28.0421 6.41942C28.426 5.62313 28.9877 4.99037 29.7271 4.52113C30.4665 4.04478 31.3765 3.8066 32.4572 3.8066C33.3104 3.8066 34.0142 3.94879 34.5688 4.23318C35.1234 4.51757 35.5642 4.88017 35.8912 5.32097C36.2182 5.76177 36.46 6.23101 36.6164 6.72869C36.7728 7.22637 36.8723 7.69917 36.915 8.14708C36.9648 8.58788 36.9897 8.94693 36.9897 9.2242V15.6549H34.3875ZM26.3997 15.6549V4.1372H28.6926V7.70983H29.0019V15.6549H26.3997Z" fill="#CEE0E0"/>
<path d="M15.9933 20.7759L18.2115 14.6864L18.2542 16.4781L13.2312 4.13914H15.908L19.4699 13.268H18.7874L22.2534 4.13914H24.8236L18.4035 20.7759H15.9933Z" fill="#CEE0E0"/>
<path d="M6.35609 15.9758C5.23275 15.9758 4.21962 15.7802 3.31668 15.3892C2.42086 14.9982 1.68145 14.4401 1.09845 13.7149C0.522564 12.9826 0.156414 12.1152 0 11.1127L2.66614 10.7075C2.89365 11.6175 3.35934 12.3214 4.0632 12.819C4.77417 13.3167 5.59179 13.5656 6.51605 13.5656C7.0635 13.5656 7.57896 13.4802 8.06242 13.3096C8.54588 13.139 8.93691 12.8901 9.23552 12.5631C9.54124 12.236 9.6941 11.8343 9.6941 11.358C9.6941 11.1447 9.65855 10.9492 9.58745 10.7714C9.51636 10.5866 9.40971 10.4231 9.26752 10.2809C9.13243 10.1387 8.95469 10.0107 8.73429 9.89695C8.521 9.77608 8.27215 9.67299 7.98777 9.58768L4.02054 8.41457C3.67928 8.31504 3.30957 8.18351 2.91143 8.01998C2.52039 7.84935 2.14713 7.61828 1.79165 7.32679C1.44327 7.02818 1.15533 6.65136 0.927818 6.19634C0.707417 5.73421 0.597216 5.16543 0.597216 4.49001C0.597216 3.50176 0.846056 2.67347 1.34374 2.00516C1.84853 1.32974 2.52395 0.824949 3.37001 0.490793C4.22317 0.156636 5.16876 -0.00688785 6.20678 0.000222199C7.25902 0.0073314 8.1975 0.188629 9.02223 0.544115C9.84696 0.892492 10.5366 1.40084 11.0912 2.06915C11.6457 2.73746 12.0368 3.54442 12.2643 4.49001L9.50214 4.96991C9.38838 4.42957 9.16798 3.971 8.84093 3.59418C8.52099 3.21026 8.12641 2.91876 7.65716 2.71969C7.19503 2.52062 6.70091 2.41397 6.17479 2.39975C5.66289 2.39264 5.18654 2.47085 4.74574 2.63437C4.31204 2.79079 3.96011 3.0183 3.68994 3.3169C3.42688 3.61551 3.29535 3.96389 3.29535 4.36203C3.29535 4.73885 3.40911 5.04812 3.63662 5.28985C3.86413 5.52447 4.14496 5.71288 4.47912 5.85507C4.82039 5.99016 5.16521 6.10391 5.51359 6.19634L8.26505 6.96419C8.64186 7.06373 9.06489 7.19881 9.53413 7.36944C10.0034 7.54008 10.4548 7.77825 10.8885 8.08397C11.3222 8.38969 11.6777 8.79139 11.955 9.28907C12.2394 9.78675 12.3816 10.4195 12.3816 11.1874C12.3816 11.9836 12.2145 12.684 11.8803 13.2883C11.5533 13.8855 11.1089 14.3832 10.5473 14.7813C9.9856 15.1795 9.34217 15.4781 8.61698 15.6771C7.89889 15.8762 7.14527 15.9758 6.35609 15.9758Z" fill="#CEE0E0"/>
</svg>
