<svg width="30" height="30" viewBox="0 0 30 30" fill="none" xmlns="http://www.w3.org/2000/svg">
<g clip-path="url(#clip0_10_5296)">
<path d="M15.0123 15.0072C15.0123 15.0072 8.59048 22.4712 0 15.2668C0 15.2668 6.76921 7.89053 15.0123 15.0072Z" fill="#CEE0E0"/>
<path d="M15.0129 15.0106C15.0129 15.0106 5.20119 15.8107 4.14844 4.64798C4.14844 4.64798 14.1461 4.15319 15.0129 15.0106Z" fill="#CEE0E0"/>
<path d="M15.0149 15.0088C15.0149 15.0088 7.47018 8.68172 14.5622 0C14.5622 0 22.0228 6.67447 15.0149 15.0088Z" fill="#CEE0E0"/>
<path d="M15.0108 15.0095C15.0108 15.0095 14.0879 5.20835 25.2331 4.01172C25.2331 4.01172 25.8542 14.0024 15.0108 15.0095Z" fill="#CEE0E0"/>
<path d="M14.4688 14.826C14.4688 14.826 20.6975 7.20052 29.4705 14.1838C29.4705 14.1838 22.8908 21.7285 14.4688 14.826Z" fill="#CEE0E0"/>
<path d="M15.0156 15.0069C15.0156 15.0069 24.8062 13.9576 26.1432 25.0887C26.1432 25.0887 16.1596 25.8362 15.0156 15.0069Z" fill="#CEE0E0"/>
<path d="M15.0148 15.0078C15.0148 15.0078 22.7175 21.1384 15.8465 29.999C15.8465 29.999 8.21754 23.5176 15.0148 15.0078Z" fill="#CEE0E0"/>
<path d="M15.0131 15.0078C15.0131 15.0078 16.1852 24.7844 5.0716 26.2618C5.0716 26.2618 4.19781 16.2887 15.0131 15.0078Z" fill="#CEE0E0"/>
</g>
<defs>
<clipPath id="clip0_10_5296">
<rect width="29.4666" height="30" fill="white"/>
</clipPath>
</defs>
</svg>
