<svg width="32" height="30" viewBox="0 0 32 30" fill="none" xmlns="http://www.w3.org/2000/svg">
<g clip-path="url(#clip0_10_5264)">
<path d="M21.1392 29.7412C21.1392 29.8911 21.0034 29.9994 20.8534 29.9994C19.5583 29.9994 18.2811 29.9994 17 29.9994C16.4477 29.9994 16 29.5517 16 28.9994C16 24.6651 16 20.3412 16 15.9843C16 15.7607 16.2331 15.613 16.4304 15.7182C17.8938 16.5618 19.3572 17.4141 20.8207 18.2491C21.0187 18.361 21.1478 18.4643 21.1478 18.7311C21.1392 22.3983 21.1392 26.0654 21.1392 29.7412Z" fill="#CEE0E0"/>
<path d="M15.4196 12.7874C15.4196 13.5576 14.5853 14.0389 13.9184 13.6535C12.7467 12.9765 11.5954 12.3114 10.4526 11.6463C10.3665 11.5946 10.2891 11.4483 10.2891 11.345C10.2891 7.59174 10.2891 3.83852 10.2977 0.0852874C10.2977 0.0363295 10.3565 0.0078125 10.4055 0.0078125C11.7367 0.0078125 13.0733 0.0078125 14.4196 0.0078125C14.9719 0.0078125 15.4196 0.455532 15.4196 1.00782C15.4196 4.92252 15.4196 8.83057 15.4196 12.7874Z" fill="#CEE0E0"/>
<path d="M17.4786 13.6636C16.8118 14.0487 15.9773 13.5675 15.9768 12.7975C15.9759 11.4545 15.977 10.1454 15.9952 8.84062C15.9952 8.68567 16.1759 8.47046 16.3309 8.37577C19.1544 6.73158 21.9865 5.10461 24.8101 3.46902C24.9247 3.40282 25.0385 3.33662 25.1531 3.26998C25.6251 2.99555 26.2268 3.15899 26.5003 3.63154C27.0283 4.54388 27.5536 5.45672 28.0882 6.38216C28.3645 6.86051 28.2015 7.47256 27.7233 7.74921C24.3164 9.72034 20.9169 11.6779 17.4786 13.6636Z" fill="#CEE0E0"/>
<path d="M5.52356 27.1547C5.45224 27.1771 5.36788 27.1485 5.33045 27.0838C4.66417 25.9327 4.00262 24.7861 3.32934 23.6192C3.0533 23.1408 3.21733 22.5292 3.69572 22.2531C7.37145 20.1321 11.0385 18.0149 14.755 15.8667C15.0596 15.6906 15.4407 15.9104 15.4407 16.2623C15.4407 17.8721 15.4493 19.4732 15.4321 21.083C15.4321 21.2465 15.3288 21.4876 15.1996 21.5564C11.9847 23.4304 8.76123 25.2871 5.5463 27.1439C5.53711 27.1492 5.53368 27.1515 5.52356 27.1547Z" fill="#CEE0E0"/>
<path d="M17.7509 15.8703C17.084 15.4858 17.0828 14.523 17.7486 14.1365C18.4172 13.7485 19.0725 13.3684 19.7279 12.991C20.098 12.7758 20.494 12.5951 20.8384 12.3368C21.2429 12.0355 21.5701 12.0958 21.9919 12.3368C25.022 14.1101 28.0607 15.8576 31.0995 17.6137C31.2816 17.7296 31.3413 17.9685 31.2335 18.1556C30.6095 19.2388 29.9848 20.3191 29.3527 21.4135C29.0765 21.8917 28.465 22.0557 27.9867 21.7796C24.5809 19.8138 21.1875 17.8518 17.7509 15.8703Z" fill="#CEE0E0"/>
<path d="M13.6692 14.1397C14.3348 14.5248 14.3345 15.4861 13.6689 15.8712C12.4906 16.5528 11.34 17.2168 10.1808 17.8723C10.0861 17.9239 9.89675 17.9153 9.79345 17.8551C6.56533 16.0043 3.33721 14.1363 0.117694 12.2683C0.0306137 12.2247 0.0311199 12.0977 0.0798902 12.0135C0.739622 10.8736 1.39486 9.73793 2.0616 8.58241C2.33802 8.10334 2.95086 7.93971 3.42942 8.21702C6.84224 10.1947 10.237 12.1535 13.6692 14.1397Z" fill="#CEE0E0"/>
</g>
<defs>
<clipPath id="clip0_10_5264">
<rect width="31.429" height="30" fill="white"/>
</clipPath>
</defs>
</svg>
