<svg width="65" height="16" viewBox="0 0 65 16" fill="none" xmlns="http://www.w3.org/2000/svg">
<path d="M62.4456 15.338V9.89418C62.4456 9.53824 62.4212 9.14391 62.3723 8.71119C62.3235 8.27848 62.2083 7.86321 62.0269 7.46539C61.8524 7.0606 61.5872 6.72908 61.2312 6.47085C60.8823 6.21261 60.4077 6.0835 59.8075 6.0835C59.4864 6.0835 59.1689 6.13584 58.8548 6.24053C58.5407 6.34522 58.2546 6.52668 57.9963 6.78491C57.7451 7.03617 57.5427 7.38513 57.3891 7.83181C57.2356 8.2715 57.1588 8.83682 57.1588 9.52777L55.6618 8.88917C55.6618 7.92603 55.8467 7.05362 56.2166 6.27194C56.5935 5.49026 57.1449 4.8691 57.8707 4.40847C58.5966 3.94086 59.4899 3.70706 60.5508 3.70706C61.3883 3.70706 62.0792 3.84664 62.6236 4.12581C63.168 4.40498 63.6007 4.76093 63.9217 5.19364C64.2428 5.62636 64.4801 6.08699 64.6336 6.57554C64.7872 7.06409 64.8849 7.52821 64.9268 7.9679C64.9756 8.40062 65 8.75307 65 9.02526V15.338H62.4456ZM54.6044 15.338V0.262785H56.8552V8.19822H57.1588V15.338H54.6044Z" fill="#CEE0E0"/>
<path d="M52.1879 15.3374C51.4411 15.477 50.7083 15.5363 49.9894 15.5154C49.2775 15.5014 48.6389 15.3723 48.0736 15.128C47.5083 14.8768 47.0791 14.4825 46.7859 13.9451C46.5277 13.4565 46.3916 12.9575 46.3777 12.448C46.3637 11.9385 46.3567 11.3627 46.3567 10.7206V0.890332H48.8693V10.5741C48.8693 11.0277 48.8727 11.4255 48.8797 11.7675C48.8937 12.1095 48.967 12.3887 49.0996 12.605C49.3508 13.0238 49.7521 13.2576 50.3035 13.3065C50.8549 13.3553 51.483 13.3274 52.1879 13.2227V15.3374ZM44.3048 6.00963V4.031H52.1879V6.00963H44.3048Z" fill="#CEE0E0"/>
<path d="M39.9041 2.31363V0H42.4271V2.31363H39.9041ZM39.9041 15.3369V4.03053H42.4271V15.3369H39.9041Z" fill="#CEE0E0"/>
<path d="M34.41 15.3374V9.89357C34.41 9.53763 34.3855 9.1433 34.3367 8.71059C34.2878 8.27787 34.1727 7.8626 33.9912 7.46479C33.8167 7.05999 33.5515 6.72847 33.1956 6.47024C32.8466 6.21201 32.372 6.08289 31.7718 6.08289C31.4508 6.08289 31.1332 6.13523 30.8191 6.23992C30.5051 6.34461 30.2189 6.52607 29.9607 6.78431C29.7094 7.03556 29.507 7.38452 29.3535 7.8312C29.2 8.27089 29.1232 8.83621 29.1232 9.52716L27.6261 8.88856C27.6261 7.92542 27.8111 7.05301 28.181 6.27133C28.5579 5.48965 29.1092 4.8685 29.8351 4.40787C30.5609 3.94025 31.4543 3.70645 32.5151 3.70645C33.3526 3.70645 34.0436 3.84603 34.5879 4.1252C35.1323 4.40438 35.565 4.76032 35.8861 5.19303C36.2071 5.62575 36.4444 6.08638 36.598 6.57493C36.7515 7.06348 36.8492 7.5276 36.8911 7.96729C36.94 8.40001 36.9644 8.75246 36.9644 9.02465V15.3374H34.41ZM26.5688 15.3374V4.03098H28.8196V7.53807H29.1232V15.3374H26.5688Z" fill="#CEE0E0"/>
<path d="M19.441 15.6528C18.2964 15.6528 17.2914 15.405 16.426 14.9095C15.5606 14.414 14.8836 13.7265 14.395 12.8471C13.9135 11.9677 13.6727 10.9557 13.6727 9.81112C13.6727 8.57579 13.91 7.50447 14.3846 6.59716C14.8592 5.68288 15.5187 4.97448 16.3632 4.47198C17.2077 3.96947 18.1848 3.71821 19.2945 3.71821C20.467 3.71821 21.4615 3.9939 22.2781 4.54526C23.1017 5.08964 23.7124 5.86085 24.1102 6.85889C24.508 7.85692 24.6581 9.03293 24.5603 10.3869H22.0583V9.46564C22.0513 8.23729 21.8349 7.34046 21.4092 6.77514C20.9835 6.20981 20.3135 5.92715 19.3992 5.92715C18.3662 5.92715 17.5985 6.2482 17.096 6.89029C16.5935 7.52541 16.3422 8.45714 16.3422 9.68549C16.3422 10.8301 16.5935 11.7165 17.096 12.3446C17.5985 12.9727 18.3313 13.2868 19.2945 13.2868C19.9156 13.2868 20.4495 13.1507 20.8962 12.8785C21.3499 12.5993 21.6988 12.198 21.9431 11.6746L24.4347 12.4283C24.002 13.4473 23.332 14.2395 22.4247 14.8048C21.5244 15.3701 20.5298 15.6528 19.441 15.6528ZM15.5466 10.3869V8.48157H23.325V10.3869H15.5466Z" fill="#CEE0E0"/>
<path d="M0 15.338V14.9925L7.43293 2.62876H0.523446V0.262785H11.7985V0.618728L4.40741 12.9616H11.6205V15.338H0Z" fill="#CEE0E0"/>
</svg>
