<svg width="31" height="30" viewBox="0 0 31 30" fill="none" xmlns="http://www.w3.org/2000/svg">
<g clip-path="url(#clip0_10_5280)">
<path d="M19.6944 29.9191C19.6374 29.9619 19.5532 29.9097 19.5518 29.8385C19.3568 19.7934 11.6238 10.9592 0.385811 10.4916C0.238495 10.4855 0.150247 10.3034 0.254505 10.1992C3.58235 6.87134 6.91019 3.5435 10.2298 0.207424C10.4192 0.0179678 10.584 -0.0396929 10.8393 0.026205C19.5955 2.28321 25.8558 7.38205 29.0766 15.9488C29.4802 17.0196 29.7191 18.1563 30.0156 19.2684C30.0486 19.3919 29.9991 19.6061 29.9085 19.6967C26.5066 23.1069 23.1046 26.5171 19.6944 29.9191Z" fill="#CEE0E0"/>
<path d="M0.148438 15.0004C0.963923 14.1437 1.77941 13.2624 2.63608 12.4139C2.75964 12.2904 3.07265 12.2986 3.27859 12.3398C5.12373 12.6858 6.87002 13.3447 8.51746 14.2426C13.5257 17.0021 16.5323 21.2278 17.7102 26.7961C17.7761 27.1091 17.7185 27.3233 17.4878 27.5622C16.697 28.3365 15.931 29.1437 15.1484 29.9428C15.132 29.9592 15.1072 29.9675 15.0496 30.0004C14.8766 25.923 13.6081 22.2986 10.6509 19.4156C7.71022 16.549 4.11878 15.2063 0.148438 15.0004Z" fill="#CEE0E0"/>
<path d="M10.5025 29.9828C10.2883 23.2036 4.85173 19.6204 0 19.5216C0.131796 19.3815 0.214168 19.2744 0.313015 19.1756C0.988468 18.5166 1.6804 17.8659 2.33937 17.1822C2.6112 16.8939 2.86656 16.828 3.23723 16.9351C8.12191 18.3107 11.3839 21.3667 12.9654 26.2184C13.2125 26.9927 13.1631 27.5281 12.5041 28.0636C11.7957 28.6319 11.1779 29.3239 10.5025 29.9828Z" fill="#CEE0E0"/>
<path d="M5.98762 29.9158C5.78169 26.4644 3.23638 24.2404 0.015625 24.0262C0.106235 23.9191 0.18037 23.8285 0.254505 23.7462C0.962907 23.0542 1.67131 22.3705 2.37147 21.6704C2.55269 21.4809 2.7092 21.4562 2.94808 21.5468C5.69931 22.5435 7.49503 24.4793 8.50821 27.1811C8.5494 27.2799 8.53292 27.4694 8.46702 27.5353C7.63506 28.3425 6.8031 29.1333 5.98762 29.9158Z" fill="#CEE0E0"/>
</g>
<defs>
<clipPath id="clip0_10_5280">
<rect width="30.0247" height="30" fill="white"/>
</clipPath>
</defs>
</svg>
