<svg width="66" height="16" viewBox="0 0 66 16" fill="none" xmlns="http://www.w3.org/2000/svg">
<path d="M59.6028 15.4678V4.10434H61.8439V6.87154L61.5703 6.51381C61.7106 6.13502 61.8965 5.79132 62.128 5.48268C62.3665 5.16703 62.6506 4.90749 62.9802 4.70408C63.2608 4.51468 63.5694 4.36738 63.9061 4.26216C64.2498 4.14993 64.6006 4.08329 64.9583 4.06225C65.316 4.03419 65.6633 4.04822 66 4.10434V6.47172C65.6633 6.37352 65.274 6.34195 64.8321 6.37702C64.3972 6.4121 64.0043 6.53485 63.6536 6.74528C63.3029 6.93467 63.0153 7.17667 62.7908 7.47128C62.5734 7.76589 62.4121 8.10258 62.3068 8.48136C62.2016 8.85313 62.149 9.25646 62.149 9.69136V15.4678H59.6028Z" fill="#CEE0E0"/>
<path d="M50.6514 15.7825C49.8307 15.7825 49.1363 15.6282 48.5681 15.3196C48 15.0039 47.5686 14.5866 47.274 14.0675C46.9864 13.5484 46.8426 12.9768 46.8426 12.3525C46.8426 11.8053 46.9338 11.3143 47.1161 10.8794C47.2985 10.4375 47.5791 10.0587 47.9579 9.74309C48.3367 9.42042 48.8277 9.15738 49.4309 8.95396C49.8869 8.80666 50.42 8.67338 51.0302 8.55414C51.6475 8.43489 52.3139 8.32617 53.0293 8.22796C53.7518 8.12275 54.5059 8.01052 55.2915 7.89127L54.3866 8.40683C54.3937 7.62121 54.2183 7.04252 53.8606 6.67075C53.5028 6.29899 52.8996 6.1131 52.0508 6.1131C51.5388 6.1131 51.0443 6.23235 50.5673 6.47084C50.0903 6.70933 49.7571 7.11968 49.5677 7.70188L47.2529 6.97588C47.5335 6.0149 48.0666 5.24331 48.8522 4.66111C49.6449 4.07891 50.7111 3.78781 52.0508 3.78781C53.0609 3.78781 53.9482 3.95265 54.7128 4.28233C55.4844 4.61201 56.0561 5.15212 56.4278 5.90267C56.6313 6.30249 56.754 6.71284 56.7961 7.13371C56.8382 7.54756 56.8592 7.99999 56.8592 8.49101V15.4669H54.6392V13.0048L55.0074 13.4046C54.4954 14.2253 53.8956 14.8286 53.2082 15.2144C52.5278 15.5932 51.6756 15.7825 50.6514 15.7825ZM51.1565 13.7624C51.7317 13.7624 52.2227 13.6607 52.6295 13.4572C53.0364 13.2538 53.359 13.0048 53.5975 12.7102C53.843 12.4156 54.0079 12.1385 54.092 11.879C54.2253 11.5563 54.299 11.1881 54.313 10.7742C54.334 10.3533 54.3446 10.0131 54.3446 9.75361L55.1232 9.98509C54.3586 10.1043 53.7027 10.2096 53.1556 10.3007C52.6085 10.3919 52.1385 10.4796 51.7457 10.5638C51.3529 10.6409 51.0057 10.7286 50.704 10.8268C50.4094 10.932 50.1604 11.0548 49.957 11.1951C49.7536 11.3354 49.5958 11.4967 49.4835 11.6791C49.3783 11.8615 49.3257 12.0754 49.3257 12.3209C49.3257 12.6015 49.3959 12.8505 49.5361 13.0679C49.6764 13.2784 49.8798 13.4467 50.1464 13.573C50.42 13.6992 50.7567 13.7624 51.1565 13.7624Z" fill="#CEE0E0"/>
<path d="M41.7922 15.4669V0H44.3279V15.4669H41.7922Z" fill="#CEE0E0"/>
<path d="M35.8895 15.4669V0H38.4252V15.4669H35.8895Z" fill="#CEE0E0"/>
<path d="M28.185 15.7825C27.0346 15.7825 26.0245 15.5335 25.1547 15.0355C24.2849 14.5375 23.6045 13.8465 23.1135 12.9627C22.6295 12.0789 22.3875 11.0618 22.3875 9.91144C22.3875 8.66988 22.626 7.59316 23.103 6.68128C23.58 5.76238 24.2429 5.05041 25.0916 4.54537C25.9404 4.04033 26.9224 3.78781 28.0377 3.78781C29.2161 3.78781 30.2157 4.06488 31.0364 4.61902C31.8641 5.16615 32.4778 5.94125 32.8777 6.94432C33.2775 7.94739 33.4283 9.12932 33.3301 10.4901H30.8154V9.56422C30.8084 8.32967 30.5909 7.42832 30.1631 6.86014C29.7352 6.29197 29.0618 6.00789 28.1429 6.00789C27.1048 6.00789 26.3332 6.33055 25.8281 6.97588C25.3231 7.6142 25.0706 8.55063 25.0706 9.78518C25.0706 10.9355 25.3231 11.8264 25.8281 12.4577C26.3332 13.089 27.0697 13.4046 28.0377 13.4046C28.662 13.4046 29.1986 13.2679 29.6475 12.9943C30.1034 12.7137 30.4542 12.3104 30.6997 11.7843L33.2038 12.5419C32.7689 13.566 32.0956 14.3621 31.1837 14.9303C30.2788 15.4985 29.2792 15.7825 28.185 15.7825ZM24.2709 10.4901V8.57518H32.0885V10.4901H24.2709Z" fill="#CEE0E0"/>
<path d="M21.1486 15.4669C20.3981 15.6072 19.6615 15.6668 18.939 15.6458C18.2236 15.6317 17.5817 15.502 17.0136 15.2565C16.4454 15.0039 16.014 14.6076 15.7194 14.0675C15.4599 13.5765 15.3231 13.075 15.3091 12.5629C15.295 12.0508 15.288 11.4722 15.288 10.8268V0.946953H17.8132V10.6795C17.8132 11.1355 17.8167 11.5353 17.8237 11.879C17.8378 12.2227 17.9114 12.5033 18.0447 12.7207C18.2972 13.1416 18.7006 13.3766 19.2547 13.4257C19.8088 13.4748 20.4401 13.4467 21.1486 13.3415V15.4669ZM13.2258 6.09206V4.10346H21.1486V6.09206H13.2258Z" fill="#CEE0E0"/>
<path d="M6.27093 15.7814C5.16265 15.7814 4.16308 15.5885 3.27225 15.2028C2.38842 14.817 1.65892 14.2663 1.08373 13.5508C0.515563 12.8284 0.154318 11.9726 0 10.9836L2.63042 10.5837C2.85489 11.4816 3.31433 12.176 4.00877 12.667C4.71021 13.158 5.51687 13.4035 6.42875 13.4035C6.96887 13.4035 7.47742 13.3194 7.9544 13.151C8.43138 12.9827 8.81718 12.7372 9.11179 12.4145C9.41341 12.0918 9.56422 11.6955 9.56422 11.2256C9.56422 11.0151 9.52915 10.8222 9.459 10.6469C9.38886 10.4645 9.28364 10.3032 9.14335 10.1629C9.01008 10.0226 8.83472 9.89631 8.61727 9.78408C8.40683 9.66483 8.16133 9.56312 7.88075 9.47895L3.96668 8.32156C3.62998 8.22336 3.26523 8.09359 2.87242 7.93226C2.48663 7.76391 2.11837 7.53594 1.76764 7.24835C1.42394 6.95374 1.13985 6.58198 0.915387 6.13305C0.697939 5.67711 0.589215 5.11595 0.589215 4.44958C0.589215 3.47457 0.834721 2.65738 1.32573 1.99803C1.82376 1.33165 2.49013 0.833625 3.32486 0.503945C4.16659 0.174265 5.09951 0.0129326 6.12363 0.0199474C7.16177 0.0269614 8.08768 0.20583 8.90135 0.556554C9.71503 0.900263 10.3954 1.4018 10.9426 2.06116C11.4897 2.72052 11.8755 3.51666 12.0999 4.44958L9.37483 4.92306C9.2626 4.38996 9.04515 3.93752 8.72248 3.56576C8.40683 3.18698 8.01753 2.89938 7.55458 2.70298C7.09864 2.50657 6.61113 2.40136 6.09206 2.38733C5.58702 2.38031 5.11705 2.45747 4.68215 2.61881C4.25427 2.77312 3.90706 2.99759 3.64051 3.29219C3.38097 3.5868 3.2512 3.93051 3.2512 4.32332C3.2512 4.69509 3.36343 5.00022 3.5879 5.23871C3.81236 5.47018 4.08943 5.65607 4.41911 5.79636C4.75581 5.92963 5.09601 6.04186 5.43972 6.13305L8.15431 6.89061C8.52608 6.98882 8.94344 7.12209 9.40639 7.29044C9.86935 7.45879 10.3148 7.69377 10.7427 7.99539C11.1705 8.29701 11.5213 8.69333 11.7948 9.18434C12.0754 9.67536 12.2157 10.2996 12.2157 11.0572C12.2157 11.8428 12.0508 12.5337 11.7212 13.13C11.3985 13.7192 10.9601 14.2102 10.406 14.603C9.85181 14.9958 9.217 15.2904 8.50153 15.4868C7.79307 15.6832 7.04954 15.7814 6.27093 15.7814Z" fill="#CEE0E0"/>
</svg>
